<svg xmlns="http://www.w3.org/2000/svg" width="58" height="57" viewBox="0 0 58 57">
    <defs>
        <style>
            .cls-1{fill:#fff;stroke:#9b9b9b;stroke-width:.5px}.cls-2{fill:#518be2}.cls-3{stroke:none}.cls-4{fill:none}
        </style>
    </defs>
    <g id="btn_sms" transform="translate(-155 -397)">
        <g id="그룹_15" data-name="그룹 15" transform="translate(-9 -15)">
            <g id="타원_71" class="cls-1" data-name="타원 71" transform="translate(164 412)">
                <ellipse cx="29" cy="28.5" class="cls-3" rx="29" ry="28.5"/>
                <ellipse cx="29" cy="28.5" class="cls-4" rx="28.75" ry="28.25"/>
            </g>
            <path id="패스_332" d="M1795.137 306.511c-8.207 0-14.86 5.251-14.86 11.728 0 4.151 2.732 7.8 6.854 9.882-.288 1.157-1.258 5.034-1.362 5.295a.42.42 0 0 0 .648.45l6.13-4.077a18.826 18.826 0 0 0 2.59.178c8.207 0 14.86-5.251 14.86-11.728s-6.654-11.728-14.86-11.728zm-3.937 13.519a2.017 2.017 0 0 1-.064.3 1.775 1.775 0 0 1-.635.928 3.082 3.082 0 0 1-1.087.541 3.657 3.657 0 0 1-1.261.119 2.826 2.826 0 0 1-1.157-.328 2.087 2.087 0 0 1-.546-.437 2.655 2.655 0 0 1-.387-.576.666.666 0 0 1-.074-.253.706.706 0 0 1 .025-.278.64.64 0 0 1 .129-.238.464.464 0 0 1 .248-.144 1.145 1.145 0 0 1 .223-.02.864.864 0 0 1 .243.035.681.681 0 0 1 .218.109.519.519 0 0 1 .159.2 1.294 1.294 0 0 0 .313.382 1.98 1.98 0 0 0 .432.283 1.739 1.739 0 0 0 .66.089 1.628 1.628 0 0 0 .606-.149 1.168 1.168 0 0 0 .442-.352.826.826 0 0 0 .169-.511.958.958 0 0 0-.069-.392.719.719 0 0 0-.194-.258 1.085 1.085 0 0 0-.3-.174 2.764 2.764 0 0 0-.382-.119 3.966 3.966 0 0 0-.482-.069q-.243-.02-.491-.05t-.487-.079a2.383 2.383 0 0 1-.467-.149 1.43 1.43 0 0 1-.7-.576 1.945 1.945 0 0 1-.283-.834 2.1 2.1 0 0 1 .1-.889 1.734 1.734 0 0 1 1.236-1.172 4.2 4.2 0 0 1 .978-.144 4.6 4.6 0 0 1 .6.02 4.209 4.209 0 0 1 .586.1 3.082 3.082 0 0 1 .526.179 1.83 1.83 0 0 1 .422.258 1.522 1.522 0 0 1 .258.263 1.309 1.309 0 0 1 .2.348.7.7 0 0 1 .045.353.415.415 0 0 1-.213.288.477.477 0 0 1-.3.084.682.682 0 0 1-.273-.089 1.774 1.774 0 0 1-.248-.174q-.119-.1-.218-.179a1.551 1.551 0 0 0-.665-.268 2.615 2.615 0 0 0-.745-.03 1.938 1.938 0 0 0-.407.1 1 1 0 0 0-.323.189.818.818 0 0 0-.208.293.8.8 0 0 0-.055.392.477.477 0 0 0 .094.268.676.676 0 0 0 .209.179 1.17 1.17 0 0 0 .273.109 2.347 2.347 0 0 0 .3.06q.447.06.894.089a2.887 2.887 0 0 1 .874.2 2.283 2.283 0 0 1 .745.457 1.761 1.761 0 0 1 .511 1.008 2.52 2.52 0 0 1 0 .705zm7.164 1.157q-.01.119-.03.248a.918.918 0 0 1-.069.238.465.465 0 0 1-.387.288.546.546 0 0 1-.268.03.917.917 0 0 1-.238-.069.568.568 0 0 1-.2-.213 1.033 1.033 0 0 1-.094-.263 1.361 1.361 0 0 1-.03-.288V320.1l-.01-1.519v-.412q0-.074-.005-.169v-.273-.1c0-.045 0-.184-.015-.4q-.387.645-.64 1.037a7.179 7.179 0 0 1-.427.606 1.233 1.233 0 0 1-.3.288.621.621 0 0 1-.268.084.271.271 0 0 1-.159-.03.846.846 0 0 1-.154-.1 1.645 1.645 0 0 1-.139-.124.8.8 0 0 1-.1-.124q-.238-.3-.536-.715a9.187 9.187 0 0 1-.616-1.013l-.005.328q-.005.318-.005.789v1.013q0 .541-.01 1.008-.005.467-.015.779a1.853 1.853 0 0 1-.02.313.638.638 0 0 1-.079.313.661.661 0 0 1-.214.233.615.615 0 0 1-.313.1.752.752 0 0 1-.387-.1.488.488 0 0 1-.194-.228 1.139 1.139 0 0 1-.084-.278q-.01-.139-.015-.268c0-.086-.005-.175-.005-.268l.01-.775.01-1.529v-1.331q0-.864.06-1.7a.792.792 0 0 1 .025-.2 1.167 1.167 0 0 1 .065-.184.569.569 0 0 1 .209-.238.606.606 0 0 1 .318-.089h.134c.043 0 .085.008.124.015a.563.563 0 0 1 .343.233 3.9 3.9 0 0 0 .273.333 2.347 2.347 0 0 1 .169.219q.09.129.179.268t.169.268l.139.228q.258.417.462.765t.382.6a.742.742 0 0 0 .069-.084l.085-.119a1.678 1.678 0 0 0 .134-.224q.1-.159.2-.313t.214-.328q.114-.174.238-.382t.293-.477q.07-.119.179-.288a2.82 2.82 0 0 1 .248-.328 1.881 1.881 0 0 1 .293-.273.521.521 0 0 1 .313-.114h.139c.039 0 .079.008.119.015a.389.389 0 0 1 .228.109.563.563 0 0 1 .119.169 1.239 1.239 0 0 1 .05.218q.01.07.015.129c0 .04.005.079.005.119q0 .556.01 1.1t.01 1.1v1.39q0 .715.005 1.39 0 .139.01.3a2.554 2.554 0 0 1-.018.324zm6.022-1.157a2 2 0 0 1-.065.3 1.773 1.773 0 0 1-.636.928 3.078 3.078 0 0 1-1.087.541 3.659 3.659 0 0 1-1.261.119 2.827 2.827 0 0 1-1.157-.328 2.094 2.094 0 0 1-.546-.437 2.641 2.641 0 0 1-.387-.576.664.664 0 0 1-.074-.253.708.708 0 0 1 .025-.278.636.636 0 0 1 .129-.238.463.463 0 0 1 .248-.144 1.149 1.149 0 0 1 .224-.02.864.864 0 0 1 .243.035.679.679 0 0 1 .218.109.523.523 0 0 1 .159.2 1.289 1.289 0 0 0 .313.382 1.976 1.976 0 0 0 .432.283 1.74 1.74 0 0 0 .66.089 1.627 1.627 0 0 0 .606-.149 1.169 1.169 0 0 0 .442-.352.827.827 0 0 0 .169-.511.958.958 0 0 0-.069-.392.722.722 0 0 0-.194-.258 1.088 1.088 0 0 0-.3-.174 2.745 2.745 0 0 0-.382-.119 3.96 3.96 0 0 0-.481-.069q-.244-.02-.492-.05t-.487-.079a2.385 2.385 0 0 1-.467-.149 1.429 1.429 0 0 1-.7-.576 1.94 1.94 0 0 1-.283-.834 2.1 2.1 0 0 1 .1-.889 1.734 1.734 0 0 1 1.236-1.172 4.2 4.2 0 0 1 .978-.144 4.6 4.6 0 0 1 .6.02 4.212 4.212 0 0 1 .586.1 3.086 3.086 0 0 1 .526.179 1.823 1.823 0 0 1 .422.258 1.513 1.513 0 0 1 .258.263 1.31 1.31 0 0 1 .2.348.7.7 0 0 1 .045.353.416.416 0 0 1-.213.288.477.477 0 0 1-.3.084.682.682 0 0 1-.273-.089 1.753 1.753 0 0 1-.248-.174q-.119-.1-.219-.179a1.551 1.551 0 0 0-.665-.268 2.615 2.615 0 0 0-.745-.03 1.94 1.94 0 0 0-.407.1 1 1 0 0 0-.323.189.819.819 0 0 0-.209.293.8.8 0 0 0-.055.392.476.476 0 0 0 .094.268.677.677 0 0 0 .208.179 1.168 1.168 0 0 0 .273.109 2.341 2.341 0 0 0 .3.06q.447.06.894.089a2.888 2.888 0 0 1 .874.2 2.28 2.28 0 0 1 .745.457 1.755 1.755 0 0 1 .511 1.008 2.507 2.507 0 0 1 0 .705z" class="cls-2" data-name="패스 332" transform="translate(-1602.137 121.798)"/>
        </g>
    </g>
</svg>
