<svg xmlns="http://www.w3.org/2000/svg" width="58" height="57" viewBox="0 0 58 57">
    <defs>
        <style>
            .cls-1{fill:#fff;stroke:#9b9b9b;stroke-width:.5px}.cls-2{fill:#43331b}.cls-3{stroke:none}.cls-4{fill:none}
        </style>
    </defs>
    <g id="btn_kakao" transform="translate(-63 -397)">
        <g id="그룹_16" data-name="그룹 16" transform="translate(-9 -15)">
            <g id="타원_70" class="cls-1" data-name="타원 70" transform="translate(72 412)">
                <ellipse cx="29" cy="28.5" class="cls-3" rx="29" ry="28.5"/>
                <ellipse cx="29" cy="28.5" class="cls-4" rx="28.75" ry="28.25"/>
            </g>
            <g id="그룹_9" data-name="그룹 9" transform="translate(86.86 428.048)">
                <g id="그룹_8" data-name="그룹 8">
                    <path id="패스_330" d="M1080.5 306.511c-8.207 0-14.86 5.251-14.86 11.728 0 4.151 2.732 7.8 6.855 9.882-.289 1.157-1.258 5.034-1.362 5.294a.42.42 0 0 0 .648.45l6.13-4.077a18.818 18.818 0 0 0 2.589.178c8.207 0 14.86-5.251 14.86-11.728s-6.66-11.727-14.86-11.727zm-7.6 14.989a.661.661 0 1 1-1.323 0v-5.267h-1.641a.661.661 0 1 1 0-1.323h2.235a.679.679 0 0 1 .135 0h2.235a.661.661 0 0 1 0 1.323h-1.641zm7.233.582a.662.662 0 0 1-.866-.354l-.479-1.14h-2.8l-.467 1.135a.661.661 0 0 1-1.224-.5l2.456-5.973a.661.661 0 0 1 .609-.41.661.661 0 0 1 .61.4l2.511 5.973a.661.661 0 0 1-.35.87zm4.479-.051h-2.7a.661.661 0 0 1-.661-.661v-5.925a.661.661 0 1 1 1.323 0v5.264h2.04a.661.661 0 0 1 0 1.323zm6.341-.065a.661.661 0 0 1-.926-.13l-2.125-2.82-.535.534a.661.661 0 0 1-.1.08v1.924a.661.661 0 0 1-1.323 0v-6.171a.661.661 0 0 1 1.323 0v2.395l2.739-2.739a.661.661 0 1 1 .935.935l-2.1 2.1 2.237 2.969a.661.661 0 0 1-.126.924z" class="cls-2" data-name="패스 330" transform="translate(-1065.638 -306.511)"/>
                    <path id="패스_331" d="M1156.238 397.567h1.645l-.831-1.978z" class="cls-2" data-name="패스 331" transform="translate(-1145.322 -384.85)"/>
                </g>
            </g>
        </g>
    </g>
</svg>
