<svg xmlns="http://www.w3.org/2000/svg" width="17" height="17" viewBox="0 0 17 17">
    <defs>
        <style>
            .cls-1,.cls-4{fill:none}.cls-1{stroke:#05abe1;stroke-width:1.5px}.cls-2{fill:#05abe1}.cls-3{stroke:none}
        </style>
    </defs>
    <g id="icon_point" transform="translate(-21 -199)">
        <g id="타원_70" class="cls-1" data-name="타원 70" transform="translate(21 199)">
            <circle cx="8.5" cy="8.5" r="8.5" class="cls-3"/>
            <circle cx="8.5" cy="8.5" r="7.75" class="cls-4"/>
        </g>
        <g id="그룹_371" data-name="그룹 371" transform="translate(27.263 203.621)">
            <path id="패스_343" d="M5.109.747a2.48 2.48 0 0 1 .658.982 2.707 2.707 0 0 1 .167 1.14 2.264 2.264 0 0 1-.344.992 1.79 1.79 0 0 1-.894.688 4.4 4.4 0 0 1-.933.285 9.46 9.46 0 0 1-1.012.128 3.668 3.668 0 0 1-.422.029c-.118 0-.246.01-.393.02h-.158a.654.654 0 0 0-.157.01v2.446a7.474 7.474 0 0 1-.1.452.585.585 0 0 1-.275.373.648.648 0 0 1-.314.079c-.118 0-.236 0-.344-.01a.905.905 0 0 1-.275-.088.475.475 0 0 1-.187-.236Q.084 7.934.039 7.8A1.113 1.113 0 0 1 0 7.467V.943A.794.794 0 0 1 .01.786.771.771 0 0 0 .029.648a.486.486 0 0 0 .04-.127.486.486 0 0 1 .039-.128A1.153 1.153 0 0 1 .157.285.636.636 0 0 1 .236.2.467.467 0 0 1 .422.088 1.16 1.16 0 0 1 .786.049h.02C1.051.03 1.317.02 1.621.01a5.952 5.952 0 0 1 .747.01 1.765 1.765 0 0 0 .3.029 2.589 2.589 0 0 1 .275.02L3.232.1a2.835 2.835 0 0 1 .285.039l.216.029L3.94.2c.059.02.128.029.206.049a.77.77 0 0 1 .206.088 1.139 1.139 0 0 1 .413.177c.108.066.226.144.344.233zM4.4 2.692a.887.887 0 0 0-.107-.492 1.071 1.071 0 0 0-.344-.354 2.28 2.28 0 0 0-.521-.236 5.681 5.681 0 0 0-.56-.118 1.607 1.607 0 0 1-.2-.01c-.079 0-.167-.01-.265-.01s-.187-.01-.265-.01-.147-.01-.2-.01h-.317c.01.246.01.481.01.7v.727c-.01.138-.02.285-.02.422v.413l.727-.01a5.007 5.007 0 0 0 .629-.039 2.819 2.819 0 0 0 .648-.138 1.431 1.431 0 0 0 .521-.3.813.813 0 0 0 .264-.535z" class="cls-2" data-name="패스 343" transform="translate(0 -.003)"/>
        </g>
    </g>
</svg>
