<svg xmlns="http://www.w3.org/2000/svg" width="320" height="162.403" viewBox="0 0 320 162.403">
    <defs>
        <style>
            .cls-1{fill:#eb9d00}.cls-2{fill:#fb0}.cls-3{fill:#e68403}.cls-4{fill:#ffbd06}.cls-5{fill:#ffd664}.cls-6{fill:#ffa200}.cls-7{fill:#ffd560}.cls-8{fill:#ffebb2}.cls-16{fill:#ffde71}.cls-17{fill:#fff}.cls-18{fill:#cd6302}.cls-20{fill:#fcedc3}.cls-22{fill:#fff1cb}.cls-27{fill:#ff8b8b}.cls-28{fill:#f5dd7c}.cls-29{fill:#41e8af}.cls-30{fill:#72b2fb}.cls-31{fill:#ffa033}
        </style>
    </defs>
    <g id="img_1000cash" transform="translate(-20 -196)">
        <g id="그룹_70" transform="translate(0 11)">
            <g id="그룹_69">
                <g id="그룹_45" transform="translate(138 -6)">
                    <rect id="사각형_226" width="29" height="7" class="cls-1" rx="2" transform="translate(89 340)"/>
                    <rect id="사각형_225" width="29" height="7" class="cls-1" rx="2" transform="translate(89 332)"/>
                    <rect id="사각형_222" width="29" height="7" class="cls-1" rx="2" transform="translate(89 324)"/>
                    <rect id="사각형_223" width="29" height="7" class="cls-1" rx="2" transform="translate(89 316)"/>
                    <rect id="사각형_224" width="29" height="7" class="cls-1" rx="2" transform="translate(89 308)"/>
                </g>
                <g id="그룹_52" transform="translate(180 -6)">
                    <rect id="사각형_226-2" width="29" height="7" class="cls-1" rx="2" transform="translate(89 340)"/>
                    <rect id="사각형_225-2" width="29" height="7" class="cls-1" rx="2" transform="translate(89 332)"/>
                    <rect id="사각형_222-2" width="29" height="7" class="cls-1" rx="2" transform="translate(89 324)"/>
                </g>
                <g id="그룹_42" transform="translate(138 -7)">
                    <rect id="사각형_226-3" width="29" height="7" class="cls-2" rx="2" transform="translate(89 340)"/>
                    <rect id="사각형_225-3" width="29" height="7" class="cls-2" rx="2" transform="translate(89 332)"/>
                    <rect id="사각형_222-3" width="29" height="7" class="cls-2" rx="2" transform="translate(89 324)"/>
                    <rect id="사각형_223-2" width="29" height="7" class="cls-2" rx="2" transform="translate(89 316)"/>
                    <rect id="사각형_224-2" width="29" height="7" class="cls-2" rx="2" transform="translate(89 308)"/>
                </g>
                <g id="그룹_53" transform="translate(180 -7)">
                    <rect id="사각형_226-4" width="29" height="7" class="cls-2" rx="2" transform="translate(89 340)"/>
                    <rect id="사각형_225-4" width="29" height="7" class="cls-2" rx="2" transform="translate(89 332)"/>
                    <rect id="사각형_222-4" width="29" height="7" class="cls-2" rx="2" transform="translate(89 324)"/>
                </g>
                <g id="그룹_46" transform="translate(175 -7)">
                    <rect id="사각형_217" width="29" height="7" class="cls-3" rx="2" transform="translate(70 340)"/>
                    <rect id="사각형_218" width="29" height="7" class="cls-3" rx="2" transform="translate(70 332)"/>
                    <rect id="사각형_219" width="29" height="7" class="cls-3" rx="2" transform="translate(70 324)"/>
                    <rect id="사각형_220" width="29" height="7" class="cls-3" rx="2" transform="translate(70 316)"/>
                    <rect id="사각형_221" width="29" height="7" class="cls-3" rx="2" transform="translate(70 308)"/>
                </g>
                <g id="그룹_51" transform="translate(181 -7)">
                    <rect id="사각형_217-2" width="29" height="7" class="cls-3" rx="2" transform="translate(70 340)"/>
                    <rect id="사각형_218-2" width="29" height="7" class="cls-3" rx="2" transform="translate(70 332)"/>
                    <rect id="사각형_219-2" width="29" height="7" class="cls-3" rx="2" transform="translate(70 324)"/>
                </g>
                <g id="그룹_47" transform="translate(159 -6)">
                    <rect id="사각형_226-5" width="29" height="7" class="cls-1" rx="2" transform="translate(89 340)"/>
                    <rect id="사각형_225-5" width="29" height="7" class="cls-1" rx="2" transform="translate(89 332)"/>
                    <rect id="사각형_222-5" width="29" height="7" class="cls-1" rx="2" transform="translate(89 324)"/>
                    <rect id="사각형_223-3" width="29" height="7" class="cls-1" rx="2" transform="translate(89 316)"/>
                    <rect id="사각형_224-3" width="29" height="7" class="cls-1" rx="2" transform="translate(89 308)"/>
                    <rect id="사각형_227" width="29" height="7" class="cls-1" rx="2" transform="translate(89 300)"/>
                    <rect id="사각형_228" width="29" height="7" class="cls-1" rx="2" transform="translate(89 292)"/>
                </g>
                <g id="그룹_48" transform="translate(159 -7)">
                    <rect id="사각형_226-6" width="29" height="7" class="cls-4" rx="2" transform="translate(89 340)"/>
                    <rect id="사각형_225-6" width="29" height="7" class="cls-4" rx="2" transform="translate(89 332)"/>
                    <rect id="사각형_222-6" width="29" height="7" class="cls-4" rx="2" transform="translate(89 324)"/>
                    <rect id="사각형_223-4" width="29" height="7" class="cls-4" rx="2" transform="translate(89 316)"/>
                    <rect id="사각형_224-4" width="29" height="7" class="cls-4" rx="2" transform="translate(89 308)"/>
                    <rect id="사각형_227-2" width="29" height="7" class="cls-4" rx="2" transform="translate(89 300)"/>
                    <rect id="사각형_228-2" width="29" height="7" class="cls-4" rx="2" transform="translate(89 292)"/>
                </g>
                <g id="그룹_49" transform="translate(159 -7)">
                    <rect id="사각형_226-7" width="15" height="7" class="cls-5" rx="2" transform="translate(89 340)"/>
                    <rect id="사각형_225-7" width="15" height="7" class="cls-5" rx="2" transform="translate(89 332)"/>
                    <rect id="사각형_222-7" width="15" height="7" class="cls-5" rx="2" transform="translate(89 324)"/>
                    <rect id="사각형_223-5" width="15" height="7" class="cls-5" rx="2" transform="translate(89 316)"/>
                    <rect id="사각형_224-5" width="15" height="7" class="cls-5" rx="2" transform="translate(89 308)"/>
                    <rect id="사각형_227-3" width="15" height="7" class="cls-5" rx="2" transform="translate(89 300)"/>
                    <rect id="사각형_228-3" width="15" height="7" class="cls-5" rx="2" transform="translate(89 292)"/>
                </g>
                <g id="그룹_55" transform="translate(199.333 -7)">
                    <rect id="사각형_226-8" width="9" height="7" class="cls-6" rx="2" transform="translate(89.667 340)"/>
                    <rect id="사각형_225-8" width="9" height="7" class="cls-6" rx="2" transform="translate(89.667 332)"/>
                    <rect id="사각형_222-8" width="9" height="7" class="cls-6" rx="2" transform="translate(89.667 324)"/>
                </g>
                <g id="그룹_43" transform="translate(138 -7)">
                    <rect id="사각형_226-9" width="11" height="7" class="cls-7" rx="2" transform="translate(89 340)"/>
                    <rect id="사각형_225-9" width="11" height="7" class="cls-7" rx="2" transform="translate(89 332)"/>
                    <rect id="사각형_222-9" width="11" height="7" class="cls-7" rx="2" transform="translate(89 324)"/>
                    <rect id="사각형_223-6" width="11" height="7" class="cls-7" rx="2" transform="translate(89 316)"/>
                    <rect id="사각형_224-6" width="11" height="7" class="cls-7" rx="2" transform="translate(89 308)"/>
                </g>
                <g id="그룹_50" transform="translate(162.5 -7)">
                    <rect id="사각형_226-10" width="6" height="7" class="cls-8" rx="2" transform="translate(89.5 340)"/>
                    <rect id="사각형_225-10" width="6" height="7" class="cls-8" rx="2" transform="translate(89.5 332)"/>
                    <rect id="사각형_222-10" width="6" height="7" class="cls-8" rx="2" transform="translate(89.5 324)"/>
                    <rect id="사각형_223-7" width="6" height="7" class="cls-8" rx="2" transform="translate(89.5 316)"/>
                    <rect id="사각형_224-7" width="6" height="7" class="cls-8" rx="2" transform="translate(89.5 308)"/>
                    <rect id="사각형_227-4" width="6" height="7" class="cls-8" rx="2" transform="translate(89.5 300)"/>
                    <rect id="사각형_228-4" width="6" height="7" class="cls-8" rx="2" transform="translate(89.5 292)"/>
                </g>
                <g id="그룹_54" opacity="0.62" transform="translate(191.5 -7)">
                    <rect id="사각형_226-11" width="3" height="7" class="cls-8" rx="1.5" transform="translate(89.5 340)"/>
                    <rect id="사각형_225-11" width="3" height="7" class="cls-8" rx="1.5" transform="translate(89.5 332)"/>
                    <rect id="사각형_222-11" width="3" height="7" class="cls-8" rx="1.5" transform="translate(89.5 324)"/>
                </g>
                <g id="그룹_44" transform="translate(139.5 -7)">
                    <rect id="사각형_223-8" width="4" height="7" class="cls-8" rx="2" transform="translate(89.5 316)"/>
                    <rect id="사각형_224-8" width="4" height="7" class="cls-8" rx="2" transform="translate(89.5 308)"/>
                </g>
                <g id="그룹_58" transform="translate(133.333 -7)">
                    <rect id="사각형_226-12" width="9" height="7" class="cls-3" rx="2" transform="translate(89.667 340)"/>
                    <rect id="사각형_225-12" width="9" height="7" class="cls-3" rx="2" transform="translate(89.667 332)"/>
                    <rect id="사각형_222-12" width="9" height="7" class="cls-3" rx="2" transform="translate(89.667 324)"/>
                </g>
                <g id="그룹_56" transform="translate(111 -6)">
                    <rect id="사각형_226-13" width="29" height="7" class="cls-1" rx="2" transform="translate(89 340)"/>
                    <rect id="사각형_225-13" width="29" height="7" class="cls-1" rx="2" transform="translate(89 332)"/>
                    <rect id="사각형_222-13" width="29" height="7" class="cls-1" rx="2" transform="translate(89 324)"/>
                </g>
                <g id="그룹_57" transform="translate(111 -7)">
                    <rect id="사각형_226-14" width="29" height="7" class="cls-2" rx="2" transform="translate(89 340)"/>
                    <rect id="사각형_225-14" width="29" height="7" class="cls-2" rx="2" transform="translate(89 332)"/>
                    <rect id="사각형_222-14" width="29" height="7" class="cls-2" rx="2" transform="translate(89 324)"/>
                </g>
                <g id="그룹_59" transform="translate(111.833 -7)">
                    <rect id="사각형_226-15" width="14" height="7" class="cls-5" rx="2" transform="translate(89.167 340)"/>
                    <rect id="사각형_225-15" width="14" height="7" class="cls-5" rx="2" transform="translate(89.167 332)"/>
                    <rect id="사각형_222-15" width="14" height="7" class="cls-5" rx="2" transform="translate(89.167 324)"/>
                </g>
                <g id="그룹_60" transform="translate(113.833 -7)">
                    <rect id="사각형_226-16" width="6" height="7" class="cls-8" rx="2" transform="translate(89.167 340)"/>
                    <rect id="사각형_225-16" width="6" height="7" class="cls-8" rx="2" transform="translate(89.167 332)"/>
                    <rect id="사각형_222-16" width="6" height="7" class="cls-8" rx="2" transform="translate(89.167 324)"/>
                </g>
                <g id="그룹_61" opacity="0.65" transform="translate(203.167 -7)">
                    <rect id="사각형_226-17" width="4" height="7" class="cls-3" rx="2" transform="translate(89.833 340)"/>
                    <rect id="사각형_225-17" width="4" height="7" class="cls-3" rx="2" transform="translate(89.833 332)"/>
                    <rect id="사각형_222-17" width="4" height="7" class="cls-3" rx="2" transform="translate(89.833 324)"/>
                </g>
            </g>
            <path id="line" fill="none" stroke="#8f532a" d="M0 0L320 0" transform="translate(20 341.5)"/>
            <g id="그룹_67" transform="translate(-1)">
                <circle id="타원_73" cx="62" cy="62" r="62" fill="#e1e1e1" transform="translate(122 194)"/>
                <circle id="타원_69" cx="62" cy="62" r="62" fill="#f1931b" transform="translate(118 189)"/>
                <circle id="타원_1" cx="62" cy="62" r="62" class="cls-4" transform="translate(116 185)"/>
                <circle id="타원_79" cx="52.5" cy="52.5" r="52.5" fill="#fff2c5" transform="translate(127 196)"/>
                <circle id="타원_78" cx="52.5" cy="52.5" r="52.5" fill="#f39823" transform="translate(125 194)"/>
                <circle id="타원_2" cx="52.5" cy="52.5" r="52.5" class="cls-16" transform="translate(126 195)"/>
                <g id="그룹_17" transform="translate(-1 35)">
                    <path id="패스_414" d="M-26.55-18.444q.2-.058.377-.1t.348-.073a2.277 2.277 0 0 1 .507-.073 2.846 2.846 0 0 1 .58.029 1.662 1.662 0 0 1 .522.174.8.8 0 0 1 .362.392 2.616 2.616 0 0 1 .16.681 7.218 7.218 0 0 1 .044.8q0 .406-.015.8t-.014.71V-.29q0 .319.014.653a5.384 5.384 0 0 1-.014.682 1.865 1.865 0 0 1-.174.653 1.29 1.29 0 0 1-.435.508 1.776 1.776 0 0 1-1.087.333 3.322 3.322 0 0 1-1.175-.16.859.859 0 0 1-.623-.667 4.878 4.878 0 0 1-.1-.986q-.2-3.828-.188-7.5t.014-7.555q-.058.145-.391.261a6.015 6.015 0 0 1-.754.2q-.42.087-.8.145a4.222 4.222 0 0 1-.493.058 2.817 2.817 0 0 1-1.378-.16 1.226 1.226 0 0 1-.711-1.146 1.627 1.627 0 0 1 .42-1.45 3.368 3.368 0 0 1 1.378-.783q.928-.319 1.813-.652t1.813-.588zm14.79 20.851a7.9 7.9 0 0 1-1.059-.072 4.619 4.619 0 0 1-1.058-.276A6.617 6.617 0 0 1-15.37 1.2 8.464 8.464 0 0 1-16.661 0a10.66 10.66 0 0 1-2.117-3.7 13.379 13.379 0 0 1-.722-4.333 15.149 15.149 0 0 1 1.16-5.829 7.686 7.686 0 0 1 .537-1.044 8.8 8.8 0 0 1 .754-1.059 8.751 8.751 0 0 1 .87-.913 3.421 3.421 0 0 1 .914-.609q.638-.29 1.392-.58a6.442 6.442 0 0 1 2.088-.261 10.063 10.063 0 0 1 2.117.261 5.345 5.345 0 0 1 2.291 1.146 7.7 7.7 0 0 1 1.62 1.971 10.608 10.608 0 0 1 1.044 2.494 18.846 18.846 0 0 1 .551 2.741 11.806 11.806 0 0 1 .087 1.841q-.025.914-.145 1.842-.116.841-.276 1.682a12.487 12.487 0 0 1-.42 1.624 8.28 8.28 0 0 1-.667 1.494A6.246 6.246 0 0 1-6.6.087a8.558 8.558 0 0 1-2.39 1.668 7.229 7.229 0 0 1-2.77.652zm-.029-16.907a4.371 4.371 0 0 0-.8.072 1.97 1.97 0 0 0-.74.3 3.244 3.244 0 0 0-.725.638 5.228 5.228 0 0 0-.551.783 7.1 7.1 0 0 0-.841 2.233 12.539 12.539 0 0 0-.232 2.407 12.753 12.753 0 0 0 .278 2.586 6.943 6.943 0 0 0 1 2.436 4.14 4.14 0 0 0 .826.914 2.976 2.976 0 0 0 1.117.566 3.433 3.433 0 0 0 1.174.087 2.6 2.6 0 0 0 1.116-.377 3.839 3.839 0 0 0 1.336-1.393 7.293 7.293 0 0 0 .74-1.885A10.654 10.654 0 0 0-7.8-7.221a18.289 18.289 0 0 0-.015-1.943 10.825 10.825 0 0 0-.29-1.827 6.6 6.6 0 0 0-.682-1.74 3.9 3.9 0 0 0-1.189-1.291 2.978 2.978 0 0 0-1.813-.478zM5.988 2.407a7.9 7.9 0 0 1-1.058-.072 4.619 4.619 0 0 1-1.058-.276A6.617 6.617 0 0 1 2.378 1.2 8.464 8.464 0 0 1 1.087 0 10.66 10.66 0 0 1-1.03-3.7a13.379 13.379 0 0 1-.725-4.335 15.149 15.149 0 0 1 1.16-5.829 7.686 7.686 0 0 1 .536-1.044A8.8 8.8 0 0 1 .7-15.965a8.751 8.751 0 0 1 .87-.913 3.421 3.421 0 0 1 .913-.609q.638-.29 1.392-.58a6.442 6.442 0 0 1 2.088-.261 10.063 10.063 0 0 1 2.117.261 5.345 5.345 0 0 1 2.291 1.146 7.7 7.7 0 0 1 1.624 1.972 10.608 10.608 0 0 1 1.044 2.494 18.846 18.846 0 0 1 .551 2.741 11.806 11.806 0 0 1 .087 1.841q-.029.914-.145 1.842-.116.841-.276 1.682a12.487 12.487 0 0 1-.42 1.624 8.28 8.28 0 0 1-.667 1.494A6.246 6.246 0 0 1 11.15.087a8.558 8.558 0 0 1-2.392 1.668 7.229 7.229 0 0 1-2.77.652zM5.959-14.5a4.371 4.371 0 0 0-.8.072 1.97 1.97 0 0 0-.74.3 3.244 3.244 0 0 0-.725.638 5.228 5.228 0 0 0-.551.783 7.1 7.1 0 0 0-.841 2.233 12.539 12.539 0 0 0-.232 2.407 12.753 12.753 0 0 0 .275 2.581 6.943 6.943 0 0 0 1 2.436 4.14 4.14 0 0 0 .827.914 2.976 2.976 0 0 0 1.117.566 3.433 3.433 0 0 0 1.174.087 2.6 2.6 0 0 0 1.116-.377 3.839 3.839 0 0 0 1.338-1.388 7.293 7.293 0 0 0 .74-1.885 10.654 10.654 0 0 0 .29-2.088 18.289 18.289 0 0 0-.015-1.943 10.825 10.825 0 0 0-.29-1.827 6.6 6.6 0 0 0-.682-1.74 3.9 3.9 0 0 0-1.189-1.291 2.978 2.978 0 0 0-1.812-.478zM23.736 2.407a7.9 7.9 0 0 1-1.059-.072 4.619 4.619 0 0 1-1.059-.276 6.617 6.617 0 0 1-1.492-.859 8.464 8.464 0 0 1-1.29-1.2 10.66 10.66 0 0 1-2.117-3.7 13.379 13.379 0 0 1-.725-4.335 15.149 15.149 0 0 1 1.16-5.829 7.686 7.686 0 0 1 .537-1.044 8.8 8.8 0 0 1 .754-1.059 8.751 8.751 0 0 1 .87-.913 3.421 3.421 0 0 1 .914-.609q.638-.29 1.392-.58a6.442 6.442 0 0 1 2.088-.261 10.063 10.063 0 0 1 2.117.261 5.345 5.345 0 0 1 2.291 1.146 7.7 7.7 0 0 1 1.623 1.973 10.608 10.608 0 0 1 1.044 2.494 18.846 18.846 0 0 1 .551 2.741 11.806 11.806 0 0 1 .087 1.841q-.029.914-.145 1.842-.116.841-.277 1.682a12.487 12.487 0 0 1-.42 1.624 8.28 8.28 0 0 1-.667 1.494A6.246 6.246 0 0 1 28.9.087a8.558 8.558 0 0 1-2.392 1.668 7.229 7.229 0 0 1-2.772.652zM23.708-14.5a4.371 4.371 0 0 0-.8.072 1.97 1.97 0 0 0-.739.3 3.244 3.244 0 0 0-.725.638 5.228 5.228 0 0 0-.551.783 7.1 7.1 0 0 0-.841 2.233 12.539 12.539 0 0 0-.232 2.407 12.753 12.753 0 0 0 .28 2.586 6.943 6.943 0 0 0 1 2.436 4.14 4.14 0 0 0 .826.914 2.976 2.976 0 0 0 1.117.566 3.433 3.433 0 0 0 1.174.087 2.6 2.6 0 0 0 1.117-.377 3.839 3.839 0 0 0 1.334-1.392 7.293 7.293 0 0 0 .74-1.885 10.654 10.654 0 0 0 .29-2.088 18.289 18.289 0 0 0-.014-1.943 10.825 10.825 0 0 0-.29-1.827 6.6 6.6 0 0 0-.682-1.74 3.9 3.9 0 0 0-1.189-1.291 2.978 2.978 0 0 0-1.815-.479z" class="cls-17" transform="translate(172 222)"/>
                    <path id="패스_413" d="M5.054-15.652a5.949 5.949 0 0 1 1.568 2.338 6.208 6.208 0 0 1 .392 2.7A5.089 5.089 0 0 1 6.2-8.246a4.317 4.317 0 0 1-2.126 1.638 10.314 10.314 0 0 1-2.212.672q-1.092.2-2.408.308-.588.056-.994.07t-.938.042h-.378a1.76 1.76 0 0 0-.378.028v5.8q-.084.528-.21 1.088a1.306 1.306 0 0 1-.658.868 1.8 1.8 0 0 1-.756.2 3.8 3.8 0 0 1-.812-.028 1.82 1.82 0 0 1-.658-.21 1.1 1.1 0 0 1-.434-.546 5.014 5.014 0 0 1-.21-.574 2.779 2.779 0 0 1-.1-.8v-15.486a2.218 2.218 0 0 1 .028-.364l.056-.336a1.485 1.485 0 0 0 .084-.308 1.485 1.485 0 0 1 .084-.308 1.586 1.586 0 0 1 .126-.252.724.724 0 0 1 .182-.2 1.236 1.236 0 0 1 .434-.252 2.622 2.622 0 0 1 .882-.112h.056q.868-.056 1.932-.1a11.459 11.459 0 0 1 1.764.042q.392.056.728.07t.644.042l.672.056q.336.028.672.084.28.056.518.084a4.9 4.9 0 0 1 .49.084q.224.056.49.112a1.5 1.5 0 0 1 .49.2 3.683 3.683 0 0 1 .98.42q.394.254.814.562zm-1.68 4.62a2.111 2.111 0 0 0-.266-1.176 2.449 2.449 0 0 0-.826-.84 4.712 4.712 0 0 0-1.2-.532 8.608 8.608 0 0 0-1.344-.28q-.168 0-.462-.014l-.63-.028-.63-.028q-.294-.014-.462-.014a1.739 1.739 0 0 0-.336-.028h-.448q.028.868.028 1.666v1.722q-.028.5-.028 1.008t0 .98l1.73-.028a14.519 14.519 0 0 0 1.486-.084 6.845 6.845 0 0 0 1.54-.336 3.514 3.514 0 0 0 1.246-.728 1.923 1.923 0 0 0 .602-1.26z" class="cls-17" transform="translate(214 221)"/>
                </g>
                <g id="그룹_117" transform="translate(-2 34)">
                    <path id="패스_412" d="M-26.55-18.444q.2-.058.377-.1t.348-.073a2.277 2.277 0 0 1 .507-.073 2.846 2.846 0 0 1 .58.029 1.662 1.662 0 0 1 .522.174.8.8 0 0 1 .362.392 2.616 2.616 0 0 1 .16.681 7.218 7.218 0 0 1 .044.8q0 .406-.015.8t-.014.71V-.29q0 .319.014.653a5.384 5.384 0 0 1-.014.682 1.865 1.865 0 0 1-.174.653 1.29 1.29 0 0 1-.435.508 1.776 1.776 0 0 1-1.087.333 3.322 3.322 0 0 1-1.175-.16.859.859 0 0 1-.623-.667 4.878 4.878 0 0 1-.1-.986q-.2-3.828-.188-7.5t.014-7.555q-.058.145-.391.261a6.015 6.015 0 0 1-.754.2q-.42.087-.8.145a4.222 4.222 0 0 1-.493.058 2.817 2.817 0 0 1-1.378-.16 1.226 1.226 0 0 1-.711-1.146 1.627 1.627 0 0 1 .42-1.45 3.368 3.368 0 0 1 1.378-.783q.928-.319 1.813-.652t1.813-.588zm14.79 20.851a7.9 7.9 0 0 1-1.059-.072 4.619 4.619 0 0 1-1.058-.276A6.617 6.617 0 0 1-15.37 1.2 8.464 8.464 0 0 1-16.661 0a10.66 10.66 0 0 1-2.117-3.7 13.379 13.379 0 0 1-.722-4.333 15.149 15.149 0 0 1 1.16-5.829 7.686 7.686 0 0 1 .537-1.044 8.8 8.8 0 0 1 .754-1.059 8.751 8.751 0 0 1 .87-.913 3.421 3.421 0 0 1 .914-.609q.638-.29 1.392-.58a6.442 6.442 0 0 1 2.088-.261 10.063 10.063 0 0 1 2.117.261 5.345 5.345 0 0 1 2.291 1.146 7.7 7.7 0 0 1 1.62 1.971 10.608 10.608 0 0 1 1.044 2.494 18.846 18.846 0 0 1 .551 2.741 11.806 11.806 0 0 1 .087 1.841q-.025.914-.145 1.842-.116.841-.276 1.682a12.487 12.487 0 0 1-.42 1.624 8.28 8.28 0 0 1-.667 1.494A6.246 6.246 0 0 1-6.6.087a8.558 8.558 0 0 1-2.39 1.668 7.229 7.229 0 0 1-2.77.652zm-.029-16.907a4.371 4.371 0 0 0-.8.072 1.97 1.97 0 0 0-.74.3 3.244 3.244 0 0 0-.725.638 5.228 5.228 0 0 0-.551.783 7.1 7.1 0 0 0-.841 2.233 12.539 12.539 0 0 0-.232 2.407 12.753 12.753 0 0 0 .278 2.586 6.943 6.943 0 0 0 1 2.436 4.14 4.14 0 0 0 .826.914 2.976 2.976 0 0 0 1.117.566 3.433 3.433 0 0 0 1.174.087 2.6 2.6 0 0 0 1.116-.377 3.839 3.839 0 0 0 1.336-1.393 7.293 7.293 0 0 0 .74-1.885A10.654 10.654 0 0 0-7.8-7.221a18.289 18.289 0 0 0-.015-1.943 10.825 10.825 0 0 0-.29-1.827 6.6 6.6 0 0 0-.682-1.74 3.9 3.9 0 0 0-1.189-1.291 2.978 2.978 0 0 0-1.813-.478zM5.988 2.407a7.9 7.9 0 0 1-1.058-.072 4.619 4.619 0 0 1-1.058-.276A6.617 6.617 0 0 1 2.378 1.2 8.464 8.464 0 0 1 1.087 0 10.66 10.66 0 0 1-1.03-3.7a13.379 13.379 0 0 1-.725-4.335 15.149 15.149 0 0 1 1.16-5.829 7.686 7.686 0 0 1 .536-1.044A8.8 8.8 0 0 1 .7-15.965a8.751 8.751 0 0 1 .87-.913 3.421 3.421 0 0 1 .913-.609q.638-.29 1.392-.58a6.442 6.442 0 0 1 2.088-.261 10.063 10.063 0 0 1 2.117.261 5.345 5.345 0 0 1 2.291 1.146 7.7 7.7 0 0 1 1.624 1.972 10.608 10.608 0 0 1 1.044 2.494 18.846 18.846 0 0 1 .551 2.741 11.806 11.806 0 0 1 .087 1.841q-.029.914-.145 1.842-.116.841-.276 1.682a12.487 12.487 0 0 1-.42 1.624 8.28 8.28 0 0 1-.667 1.494A6.246 6.246 0 0 1 11.15.087a8.558 8.558 0 0 1-2.392 1.668 7.229 7.229 0 0 1-2.77.652zM5.959-14.5a4.371 4.371 0 0 0-.8.072 1.97 1.97 0 0 0-.74.3 3.244 3.244 0 0 0-.725.638 5.228 5.228 0 0 0-.551.783 7.1 7.1 0 0 0-.841 2.233 12.539 12.539 0 0 0-.232 2.407 12.753 12.753 0 0 0 .275 2.581 6.943 6.943 0 0 0 1 2.436 4.14 4.14 0 0 0 .827.914 2.976 2.976 0 0 0 1.117.566 3.433 3.433 0 0 0 1.174.087 2.6 2.6 0 0 0 1.116-.377 3.839 3.839 0 0 0 1.338-1.388 7.293 7.293 0 0 0 .74-1.885 10.654 10.654 0 0 0 .29-2.088 18.289 18.289 0 0 0-.015-1.943 10.825 10.825 0 0 0-.29-1.827 6.6 6.6 0 0 0-.682-1.74 3.9 3.9 0 0 0-1.189-1.291 2.978 2.978 0 0 0-1.812-.478zM23.736 2.407a7.9 7.9 0 0 1-1.059-.072 4.619 4.619 0 0 1-1.059-.276 6.617 6.617 0 0 1-1.492-.859 8.464 8.464 0 0 1-1.29-1.2 10.66 10.66 0 0 1-2.117-3.7 13.379 13.379 0 0 1-.725-4.335 15.149 15.149 0 0 1 1.16-5.829 7.686 7.686 0 0 1 .537-1.044 8.8 8.8 0 0 1 .754-1.059 8.751 8.751 0 0 1 .87-.913 3.421 3.421 0 0 1 .914-.609q.638-.29 1.392-.58a6.442 6.442 0 0 1 2.088-.261 10.063 10.063 0 0 1 2.117.261 5.345 5.345 0 0 1 2.291 1.146 7.7 7.7 0 0 1 1.623 1.973 10.608 10.608 0 0 1 1.044 2.494 18.846 18.846 0 0 1 .551 2.741 11.806 11.806 0 0 1 .087 1.841q-.029.914-.145 1.842-.116.841-.277 1.682a12.487 12.487 0 0 1-.42 1.624 8.28 8.28 0 0 1-.667 1.494A6.246 6.246 0 0 1 28.9.087a8.558 8.558 0 0 1-2.392 1.668 7.229 7.229 0 0 1-2.772.652zM23.708-14.5a4.371 4.371 0 0 0-.8.072 1.97 1.97 0 0 0-.739.3 3.244 3.244 0 0 0-.725.638 5.228 5.228 0 0 0-.551.783 7.1 7.1 0 0 0-.841 2.233 12.539 12.539 0 0 0-.232 2.407 12.753 12.753 0 0 0 .28 2.586 6.943 6.943 0 0 0 1 2.436 4.14 4.14 0 0 0 .826.914 2.976 2.976 0 0 0 1.117.566 3.433 3.433 0 0 0 1.174.087 2.6 2.6 0 0 0 1.117-.377 3.839 3.839 0 0 0 1.334-1.392 7.293 7.293 0 0 0 .74-1.885 10.654 10.654 0 0 0 .29-2.088 18.289 18.289 0 0 0-.014-1.943 10.825 10.825 0 0 0-.29-1.827 6.6 6.6 0 0 0-.682-1.74 3.9 3.9 0 0 0-1.189-1.291 2.978 2.978 0 0 0-1.815-.479z" class="cls-18" transform="translate(172 222)"/>
                    <path id="패스_411" d="M5.054-15.652a5.949 5.949 0 0 1 1.568 2.338 6.208 6.208 0 0 1 .392 2.7A5.089 5.089 0 0 1 6.2-8.246a4.317 4.317 0 0 1-2.126 1.638 10.314 10.314 0 0 1-2.212.672q-1.092.2-2.408.308-.588.056-.994.07t-.938.042h-.378a1.76 1.76 0 0 0-.378.028v5.8q-.084.528-.21 1.088a1.306 1.306 0 0 1-.658.868 1.8 1.8 0 0 1-.756.2 3.8 3.8 0 0 1-.812-.028 1.82 1.82 0 0 1-.658-.21 1.1 1.1 0 0 1-.434-.546 5.014 5.014 0 0 1-.21-.574 2.779 2.779 0 0 1-.1-.8v-15.486a2.218 2.218 0 0 1 .028-.364l.056-.336a1.485 1.485 0 0 0 .084-.308 1.485 1.485 0 0 1 .084-.308 1.586 1.586 0 0 1 .126-.252.724.724 0 0 1 .182-.2 1.236 1.236 0 0 1 .434-.252 2.622 2.622 0 0 1 .882-.112h.056q.868-.056 1.932-.1a11.459 11.459 0 0 1 1.764.042q.392.056.728.07t.644.042l.672.056q.336.028.672.084.28.056.518.084a4.9 4.9 0 0 1 .49.084q.224.056.49.112a1.5 1.5 0 0 1 .49.2 3.683 3.683 0 0 1 .98.42q.394.254.814.562zm-1.68 4.62a2.111 2.111 0 0 0-.266-1.176 2.449 2.449 0 0 0-.826-.84 4.712 4.712 0 0 0-1.2-.532 8.608 8.608 0 0 0-1.344-.28q-.168 0-.462-.014l-.63-.028-.63-.028q-.294-.014-.462-.014a1.739 1.739 0 0 0-.336-.028h-.448q.028.868.028 1.666v1.722q-.028.5-.028 1.008t0 .98l1.73-.028a14.519 14.519 0 0 0 1.486-.084 6.845 6.845 0 0 0 1.54-.336 3.514 3.514 0 0 0 1.246-.728 1.923 1.923 0 0 0 .602-1.26z" class="cls-18" transform="translate(214 221)"/>
                </g>
                <path id="패스_337" fill="#fff" d="M2227.8 276.986s-11.364-19.625-5.883-40.867c2.428-11.585 10.405-26.661 21.087-34.618 29.688-22.039 57.242-9.964 57.242-9.964s-.31 26.007-20.124 51.084-52.322 34.365-52.322 34.365z" opacity="0.26" transform="translate(-2103 -1.75)"/>
            </g>
            <g id="그룹_68">
                <g id="그룹_33" transform="translate(-13 -6)">
                    <rect id="사각형_226-18" width="29" height="7" class="cls-1" rx="2" transform="translate(89 340)"/>
                    <rect id="사각형_225-18" width="29" height="7" class="cls-1" rx="2" transform="translate(89 332)"/>
                    <rect id="사각형_222-18" width="29" height="7" class="cls-1" rx="2" transform="translate(89 324)"/>
                    <rect id="사각형_223-9" width="29" height="7" class="cls-1" rx="2" transform="translate(89 316)"/>
                    <rect id="사각형_224-9" width="29" height="7" class="cls-1" rx="2" transform="translate(89 308)"/>
                </g>
                <g id="그룹_36" transform="translate(32 -6)">
                    <rect id="사각형_226-19" width="29" height="7" class="cls-1" rx="2" transform="translate(89 340)"/>
                    <rect id="사각형_225-19" width="29" height="7" class="cls-1" rx="2" transform="translate(89 332)"/>
                    <rect id="사각형_222-19" width="29" height="7" class="cls-1" rx="2" transform="translate(89 324)"/>
                </g>
                <g id="그룹_32" transform="translate(-13 -7)">
                    <rect id="사각형_226-20" width="29" height="7" class="cls-2" rx="2" transform="translate(89 340)"/>
                    <rect id="사각형_225-20" width="29" height="7" class="cls-2" rx="2" transform="translate(89 332)"/>
                    <rect id="사각형_222-20" width="29" height="7" class="cls-2" rx="2" transform="translate(89 324)"/>
                    <rect id="사각형_223-10" width="29" height="7" class="cls-2" rx="2" transform="translate(89 316)"/>
                    <rect id="사각형_224-10" width="29" height="7" class="cls-2" rx="2" transform="translate(89 308)"/>
                </g>
                <g id="그룹_35" transform="translate(32 -7)">
                    <rect id="사각형_226-21" width="29" height="7" class="cls-2" rx="2" transform="translate(89 340)"/>
                    <rect id="사각형_225-21" width="29" height="7" class="cls-2" rx="2" transform="translate(89 332)"/>
                    <rect id="사각형_222-21" width="29" height="7" class="cls-2" rx="2" transform="translate(89 324)"/>
                </g>
                <g id="그룹_27" transform="translate(24 -7)">
                    <rect id="사각형_217-3" width="29" height="7" class="cls-3" rx="2" transform="translate(70 340)"/>
                    <rect id="사각형_218-3" width="29" height="7" class="cls-3" rx="2" transform="translate(70 332)"/>
                    <rect id="사각형_219-3" width="29" height="7" class="cls-3" rx="2" transform="translate(70 324)"/>
                    <rect id="사각형_220-2" width="29" height="7" class="cls-3" rx="2" transform="translate(70 316)"/>
                    <rect id="사각형_221-2" width="29" height="7" class="cls-3" rx="2" transform="translate(70 308)"/>
                </g>
                <g id="그룹_29" transform="translate(30 -7)">
                    <rect id="사각형_217-4" width="29" height="7" class="cls-3" rx="2" transform="translate(70 340)"/>
                    <rect id="사각형_218-4" width="29" height="7" class="cls-3" rx="2" transform="translate(70 332)"/>
                    <rect id="사각형_219-4" width="29" height="7" class="cls-3" rx="2" transform="translate(70 324)"/>
                </g>
                <g id="그룹_25" transform="translate(8 -6)">
                    <rect id="사각형_226-22" width="29" height="7" class="cls-1" rx="2" transform="translate(89 340)"/>
                    <rect id="사각형_225-22" width="29" height="7" class="cls-1" rx="2" transform="translate(89 332)"/>
                    <rect id="사각형_222-22" width="29" height="7" class="cls-1" rx="2" transform="translate(89 324)"/>
                    <rect id="사각형_223-11" width="29" height="7" class="cls-1" rx="2" transform="translate(89 316)"/>
                    <rect id="사각형_224-11" width="29" height="7" class="cls-1" rx="2" transform="translate(89 308)"/>
                    <rect id="사각형_227-5" width="29" height="7" class="cls-1" rx="2" transform="translate(89 300)"/>
                    <rect id="사각형_228-5" width="29" height="7" class="cls-1" rx="2" transform="translate(89 292)"/>
                </g>
                <g id="그룹_30" transform="translate(8 -7)">
                    <rect id="사각형_226-23" width="29" height="7" class="cls-4" rx="2" transform="translate(89 340)"/>
                    <rect id="사각형_225-23" width="29" height="7" class="cls-4" rx="2" transform="translate(89 332)"/>
                    <rect id="사각형_222-23" width="29" height="7" class="cls-4" rx="2" transform="translate(89 324)"/>
                    <rect id="사각형_223-12" width="29" height="7" class="cls-4" rx="2" transform="translate(89 316)"/>
                    <rect id="사각형_224-12" width="29" height="7" class="cls-4" rx="2" transform="translate(89 308)"/>
                    <rect id="사각형_227-6" width="29" height="7" class="cls-4" rx="2" transform="translate(89 300)"/>
                    <rect id="사각형_228-6" width="29" height="7" class="cls-4" rx="2" transform="translate(89 292)"/>
                </g>
                <g id="그룹_31" transform="translate(8 -7)">
                    <rect id="사각형_226-24" width="15" height="7" class="cls-5" rx="2" transform="translate(89 340)"/>
                    <rect id="사각형_225-24" width="15" height="7" class="cls-5" rx="2" transform="translate(89 332)"/>
                    <rect id="사각형_222-24" width="15" height="7" class="cls-5" rx="2" transform="translate(89 324)"/>
                    <rect id="사각형_223-13" width="15" height="7" class="cls-5" rx="2" transform="translate(89 316)"/>
                    <rect id="사각형_224-13" width="15" height="7" class="cls-5" rx="2" transform="translate(89 308)"/>
                    <rect id="사각형_227-7" width="15" height="7" class="cls-5" rx="2" transform="translate(89 300)"/>
                    <rect id="사각형_228-7" width="15" height="7" class="cls-5" rx="2" transform="translate(89 292)"/>
                </g>
                <g id="그룹_37" transform="translate(51.333 -7)">
                    <rect id="사각형_226-25" width="9" height="7" class="cls-6" rx="2" transform="translate(89.667 340)"/>
                    <rect id="사각형_225-25" width="9" height="7" class="cls-6" rx="2" transform="translate(89.667 332)"/>
                    <rect id="사각형_222-25" width="9" height="7" class="cls-6" rx="2" transform="translate(89.667 324)"/>
                </g>
                <g id="그룹_34" transform="translate(-13 -7)">
                    <rect id="사각형_226-26" width="11" height="7" class="cls-7" rx="2" transform="translate(89 340)"/>
                    <rect id="사각형_225-26" width="11" height="7" class="cls-7" rx="2" transform="translate(89 332)"/>
                    <rect id="사각형_222-26" width="11" height="7" class="cls-7" rx="2" transform="translate(89 324)"/>
                    <rect id="사각형_223-14" width="11" height="7" class="cls-7" rx="2" transform="translate(89 316)"/>
                    <rect id="사각형_224-14" width="11" height="7" class="cls-7" rx="2" transform="translate(89 308)"/>
                </g>
                <g id="그룹_38" transform="translate(11.5 -7)">
                    <rect id="사각형_226-27" width="6" height="7" class="cls-20" rx="2" transform="translate(89.5 340)"/>
                    <rect id="사각형_225-27" width="6" height="7" class="cls-20" rx="2" transform="translate(89.5 332)"/>
                    <rect id="사각형_222-27" width="6" height="7" class="cls-20" rx="2" transform="translate(89.5 324)"/>
                    <rect id="사각형_223-15" width="6" height="7" class="cls-20" rx="2" transform="translate(89.5 316)"/>
                    <rect id="사각형_224-15" width="6" height="7" class="cls-20" rx="2" transform="translate(89.5 308)"/>
                    <rect id="사각형_227-8" width="6" height="7" class="cls-20" rx="2" transform="translate(89.5 300)"/>
                    <rect id="사각형_228-8" width="6" height="7" class="cls-20" rx="2" transform="translate(89.5 292)"/>
                </g>
                <g id="그룹_41" opacity="0.67" transform="translate(40.382 -7)">
                    <rect id="사각형_226-28" width="5" height="7" class="cls-8" rx="2" transform="translate(89.618 340)"/>
                    <rect id="사각형_225-28" width="5" height="7" class="cls-8" rx="2" transform="translate(89.618 332)"/>
                    <rect id="사각형_222-28" width="5" height="7" class="cls-8" rx="2" transform="translate(89.618 324)"/>
                </g>
                <g id="그룹_39" transform="translate(-11.5 -7)">
                    <rect id="사각형_226-29" width="4" height="7" class="cls-22" rx="2" transform="translate(89.5 340)"/>
                    <rect id="사각형_225-29" width="4" height="7" class="cls-22" rx="2" transform="translate(89.5 332)"/>
                    <rect id="사각형_222-29" width="4" height="7" class="cls-22" rx="2" transform="translate(89.5 324)"/>
                    <rect id="사각형_223-16" width="4" height="7" class="cls-22" rx="2" transform="translate(89.5 316)"/>
                    <rect id="사각형_224-16" width="4" height="7" class="cls-22" rx="2" transform="translate(89.5 308)"/>
                </g>
                <g id="그룹_40" transform="translate(55.167 -7)">
                    <rect id="사각형_226-30" width="4" height="7" class="cls-3" rx="2" transform="translate(89.833 340)"/>
                    <rect id="사각형_225-30" width="4" height="7" class="cls-3" rx="2" transform="translate(89.833 332)"/>
                    <rect id="사각형_222-30" width="4" height="7" class="cls-3" rx="2" transform="translate(89.833 324)"/>
                </g>
                <g id="img_bc_coin" transform="rotate(18.01 -425.103 49.7)">
                    <path id="패스_336" fill="#efa13c" d="M10.5 0C16.3 0 21 6.268 21 14s-4.7 14-10.5 14S0 21.732 0 14 4.7 0 10.5 0z" transform="translate(120.813 150.526)"/>
                    <ellipse id="타원_1-2" cx="10" cy="14" class="cls-4" rx="10" ry="14" transform="translate(119 150.371)"/>
                    <ellipse id="타원_2-2" cx="8.5" cy="12" class="cls-16" rx="8.5" ry="12" transform="translate(120 152.371)"/>
                </g>
                <g id="그룹_1" transform="rotate(19 654.39 -548.893)">
                    <path id="패스_1" fill="#df7904" d="M386.122 473.053a3.239 3.239 0 0 1 .709.726 3.342 3.342 0 0 1 .465 1.019 5.2 5.2 0 0 1 .193 1.345 3.373 3.373 0 0 1-.215 1.255 2.6 2.6 0 0 1-.7 1.011 2.767 2.767 0 0 1-1.253.611 6.585 6.585 0 0 1-.974.179 8.741 8.741 0 0 1-1 .065q-.559.016-1.153.008a5.375 5.375 0 0 1-1.153-.139.588.588 0 0 1-.351-.285 1.518 1.518 0 0 1-.15-.465.8.8 0 0 1-.057-.293v-9.26a1.294 1.294 0 0 1 .165-.709 1 1 0 0 1 .437-.375 1.8 1.8 0 0 1 .616-.147q.344-.024.716-.025.286 0 .58-.008c.2 0 .394 0 .594.008a9.078 9.078 0 0 1 .981.09 3.864 3.864 0 0 1 .967.269 2.864 2.864 0 0 1 .458.228 1.131 1.131 0 0 1 .387.326 3.009 3.009 0 0 1 .68 1.1 3.338 3.338 0 0 1 .193 1.272 3.166 3.166 0 0 1-.308 1.231 2.407 2.407 0 0 1-.827.963zm-2.506 4.321a8.918 8.918 0 0 0 .9-.114.971.971 0 0 0 .63-.31 1.671 1.671 0 0 0 .265-.611 2.254 2.254 0 0 0 .043-.717 2.224 2.224 0 0 0-.186-.7 1.4 1.4 0 0 0-.394-.53 1.626 1.626 0 0 0-.759-.383 4.127 4.127 0 0 0-.845-.09c-.134 0-.257 0-.365.008a1.074 1.074 0 0 0-.286.049.3.3 0 0 0-.179.155.793.793 0 0 0-.057.342 6.278 6.278 0 0 1 0 .848q-.029.424-.029.815 0 .228-.007.5a.628.628 0 0 0 .15.448.819.819 0 0 0 .458.245 2.554 2.554 0 0 0 .661.045zm.286-7.826c-.3-.01-.542-.019-.737-.024a1.334 1.334 0 0 0-.458.049.366.366 0 0 0-.229.245 1.648 1.648 0 0 0-.05.563q0 .31-.007.611t-.007.6a.589.589 0 0 0 .186.481.866.866 0 0 0 .465.187 2.636 2.636 0 0 0 .587 0 5.26 5.26 0 0 0 .537-.081 1.394 1.394 0 0 0 .795-.4 1.425 1.425 0 0 0 .322-.889 1.068 1.068 0 0 0-.336-1.019 1.954 1.954 0 0 0-1.07-.323z"/>
                </g>
                <path id="패스_338" fill="#fff" d="M3.213-.662C4.594-.662 5 2.91 5 6.5s-.82 7.029-2.2 7.029S.1 9.833.1 6.243 1.832-.662 3.213-.662z" opacity="0.63" transform="rotate(49 -313.596 231.79)"/>
            </g>
            <path id="패스_340" fill="#f39fda" d="M2182.932 250.354L2188.5 247v3.354l-3 3.354z" transform="translate(-2084 -11)"/>
            <path id="패스_341" d="M2365.191 252.418L2363.5 247h4.5v4z" class="cls-27" transform="translate(-2104 -7)"/>
            <path id="패스_349" d="M2364.909 251.515L2363.5 247h3.75v3.333z" class="cls-27" transform="rotate(-58 1232.807 2310.005)"/>
            <path id="패스_354" d="M2364.909 251.515L2363.5 247h3.75v3.333z" class="cls-27" transform="rotate(-58 1356.23 2110.723)"/>
            <path id="패스_346" d="M2365.191 252.418L2363.5 247h4.5v4z" class="cls-28" transform="rotate(-69 1207.335 1894.691)"/>
            <path id="패스_347" d="M2365.191 252.418L2363.5 247h4.5v4z" class="cls-28" transform="rotate(-69 1324.205 1768.283)"/>
            <path id="패스_355" d="M2365.191 252.418L2363.5 247h4.5v4z" class="cls-28" transform="rotate(-69 1225.3 1940.244)"/>
            <path id="패스_342" d="M2201 202l4.5 2.5v-6z" class="cls-29" transform="translate(-2092 7)"/>
            <path id="패스_348" d="M2201 200.922l3.115 1.73V198.5z" class="cls-29" transform="rotate(-69 1286.21 1644.44)"/>
            <path id="패스_351" d="M2201 200.922l3.115 1.73V198.5z" class="cls-29" transform="rotate(-69 1171.295 1771.121)"/>
            <path id="패스_343" d="M2394.293 275.236v4.446l2.118-.955.945-2.109z" class="cls-30" transform="rotate(-20 1320.475 6259.995)"/>
            <path id="패스_350" d="M2394.293 275.236v4.446h3.063v-3.063z" class="cls-30" transform="rotate(-59 1283.602 2131.956)"/>
            <path id="패스_353" d="M2394.293 275.236v6.956l2.83-1.36 1.049-3.432z" class="cls-30" transform="rotate(-141 1243.255 680.534)"/>
            <path id="패스_344" d="M2394.293 275.236v4.446h3.063v-3.063z" class="cls-31" transform="rotate(-79.98 1283.461 1520.72)"/>
            <path id="패스_352" d="M2394.293 275.236v4.446h3.063v-3.063z" class="cls-31" transform="rotate(-79.98 1349.438 1536.47)"/>
            <path id="패스_345" d="M2394.293 275.236v4.446h3.063v-3.063z" class="cls-31" transform="rotate(-143 1237.828 668.255)"/>
        </g>
    </g>
</svg>
