<svg xmlns="http://www.w3.org/2000/svg" width="54" height="54" viewBox="0 0 54 54">
    <defs>
        <style>
            .cls-1{fill:#fff;stroke:#707070;stroke-width:.5px}.cls-2{fill:#c1c1c1}.cls-3{stroke:none}.cls-4{fill:none}
        </style>
    </defs>
    <g id="join_coin_01" transform="translate(-211 -26)">
        <g id="타원_1" class="cls-1" data-name="타원 1" transform="translate(211 26)">
            <circle cx="27" cy="27" r="27" class="cls-3"/>
            <circle cx="27" cy="27" r="26.75" class="cls-4"/>
        </g>
        <g id="타원_2" class="cls-1" data-name="타원 2" transform="translate(215 30)">
            <circle cx="23" cy="23" r="23" class="cls-3"/>
            <circle cx="23" cy="23" r="22.75" class="cls-4"/>
        </g>
        <g id="그룹_1" data-name="그룹 1" transform="translate(231.213 41.957)">
            <path id="패스_1" d="M392.892 478.169a6.73 6.73 0 0 1 1.559 1.4 6.124 6.124 0 0 1 1.024 1.969 8.913 8.913 0 0 1 .425 2.6 5.811 5.811 0 0 1-.472 2.426 5.067 5.067 0 0 1-1.544 1.953 6.455 6.455 0 0 1-2.757 1.181 16.321 16.321 0 0 1-2.142.347 21.863 21.863 0 0 1-2.205.126q-1.229.031-2.536.016a13.391 13.391 0 0 1-2.536-.268 1.27 1.27 0 0 1-.772-.551 2.69 2.69 0 0 1-.331-.9 1.386 1.386 0 0 1-.126-.567V470.01a2.262 2.262 0 0 1 .362-1.37 2.15 2.15 0 0 1 .961-.725 4.424 4.424 0 0 1 1.355-.283q.756-.047 1.575-.047.63 0 1.276-.016c.431-.008.866-.005 1.307.016q1.04.032 2.158.173a9.438 9.438 0 0 1 2.126.52 6.7 6.7 0 0 1 1.008.441 2.436 2.436 0 0 1 .851.63 5.813 5.813 0 0 1 1.922 4.584 5.526 5.526 0 0 1-.677 2.379 4.876 4.876 0 0 1-1.811 1.857zm-5.513 8.348q.973-.063 1.985-.221a2.248 2.248 0 0 0 1.386-.6 3.042 3.042 0 0 0 .583-1.181 3.839 3.839 0 0 0 .094-1.386 3.89 3.89 0 0 0-.41-1.355 2.77 2.77 0 0 0-.866-1.024 3.781 3.781 0 0 0-1.67-.74 10.289 10.289 0 0 0-1.859-.173c-.294 0-.564.005-.8.016a2.65 2.65 0 0 0-.63.095.64.64 0 0 0-.394.3 1.369 1.369 0 0 0-.126.662 10.642 10.642 0 0 1 0 1.638q-.063.819-.063 1.575 0 .441-.016.961a1.124 1.124 0 0 0 .331.866 1.887 1.887 0 0 0 1.008.473 6.381 6.381 0 0 0 1.447.095zm.63-15.121c-.651-.018-1.192-.037-1.622-.047a3.326 3.326 0 0 0-1.008.095.755.755 0 0 0-.5.473 2.815 2.815 0 0 0-.11 1.087q0 .6-.016 1.181t-.016 1.15a1.071 1.071 0 0 0 .41.929 2.056 2.056 0 0 0 1.024.362 6.609 6.609 0 0 0 1.292 0q.677-.063 1.181-.157a3.234 3.234 0 0 0 1.748-.772 2.567 2.567 0 0 0 .709-1.717 1.929 1.929 0 0 0-.74-1.969 4.729 4.729 0 0 0-2.352-.611z" class="cls-2" data-name="패스 1" transform="translate(-380.48 -467.564)"/>
        </g>
    </g>
</svg>
