<svg xmlns="http://www.w3.org/2000/svg" width="56" height="54" viewBox="0 0 56 54">
    <defs>
        <clipPath id="clip-path">
            <circle id="타원_77" cx="27" cy="27" r="27" fill="#ffc31d" stroke="#707070" stroke-width="0.5px" transform="translate(296 77)"/>
        </clipPath>
        <style>
        </style>
    </defs>
    <g id="new_coin" transform="translate(-289 -79)">
        <ellipse id="타원_80" cx="26.5" cy="26" fill="#b44800" opacity="0.23" rx="26.5" ry="26" transform="translate(292 81)"/>
        <g id="그룹_64" transform="translate(101 2)">
            <circle id="타원_81" cx="26.5" cy="26.5" r="26.5" fill="#f1931b" transform="translate(189 78)"/>
            <circle id="타원_82" cx="26" cy="26" r="26" fill="#ffbd06" transform="translate(188 77)"/>
            <circle id="타원_83" cx="22" cy="22" r="22" fill="#fff2c5" transform="translate(193 82)"/>
            <circle id="타원_84" cx="21.5" cy="21.5" r="21.5" fill="#f39823" transform="translate(192 81)"/>
            <circle id="타원_85" cx="21.5" cy="21.5" r="21.5" fill="#ffde71" transform="translate(193 82)"/>
            <g id="그룹_63" opacity="0.76" transform="translate(-171.48 -373.564)">
                <path id="패스_1" fill="#fff" d="M392.148 477.533a6.327 6.327 0 0 1 1.466 1.318 5.756 5.756 0 0 1 .962 1.851 8.379 8.379 0 0 1 .4 2.443 5.462 5.462 0 0 1-.444 2.28 4.763 4.763 0 0 1-1.451 1.836 6.068 6.068 0 0 1-2.591 1.111 15.341 15.341 0 0 1-2.014.326 20.551 20.551 0 0 1-2.073.118q-1.155.03-2.384.015a12.589 12.589 0 0 1-2.384-.252 1.194 1.194 0 0 1-.725-.518 2.529 2.529 0 0 1-.311-.844 1.3 1.3 0 0 1-.118-.533v-16.82a2.126 2.126 0 0 1 .341-1.288 2.021 2.021 0 0 1 .9-.681 4.159 4.159 0 0 1 1.273-.266q.711-.044 1.481-.045.592 0 1.2-.015c.4-.007.814 0 1.229.015q.977.03 2.028.163a8.871 8.871 0 0 1 2 .489 6.3 6.3 0 0 1 .948.415 2.289 2.289 0 0 1 .8.592 5.464 5.464 0 0 1 1.806 4.309 5.194 5.194 0 0 1-.637 2.236 4.583 4.583 0 0 1-1.702 1.745zm-5.182 7.848q.914-.059 1.866-.207a2.113 2.113 0 0 0 1.3-.563 2.859 2.859 0 0 0 .548-1.11 3.608 3.608 0 0 0 .089-1.3 3.657 3.657 0 0 0-.385-1.273 2.6 2.6 0 0 0-.814-.962 3.554 3.554 0 0 0-1.569-.7 9.671 9.671 0 0 0-1.747-.163c-.276 0-.531 0-.755.015a2.491 2.491 0 0 0-.592.089.6.6 0 0 0-.37.281 1.287 1.287 0 0 0-.118.622 10.005 10.005 0 0 1 0 1.54q-.059.77-.059 1.481 0 .415-.015.9a1.057 1.057 0 0 0 .311.814 1.774 1.774 0 0 0 .948.444 6 6 0 0 0 1.361.092zm.592-14.214c-.612-.017-1.12-.035-1.525-.044a3.127 3.127 0 0 0-.948.089.71.71 0 0 0-.474.444 2.646 2.646 0 0 0-.1 1.022q0 .563-.015 1.111t-.015 1.081a1.007 1.007 0 0 0 .385.874 1.933 1.933 0 0 0 .962.34 6.213 6.213 0 0 0 1.214 0q.637-.059 1.111-.148a3.04 3.04 0 0 0 1.644-.726 2.413 2.413 0 0 0 .666-1.614 1.813 1.813 0 0 0-.7-1.851 4.446 4.446 0 0 0-2.205-.579z"/>
            </g>
            <g id="그룹_62" transform="translate(-172.48 -374.564)">
                <path id="패스_1-2" fill="#cd6302" d="M392.148 477.533a6.327 6.327 0 0 1 1.466 1.318 5.756 5.756 0 0 1 .962 1.851 8.379 8.379 0 0 1 .4 2.443 5.462 5.462 0 0 1-.444 2.28 4.763 4.763 0 0 1-1.451 1.836 6.068 6.068 0 0 1-2.591 1.111 15.341 15.341 0 0 1-2.014.326 20.551 20.551 0 0 1-2.073.118q-1.155.03-2.384.015a12.589 12.589 0 0 1-2.384-.252 1.194 1.194 0 0 1-.725-.518 2.529 2.529 0 0 1-.311-.844 1.3 1.3 0 0 1-.118-.533v-16.82a2.126 2.126 0 0 1 .341-1.288 2.021 2.021 0 0 1 .9-.681 4.159 4.159 0 0 1 1.273-.266q.711-.044 1.481-.045.592 0 1.2-.015c.4-.007.814 0 1.229.015q.977.03 2.028.163a8.871 8.871 0 0 1 2 .489 6.3 6.3 0 0 1 .948.415 2.289 2.289 0 0 1 .8.592 5.464 5.464 0 0 1 1.806 4.309 5.194 5.194 0 0 1-.637 2.236 4.583 4.583 0 0 1-1.702 1.745zm-5.182 7.848q.914-.059 1.866-.207a2.113 2.113 0 0 0 1.3-.563 2.859 2.859 0 0 0 .548-1.11 3.608 3.608 0 0 0 .089-1.3 3.657 3.657 0 0 0-.385-1.273 2.6 2.6 0 0 0-.814-.962 3.554 3.554 0 0 0-1.569-.7 9.671 9.671 0 0 0-1.747-.163c-.276 0-.531 0-.755.015a2.491 2.491 0 0 0-.592.089.6.6 0 0 0-.37.281 1.287 1.287 0 0 0-.118.622 10.005 10.005 0 0 1 0 1.54q-.059.77-.059 1.481 0 .415-.015.9a1.057 1.057 0 0 0 .311.814 1.774 1.774 0 0 0 .948.444 6 6 0 0 0 1.361.092zm.592-14.214c-.612-.017-1.12-.035-1.525-.044a3.127 3.127 0 0 0-.948.089.71.71 0 0 0-.474.444 2.646 2.646 0 0 0-.1 1.022q0 .563-.015 1.111t-.015 1.081a1.007 1.007 0 0 0 .385.874 1.933 1.933 0 0 0 .962.34 6.213 6.213 0 0 0 1.214 0q.637-.059 1.111-.148a3.04 3.04 0 0 0 1.644-.726 2.413 2.413 0 0 0 .666-1.614 1.813 1.813 0 0 0-.7-1.851 4.446 4.446 0 0 0-2.205-.579z"/>
            </g>
            <path id="패스_339" fill="#fff" d="M2223.529 225.648s-4.791-8.273-2.48-17.228c1.023-4.884 4.386-11.239 8.89-14.593 12.514-9.29 24.13-4.2 24.13-4.2a38.852 38.852 0 0 1-8.483 21.535c-8.354 10.57-22.057 14.486-22.057 14.486z" opacity="0.26" transform="translate(-2031.821 -110.609)"/>
        </g>
    </g>
</svg>
