<svg xmlns="http://www.w3.org/2000/svg" width="60" height="60" viewBox="0 0 60 60">
    <defs>
        <style>
            .cls-2{fill:#f2c276}
        </style>
    </defs>
    <g id="app_icon" transform="translate(-150 -130)">
        <g id="사각형_385" fill="#fff" stroke="#b6b6b6" transform="translate(150 130)">
            <rect width="60" height="60" stroke="none" rx="13"/>
            <rect width="59" height="59" x=".5" y=".5" fill="none" rx="12.5"/>
        </g>
        <g id="그룹_571" transform="translate(162.232 142.229)">
            <g id="그룹_570" transform="translate(0 20.208)">
                <rect id="사각형_376" width="14.414" height="3.478" class="cls-2" rx="1.739"/>
                <rect id="사각형_377" width="14.414" height="3.478" class="cls-2" rx="1.739" transform="translate(0 5.518)"/>
                <rect id="사각형_378" width="14.414" height="3.478" class="cls-2" rx="1.739" transform="translate(0 11.036)"/>
            </g>
            <path id="패스_535" fill="#80b7dd" d="M523.1 290.682h-5.41a1.745 1.745 0 0 0-1.745 1.745v12.612a1.745 1.745 0 0 0 1.745 1.745h5.41a7.721 7.721 0 0 0 7.721-7.722v-.662a7.722 7.722 0 0 0-7.721-7.718zm2.058 9.223l-1.359 1.36a.747.747 0 0 1-1.057 0l-2.4-2.4a.747.747 0 0 1 0-1.057l1.36-1.36a.747.747 0 0 1 1.057 0l2.4 2.4a.747.747 0 0 1-.002 1.057z" transform="translate(-515.412 -290.673)"/>
            <path id="패스_536" fill="#e59ea5" d="M558.256 303.272l-6.622-11.5a2.193 2.193 0 0 0-3.8 0l-6.622 11.5a2.192 2.192 0 0 0 1.9 3.287h13.245a2.193 2.193 0 0 0 1.9-3.287zm-6.946-1.5a.823.823 0 0 1-.824.823h-1.5a.823.823 0 0 1-.823-.823v-2.856a.824.824 0 0 1 .823-.823h1.5a.824.824 0 0 1 .824.823z" transform="translate(-522.6 -290.669)"/>
            <path id="패스_537" fill="#97c394" d="M555.925 318.056a2.705 2.705 0 0 0-1.948.807l-3.26 3.029a1.153 1.153 0 0 1-1.726.04c-.925-.88-3.4-3.069-3.4-3.069a3.033 3.033 0 0 0-1.948-.807 1.914 1.914 0 0 0-1.986 1.889V332a1.94 1.94 0 0 0 1.986 1.89h4.39c.5 0 .836-1.406 1.839-1.406s1.338 1.406 1.917 1.406h4.133a1.94 1.94 0 0 0 1.987-1.89v-12.05a1.892 1.892 0 0 0-1.984-1.894zm-4.367 9.854h-.811v.812a.812.812 0 0 1-1.623 0v-.812h-.812a.812.812 0 0 1 0-1.623h.812v-.811a.812.812 0 1 1 1.623 0v.811h.811a.812.812 0 1 1 0 1.623z" transform="translate(-522.813 -298.552)"/>
        </g>
    </g>
</svg>
