<svg xmlns="http://www.w3.org/2000/svg" width="55" height="55" viewBox="0 0 55 55">
    <defs>
        <style>
            .cls-2{fill:#fff}
        </style>
    </defs>
    <g id="icon_kp" transform="translate(-62 -379)">
        <rect id="사각형_62" width="55" height="55" fill="#224cc4" rx="10" transform="translate(62 379)"/>
        <g id="그룹_703" transform="translate(68 392.385)">
            <path id="패스_694" d="M104.954 433.15a1.993 1.993 0 1 0 1.993 1.993 1.994 1.994 0 0 0-1.993-1.993z" class="cls-2" transform="translate(-92.079 -412.886)"/>
            <circle id="타원_96" cx="1.994" cy="1.994" r="1.994" class="cls-2" transform="translate(29.113 20.264)"/>
            <path id="패스_695" d="M83.093 409.112a1.542 1.542 0 0 0-1.542 1.542v3.972a1.542 1.542 0 0 0 3.085 0v-3.972a1.542 1.542 0 0 0-1.543-1.542z" class="cls-2" transform="translate(-81.551 -401.065)"/>
            <path id="패스_696" d="M163.56 409.112a1.542 1.542 0 0 0-1.542 1.542v3.972a1.542 1.542 0 0 0 3.085 0v-3.972a1.542 1.542 0 0 0-1.543-1.542z" class="cls-2" transform="translate(-121.121 -401.065)"/>
            <path id="패스_697" d="M123.365 395.767a7.828 7.828 0 0 0-5.645-2.487H98.286a7.671 7.671 0 0 0-7.662 7.662v18.63a1.342 1.342 0 1 0 2.685 0v-9.112H122.7v9.112a1.342 1.342 0 1 0 2.684 0v-18.63a7.713 7.713 0 0 0-2.018-5.175zm-30.056 12.286v-7.11a4.983 4.983 0 0 1 4.978-4.978h19.433a4.955 4.955 0 0 1 3.307 1.266 5.021 5.021 0 0 1 1.259 1.763 4.906 4.906 0 0 1 .412 1.948v7.11z" class="cls-2" transform="translate(-86.013 -393.28)"/>
        </g>
    </g>
</svg>
