<svg xmlns="http://www.w3.org/2000/svg" width="72.295" height="18.075" viewBox="0 0 72.295 18.075">
    <defs>
        <clipPath id="clip-path">
            <path id="사각형_6" fill="none" d="M0 0H72.295V18.075H0z"/>
        </clipPath>
        <style>
            .cls-2{fill:#0a82ff}
        </style>
    </defs>
    <g id="bi_tcoin">
        <path id="패스_1" d="M0 .276V7.1h3.435v8.586h6.827V7.1H13.7V.276z" class="cls-2" transform="translate(0 -.073)"/>
        <path id="사각형_4" d="M0 0H11.906V0.741H0z" class="cls-2" transform="translate(17.048 17.334)"/>
        <g id="그룹_2">
            <g id="그룹_1" clip-path="url(#clip-path)">
                <path id="패스_2" d="M35.8 5.072l-5.965 2.087a1.818 1.818 0 0 1 .066.468 1.639 1.639 0 0 1-.44 1.171 1.557 1.557 0 0 1-2.22 0 1.639 1.639 0 0 1-.441-1.171 1.642 1.642 0 0 1 .441-1.174 1.551 1.551 0 0 1 2.166-.045l3.37-5.108a8.111 8.111 0 0 0-10.1 1.036 7.787 7.787 0 0 0-2.328 5.706 7.826 7.826 0 0 0 2.328 5.725 7.681 7.681 0 0 0 5.674 2.348 7.7 7.7 0 0 0 5.679-2.345 7.832 7.832 0 0 0 2.329-5.725 8.123 8.123 0 0 0-.559-2.973" class="cls-2" transform="translate(-5.394)"/>
                <path id="패스_3" d="M51.763 16.127a7.676 7.676 0 0 1-5.663-2.346 7.815 7.815 0 0 1-2.324-5.717A7.766 7.766 0 0 1 46.1 2.37a8.052 8.052 0 0 1 11.341 0 7.769 7.769 0 0 1 2.324 5.694 7.819 7.819 0 0 1-2.324 5.717 7.691 7.691 0 0 1-5.675 2.346m0-10.113a1.456 1.456 0 0 0-1.1.465 1.632 1.632 0 0 0-.439 1.168 1.634 1.634 0 0 0 .439 1.168 1.553 1.553 0 0 0 2.218 0 1.636 1.636 0 0 0 .438-1.168 1.635 1.635 0 0 0-.438-1.168 1.465 1.465 0 0 0-1.113-.465" class="cls-2" transform="translate(-11.605 -.009)"/>
                <path id="패스_4" d="M92.966.535h-6.692v5.107L82.751.535h-4.782v15.106h6.682V11l3.247 4.76h5.068z" class="cls-2" transform="translate(-20.671 -.142)"/>
                <path id="사각형_5" d="M0 0H6.599V15.163H0z" class="cls-2" transform="translate(49.399 .393)"/>
            </g>
        </g>
    </g>
</svg>
