<svg xmlns="http://www.w3.org/2000/svg" width="26" height="15" viewBox="0 0 26 15">
    <defs>
        <style>
            .prefix__cls-1{fill:#fff}.prefix__cls-2,.prefix__cls-3{stroke:none}.prefix__cls-3{fill:#707070}
        </style>
    </defs>
    <g id="prefix__btn_k_del" transform="translate(-287 -597)">
        <g id="prefix__패스_351" class="prefix__cls-1" data-name="패스 351">
            <path d="M-1068.5-166.5h-17.057l-7.7-7 7.7-7h17.057v14z" class="prefix__cls-2" transform="translate(1381 778)"/>
            <path d="M-1069-167v-13h-16.364l-7.15 6.5 7.15 6.5H-1069m1 1h-17.751l-8.25-7.5 8.25-7.5H-1068v15z" class="prefix__cls-3" transform="translate(1381 778)"/>
        </g>
        <g id="prefix__패스_350" class="prefix__cls-1" data-name="패스 350">
            <path d="M-1090.636-174.636l-2.475-2.474-.353-.354-.354.354-2.475 2.474 2.475-2.475.353-.353-.353-.354-2.475-2.475 2.475 2.475.354.353.353-.353 2.475-2.475-2.475 2.475-.353.354.353.353 2.475 2.475z" class="prefix__cls-2" transform="translate(1395.964 781.964)"/>
            <path d="M-1090.636-173.929l-2.828-2.828-2.829 2.828-.707-.707 2.828-2.828-2.828-2.829.707-.707 2.829 2.828 2.828-2.828.707.707-2.828 2.829 2.828 2.828-.707.707z" class="prefix__cls-3" transform="translate(1395.964 781.964)"/>
        </g>
    </g>
</svg>
