<svg xmlns="http://www.w3.org/2000/svg" width="21" height="21" viewBox="0 0 21 21">
    <g id="prefix__btn_refresh" transform="translate(-319 -513)">
        <g id="prefix__타원_69" data-name="타원 69" transform="translate(319 513)" style="fill:#fff;stroke:#707070;stroke-width:.5px">
            <circle cx="10.5" cy="10.5" r="10.5" style="stroke:none"/>
            <circle cx="10.5" cy="10.5" r="10.25" style="fill:none"/>
        </g>
        <path id="prefix__패스_530" d="M6711.472 5915.931a5.4 5.4 0 00-5.351 4.733l-.72-1.514a.247.247 0 00-.447.212l1.1 2.32a.244.244 0 00.181.138.2.2 0 00.042 0 .248.248 0 00.176-.072l1.791-1.792a.247.247 0 00-.35-.35l-1.3 1.306a4.9 4.9 0 112.064 4.417.248.248 0 10-.286.4 5.393 5.393 0 103.1-9.805z" data-name="패스 530" transform="translate(-6381.844 -5398.031)" style="fill:#707070"/>
    </g>
</svg>
