<svg xmlns="http://www.w3.org/2000/svg" width="34" height="34" viewBox="0 0 34 34">
    <defs>
        <style>
            .cls-1{fill:none}.cls-2{fill:#dbe0e9}
        </style>
    </defs>
    <g id="icon_favorite_n" transform="translate(-15 -283)">
        <path id="사각형_292" d="M0 0h34v34H0z" class="cls-1" data-name="사각형 292" transform="translate(15 283)"/>
        <path id="패스_349" d="M1995.563-2492.034a1.688 1.688 0 0 0-1.363-1.149l-4.615-.671-2.064-4.181a1.689 1.689 0 0 0-1.514-.942 1.689 1.689 0 0 0-1.514.942l-2.064 4.181-4.615.671a1.689 1.689 0 0 0-1.363 1.149 1.688 1.688 0 0 0 .427 1.731l3.339 3.255-.788 4.6a1.69 1.69 0 0 0 .672 1.652 1.691 1.691 0 0 0 .993.323 1.684 1.684 0 0 0 .786-.194l4.128-2.17 4.127 2.17a1.686 1.686 0 0 0 .786.194 1.691 1.691 0 0 0 .993-.323 1.69 1.69 0 0 0 .672-1.652l-.788-4.6 3.339-3.255a1.688 1.688 0 0 0 .426-1.731z" class="cls-2" data-name="패스 349" transform="translate(-1954.368 2789.977)"/>
    </g>
</svg>
