<svg xmlns="http://www.w3.org/2000/svg" width="15" height="15" viewBox="0 0 15 15">
    <g id="prefix__btn_info_01" transform="translate(-147 -693)">
        <g id="prefix__타원_69" data-name="타원 69" transform="translate(147 693)" style="fill:#fff;stroke:#88b4e2;stroke-width:.8px">
            <circle cx="7.5" cy="7.5" r="7.5" style="stroke:none"/>
            <circle cx="7.5" cy="7.5" r="7.1" style="fill:none"/>
        </g>
        <path id="prefix__패스_531" d="M1.835-2.925h.817C2.47-4.508 4.286-5.1 4.286-6.586A1.725 1.725 0 002.4-8.382a2.518 2.518 0 00-1.927.928L1-6.97a1.72 1.72 0 011.3-.646 1.021 1.021 0 011.088 1.09c0 1.201-1.788 1.846-1.553 3.601zm.434 2.361a.668.668 0 00.676-.7.686.686 0 00-.676-.716.684.684 0 00-.669.72.666.666 0 00.669.696z" data-name="패스 531" transform="translate(152 705)" style="fill:#2a8dd8"/>
    </g>
</svg>
