<svg xmlns="http://www.w3.org/2000/svg" width="35" height="35" viewBox="0 0 35 35">
    <defs>
        <style>
            .cls-1{fill:none}.cls-2{fill:#1a1818}
        </style>
    </defs>
    <g id="btn_account_edit" transform="translate(-322 -18)">
        <path id="사각형_200" d="M0 0h35v35H0z" class="cls-1" data-name="사각형 200" transform="translate(322 18)"/>
        <g id="그룹_287" data-name="그룹 287" transform="translate(330 26)">
            <g id="gear-1">
                <path id="패스_295" d="M6566.207 4471.519h-2.521a.322.322 0 0 1-.3-.214 27.065 27.065 0 0 1-.183-.537c-.321-.956-.5-1.484-1.2-1.78h-.012c-.711-.3-1.212-.047-2.121.4-.16.08-.328.164-.509.25a.322.322 0 0 1-.365-.063l-1.783-1.783a.32.32 0 0 1-.062-.364c.085-.18.169-.35.25-.51.434-.871.7-1.4.408-2.11v-.011c-.295-.711-.825-.889-1.786-1.212-.17-.057-.348-.117-.536-.183a.322.322 0 0 1-.214-.3v-2.521a.321.321 0 0 1 .214-.3c.189-.067.368-.127.538-.184.96-.323 1.489-.5 1.784-1.211a.025.025 0 0 1 0-.009c.29-.708.041-1.208-.409-2.113-.08-.16-.164-.329-.249-.51a.32.32 0 0 1 .062-.364l1.783-1.782a.32.32 0 0 1 .365-.063c.181.086.35.17.51.25.908.451 1.409.7 2.119.4.71-.294.889-.823 1.212-1.784.056-.169.116-.349.183-.537a.322.322 0 0 1 .3-.213h2.521a.319.319 0 0 1 .3.213c.067.189.128.369.185.538.322.958.5 1.486 1.2 1.781h.012c.712.292 1.212.043 2.119-.407.158-.08.327-.163.507-.249a.318.318 0 0 1 .364.063l1.783 1.782a.322.322 0 0 1 .063.364c-.086.181-.17.35-.25.51-.451.909-.7 1.41-.4 2.121a.092.092 0 0 0 .005.012c.294.7.823.877 1.778 1.2.169.057.349.117.538.185a.32.32 0 0 1 .213.3v2.521a.32.32 0 0 1-.213.3c-.188.067-.367.127-.537.184-.962.324-1.492.5-1.785 1.212s-.047 1.211.4 2.118c.079.161.164.331.25.512a.322.322 0 0 1-.063.364l-1.783 1.783a.321.321 0 0 1-.364.063c-.183-.087-.353-.172-.515-.251-.906-.451-1.406-.7-2.109-.406h-.011c-.71.3-.886.829-1.209 1.786-.057.169-.117.346-.184.534a.319.319 0 0 1-.293.225zm-2.293-.643h2.066c.036-.107.072-.21.1-.31.332-.989.595-1.768 1.58-2.179h.013a2.933 2.933 0 0 1 2.63.429l.3.148 1.46-1.46c-.05-.1-.1-.2-.147-.3a2.931 2.931 0 0 1-.422-2.65c.406-.98 1.186-1.243 2.175-1.576l.313-.105v-2.065l-.315-.107c-1.025-.344-1.766-.594-2.172-1.573v-.013a2.944 2.944 0 0 1 .427-2.641c.047-.094.1-.192.146-.295l-1.46-1.46-.293.145a2.94 2.94 0 0 1-2.656.424c-.978-.406-1.241-1.185-1.571-2.171-.035-.1-.069-.206-.106-.314h-2.066l-.106.314c-.331.986-.592 1.766-1.571 2.172a2.934 2.934 0 0 1-2.651-.422l-.3-.146-1.46 1.46.146.295a2.936 2.936 0 0 1 .423 2.654.067.067 0 0 1-.005.01c-.408.972-1.185 1.234-2.168 1.563l-.313.106v2.065l.311.105c.983.331 1.762.592 2.169 1.562 0 0 0 .01.006.014a2.925 2.925 0 0 1-.423 2.653c-.047.1-.1.193-.146.3l1.46 1.46.295-.146a2.939 2.939 0 0 1 2.641-.427h.013c.981.407 1.243 1.187 1.573 2.173l.104.308zm10.393-7.778zm-9.361 3.569a4.829 4.829 0 1 1 4.83-4.83 4.834 4.834 0 0 1-4.83 4.83zm0-9.017a4.188 4.188 0 1 0 4.188 4.188 4.192 4.192 0 0 0-4.188-4.188z" class="cls-2" data-name="패스 295" transform="translate(-6555.266 -4452.157)"/>
            </g>
        </g>
    </g>
</svg>
