<svg xmlns="http://www.w3.org/2000/svg" width="35" height="35" viewBox="0 0 35 35">
    <defs>
        <style>
            .prefix__cls-1{fill:#3e434b}.prefix__cls-2{fill:#11b7eb}
        </style>
    </defs>
    <g id="prefix__btn_box" transform="translate(-312 -13)">
        <g id="prefix__그룹_362" data-name="그룹 362" transform="translate(22.15 -209.85)">
            <g id="prefix__그룹_361" data-name="그룹 361" transform="translate(298.522 230.472)">
                <g id="prefix__사각형_43_1_" transform="translate(.012 3.093)">
                    <g id="prefix__그룹_351" data-name="그룹 351">
                        <g id="prefix__그룹_350" data-name="그룹 350">
                            <path id="prefix__패스_336" d="M-267.962-447.724h-14.562a1.458 1.458 0 0 1-1.456-1.456v-13.154a1.458 1.458 0 0 1 1.456-1.456h14.563a1.458 1.458 0 0 1 1.456 1.456v13.154a1.45 1.45 0 0 1-1.457 1.456zm-14.562-15.341a.73.73 0 0 0-.731.731v13.154a.73.73 0 0 0 .731.731h14.563a.73.73 0 0 0 .731-.731v-13.154a.73.73 0 0 0-.731-.731z" class="prefix__cls-1" data-name="패스 336" transform="translate(283.98 463.79)"/>
                        </g>
                    </g>
                </g>
                <g id="prefix__그룹_352" data-name="그룹 352" transform="translate(8.306 3.491)">
                    <path id="prefix__사각형_219" d="M0 0H0.828V15.27H0z" class="prefix__cls-1" data-name="사각형 219"/>
                </g>
                <g id="prefix__그룹_353" data-name="그룹 353" transform="translate(0 10.68)">
                    <path id="prefix__패스_337" d="M17.058 18.808H.446a.415.415 0 1 1 0-.828h16.612a.415.415 0 1 1 0 .828z" class="prefix__cls-1" data-name="패스 337" transform="translate(0 -17.98)"/>
                </g>
                <g id="prefix__그룹_360" data-name="그룹 360" transform="translate(3.779)">
                    <g id="prefix__그룹_356" data-name="그룹 356">
                        <g id="prefix__그룹_354" data-name="그룹 354">
                            <path id="prefix__패스_338" d="M11.221 3.65c-.7 0-4.646-.089-4.854-2.169A1.359 1.359 0 0 1 7.056.2a1.92 1.92 0 0 1 2.162.319 11.19 11.19 0 0 1 2.394 2.507.406.406 0 0 1 .024.41.392.392 0 0 1-.351.214.24.24 0 0 0-.064 0zM7.828.8a.7.7 0 0 0-.368.1.553.553 0 0 0-.3.5c.1.963 2 1.313 3.28 1.414a9.612 9.612 0 0 0-1.7-1.646A1.61 1.61 0 0 0 7.828.8z" class="prefix__cls-2" data-name="패스 338" transform="translate(-6.361 -.005)"/>
                        </g>
                        <g id="prefix__그룹_355" data-name="그룹 355" transform="translate(4.623)">
                            <path id="prefix__패스_339" d="M14.6 3.65h-.059a.4.4 0 0 1-.351-.214.393.393 0 0 1 .024-.41A11.19 11.19 0 0 1 16.606.519 1.92 1.92 0 0 1 18.769.2a1.354 1.354 0 0 1 .689 1.277C19.244 3.555 15.293 3.65 14.6 3.65zM18 .8a1.641 1.641 0 0 0-.921.362 9.612 9.612 0 0 0-1.7 1.646c1.289-.1 3.185-.452 3.28-1.414a.56.56 0 0 0-.291-.505A.751.751 0 0 0 18 .8z" class="prefix__cls-2" data-name="패스 339" transform="translate(-14.141 -.005)"/>
                        </g>
                    </g>
                    <g id="prefix__그룹_359" data-name="그룹 359" transform="translate(.405 2.834)">
                        <g id="prefix__그룹_357" data-name="그룹 357" transform="translate(0 .004)">
                            <path id="prefix__패스_340" d="M7.445 8.506a.4.4 0 0 1-.232-.731l4.237-2.923a.4.4 0 0 1 .457.66L7.671 8.435a.405.405 0 0 1-.226.071z" class="prefix__cls-2" data-name="패스 340" transform="translate(-7.042 -4.782)"/>
                        </g>
                        <g id="prefix__그룹_358" data-name="그룹 358" transform="translate(4.098)">
                            <path id="prefix__패스_341" d="M18.574 8.5a.391.391 0 0 1-.226-.071l-4.236-2.92a.4.4 0 0 1-.1-.558.4.4 0 0 1 .558-.1l4.236 2.923a.4.4 0 0 1-.232.731z" class="prefix__cls-2" data-name="패스 341" transform="translate(-13.94 -4.775)"/>
                        </g>
                    </g>
                </g>
            </g>
        </g>
        <path id="prefix__사각형_335" d="M0 0H35V35H0z" data-name="사각형 335" transform="translate(312 13)" style="fill:none"/>
    </g>
</svg>
