<svg xmlns="http://www.w3.org/2000/svg" width="30" height="30" viewBox="0 0 30 30">
    <defs>
        <style>
            .cls-1{fill:none}.cls-2{fill:#262626}
        </style>
    </defs>
    <g id="btn_point" transform="translate(-277 -50)">
        <path id="사각형_304" d="M0 0h30v30H0z" class="cls-1" data-name="사각형 304" transform="translate(277 50)"/>
        <g id="그룹_419" data-name="그룹 419" transform="translate(280.945 53.766)">
            <path id="패스_380" d="M7464.739 4936.372a11.1 11.1 0 1 0 11.1 11.1 11.111 11.111 0 0 0-11.1-11.1zm0 21.318a10.219 10.219 0 1 1 10.218-10.218 10.231 10.231 0 0 1-10.218 10.217z" class="cls-2" data-name="패스 380" transform="translate(-7453.64 -4936.372)"/>
            <path id="패스_381" d="M7531.981 4985.251h-3.056v11.02h1.25v-4.456h1.866c2.423 0 4.034-1.083 4.034-3.372.001-2.364-1.61-3.192-4.094-3.192zm-.12 5.541h-1.686v-4.532h1.624c2.019 0 3.042.528 3.042 2.184.001 1.639-.963 2.348-2.98 2.348z" class="cls-2" data-name="패스 381" transform="translate(-7520.361 -4979.445)"/>
        </g>
    </g>
</svg>
