<svg xmlns="http://www.w3.org/2000/svg" width="214" height="23" viewBox="0 0 214 23">
    <defs>
        <clipPath id="clip-path">
            <path id="사각형_47" d="M0 0H6.418V13.202H0z" class="cls-1"/>
        </clipPath>
        <style>
            .cls-1{fill:#fff}.cls-4{fill:#0a82ff}
        </style>
    </defs>
    <g id="btn_tcoin_info" transform="translate(-89.115 -582.378)">
        <g id="사각형_50" fill="#fff" stroke="#0a82ff" transform="translate(89.115 582.378)">
            <rect width="214" height="23" stroke="none" rx="11.5"/>
            <rect width="213" height="22" x=".5" y=".5" fill="none" rx="11"/>
        </g>
        <path id="패스_14" fill="#4c4c4c" d="M-69.763-3.917h3.844v-1.036h-3.844v-2.1h4.281v-1.058h-5.566v7.663h.936A31.652 31.652 0 0 0-64.721-.8l-.125-1.036a30.547 30.547 0 0 1-4.917.337zM-63.7-9.1V2.2h1.286V-9.1zm4.331 4.019l.175 1.086 6.652-.362a20.174 20.174 0 0 1-.387 2.5l1.273.15a23.029 23.029 0 0 0 .487-5.317v-1.037h-7.875v1.036h6.6c0 .512 0 1.073-.025 1.685zm4.231 4.793v-2.831h-1.3v2.833h-3.807V.775h10.2V-.286zm15.676-8.8h-1.286V-.9h1.286zm-7.813 3.57a1.644 1.644 0 0 1 1.735-1.71 1.651 1.651 0 0 1 1.74 1.713 1.658 1.658 0 0 1-1.735 1.71 1.651 1.651 0 0 1-1.738-1.71zm4.718 0a2.82 2.82 0 0 0-2.983-2.821 2.83 2.83 0 0 0-3 2.821 2.838 2.838 0 0 0 3 2.821 2.827 2.827 0 0 0 2.985-2.818zm-2.97 6.44v-2.643h-1.3v3.694h7.688V.925zm11.969-5c1.972-.162 3.482-.811 4.181-1.81.711 1 2.222 1.647 4.181 1.81l.4-.986c-2.259-.162-3.669-.949-3.832-1.947h3.332v-1.013h-3.432V-9.1h-1.286v1.073h-3.432v1.011h3.332c-.162 1-1.573 1.785-3.832 1.947zM-26.8.289c0 .612-.911.924-2.584.924S-31.959.9-31.959.289s.911-.936 2.571-.936 2.588.324 2.588.936zm2.534-2.858v-1.024h-10.2v1.023h4.456v.986c-2.047.112-3.257.761-3.257 1.872 0 1.223 1.448 1.9 3.882 1.9s3.882-.674 3.882-1.9c0-1.1-1.186-1.747-3.22-1.872v-.986zm7.3-3.495V-5h2.047v4.165h1.286v-8.237h-1.286v3.008zm.7 2.633a3.706 3.706 0 0 1-2.646-3.382V-7.2h2.346v-1.036H-22.6V-7.2h2.384v.387a3.923 3.923 0 0 1-2.771 3.619l.661 1.011a4.607 4.607 0 0 0 2.783-2.671 4.337 4.337 0 0 0 2.633 2.421zM-19.653.925v-2.471h-1.286v3.52h7.588V.925zm15.4-5.08H-7.01V-5.8h2.758zm1.273-4.219h-1.272v1.56H-7.01v-1.56H-8.3v5.242h5.317zm-.537 9.56C-5.088 1.187-6 .788-6 .051s.911-1.123 2.484-1.123 2.484.4 2.484 1.123-.911 1.136-2.483 1.136zm0-3.282c-2.321 0-3.757.811-3.757 2.147S-5.837 2.2-3.515 2.2.241 1.4.241.051-1.194-2.1-3.515-2.1zM.117-6.339v-2.746h-1.286v6.727H.117v-2.92h1.6v-1.061zM10.85 1H6.082V-.186h4.768zm0-2.2H6.082v-1.2H4.809v4.436h7.326v-4.431H10.85zM7.243-4.342H4.585v-1.585h2.658zM10.85-9.1v2.7H8.5v-2.11H7.243v1.585H4.585v-1.6H3.312v5.229H8.5v-2.057h2.35v2.446h1.286v-6.178zm11.407 0V2.211h1.3V-9.1zm-4.705.836c-1.672 0-2.9 1.548-2.9 3.969 0 2.446 1.223 3.981 2.9 3.981s2.908-1.532 2.908-3.978c0-2.421-1.223-3.969-2.908-3.969zm0 1.161c.986 0 1.672 1.061 1.672 2.808 0 1.772-.686 2.833-1.672 2.833s-1.66-1.061-1.66-2.833c0-1.744.687-2.805 1.66-2.805zM36.286.064c0 .711-.961 1.1-2.633 1.1s-2.634-.389-2.634-1.1.961-1.1 2.633-1.1 2.634.376 2.634 1.1zm2.5-3.694v-1.036h-1.539a14.37 14.37 0 0 0 .262-3.108v-.874h-7.651V-7.6h6.39a13 13 0 0 1-.287 2.933h-7.388v1.037h4.443v1.585c-2.059.125-3.295.861-3.295 2.109 0 1.348 1.5 2.134 3.931 2.134s3.931-.786 3.931-2.134c0-1.248-1.223-1.984-3.282-2.109V-3.63zM42.551-1h5.18v2.025h-5.18zm-1.26 3.048h7.7V-2.02h-7.7zM48.7-4.429a14.19 14.19 0 0 0 .287-3.233v-.874h-7.646v1.048h6.39a12.817 12.817 0 0 1-.312 3.058h-7.364v1.048h10.209v-1.047zM54.82-1.3a1.5 1.5 0 0 1-1.573-1.573 1.5 1.5 0 0 1 1.573-1.569 1.5 1.5 0 0 1 1.573 1.573A1.5 1.5 0 0 1 54.82-1.3zm0-4.206a2.622 2.622 0 0 0-2.8 2.633 2.615 2.615 0 0 0 2.8 2.633 2.622 2.622 0 0 0 2.8-2.633 2.629 2.629 0 0 0-2.8-2.627zm.624-3.42h-1.286v1.576h-2.683v1.05h6.6v-1.05h-2.631zm6.577 4.368h-1.734v-4.527h-1.3V2.2h1.3v-5.681h1.735zm2.733-2.421h3.956v-1.045h-5.241v7.451h.924a27.816 27.816 0 0 0 5.267-.374l-.137-1.061a27.211 27.211 0 0 1-4.768.362zM73.5-4.754h-1.76V-9.1h-1.282V2.2h1.286v-5.893H73.5zm5.454.974h-2.705v-3.345h2.708zm3.594-2.371v1.373h-2.342v-1.374zm-2.342 2.408h2.346V-.86h1.286v-8.225h-1.286V-7.2h-2.346v-.949h-5.217v5.392h5.217zM77.8.925v-2.534h-1.3v3.582h7.6V.925zm9.77-2.633h1.26c-.212-1.86 2.009-2.534 2.009-4.356a2.212 2.212 0 0 0-2.459-2.284A3.266 3.266 0 0 0 85.9-7.15l.811.736a2.033 2.033 0 0 1 1.51-.761 1.143 1.143 0 0 1 1.223 1.211C89.442-4.6 87.27-3.805 87.57-1.708zm.649 3.1a.955.955 0 0 0 .961-1 .977.977 0 0 0-.961-1.023.969.969 0 0 0-.961 1.019.948.948 0 0 0 .961.999z" transform="translate(191.782 597.759)"/>
        <circle id="타원_5" cx="11.5" cy="11.5" r="11.5" class="cls-4" transform="translate(89.115 582.378)"/>
        <g id="그룹_10" transform="translate(97.194 587.531)">
            <g id="그룹_9" clip-path="url(#clip-path)">
                <path id="패스_12" d="M36.465.185a1.605 1.605 0 0 1 2.174.621 1.605 1.605 0 0 1-.89 2.079 1.6 1.6 0 0 1-2.174-.621 1.605 1.605 0 0 1 .89-2.079" class="cls-1" transform="translate(-32.351)"/>
                <path id="패스_13" d="M1.421 49.3c-.276.161-1.026.76-1.026.76l-.31-.6a4.793 4.793 0 0 1 3.178-1.543c1.82 0 2.073 1.336 1.727 2.441s-1.059 2.9-1.428 3.823.115 1.152.806.576.829-.714.829-.714l.322.576s-2.05 2.188-3.616 2.3c-1.728.127-2.234-.76-1.7-2.51s1.382-3.524 1.681-4.4-.184-.875-.461-.714" class="cls-1" transform="translate(0 -43.737)"/>
            </g>
        </g>
        <path id="다각형_1" d="M3 0l3 5H0z" class="cls-4" transform="rotate(90 -149.132 442.247)"/>
    </g>
</svg>
