<svg xmlns="http://www.w3.org/2000/svg" width="30" height="30" viewBox="0 0 30 30">
    <g id="prefix__btn_alarm_new" transform="translate(-315 -50)">
        <path id="prefix__사각형_305" d="M0 0H30V30H0z" data-name="사각형 305" transform="translate(315 50)" style="fill:none"/>
        <path id="prefix__패스_379" d="M7959.3 4849.61a4.181 4.181 0 01-2.334-2.893c-.149-.521-.3-1.076-.453-1.664-.591-2.225-1.261-4.746-2.233-6.1a5.226 5.226 0 00-2.347-1.793 2.226 2.226 0 10-4.337.039 5.223 5.223 0 00-2.248 1.754c-.972 1.351-1.643 3.872-2.233 6.1-.156.587-.3 1.143-.452 1.664a4.185 4.185 0 01-2.332 2.892.42.42 0 00-.283.4v1.848a.419.419 0 00.419.419h5.67a3.721 3.721 0 007.355 0h5.67a.419.419 0 00.419-.419v-1.848a.422.422 0 00-.281-.399zm-10.926-12.916a1.385 1.385 0 112.771 0 1.366 1.366 0 01-.018.22 5.885 5.885 0 00-1.274-.15h-.078a5.854 5.854 0 00-1.378.176 1.372 1.372 0 01-.026-.246zm-4.449 8.575c.573-2.154 1.222-4.6 2.1-5.821a4.648 4.648 0 013.775-1.845h.02a4.647 4.647 0 013.775 1.845c.882 1.225 1.531 3.667 2.1 5.821.157.592.306 1.151.457 1.68.026.091.054.18.083.267h-12.857c.029-.087.058-.176.083-.267.155-.53.303-1.088.46-1.68zm5.889 9.323a2.885 2.885 0 01-2.825-2.318h5.651a2.886 2.886 0 01-2.83 2.317zm8.928-3.157h-17.855v-1.155a4.954 4.954 0 002.152-2.225h13.552a4.948 4.948 0 002.151 2.225z" data-name="패스 379" transform="translate(-7620.27 -4780.454)" style="fill:#262626"/>
        <circle id="prefix__타원_86" cx="1.75" cy="1.75" r="1.75" data-name="타원 86" transform="translate(338 55)" style="fill:#e60000"/>
    </g>
</svg>
