<svg xmlns="http://www.w3.org/2000/svg" id="bubi_logo" width="72" height="23.108" viewBox="0 0 72 23.108">
    <defs>
        <style>
            .cls-1{fill:#34a4ef}
        </style>
    </defs>
    <g id="bubi_logo-2" data-name="bubi_logo">
        <g id="그룹_10" data-name="그룹 10">
            <path id="패스_3" d="M1815.178 163.517h.008c.022 0 .044.007.067.007h10.908c.022 0 .043-.006.066-.007h.006a1.508 1.508 0 0 0 1.523-1.492v-9.56a1.524 1.524 0 0 0-3.047 0v7.265a.892.892 0 0 1-.249.54 1.068 1.068 0 0 1-.665.268h-7.095v-1.994h5.134a1.492 1.492 0 1 0 0-2.984h-4.383l.057-.016s-.244.083-.574-.24a1.032 1.032 0 0 1-.234-.563v-2.277a1.524 1.524 0 0 0-3.047 0v9.56a1.508 1.508 0 0 0 1.525 1.493z" class="cls-1" data-name="패스 3" transform="translate(-1811.257 -150.357)"/>
            <path id="패스_4" d="M1810.557 270.011h-15.169a1.578 1.578 0 1 0 0 3.156h6.427v3.733a1.55 1.55 0 0 0 1.566 1.534 1.549 1.549 0 0 0 1.565-1.534v-2.966a.883.883 0 0 1 .283-.557 1.125 1.125 0 0 1 .584-.215h4.743a1.578 1.578 0 1 0 0-3.156z" class="cls-1" data-name="패스 4" transform="translate(-1793.777 -255.331)"/>
            <path id="패스_5" d="M1966.569 156.361a1.579 1.579 0 0 0-1.594 1.562v8.516a.774.774 0 0 1-.21.421.661.661 0 0 1-.415.2h-4.874v-2.87h2.879a1.508 1.508 0 0 0 1.523-1.492 1.508 1.508 0 0 0-1.523-1.492h-2.111l.057-.016s-.245.083-.574-.24a1.128 1.128 0 0 1-.242-.633l-.008.062v-2.461a1.6 1.6 0 0 0-3.189 0v10.562a1.543 1.543 0 0 0 .5 1.13 1.634 1.634 0 0 0 .169.136 1.516 1.516 0 0 0 .159.1l.015.008a1.526 1.526 0 0 0 .588.177c.047 0 .093.014.141.014h8.567c.03 0 .058-.007.088-.009h.055a1.579 1.579 0 0 0 1.6-1.562v-10.551a1.579 1.579 0 0 0-1.601-1.562z" class="cls-1" data-name="패스 5" transform="translate(-1936.686 -155.108)"/>
            <path id="패스_6" d="M2071.7 145.759a1.579 1.579 0 0 0-1.595 1.562v19.836a1.6 1.6 0 0 0 3.19 0v-19.836a1.579 1.579 0 0 0-1.595-1.562z" class="cls-1" data-name="패스 6" transform="translate(-2036.782 -145.759)"/>
        </g>
        <g id="그룹_11" data-name="그룹 11" transform="translate(41.256 .598)">
            <path id="패스_7" d="M2163.524 150.817h-24.708a2.941 2.941 0 0 0-2.971 2.91v14.294a2.941 2.941 0 0 0 2.971 2.91h24.708a2.941 2.941 0 0 0 2.971-2.91v-14.294a2.941 2.941 0 0 0-2.971-2.91zm1.26 16.878a1.634 1.634 0 0 1-1.65 1.616h-23.929a1.634 1.634 0 0 1-1.65-1.616v-13.64a1.634 1.634 0 0 1 1.65-1.616h23.929a1.634 1.634 0 0 1 1.65 1.616z" class="cls-1" data-name="패스 7" transform="translate(-2135.844 -150.817)"/>
            <path id="패스_8" d="M2179.287 194.16a.931.931 0 0 0-.94.921v5.419l-4.062-5.741a1.721 1.721 0 0 0-.939-.594.931.931 0 0 0-.94.921v8.326a.94.94 0 0 0 1.88 0v-5.418l4.116 5.815a.882.882 0 0 0 .134.15.941.941 0 0 0 .752.374.931.931 0 0 0 .94-.921v-8.326a.931.931 0 0 0-.941-.926z" class="cls-1" data-name="패스 8" transform="translate(-2167.996 -189.039)"/>
            <path id="패스_9" d="M2250.372 194.16h-3.532a.905.905 0 0 0-.483.14 1.619 1.619 0 0 0-.985 1.481v7.729a.826.826 0 0 0 .834.818h.211a.827.827 0 0 0 .835-.818v-3.71a.577.577 0 0 1 .116-.3.437.437 0 0 1 .235-.136h2.769a.886.886 0 1 0 0-1.772h-3.12v-1.23a.577.577 0 0 1 .116-.3.423.423 0 0 1 .261-.142h2.742a.9.9 0 0 0 .9-.886.9.9 0 0 0-.899-.874z" class="cls-1" data-name="패스 9" transform="translate(-2232.162 -189.039)"/>
            <path id="패스_10" d="M2305.217 202.549a.821.821 0 0 0-.185.022 4.227 4.227 0 0 1-2.9-.589 3.414 3.414 0 0 1 .083-5.6 5.626 5.626 0 0 1 2.764-.567v-.01a.843.843 0 0 0 .119.012.82.82 0 1 0 0-1.64h-.038v-.016a6.38 6.38 0 0 0-4.233 1.079 5.333 5.333 0 0 0-1.93 4.241 5.183 5.183 0 0 0 1.913 3.725 5.958 5.958 0 0 0 4.514.992.812.812 0 0 0 .1-.019h.01a.828.828 0 0 0-.22-1.626z" class="cls-1" data-name="패스 10" transform="translate(-2279.236 -189.018)"/>
        </g>
    </g>
</svg>
