<svg xmlns="http://www.w3.org/2000/svg" width="51.701" height="21.679" viewBox="0 0 51.701 21.679">
  <g id="그룹_796" data-name="그룹 796" transform="translate(-58 -332.244)">
    <g id="그룹_795" data-name="그룹 795">
      <g id="card_noti_01" transform="translate(-1.468 -62)">
        <path id="합치기_1" data-name="합치기 1" d="M25.136,16.019H10a8,8,0,0,1-8-8V8a8,8,0,0,1,8-8H45.7a8,8,0,0,1,8,8v.019a8,8,0,0,1-8,8h-16.1l-2.234,5.66Z" transform="translate(57.468 394.244)" fill="#d53365"/>
      </g>
    </g>
    <path id="패스_1886" data-name="패스 1886" d="M-16.742,0h4.906V-1.078h-3.63V-3.7h2.97V-4.774h-2.97V-7.029h3.509V-8.1h-4.785Zm8.327,0h1.507l2.53-8.1h-1.3l-1.2,4.191c-.264.924-.462,1.716-.737,2.651h-.055c-.286-.935-.462-1.727-.737-2.651L-9.6-8.1h-1.353Zm5.357,0H1.848V-1.078h-3.63V-3.7h2.97V-4.774h-2.97V-7.029H1.727V-8.1H-3.058ZM3.817,0h1.21V-3.817c0-.88-.1-1.815-.165-2.651h.055l.847,1.694L8.448,0H9.757V-8.1H8.547v3.773c0,.88.1,1.859.165,2.695H8.657L7.81-3.344,5.126-8.1H3.817Zm10,0h1.276V-7.029h2.387V-8.1H11.44v1.067h2.376Z" transform="translate(84 344)" fill="#fff"/>
  </g>
</svg>
