<svg xmlns="http://www.w3.org/2000/svg" width="60.064" height="21.679" viewBox="0 0 60.064 21.679">
    <g id="prefix__card_noti_01" transform="translate(-55.468 -394.244)">
        <path id="prefix__합치기_1" fill="#d53365" d="M25.136 16.019H6a8 8 0 0 1-8-8V8a8 8 0 0 1 8-8h44.064a8 8 0 0 1 8 8v.019a8 8 0 0 1-8 8H29.605l-2.234 5.66z" data-name="합치기 1" transform="translate(57.468 394.244)"/>
        <path id="prefix__패스_513" fill="#fff" d="M-14.91-5.423c-2-.286-3.5-1.529-3.5-2.816v-.528h-1.2v.528c0 1.309-1.474 2.53-3.5 2.816l.44.913A5 5 0 0 0-19-6.754a5.026 5.026 0 0 0 3.65 2.244zm.385 1.848H-23.5v.924h3.894V.858h1.133v-3.509h3.949zm9.515-1.848c-2-.286-3.5-1.529-3.5-2.816v-.528h-1.2v.528c0 1.309-1.474 2.53-3.5 2.816l.44.913A5 5 0 0 0-9.1-6.754 5.026 5.026 0 0 0-5.45-4.51zm.385 1.848H-13.6v.924h3.894V.858h1.133v-3.509h3.949zm4.455.605h2.034v1.716H-.171zm3.156 1.716V-2.97H4.45v-.913H-1.5v-1.375h5.729v-3.135h-6.864v.913h5.742v1.32h-5.72v3.19h1.32v1.716H-3.7v.935h9v-.935zm8.041 1.4c1.584 0 2.618-1.408 2.618-4.224 0-2.794-1.034-4.169-2.618-4.169S8.409-6.886 8.409-4.081 9.432.143 11.027.143zm0-1c-.825 0-1.408-.88-1.408-3.223 0-2.321.583-3.168 1.408-3.168s1.408.847 1.408 3.168c0 2.339-.583 3.219-1.408 3.219zm8.624-2.4v.792H21.6v.924h1.133V-9.1H21.6v5.841zm-1.98-4.62c.814 0 1.375.352 1.375.913s-.561.913-1.375.913-1.386-.352-1.386-.913.561-.915 1.386-.915zm0 2.662c1.452 0 2.453-.693 2.453-1.749s-1-1.749-2.453-1.749-2.464.693-2.464 1.749 1.001 1.747 2.464 1.747zm-.451 3.353h1.133v-1.914a22.087 22.087 0 0 0 2.552-.286l-.088-.814a56.463 56.463 0 0 1-6.369.3l.143.924c.781 0 1.683-.011 2.629-.055zm-.3 1.6v-2.018h-1.13V.66h7.172v-.924z" data-name="패스 513" transform="translate(85 406)"/>
    </g>
</svg>
