<svg xmlns="http://www.w3.org/2000/svg" width="50" height="30" viewBox="0 0 50 30">
    <g id="prefix__card_icon_01" transform="translate(-59 -354)">
        <g id="prefix__그룹_467" data-name="그룹 467" transform="translate(68.388 358.879)">
            <path id="prefix__패스_352" fill="#1a1818" d="M6307.466 5112.51l-.095.01a2.691 2.691 0 0 0-2.687-2.649h-23.445a2.693 2.693 0 0 0-2.689 2.672l-1.063 15.1v.033a2.691 2.691 0 0 0 2.689 2.688h23.446a2.681 2.681 0 0 0 2.138-1.066h.554a2.691 2.691 0 0 0 2.689-2.688zm-2.1 15.133v.033a1.75 1.75 0 0 1-1.749 1.749h-23.446a1.751 1.751 0 0 1-1.749-1.733l1.063-15.1v-.033a1.751 1.751 0 0 1 1.749-1.75h23.445a1.752 1.752 0 0 1 1.75 1.734zm.941.717h-.095a2.734 2.734 0 0 0 .093-.667l.733-10.408 1.019 9.349a1.751 1.751 0 0 1-1.746 1.726z" data-name="패스 352" transform="translate(-6277.483 -5109.872)"/>
            <path id="prefix__패스_353" fill="#1698ef" d="M6325.194 5137.595h-2.084l1.008-3.808a.469.469 0 1 0-.907-.24l-1.073 4.048h-1.586l-1.036-2.742a.47.47 0 0 0-.44-.3h-.011a.471.471 0 0 0-.437.326l-.868 2.72h-1.55l-1.275-4.068a.47.47 0 0 0-.9.281l1.188 3.787h-2.269a.469.469 0 0 0 0 .939h2.563l1 3.207a.471.471 0 0 0 .447.331.469.469 0 0 0 .447-.327l1.026-3.21h1.454l1.221 3.233a.472.472 0 0 0 .44.3h.023a.47.47 0 0 0 .431-.349l.845-3.188h2.333a.469.469 0 0 0 0-.939zm-8.216 2.448l-.473-1.509h.955zm1.768-2.448l.368-1.149.433 1.149zm2.737 2.468l-.577-1.529h.982z" data-name="패스 353" transform="translate(-6304.266 -5127.717)"/>
        </g>
        <path id="prefix__사각형_306" fill="none" d="M0 0H50V30H0z" data-name="사각형 306" transform="translate(59 354)"/>
    </g>
</svg>
