<svg xmlns="http://www.w3.org/2000/svg" width="50" height="30" viewBox="0 0 50 30">
    <defs>
        <style>
            .cls-1{fill:#1a1818}.cls-2{fill:#1698ef}.cls-3{fill:none}
        </style>
    </defs>
    <g id="card_icon_03" transform="translate(-252 -354)">
        <g id="그룹_468" data-name="그룹 468" transform="translate(260.583 355.849)">
            <path id="패스_368" d="M5904.518 5302.248a2.91 2.91 0 0 0-1.814-.709 2.521 2.521 0 0 0-.838-1.859 2.614 2.614 0 0 0-3.406.09c-.507.488-2.875 2.786-3.678 3.565a2.25 2.25 0 0 0-1.006-.223h-.46a2.63 2.63 0 0 0 .081-.687c0-2.022-1.277-2.022-2.512-2.022h-6.626a.535.535 0 0 0-.329.111l-7.278 5.586a.54.54 0 1 0 .658.857l7.132-5.474h6.442c1.364 0 1.432.043 1.432.941a1.132 1.132 0 0 1-.079.5.537.537 0 0 0-.148.186h-5.24a.545.545 0 0 0-.336.117l-7.155 5.689a.54.54 0 0 0 .672.846l7.007-5.57h6.739a.934.934 0 0 1 1.026.965 1.239 1.239 0 0 1-.611 1.148l-3.971.018a.541.541 0 0 0 0 1.081l4.1-.018h2.888a.539.539 0 0 0 .382-.159l4.4-4.4c.45-.45 1.484-.1 1.766.18.209.209.852.945.358 1.662-.45.657-3.866 3.909-6.151 6.03h-10.389a.551.551 0 0 0-.33.111l-3.244 2.49a.541.541 0 0 0 .657.86l3.1-2.375h10.417a.542.542 0 0 0 .369-.145c.589-.546 5.785-5.37 6.462-6.354a2.328 2.328 0 0 0-.487-3.038zm-7.533 4.056h-1.362a2.487 2.487 0 0 0 .258-1.146 2.121 2.121 0 0 0-.3-1.093c.844-.82 3.13-3.038 3.628-3.518a1.55 1.55 0 0 1 1.891-.1c.683.684.525 1.236.482 1.348a1.725 1.725 0 0 0-.36.274z" class="cls-1" data-name="패스 368" transform="translate(-5876.439 -5288.656)"/>
            <path id="패스_369" d="M5927.667 5262.01a.559.559 0 0 0 .111.084.542.542 0 0 0 .271.074.527.527 0 0 0 .12-.014.589.589 0 0 0 .185-.069.42.42 0 0 0 .081-.059c1.2-.718 6.178-3.9 6.178-7.145 0-3.95-3.215-4.063-3.583-4.063a3.488 3.488 0 0 0-2.8 1.565 6.601 6.601 0 0 0-.162.255 3.446 3.446 0 0 0-.162-.255 3.483 3.483 0 0 0-2.8-1.565c-.367 0-3.583.113-3.583 4.063-.005 3.219 4.894 6.377 6.144 7.129zm-2.567-10.11a2.411 2.411 0 0 1 1.9 1.084 3.229 3.229 0 0 1 .531 1.119.541.541 0 0 0 1.062 0 3.181 3.181 0 0 1 .53-1.119 2.411 2.411 0 0 1 1.9-1.084c.588 0 2.5.215 2.5 2.983 0 2.178-3.437 4.854-5.466 6.105-2.029-1.252-5.465-3.927-5.465-6.105.008-2.769 1.923-2.983 2.508-2.983z" class="cls-2" data-name="패스 369" transform="translate(-5910.052 -5250.819)"/>
        </g>
        <path id="사각형_308" d="M0 0h50v30H0z" class="cls-3" data-name="사각형 308" transform="translate(252 354)"/>
    </g>
</svg>
