<svg xmlns="http://www.w3.org/2000/svg" width="50" height="30" viewBox="0 0 50 30">
    <defs>
        <style>
            .cls-1{fill:none}.cls-2{fill:#0050ff}
        </style>
    </defs>
    <g id="card_icon_01" transform="translate(-82 -354)">
        <path id="사각형_306" d="M0 0h50v30H0z" class="cls-1" data-name="사각형 306" transform="translate(82 354)"/>
        <g id="그룹_533" data-name="그룹 533" transform="translate(2.08 300.593)">
            <path id="패스_514" d="M289.466 65.571h1.544v-1.8l2.1-1.237v3.038h2.19v1.887h-2.193v3.431c0 .882.368 1.188.907 1.188a1.125 1.125 0 0 0 .772-.306l.968 1.666a3.294 3.294 0 0 1-2 .637c-1.74 0-2.769-.833-2.769-3.1v-3.5h-1.544v-1.9z" class="cls-2" data-name="패스 514" transform="translate(-193.043)"/>
            <path id="패스_515" d="M373.407 103.166a4.411 4.411 0 1 1 4.4 4.337 4.313 4.313 0 0 1-4.4-4.337zm6.7-.012a2.291 2.291 0 1 0-2.291 2.328 2.3 2.3 0 0 0 2.293-2.328z" class="cls-2" data-name="패스 515" transform="translate(-270.404 -33.441)"/>
            <path id="패스_516" d="M491.176 105.157l2.058-.809a1.982 1.982 0 0 0 1.911 1.127c.87 0 1.323-.417 1.323-.907 0-.6-.894-.747-1.96-.956-1.409-.294-2.965-.723-2.965-2.487 0-1.409 1.36-2.622 3.418-2.61a3.946 3.946 0 0 1 3.578 1.777l-1.948.784a1.807 1.807 0 0 0-1.642-.882c-.833 0-1.237.343-1.237.809 0 .527.674.662 1.9.931 1.384.282 3.026.76 3.026 2.548 0 1.3-1.164 2.769-3.578 2.744a3.928 3.928 0 0 1-3.884-2.069z" class="cls-2" data-name="패스 516" transform="translate(-378.911 -33.154)"/>
            <path id="패스_517" d="M593.211 105.157l2.058-.809a1.982 1.982 0 0 0 1.911 1.127c.87 0 1.323-.417 1.323-.907 0-.6-.894-.747-1.96-.956-1.409-.294-2.965-.723-2.965-2.487 0-1.409 1.36-2.622 3.418-2.61a3.946 3.946 0 0 1 3.578 1.777l-1.948.784a1.808 1.808 0 0 0-1.642-.882c-.833 0-1.237.343-1.237.809 0 .527.674.662 1.9.931 1.384.282 3.026.76 3.026 2.548 0 1.3-1.164 2.769-3.578 2.744a3.928 3.928 0 0 1-3.884-2.069z" class="cls-2" data-name="패스 517" transform="translate(-472.921 -33.154)"/>
            <path id="패스_518" d="M93.679 77.374a5.757 5.757 0 0 0-5.158-5.734 4.748 4.748 0 0 0-1.017-.012c-2.732.184-4.533 2.034-5.734 4.2a17.317 17.317 0 0 0-1.85 5.272 9.284 9.284 0 0 1 2.732-1.274 5.786 5.786 0 0 0 11.027-2.45z" class="cls-2" data-name="패스 518" transform="translate(0 -8.36)"/>
        </g>
    </g>
</svg>
