<svg xmlns="http://www.w3.org/2000/svg" width="50" height="30" viewBox="0 0 50 30">
    <defs>
        <style>
            .cls-1{fill:#1a1818}.cls-2{fill:#1698ef}.cls-3{fill:none}
        </style>
    </defs>
    <g id="card_icon_02" transform="translate(-155 -354)">
        <g id="그룹_469" data-name="그룹 469" transform="translate(166.59 360.035)">
            <path id="패스_370" d="M5681.578 5717.8h-2.569a.524.524 0 1 0 0 1.048h2.569a.524.524 0 0 0 0-1.048z" class="cls-1" data-name="패스 370" transform="translate(-5672.985 -5704.795)"/>
            <path id="패스_371" d="M5702.788 5717.8h-2.569a.524.524 0 1 0 0 1.048h2.569a.524.524 0 1 0 0-1.048z" class="cls-1" data-name="패스 371" transform="translate(-5689.749 -5704.795)"/>
            <path id="패스_372" d="M5679.627 5659.5h-1.937v-.812a2.938 2.938 0 0 0-2.934-2.935h-19.58a2.938 2.938 0 0 0-2.935 2.935v11.636a2.938 2.938 0 0 0 2.935 2.935h12.69v.569a2.239 2.239 0 0 0 2.237 2.236h9.524a2.24 2.24 0 0 0 2.237-2.236v-12.093a2.239 2.239 0 0 0-2.237-2.235zm-24.451 12.711a1.889 1.889 0 0 1-1.887-1.887v-11.636a1.889 1.889 0 0 1 1.887-1.887h19.58a1.889 1.889 0 0 1 1.887 1.887v.812h-6.54a2.239 2.239 0 0 0-2.237 2.236v7.021h-.71a.524.524 0 0 0 0 1.048h.71v2.406zm25.64 1.618a1.191 1.191 0 0 1-1.189 1.188h-9.527a1.191 1.191 0 0 1-1.189-1.188v-12.093a1.191 1.191 0 0 1 1.189-1.188h9.524a1.19 1.19 0 0 1 1.189 1.188z" class="cls-1" data-name="패스 372" transform="translate(-5652.242 -5655.754)"/>
            <path id="패스_373" d="M5748.579 5690.76h-7.159a.524.524 0 0 0 0 1.047h7.159a.524.524 0 0 0 0-1.047z" class="cls-2" data-name="패스 373" transform="translate(-5722.316 -5683.423)"/>
            <path id="패스_374" d="M5748.579 5703.866h-7.159a.524.524 0 0 0 0 1.049h7.159a.524.524 0 0 0 0-1.049z" class="cls-2" data-name="패스 374" transform="translate(-5722.316 -5693.783)"/>
            <path id="패스_375" d="M5748.579 5716.972h-7.159a.524.524 0 0 0 0 1.048h7.159a.524.524 0 0 0 0-1.048z" class="cls-2" data-name="패스 375" transform="translate(-5722.316 -5704.142)"/>
            <path id="패스_376" d="M5748.579 5730.079h-7.159a.524.524 0 0 0 0 1.048h7.159a.524.524 0 0 0 0-1.048z" class="cls-2" data-name="패스 376" transform="translate(-5722.316 -5714.502)"/>
        </g>
        <path id="사각형_307" d="M0 0h50v30H0z" class="cls-3" data-name="사각형 307" transform="translate(155 354)"/>
    </g>
</svg>
