<svg xmlns="http://www.w3.org/2000/svg" width="62" height="30" viewBox="0 0 62 30">
    <defs>
        <style>
            .cls-1{fill:#c6c900}.cls-2{fill:#e13505}
        </style>
    </defs>
    <g id="charge_hm" transform="translate(-149 -442)">
        <g id="그룹_621" transform="translate(-67.358 169.588)">
            <g id="그룹_618" transform="translate(220.358 275.412)">
                <g id="그룹_617">
                    <g id="그룹_616" transform="translate(0 2.595)">
                        <path id="패스_560" d="M235.133 341.248a1.179 1.179 0 0 0 .51.139z" class="cls-1" transform="translate(-229.872 -320.4)"/>
                        <path id="패스_561" d="M232.84 299.2l-3.7-6.107a4.107 4.107 0 0 0 2.885-2.941c.429-2.719-.572-6.872-3.579-7.3s-4.868.143-5.87.859c-3.049 2.178-2.577 5.01-.858 7.587a4.982 4.982 0 0 0 3.431 2.433l-3.742 8.673 4.21 1.148c-.3-.168-.584-.538-.348-1.362.429-1.5 1.8-5.683 1.8-5.683l4.049 5.7 3.862-2.575zm-4.963-14.684a.3.3 0 0 1 .38-.19.649.649 0 0 1 .305.485 1.524 1.524 0 0 1-.088.913.51.51 0 0 1-.412.287.3.3 0 0 1-.3-.3 3.953 3.953 0 0 1 .115-1.199zM222 286.839a.359.359 0 0 1-.119-.484l.012-.061a1.973 1.973 0 0 0 .047-.569.357.357 0 0 1 .184-.387.3.3 0 0 1 .4.134 1.511 1.511 0 0 1-.057 1.246.467.467 0 0 1-.467.121zm.529 4.047a.3.3 0 0 1 .314-.512 8.153 8.153 0 0 0 6.13.592 2.129 2.129 0 0 0 1.363-1.508.3.3 0 0 1 .585.135 2.732 2.732 0 0 1-1.717 1.925 8.723 8.723 0 0 1-6.671-.632z" class="cls-1" transform="translate(-220.358 -282.699)"/>
                    </g>
                    <path id="패스_562" d="M254.506 275.412l1.5 4.405s-1.558.29-1.67 1.308.563.915 1.128.762 1.79-1.755 1.072-2.035c-.157-.061-.116-.035-.116-.035l-1.179-3.322a3.983 3.983 0 0 1 1.653.782 5.31 5.31 0 0 0 1.276.932s-1.636-2.585-3.664-2.797z" class="cls-1" transform="translate(-242.231 -275.412)"/>
                </g>
            </g>
            <g id="그룹_620" transform="translate(236.481 281.592)">
                <g id="그룹_619">
                    <path id="패스_563" d="M317.237 300.641a.782.782 0 0 0 .783-.782v-5.539a.782.782 0 1 0-1.565 0v5.539a.782.782 0 0 0 .782.782" class="cls-2" transform="translate(-298.36 -293.263)"/>
                    <path id="패스_564" d="M357.276 300.4a.783.783 0 0 0-.783-.784h-3.3v-2.539a.783.783 0 0 0-1.567 0v3.323a.784.784 0 0 0 .784.782h4.081a.783.783 0 0 0 .783-.782" class="cls-2" transform="translate(-321.008 -295.037)"/>
                    <path id="패스_565" d="M324.465 298.613a.784.784 0 0 0 .782.784h3.336a.782.782 0 0 0 .783-.784v-.889h1.677v2.134a.783.783 0 0 0 1.566 0v-5.538a.783.783 0 0 0-1.566 0v1.841h-1.677v-.876a.783.783 0 0 0-.783-.783h-3.336a.784.784 0 0 0-.782.782v3.329m1.566-2.657h1.769v2h-1.769z" class="cls-2" transform="translate(-303.518 -293.263)"/>
                    <path id="패스_566" d="M370.122 300.638a.784.784 0 0 0 .782-.783v-5.538a.782.782 0 1 0-1.565 0v5.538a.784.784 0 0 0 .782.783" class="cls-2" transform="translate(-332.414 -293.26)"/>
                    <path id="패스_567" d="M285.078 297.724h.6v2.163a.754.754 0 0 0 .754.754.779.779 0 0 0 .753-.782v-5.567a.754.754 0 1 0-1.508 0v1.864h-.6v-1.836a.783.783 0 0 0-1.566 0v5.539a.783.783 0 0 0 1.566 0z" class="cls-2" transform="translate(-277.147 -293.263)"/>
                    <path id="패스_568" d="M301.947 297.7a.712.712 0 1 0 0-1.424h-4.732a.712.712 0 1 0 0 1.424h.377v2h-.377a.712.712 0 1 0 0 1.424h4.732a.712.712 0 1 0 0-1.424h-.3v-2h.3m-1.78 2.009h-1.092V297.7h1.092z" class="cls-2" transform="translate(-285.512 -295.024)"/>
                    <path id="패스_569" d="M266.332 295.4h.26a2.406 2.406 0 1 0 4.25 0h.234a.693.693 0 0 0 0-1.387h-1.71v-.509a.74.74 0 1 0-1.48 0v.509h-1.553a.693.693 0 1 0 0 1.387m2.385 2.077a.949.949 0 1 1 .949-.949.949.949 0 0 1-.949.949" class="cls-2" transform="translate(-265.638 -292.767)"/>
                </g>
                <path id="패스_570" d="M284.782 322.849a.287.287 0 0 1-.287.287.287.287 0 0 1-.287-.287.286.286 0 0 1 .287-.287.287.287 0 0 1 .287.287z" class="cls-2" transform="translate(-277.596 -311.953)"/>
                <path id="패스_571" d="M308.938 322.849a.287.287 0 0 1-.287.287.287.287 0 0 1-.287-.287.286.286 0 0 1 .287-.287.287.287 0 0 1 .287.287z" class="cls-2" transform="translate(-293.151 -311.953)"/>
                <path id="패스_572" d="M333.094 322.849a.287.287 0 0 1-.287.287.287.287 0 0 1-.286-.287.286.286 0 0 1 .286-.287.287.287 0 0 1 .287.287z" class="cls-2" transform="translate(-308.705 -311.953)"/>
                <path id="패스_573" d="M357.251 322.849a.286.286 0 0 1-.287.287.286.286 0 0 1-.286-.287.286.286 0 0 1 .286-.287.286.286 0 0 1 .287.287z" class="cls-2" transform="translate(-324.26 -311.953)"/>
                <path id="패스_574" d="M271.615 321.2h-1.361v.616h-.429v-.616h-1.476v-.376h3.267zm-.411-2.029v1.219h-2.453v-1.219zm-1.983 2.373c.01.022 0 .056-.03.1l-.011.026v.443h2.1v.387h-2.525v-1.011h.264c.116 0 .181.019.201.056zm-.041-2v.461h1.594v-.461z" class="cls-2" transform="translate(-267.383 -309.77)"/>
                <path id="패스_575" d="M292.995 320.983a.51.51 0 0 1-.222-.439.525.525 0 0 1 .335-.5 1.3 1.3 0 0 1 .542-.106 1.28 1.28 0 0 1 .534.106.525.525 0 0 1 .343.5.506.506 0 0 1-.229.439.935.935 0 0 1-.432.159v.3l.406-.022c.2-.012.367-.027.506-.044l.055.38c-.283.02-.63.039-1.04.059l-.883.037-.184.011a.107.107 0 0 0-.045.01l-.048.027c-.046.026-.078.037-.1.029-.035-.013-.057-.066-.066-.159l-.041-.306h.5c.157 0 .335 0 .509-.007v-.314a1 1 0 0 1-.44-.16zm1.775-1.483v.36h-2.2v-.36zm-.624-.515v.359h-1v-.359zm-.841 1.376a.2.2 0 0 0-.1.184.206.206 0 0 0 .1.181.637.637 0 0 0 .346.074.618.618 0 0 0 .334-.074.2.2 0 0 0 .107-.181.2.2 0 0 0-.107-.184.659.659 0 0 0-.334-.067.692.692 0 0 0-.351.067zm2.058-1.361a.157.157 0 0 1-.033.1l-.007.019v1.5h.428V321h-.428v1.432h-.429v-3.5h.3c.106-.002.159.021.169.068z" class="cls-2" transform="translate(-282.891 -309.614)"/>
                <path id="패스_576" d="M317.917 319.041c.012.015.009.049-.007.1a.487.487 0 0 0-.029.092.338.338 0 0 0-.008.122 1.277 1.277 0 0 0 .244.631 1.651 1.651 0 0 0 .664.547 1.577 1.577 0 0 0-.158.151c-.03.032-.068.079-.115.14l-.033.048a2.583 2.583 0 0 1-.554-.458 1.11 1.11 0 0 1-.255-.384 1.544 1.544 0 0 1-.328.476 3.606 3.606 0 0 1-.558.517 1.755 1.755 0 0 0-.155-.182 2.276 2.276 0 0 0-.2-.166 1.59 1.59 0 0 0 .727-.609 1.675 1.675 0 0 0 .277-1.059h.339c.089.004.132.014.149.034zm1.249 2.2a.569.569 0 0 1 0 1.028 1.781 1.781 0 0 1-.934.21 1.724 1.724 0 0 1-.919-.21.574.574 0 0 1 0-1.028 1.721 1.721 0 0 1 .919-.21 1.778 1.778 0 0 1 .934.209zm-1.545.271a.273.273 0 0 0-.2.246q0 .155.2.243a1.567 1.567 0 0 0 .61.092 1.662 1.662 0 0 0 .628-.092c.136-.058.2-.14.2-.243s-.067-.188-.2-.246a1.615 1.615 0 0 0-.628-.1 1.521 1.521 0 0 0-.61.099zm1.849-2.547a.13.13 0 0 1-.019.1l-.015.03a.19.19 0 0 0 0 .029v.811h.428v.381h-.428v.827H319v-2.226h.3q.148-.001.17.047z" class="cls-2" transform="translate(-298.344 -309.605)"/>
                <path id="패스_577" d="M343.672 321.326v1.193h-.43v-.082h-1.594v.082h-.429v-1.193h1.015V321h-1.418v-.376h3.267V321h-1.421v.322zm-1.6-1.808a.1.1 0 0 1 0 .088.116.116 0 0 0-.008.033.065.065 0 0 0 0 .033l.048.306h.642c.012-.054.028-.122.048-.2.022-.106.043-.214.063-.324l.262.036c.1.02.165.046.18.078a.128.128 0 0 1-.032.088.126.126 0 0 1-.019.026.04.04 0 0 0-.007.022.9.9 0 0 0-.041.147.732.732 0 0 0-.022.129h.583v.365H341.1v-.365h.605l-.082-.5h.292c.085-.003.141.01.16.038zm1.676-.452v.365h-2.6v-.365zm-2.1 2.63v.371h1.594v-.367z" class="cls-2" transform="translate(-314.047 -309.701)"/>
                <path id="패스_578" d="M366.184 320.258q.419-.008.728-.026l.051-.421c.017-.141.028-.25.033-.328H365.6v-.375h1.835c-.015.2-.034.4-.056.6s-.043.351-.063.5l.17-.015.151-.018.107-.011.029.395-.557.045-.472.033v.675h-.429v-.65l-.657.011a.1.1 0 0 0-.037.007.126.126 0 0 0-.041.022.176.176 0 0 1-.107.033c-.037-.01-.059-.058-.066-.147l-.026-.314c.284-.005.549-.008.803-.016zm.116 1.183a.146.146 0 0 1-.019.1l-.015.044v.376h2.092v.386h-2.521v-.955h.323c.084-.002.13.015.14.049zm2.059-2.459c.008.022 0 .058-.03.107a.066.066 0 0 1-.015.029.132.132 0 0 0 0 .026v2.564h-.43v-.561h-.712v-.375h.712v-1.842h.3c.1 0 .158.018.175.052z" class="cls-2" transform="translate(-329.868 -309.614)"/>
            </g>
        </g>
        <g id="그룹_622" transform="translate(-5.83 111)">
            <path id="사각형_333" fill="none" d="M0 0H62V30H0z" transform="translate(154.83 331)"/>
        </g>
    </g>
</svg>
