<svg xmlns="http://www.w3.org/2000/svg" width="57.767" height="14.737" viewBox="0 0 57.767 14.737">
    <defs>
        <clipPath id="sjc1w74jma">
            <path data-name="사각형 452" style="fill:#295cd6" d="M0 0h14v14.737H0z"/>
        </clipPath>
    </defs>
    <path data-name="패스 780" d="M-11.77-2.651a25.711 25.711 0 0 0 .341-4.686v-.979h-7.447v1.155h5.995a22.835 22.835 0 0 1-.341 4.367zm-2.145 1.21v-3.2h-1.419v3.2h-1.078v-3.2h-1.43v3.2h-1.925v1.166h9.174v-1.166zM-5.093-.11c-1.4 0-2.046-.187-2.046-.605s.649-.594 2.046-.594 2.057.176 2.057.594-.649.605-2.057.605zm0-2.266C-7.315-2.376-8.6-1.8-8.6-.715S-7.315.946-5.093.946s3.52-.583 3.52-1.661-1.287-1.661-3.52-1.661zm.737-1.584v-.627h2.893v-1.1h-5.61v-.55h5.3v-1.056h-5.3v-.528h5.533v-1.1h-6.974v4.334h2.706v.627h-3.85v1.133h9.163V-3.96zm5.412-4.257v1.155h3.212a8.165 8.165 0 0 1-.209 1.342l-3.542.209L.7-4.279l2.937-.286A6.707 6.707 0 0 1 .429-1.683L1.2-.561c3.773-1.925 4.51-4.532 4.51-7.656zm8.767 2.893H8.4V-9.2H6.952V.924H8.4v-5.049h1.423zm8.965.814h-5.676v-2.662h5.6v-1.177H11.66v4.994h7.128zm-8.2 3.058v1.188h9.174v-1.188z" transform="translate(38 11.84)" style="fill:#1d1d1b"/>
    <g data-name="그룹 773" style="clip-path:url(#sjc1w74jma)">
        <path data-name="패스 761" d="M13.263 3.684V2.211A2.21 2.21 0 0 0 11.053 0H2.947a2.21 2.21 0 0 0-2.21 2.211v1.473A.737.737 0 0 0 0 4.421v2.211a.737.737 0 0 0 .737.737v4.421a1.474 1.474 0 0 0 1.474 1.474V14a.737.737 0 0 0 .737.737h.737A.737.737 0 0 0 4.421 14v-.737h5.158V14a.737.737 0 0 0 .737.737h.737a.737.737 0 0 0 .736-.737v-.737a1.474 1.474 0 0 0 1.474-1.474V7.368A.737.737 0 0 0 14 6.632V4.421a.737.737 0 0 0-.737-.737M3.132 11.605a.921.921 0 1 1 .921-.921.921.921 0 0 1-.921.921m5.342-.553H5.526a.368.368 0 1 1 0-.737h2.948a.368.368 0 1 1 0 .737m2.395.553a.921.921 0 1 1 .921-.921.921.921 0 0 1-.921.921m.921-3.868s-.419.737-4.769.737-4.81-.737-4.81-.737V2.579a.369.369 0 0 1 .368-.368h8.842a.369.369 0 0 1 .368.368z" style="fill-rule:evenodd;fill:#295cd6"/>
    </g>
</svg>
