<svg xmlns="http://www.w3.org/2000/svg" width="58" height="14.585" viewBox="0 0 58 14.585">
    <g data-name="book&amp;life_logo">
        <path data-name="패스 723" d="M584.21 310.976a.34.34 0 1 1 0-.681h.88l.005-1.566h-.885a.345.345 0 0 1-.342-.344.341.341 0 0 1 .342-.341h6.761v.685h-1.11v1.562l1.117.007v.681zm1.579-.688 3.362.007v-1.566h-3.366z" transform="translate(-541.126 -300.77)" style="fill:#605f5f"/>
        <path data-name="패스 724" d="m584.149 346.568.008-1.935-.022-.011a.34.34 0 0 1-.268-.33.346.346 0 0 1 .268-.333l.015-.005h2.911v-.543l-2.852-.007a.341.341 0 1 1 0-.682h6.76v.689l-3.083-.007v.544l2.977.005v2.618zm.707-.687 5.3.005.007-1.248-5.3-.005z" transform="translate(-541.126 -332.059)" style="fill:#605f5f"/>
        <path data-name="패스 725" d="M560.617 310.689v-3.508a.349.349 0 0 1 .7 0v1.054h.625a.371.371 0 0 1 .371.367.367.367 0 0 1-.367.367h-.623v1.72z" transform="translate(-520.147 -299.683)" style="fill:#605f5f"/>
        <path data-name="패스 726" d="M515.483 350.6c-1.543 0-2.8-.784-2.8-1.746s1.255-1.75 2.8-1.75 2.8.784 2.8 1.75-1.259 1.746-2.8 1.746zm0-2.825c-1.084 0-1.965.483-1.965 1.079s.881 1.075 1.965 1.075 1.964-.482 1.964-1.075-.881-1.074-1.964-1.074z" transform="translate(-476.9 -336.02)" style="fill:#605f5f"/>
        <g data-name="그룹 762">
            <path data-name="패스 727" d="m667.505 313.026.007-1.382h-2.191a.341.341 0 1 1 0-.682h3.979l.012-.013a6.921 6.921 0 0 0 .422-2.106.544.544 0 0 0 .007-.092v-.019l-4.094-.005a.343.343 0 0 1-.342-.341.339.339 0 0 1 .342-.341h4.888a9.641 9.641 0 0 1-.464 2.881l-.014.03.965.007v.685h-2.68l-.005 1.384z" transform="translate(-614.311 -300.77)" style="fill:#605f5f"/>
            <path data-name="패스 728" d="M670.271 358.551v-2.2a.349.349 0 1 1 .7 0v1.51l6.117.005-.005.685z" transform="translate(-619.085 -344.042)" style="fill:#605f5f"/>
            <path data-name="패스 729" d="M718.767 312.493v-.724l-1.237-.005a.375.375 0 0 1 0-.731h1.229v-3.921a.358.358 0 0 1 .693 0v5.388z" transform="translate(-661.469 -299.683)" style="fill:#605f5f"/>
        </g>
        <path data-name="패스 730" d="M497.754 311.728a.346.346 0 0 1-.193-.062.341.341 0 0 1-.088-.472l2.026-2.885a.508.508 0 0 1 .865 0l2.06 2.945-.564.39-1.923-2.758-1.9 2.7a.347.347 0 0 1-.283.142z" transform="translate(-463.12 -300.795)" style="fill:#605f5f"/>
        <g data-name="그룹 763">
            <path data-name="패스 731" d="M146.828 373.369a.441.441 0 0 0 .008.857h3.237a5.092 5.092 0 0 1-.516-.859z" transform="translate(-146.496 -359.711)" style="fill:#e52b6c"/>
            <path data-name="패스 732" d="m182.71 355.723-3.382-.008v-1.4a.506.506 0 0 0-.506-.5.511.511 0 0 0-.5.489l-.005 1.422h-.491a5.094 5.094 0 0 0 .516.859h4.358z" transform="translate(-174.761 -342.068)" style="fill:#ec7100"/>
            <path data-name="패스 733" d="M151.234 307.875a.43.43 0 0 0-.432.428.444.444 0 0 0 .291.417v3.178h1.9a3.517 3.517 0 0 1 .43-.873h-1.444l.008-2.287 5.748.005v-.867z" transform="translate(-150.381 -300.62)" style="fill:#e52b6c"/>
            <path data-name="패스 734" d="m177.912 340.11-4.312-.01a3.516 3.516 0 0 0-.43.873h4.741z" transform="translate(-170.562 -329.698)" style="fill:#ec7100"/>
        </g>
        <g data-name="그룹 764">
            <path data-name="패스 735" d="M233.971 309.532c-.276-.475-.474-.816-.5-.858a.538.538 0 0 0-.935 0c-.081.125-2.479 4.3-2.5 4.343a.449.449 0 0 0 .162.612.449.449 0 0 0 .612-.164l2.2-3.818.36.623a4.789 4.789 0 0 1 .601-.738z" transform="translate(-221.815 -301.096)" style="fill:#664597"/>
            <path data-name="패스 736" d="m264.681 320.7 1.939 3.365.781-.443-2.114-3.659a4.787 4.787 0 0 0-.606.737z" transform="translate(-253.131 -311.53)" style="fill:#9f63a5"/>
            <path data-name="패스 737" d="M289.746 307.017a.439.439 0 0 0-.877 0l-.007 1.4h-.844a.457.457 0 1 0 0 .913l.851.007v1.333a4.549 4.549 0 0 0 .878.525z" transform="translate(-273.774 -299.458)" style="fill:#9f63a5"/>
            <path data-name="패스 738" d="m300.887 348.355-.005 3.3h.885v-2.775a4.55 4.55 0 0 1-.88-.525z" transform="translate(-285.794 -337.144)" style="fill:#664597"/>
        </g>
        <g data-name="그룹 765">
            <path data-name="패스 739" d="M326.979 310.885a6.463 6.463 0 0 1-1.022-.865h-2.9v-1.28h1.962a6.21 6.21 0 0 1-.391-.865h-2.34a.436.436 0 0 0-.44.432.445.445 0 0 0 .325.422l-.005 2.156z" transform="translate(-304.714 -300.62)" style="fill:#00a860"/>
            <path data-name="패스 740" d="m353.858 308.742-.007 1.28h-2.229a6.464 6.464 0 0 0 1.022.865h2.1V307.877H350.3a6.21 6.21 0 0 0 .391.865z" transform="translate(-330.379 -300.62)" style="fill:#00b0ec"/>
            <path data-name="패스 741" d="M355.967 343.966a2.7 2.7 0 0 1-.811.888v.705a.5.5 0 0 0 1.006.019l.008-.747 3.13.007v-.872z" transform="translate(-334.765 -333.184)" style="fill:#00b0ec"/>
            <path data-name="패스 742" d="M325.916 343.966h-3.632a.432.432 0 1 0 0 .865l2.822.007v.016a2.7 2.7 0 0 0 .81-.888z" transform="translate(-304.714 -333.184)" style="fill:#00a860"/>
            <path data-name="패스 743" d="M326.082 358.429v-1.156a.441.441 0 1 0-.881 0v2.027h3.069a3.9 3.9 0 0 1 .577-.868z" transform="translate(-307.737 -344.792)" style="fill:#00a860"/>
            <path data-name="패스 744" d="M360.444 373.23h-3.259a3.9 3.9 0 0 0-.577.868h3.83z" transform="translate(-336.076 -359.586)" style="fill:#00a860"/>
        </g>
        <g data-name="그룹 767">
            <path data-name="패스 745" d="M528.489 233.632H508.24a.751.751 0 0 0-.747.751v3.469a.75.75 0 0 0 .747.748h17.6a.1.1 0 0 1 .083.046l.562.934a.424.424 0 0 0 .725 0l.562-.934a.092.092 0 0 1 .081-.046h.64a.749.749 0 0 0 .746-.748v-3.469a.751.751 0 0 0-.75-.751z" transform="translate(-472.215 -233.632)" style="fill:#e3007f"/>
            <g data-name="그룹 766">
                <path data-name="패스 746" d="M628.295 245.513v-2.98a.149.149 0 0 1 .15-.147.151.151 0 0 1 .149.147v.819h.4a.159.159 0 0 1 0 .318h-.4v1.843z" transform="translate(-581.211 -241.529)" style="fill:#fff"/>
                <path data-name="패스 747" d="M603.007 248.013v-1.492h1.774v-.721h-1.624a.15.15 0 1 1 0-.3h1.916v1.32H603.3v.892h1.781a.149.149 0 0 1 .15.15.152.152 0 0 1-.152.15z" transform="translate(-558.395 -244.341)" style="fill:#fff"/>
                <path data-name="패스 748" d="M677.856 245.619a.148.148 0 1 1 0-.3h.375v-1.3h-.375a.147.147 0 1 1 0-.294h2.72v.294h-.476v1.3h.474v.3zm.674-.3h1.27v-1.3h-1.272z" transform="translate(-625.796 -242.741)" style="fill:#fff"/>
                <path data-name="패스 749" d="M675.319 271.571a.149.149 0 0 1 0-.3h3.218v.3z" transform="translate(-623.509 -267.594)" style="fill:#fff"/>
                <path data-name="패스 750" d="M530.65 260.295v-.595h-2.578a.15.15 0 0 1-.15-.15.152.152 0 0 1 .151-.15h1.218v-.338h-1.238a.146.146 0 0 1-.148-.147.149.149 0 0 1 .148-.147h2.927v.295h-1.336v.338h1.3v.893z" transform="translate(-490.632 -256.311)" style="fill:#fff"/>
                <path data-name="패스 751" d="M528.265 245.021V243.9a.148.148 0 0 1 .3 0v.249h2.414v-.249a.148.148 0 0 1 .3 0v1.118zm.3-.292h2.414v-.281h-2.419z" transform="translate(-490.957 -242.766)" style="fill:#fff"/>
                <path data-name="패스 752" d="M666.961 245.48v-2.98a.15.15 0 0 1 .3 0v2.977z" transform="translate(-616.099 -241.504)" style="fill:#fff"/>
                <path data-name="패스 753" d="M641.589 247.578a1.047 1.047 0 0 1-1.052-1.026v-.027a1.06 1.06 0 0 1 1.052-1.025 1.045 1.045 0 0 1 1.053 1.025v.027a1.059 1.059 0 0 1-1.053 1.026zm0-1.766a.728.728 0 1 0 .743.724.745.745 0 0 0-.743-.724z" transform="translate(-592.258 -244.341)" style="fill:#fff"/>
                <path data-name="패스 754" d="M566.432 263.778a.15.15 0 1 1 .3 0v.606h2.562v.3h-2.863z" transform="translate(-525.394 -260.696)" style="fill:#fff"/>
                <path data-name="패스 755" d="M566.826 245.541a.913.913 0 0 1-.92-.895v-.024a.928.928 0 0 1 .92-.895.915.915 0 0 1 .919.895v.024a.924.924 0 0 1-.919.895zm0-1.52a.614.614 0 1 0 .625.609.63.63 0 0 0-.625-.608z" transform="translate(-524.919 -242.741)" style="fill:#fff"/>
                <path data-name="패스 756" d="M587.5 245.658v-.751h-.25v.751h-.306V244a.156.156 0 0 1 .153-.147.154.154 0 0 1 .15.147v.6h.252v-.6a.151.151 0 0 1 .149-.147.158.158 0 0 1 .153.147v1.658z" transform="translate(-543.901 -242.854)" style="fill:#fff"/>
            </g>
        </g>
        <g data-name="그룹 768">
            <path data-name="패스 757" d="M411.972 307.414h-1.037v-.338a.493.493 0 0 0-.987 0l-.005.344h-1.861a.431.431 0 1 0 0 .862h1.4v.008a2.178 2.178 0 0 0-1.233 2.483.015.015 0 0 1 0 .009 4.354 4.354 0 0 0 .839-.2c-.011-.038-.016-.079-.024-.116a1.81 1.81 0 0 1-.012-.177 1.375 1.375 0 0 1 1.386-1.363 1.438 1.438 0 0 1 .449.072 1.737 1.737 0 0 1 .264.122 4.461 4.461 0 0 0 .457-.715c-.066-.042-.139-.078-.211-.115v-.008h1.736v-.865z" transform="translate(-382.122 -299.458)" style="fill:#e3007f"/>
            <path data-name="패스 758" d="M408.735 329.875v-.685a2.19 2.19 0 0 0 .66-4.032 4.46 4.46 0 0 1-.457.715 1.356 1.356 0 0 1-.713 2.528 1.382 1.382 0 0 1-1.349-1.065 4.352 4.352 0 0 1-.839.2 2.26 2.26 0 0 0 1.688 1.661l-.008.685h-2.2a.429.429 0 0 0 .005.838h4.193a5.084 5.084 0 0 1 .371-.846z" transform="translate(-379.91 -316.215)" style="fill:#ea5f20"/>
            <path data-name="패스 759" d="M471.656 310.616h.53a.447.447 0 1 0 0-.893l-.536-.008v-2.538a.439.439 0 0 0-.878 0l-.005 4.431a4.868 4.868 0 0 1 .891-.5z" transform="translate(-439.076 -299.608)" style="fill:#ea5f20"/>
            <path data-name="패스 760" d="M454.325 351.333a4.865 4.865 0 0 0-.891.5v1.667h-1.506a5.085 5.085 0 0 0-.371.846h2.762z" transform="translate(-421.745 -339.831)" style="fill:#e3007f"/>
        </g>
    </g>
</svg>
