<svg xmlns="http://www.w3.org/2000/svg" width="49.156" height="14.799" viewBox="0 0 49.156 14.799">
    <defs>
        <style>
            .cls-2{fill:#fff}
        </style>
    </defs>
    <g id="charge_chai" transform="translate(-450.844 -346.008)">
        <g id="그룹_738" transform="translate(450.844 346.008)">
            <path id="사각형_401" fill="#ef0000" d="M0 0H14.799V14.799H0z"/>
            <g id="그룹_737" transform="translate(2.001 3.732)">
                <path id="패스_718" d="M520.792 409.238l-2.73-6.754h2.493l2.731 6.754z" class="cls-2" transform="translate(-515.274 -402.193)"/>
                <path id="패스_719" d="M582.782 401.856a1.726 1.726 0 1 1 1.726-1.726 1.726 1.726 0 0 1-1.726 1.726z" class="cls-2" transform="translate(-573.783 -398.404)"/>
                <circle id="타원_112" cx="1.726" cy="1.726" r="1.726" class="cls-2" transform="translate(0 3.957) rotate(-2.418)"/>
            </g>
        </g>
        <path id="패스_720" d="M748.91 388.459v8.164h-2.71v-8.164zm-15.751 2.911h-2.745v-2.881H727.7v8.164h2.71v-2.927h2.745v2.927h2.709v-8.164h-2.709zm-9.943-.665a1.675 1.675 0 0 1 1.5 1.012l2.3-1.314a4.373 4.373 0 1 0 0 4.337l-2.3-1.314a1.675 1.675 0 0 1-1.5 1.012 1.875 1.875 0 0 1 0-3.732zm19.2-2.216l3.416 8.164h-2.71l-.278-.665h-3.566l-.278.665h-2.71l3.416-8.164zm-.376 5.577l-.979-2.339-.979 2.339z" transform="translate(-248.91 -39.184)"/>
    </g>
</svg>
