<svg xmlns="http://www.w3.org/2000/svg" width="60.921" height="11.414" viewBox="0 0 60.921 11.414">
    <defs>
        <clipPath id="3ln2o48cza">
            <path data-name="사각형 454" style="fill:#295cd6" d="M0 0h17.34v11.414H0z"/>
        </clipPath>
    </defs>
    <path data-name="패스 781" d="M-19.4-8.426v1.155h3.3c-.231 1.419-1.485 2.6-3.74 3.212l.6 1.155c3.014-.869 4.708-2.772 4.708-5.522zm2.519 5.764h-1.452V.77h6.886V-.385h-5.434zm5.082-3.7v-2.823h-1.452v7.249h1.451V-5.17h1.353v-1.188zm9.174 4.642h1.452v-7.465h-1.456v1.771h-1.232v1.166h1.232v.88h-1.232V-4.2h1.232zM-7.194-7.3h.946v3.135c-.319.011-.638.022-.946.022zm3.267 2.959c-.3.033-.605.066-.924.088V-7.3h.8v-1.159h-5.343V-7.3h.8v3.19h-1.053l.154 1.177a35.583 35.583 0 0 0 5.654-.352zM-6.4-.385v-1.892h-1.454V.77h6.908V-.385zM5.731-6.512h-.979a12.64 12.64 0 0 0 .088-1.474H.9v1.155h2.5A5.726 5.726 0 0 1 .33-2.167l.825 1.012a6.809 6.809 0 0 0 3.355-4.2h1.221v1.375H4.323v1.166h1.408v3.32h1.353v-9.471H5.731zM7.81-9.2V.946h1.375V-9.2zm3.421 5.753a3.8 3.8 0 0 0 2.409-2.009 3.716 3.716 0 0 0 2.343 1.815l.682-1.122a2.868 2.868 0 0 1-2.3-2.442h2v-1.177H10.89v1.177h1.98a2.977 2.977 0 0 1-2.343 2.629zm3.124-.451h-1.463v1.727c-.869.011-1.694.011-2.409.011l.165 1.177a31.722 31.722 0 0 0 6.083-.385l-.121-1.041c-.715.088-1.485.154-2.255.2zm5.566-1.287H18.59V-9.2h-1.452V.946h1.452v-4.928h1.331z" transform="translate(41 10.207)" style="fill:#1d1d1b"/>
    <g data-name="그룹 774" style="clip-path:url(#3ln2o48cza)">
        <path data-name="패스 762" d="M102.7 18.413h.431a1.365 1.365 0 0 0 1.365-1.365L103.39 9.02" transform="translate(-87.843 -7.655)" style="fill:#295cd6"/>
        <path data-name="패스 763" d="M12.38 11.414H1.245A1.309 1.309 0 0 1 0 10.049l.6-8.684A1.309 1.309 0 0 1 1.843 0h11.135a1.309 1.309 0 0 1 1.245 1.365l-.6 8.684a1.309 1.309 0 0 1-1.245 1.365" transform="translate(.687)" style="fill:#295cd6"/>
        <path data-name="패스 764" d="M30.5 28.817h-1.013l-1.416-4.782h1.014z" transform="translate(-23.823 -20.397)" style="fill:#fff"/>
        <path data-name="패스 765" d="M46.111 28.817H45.1l-1.416-4.782H44.7z" transform="translate(-37.07 -20.397)" style="fill:#fff"/>
        <path data-name="패스 766" d="M55.837 28.817h1.014l1.416-4.782h-1.015z" transform="translate(-47.386 -20.397)" style="fill:#fff"/>
        <path data-name="사각형 453" transform="translate(3.872 5.435)" style="fill:#fff" d="M0 0h7.419v.84H0z"/>
    </g>
</svg>
