<svg xmlns="http://www.w3.org/2000/svg" width="58.767" height="12" viewBox="0 0 58.767 12">
    <path data-name="패스 776" d="M-11.352-9.174h-1.463v7.381h1.463zm-2.211 4.7a3.2 3.2 0 0 1-2.354-3.157v-.99h-1.474v.99A3.435 3.435 0 0 1-19.8-4.3l.737 1.155A4.082 4.082 0 0 0-16.632-5.4 3.889 3.889 0 0 0-14.3-3.322zm-3.08 4.092V-2.5h-1.452V.77h7V-.385zm11.55.242c-1.353 0-2.046-.231-2.046-.748s.693-.737 2.046-.737 2.046.22 2.046.737-.693.745-2.046.745zm0-2.585c-2.189 0-3.509.66-3.509 1.837S-7.282.957-5.093.957s3.52-.671 3.52-1.848-1.327-1.837-3.52-1.837zm-1.045-2.5a8.05 8.05 0 0 0 1.067.066 10.175 10.175 0 0 0 1.045-.055v.836h-2.112zm1.067-2.706c1.386 0 2.178.275 2.178.847 0 .55-.792.836-2.178.836s-2.167-.286-2.167-.836c0-.572.792-.847 2.167-.847zm2.5 3.553v-1.21A1.666 1.666 0 0 0-1.4-7.084c0-1.21-1.43-1.947-3.674-1.947s-3.663.737-3.663 1.947A1.659 1.659 0 0 0-7.59-5.6v1.221h-2.057v1.144h9.152v-1.143zm3.63-3.839v1.155h3.209a8.165 8.165 0 0 1-.209 1.342l-3.542.209L.7-4.279l2.937-.286A6.707 6.707 0 0 1 .429-1.683L1.2-.561c3.773-1.925 4.51-4.532 4.51-7.656zm8.764 2.893H8.4V-9.2H6.952V.924H8.4v-5.049h1.423zm8.965.814h-5.676v-2.662h5.6v-1.177H11.66v4.994h7.128zm-8.2 3.058v1.188h9.174v-1.188z" transform="translate(39 10)" style="fill:#1d1d1b"/>
    <g transform="translate(-146 -295)">
        <rect data-name="사각형 446" width="15" height="12" rx="2" transform="translate(146 295)" style="fill:#295cd6"/>
        <g data-name="그룹 771">
            <path data-name="사각형 447" transform="translate(148 304)" style="fill:#fff" d="M0 0h2v1H0z"/>
            <path data-name="사각형 448" transform="translate(151 304)" style="fill:#fff" d="M0 0h2v1H0z"/>
            <path data-name="사각형 449" transform="translate(154 304)" style="fill:#fff" d="M0 0h2v1H0z"/>
            <path data-name="사각형 450" transform="translate(157 304)" style="fill:#fff" d="M0 0h2v1H0z"/>
        </g>
        <rect data-name="사각형 451" width="4" height="4" rx="1" transform="translate(148 298)" style="fill:#fff"/>
    </g>
</svg>
