<svg xmlns="http://www.w3.org/2000/svg" width="62.966" height="13.614" viewBox="0 0 62.966 13.614">
    <defs>
        <clipPath id="tor15ojgaa">
            <path data-name="사각형 458" style="fill:none" d="M0 0h62.966v13.614H0z"/>
        </clipPath>
    </defs>
    <g data-name="그룹 775" style="clip-path:url(#tor15ojgaa)">
        <path data-name="패스 767" d="M491.825 33.155a3.88 3.88 0 0 1 1.314.22 2.4 2.4 0 0 1 1.066.779 2.126 2.126 0 0 1 .451 1.382 2.338 2.338 0 0 1-.254 1.111 1.953 1.953 0 0 1-.677.75 3.36 3.36 0 0 1-.9.406 3.659 3.659 0 0 1-1 .135h-1.184v3.113h-1.207v-7.9zm-1.184 3.722h.914q1.816 0 1.816-1.308a1.214 1.214 0 0 0-.44-.993 1.775 1.775 0 0 0-1.162-.361h-1.128z" transform="translate(-443.164 -30.021)" style="fill:#282864"/>
        <path data-name="패스 768" d="m555.1 60.714-.033-.575a2.105 2.105 0 0 1-1.669.711 2.315 2.315 0 0 1-1.444-.446 1.547 1.547 0 0 1-.587-1.314 1.789 1.789 0 0 1 .214-.9 1.517 1.517 0 0 1 .586-.586 2.939 2.939 0 0 1 .8-.3 4.231 4.231 0 0 1 .925-.1 5.865 5.865 0 0 1 1.117.124v-.169a1.156 1.156 0 0 0-1.3-1.319 3.72 3.72 0 0 0-1.793.507l-.327-.936a5.367 5.367 0 0 1 2.3-.541q2.279 0 2.279 2.38v3.463zm-.09-2.572a4.969 4.969 0 0 0-.97-.1 3.1 3.1 0 0 0-.7.073 1.3 1.3 0 0 0-.575.3.881.881 0 0 0 .04 1.286 1.249 1.249 0 0 0 .761.22 2.3 2.3 0 0 0 1.444-.631z" transform="translate(-499.242 -49.684)" style="fill:#282864"/>
        <path data-name="패스 769" d="m610.053 56.3 1.4 4.106h.022l1.444-4.106h1.264l-3.215 8.291-1.026-.406.9-2.391-2.075-5.494z" transform="translate(-551.215 -50.981)" style="fill:#282864"/>
        <path data-name="패스 770" d="M349.554 26.062a1.1 1.1 0 1 1-1.1-1.1 1.1 1.1 0 0 1 1.1 1.1" transform="translate(-314.517 -22.603)" style="fill:#282864"/>
        <path data-name="사각형 456" transform="translate(35.837 2.36)" style="fill:#282864" d="M0 0h1.954v8.639H0z"/>
        <path data-name="사각형 457" transform="translate(32.96 5.366)" style="fill:#282864" d="M0 0h1.954v5.633H0z"/>
        <path data-name="패스 771" d="M244.959 60.586v-3.361a.934.934 0 0 0-1.867 0v3.362h-1.955v-3.362a.934.934 0 0 0-1.868 0v3.362h-1.954v-5.633h1.954v.711h.051a2.25 2.25 0 0 1 1.806-.9 2.03 2.03 0 0 1 1.944 1.125 2.138 2.138 0 0 1 1.93-1.125c1.268 0 1.91.748 1.91 2.222v3.6z" transform="translate(-214.88 -49.588)" style="fill:#282864"/>
        <path data-name="패스 772" d="M412.429 55.641a2.912 2.912 0 0 0-2.2-.8 2.83 2.83 0 0 0-3.058 3.029c.038 2.185 1.644 2.982 3.466 2.95a7.589 7.589 0 0 0 2.437-.483l-.313-1.291a6.1 6.1 0 0 1-1.932.455c-1.573.028-1.816-1.023-1.816-1.023l4.175-.59a3.355 3.355 0 0 0-.76-2.248m-2.532.437a1.137 1.137 0 0 1 1.478.911l-2.513.362a1.238 1.238 0 0 1 1.035-1.273" transform="translate(-368.678 -49.656)" style="fill:#282864"/>
        <path data-name="패스 773" d="M167.41 40.1a6.247 6.247 0 0 1-2.853-.708l.454-1.427a5.234 5.234 0 0 0 2.21.582c1.328 0 1.456-.592 1.45-.772-.009-.234-.132-.611-1.105-.913a4.481 4.481 0 0 1-2.582-1.442 2.136 2.136 0 0 1 .5-2.846 3.69 3.69 0 0 1 2.157-.621 5.992 5.992 0 0 1 2.731.574l-.364 1.406a4.832 4.832 0 0 0-2.108-.433c-1.133 0-1.247.526-1.244.7.013.7 1.477.954 2.056 1.163 1.372.495 1.973 1.133 2.025 2.234.029.622-.193 2.507-3.321 2.507" transform="translate(-149 -28.93)" style="fill:#282864"/>
        <path data-name="패스 774" d="M6.679 0a6.679 6.679 0 1 0 6.679 6.679A6.679 6.679 0 0 0 6.679 0m0 12.059a5.025 5.025 0 0 1-4.9-4.716.46.46 0 0 1 .412-.493 44.915 44.915 0 0 1 4.491-.179 44.915 44.915 0 0 1 4.491.179.46.46 0 0 1 .412.493 5.025 5.025 0 0 1-4.9 4.716" style="fill:#ffd200"/>
    </g>
</svg>
