<svg xmlns="http://www.w3.org/2000/svg" width="50" height="30" viewBox="0 0 50 30">
    <defs>
        <style>
            .prefix__cls-1{fill:#de0015}
        </style>
    </defs>
    <g id="prefix__charge_payco" transform="translate(-264 -332)">
        <g id="prefix__그룹_537" data-name="그룹 537" transform="translate(-1025.762 -430.104)">
            <path id="prefix__패스_519" d="M1295.283 773.521a.988.988 0 011-1h2.7c2.16 0 3.466 1.28 3.466 3.13v.026c0 2.095-1.63 3.181-3.66 3.181h-1.513v1.875a1 1 0 01-1.992 0zm3.569 3.569a1.4 1.4 0 001.578-1.371v-.026c0-.892-.621-1.371-1.617-1.371h-1.539v2.768z" class="prefix__cls-1" data-name="패스 519" transform="translate(0 -.343)"/>
            <path id="prefix__패스_520" d="M1331.911 780.089l3.156-7.126a1.231 1.231 0 011.164-.789h.116a1.214 1.214 0 011.151.789l3.156 7.126a.972.972 0 01.1.4.944.944 0 01-.944.957 1.014 1.014 0 01-.957-.685l-.608-1.423h-3.983l-.634 1.487a.978.978 0 01-.918.621.916.916 0 01-.918-.931 1.059 1.059 0 01.119-.426zm5.6-2.509l-1.254-2.987-1.257 2.987z" class="prefix__cls-1" data-name="패스 520" transform="translate(-29.781 -.058)"/>
            <path id="prefix__패스_521" d="M1377.818 778.106l-2.922-3.97a1.178 1.178 0 01-.246-.711.972.972 0 011-.957 1.147 1.147 0 01.983.608l2.2 3.168 2.237-3.194a1.142 1.142 0 01.957-.595.923.923 0 01.97.97 1.236 1.236 0 01-.259.7l-2.923 3.945v2.612a1 1 0 11-1.991 0z" class="prefix__cls-1" data-name="패스 521" transform="translate(-64.736 -.286)"/>
            <path id="prefix__패스_522" d="M1420.228 776.812v-.026a4.6 4.6 0 014.72-4.682 4.792 4.792 0 013.026.918 1 1 0 01.388.789.971.971 0 01-.983.97 1.047 1.047 0 01-.595-.194 2.978 2.978 0 00-1.849-.647 2.682 2.682 0 00-2.625 2.819v.026a2.689 2.689 0 002.625 2.845 2.906 2.906 0 001.966-.711.922.922 0 111.19 1.41 4.77 4.77 0 01-7.863-3.517z" class="prefix__cls-1" data-name="패스 522" transform="translate(-101.912)"/>
            <path id="prefix__패스_523" d="M1467.523 776.812v-.026a4.813 4.813 0 019.621-.026v.026a4.813 4.813 0 01-9.621.026zm7.539 0v-.026a2.75 2.75 0 00-2.741-2.845 2.707 2.707 0 00-2.716 2.819v.026a2.75 2.75 0 002.742 2.845 2.707 2.707 0 002.715-2.819z" class="prefix__cls-1" data-name="패스 523" transform="translate(-140.489)"/>
        </g>
        <g id="prefix__그룹_538" data-name="그룹 538" transform="translate(109 1)">
            <path id="prefix__사각형_333" d="M0 0H50V30H0z" data-name="사각형 333" transform="translate(155 331)" style="fill:none"/>
        </g>
    </g>
</svg>
