<svg xmlns="http://www.w3.org/2000/svg" width="44.685" height="15" viewBox="0 0 44.685 15">
    <path data-name="패스 777" d="M-6.017-8.173H-9.4V-9.2h-1.452v1.023h-3.41v1.137h8.239zm-2.145 3.256c0 .451-.649.66-1.969.66s-1.958-.209-1.958-.66.638-.649 1.958-.649 1.969.198 1.969.649zm-5.434 0c0 1.122 1.3 1.738 3.465 1.738s3.476-.621 3.476-1.738-1.309-1.727-3.476-1.727-3.469.616-3.469 1.727zm8.063 2.211h-9.174v1.166h2.107V.968h1.463V-1.54H-9.1V.968h1.463V-1.54h2.1zm2.662-4.136H-.55v-1.177H-4.3v6.688h.7a18.587 18.587 0 0 0 3.611-.275L-.1-2.783a17.09 17.09 0 0 1-2.772.253zM2.728-9.2v3.9h-.913V-9H.462V.473h1.353v-4.6h.913V.946H4.1V-9.2zM8.1-2.09H6.644V.77h7.018V-.385H8.1zm.968-5.566h2.079v1.705H9.064zm1.76 3.762v-.913h2.97v-1.144h-1.21v-1.705h1.287v-1.155H6.336v1.155h1.287v1.705H6.4v1.144h2.97v.913H5.533v1.155h9.152v-1.155z" transform="translate(30 12)" style="fill:#1d1d1b"/>
    <g transform="translate(-44 -294)">
        <rect data-name="사각형 443" width="11" height="15" rx="2" transform="translate(44 294)" style="fill:#295cd6"/>
        <rect data-name="사각형 444" width="7" height="10" rx="1" transform="translate(46 296)" style="fill:#fff"/>
        <rect data-name="사각형 445" width="3" height="1" rx=".5" transform="translate(48 307)" style="fill:#fff"/>
    </g>
</svg>
