<svg xmlns="http://www.w3.org/2000/svg" width="74" height="30" viewBox="0 0 74 30">
    <g id="그룹_614" data-name="그룹 614" transform="translate(-253 -332)">
        <rect id="사각형_337" data-name="사각형 337" width="74" height="30" transform="translate(253 332)" fill="none"/>
        <g id="그룹_613" data-name="그룹 613" transform="translate(195.091 182.832)">
            <g id="그룹_603" data-name="그룹 603" transform="translate(60.216 158.168)">
                <path id="패스_550" data-name="패스 550" d="M69.852,160.033c-.018-.009-3.084-1.482-3.311-1.593a2.784,2.784,0,0,0-2.4,0c-.223.111-3.29,1.584-3.312,1.593a1.04,1.04,0,0,0-.616.981v6.015a1.415,1.415,0,0,0,.8,1.24s2.356,1.053,2.487,1.111a4.437,4.437,0,0,0,3.668,0c.145-.062,2.487-1.111,2.487-1.111a1.416,1.416,0,0,0,.8-1.24v-6.015A1.04,1.04,0,0,0,69.852,160.033Zm-.231,7a.564.564,0,0,1-.3.467c-.022.011-2.3,1.03-2.478,1.106a3.578,3.578,0,0,1-2.994,0c-.176-.076-2.456-1.095-2.478-1.106a.564.564,0,0,1-.3-.467V161.3c0-.116.057-.189.15-.189a.24.24,0,0,1,.1.025l3.016,1.346a2.329,2.329,0,0,0,2.02,0l3.015-1.346a.251.251,0,0,1,.1-.025c.093,0,.15.073.15.189Z" transform="translate(-60.216 -158.168)" fill="#009bfa"/>
                <path id="패스_551" data-name="패스 551" d="M71.357,167.67a.251.251,0,0,0-.1.025l-3.015,1.346a2.329,2.329,0,0,1-2.02,0L63.2,167.695a.24.24,0,0,0-.1-.025c-.093,0-.15.073-.15.189v5.724a.564.564,0,0,0,.3.467c.022.011,2.3,1.03,2.478,1.106a3.578,3.578,0,0,0,2.994,0c.176-.076,2.456-1.095,2.478-1.106a.564.564,0,0,0,.3-.467v-5.724C71.507,167.743,71.45,167.67,71.357,167.67Z" transform="translate(-62.103 -164.723)" fill="#fff"/>
                <g id="그룹_602" data-name="그룹 602" transform="translate(2.043 7.706)">
                    <path id="패스_552" data-name="패스 552" d="M69.859,184.985a4.144,4.144,0,0,1-2.921-1.193.457.457,0,0,1,.641-.651,3.26,3.26,0,0,0,4.56,0,.457.457,0,0,1,.641.651A4.142,4.142,0,0,1,69.859,184.985Z" transform="translate(-66.803 -183.01)" fill="#009bfa"/>
                </g>
            </g>
            <g id="그룹_612" data-name="그룹 612" transform="translate(77.069 159.177)">
                <g id="그룹_609" data-name="그룹 609" transform="translate(11.386 0)">
                    <g id="그룹_604" data-name="그룹 604" transform="translate(7.916)">
                        <path id="패스_553" data-name="패스 553" d="M181.653,170.959a4.77,4.77,0,1,1,4.87-4.775A4.623,4.623,0,0,1,181.653,170.959Zm0-7.536a2.785,2.785,0,1,0,2.619,2.762A2.572,2.572,0,0,0,181.653,163.422Z" transform="translate(-176.772 -161.421)" fill="#009bfa"/>
                    </g>
                    <g id="그룹_605" data-name="그룹 605" transform="translate(0 0.094)">
                        <path id="패스_554" data-name="패스 554" d="M154.907,161.724H151.7a.445.445,0,0,0-.444.443v7.093a1.234,1.234,0,0,0,.313.757l.686.686a1.231,1.231,0,0,0,.756.313h.059a.444.444,0,0,0,.444-.443v-2.59a.444.444,0,0,1,.443-.443h1.1a3.16,3.16,0,0,0,3.317-3.05C158.371,162.931,157.224,161.724,154.907,161.724Zm-.306,4.044h-.647a.445.445,0,0,1-.443-.443v-1.467a.444.444,0,0,1,.443-.443h.635c1.127,0,1.526.462,1.526,1.088C156.115,165.27,155.726,165.768,154.6,165.768Z" transform="translate(-151.254 -161.724)" fill="#009bfa"/>
                    </g>
                    <g id="그룹_606" data-name="그룹 606" transform="translate(19.093 0.086)">
                        <path id="패스_555" data-name="패스 555" d="M213.247,161.7a.443.443,0,0,0-.442.443v7.1a1.233,1.233,0,0,0,.313.757l.675.675a1.232,1.232,0,0,0,.756.314h.07a.444.444,0,0,0,.443-.443v-8.4a.444.444,0,0,0-.443-.443Z" transform="translate(-212.805 -161.697)" fill="#009bfa"/>
                    </g>
                    <g id="그룹_607" data-name="그룹 607" transform="translate(23.505 0.038)">
                        <path id="패스_556" data-name="패스 556" d="M233.525,161.6a.446.446,0,0,0-.444.443v4.067c0,.244-.152.313-.335.154,0,0-5.2-4.473-5.382-4.633s-.336-.09-.336.154v7.352a1.233,1.233,0,0,0,.313.757l.686.686a1.233,1.233,0,0,0,.757.313h.071a.444.444,0,0,0,.443-.443v-4.095c0-.244.146-.314.335-.152s5.187,4.463,5.371,4.623.334.091.334-.152v-8.63a.444.444,0,0,0-.442-.443Z" transform="translate(-227.029 -161.545)" fill="#009bfa"/>
                    </g>
                    <g id="그룹_608" data-name="그룹 608" transform="translate(32.92 0.094)">
                        <path id="패스_557" data-name="패스 557" d="M257.825,161.724a.445.445,0,0,0-.443.443v.8a.445.445,0,0,0,.443.443h1.751a.444.444,0,0,1,.443.443v5.4a1.231,1.231,0,0,0,.314.757l.686.686a1.23,1.23,0,0,0,.756.313h.059a.444.444,0,0,0,.443-.443v-6.715a.444.444,0,0,1,.442-.443h1.754a.445.445,0,0,0,.443-.443v-.8a.445.445,0,0,0-.443-.443Z" transform="translate(-257.382 -161.724)" fill="#009bfa"/>
                    </g>
                </g>
                <g id="그룹_611" data-name="그룹 611" transform="translate(0 0.094)">
                    <g id="그룹_610" data-name="그룹 610">
                        <path id="패스_558" data-name="패스 558" d="M117.247,169.148a.444.444,0,0,1-.443-.443v-6.538a.444.444,0,0,0-.442-.443h-1.37a.445.445,0,0,0-.443.443v7.093a1.234,1.234,0,0,0,.313.757l.686.686a1.231,1.231,0,0,0,.756.313h4.733a.445.445,0,0,0,.444-.443v-.981a.445.445,0,0,0-.444-.444Z" transform="translate(-114.548 -161.724)" fill="#009bfa"/>
                    </g>
                </g>
                <path id="패스_559" data-name="패스 559" d="M141.719,187.173a.849.849,0,0,1-.359-.078l-.4-.179-.086-.039a.278.278,0,0,1-.158-.244v-1.179a.2.2,0,0,1,.12-.192l.65-.313a.526.526,0,0,1,.233-.053.54.54,0,0,1,.238.053l.65.313a.2.2,0,0,1,.12.192v1.179a.278.278,0,0,1-.158.244l-.054.024c-.121.054-.406.182-.434.194A.858.858,0,0,1,141.719,187.173Z" transform="translate(-132.597 -177.614)" fill="#009bfa"/>
            </g>
        </g>
    </g>
</svg>
