<svg xmlns="http://www.w3.org/2000/svg" width="50" height="15" viewBox="0 0 50 15">
    <defs>
        <style>
            .cls-1{fill:#0a82ff}
        </style>
    </defs>
    <g id="charge_tcoin" transform="translate(-155 -394)">
        <g id="그룹_541" transform="translate(-2414.301 -577.282)">
            <path id="패스_524" d="M2572.3 978.69v-4.133h8.291v4.133h-2.078v5.2h-4.133v-5.2z" class="cls-1" transform="translate(0 -.153)"/>
            <g id="그룹_540" transform="translate(2581.352 974.282)">
                <path id="사각형_335" d="M0 0H7.207V0.448H0z" class="cls-1" transform="translate(1.269 10.493)"/>
                <path id="패스_525" d="M2602.005 977.351l-3.614 1.263a1.13 1.13 0 0 1 .039.283.994.994 0 0 1-.266.709.943.943 0 0 1-1.344 0 1.077 1.077 0 0 1 0-1.42.939.939 0 0 1 1.312-.027l2.04-3.09a4.85 4.85 0 0 0-7.526 4.081 4.735 4.735 0 0 0 1.409 3.466 4.867 4.867 0 0 0 6.875 0 4.741 4.741 0 0 0 1.41-3.466 4.917 4.917 0 0 0-.335-1.799z" class="cls-1" transform="translate(-2592.647 -974.282)"/>
            </g>
            <path id="패스_526" d="M2620.911 984.057a4.647 4.647 0 0 1-3.43-1.42 4.943 4.943 0 0 1 0-6.908 4.84 4.84 0 0 1 8.272 3.447 4.735 4.735 0 0 1-1.407 3.461 4.655 4.655 0 0 1-3.435 1.42zm0-6.122a.882.882 0 0 0-.669.282 1.075 1.075 0 0 0 0 1.415.939.939 0 0 0 1.343 0 1.074 1.074 0 0 0 0-1.415.885.885 0 0 0-.674-.282z" class="cls-1" transform="translate(-24.301 -.02)"/>
            <path id="패스_527" d="M2659.349 974.817h-4.049v3.091l-2.133-3.091h-2.894v9.143h4.044v-2.81l1.966 2.881h3.068z" class="cls-1" transform="translate(-43.285 -.297)"/>
            <path id="사각형_336" d="M0 0H3.995V9.179H0z" class="cls-1" transform="translate(2602.204 974.52)"/>
        </g>
        <path id="사각형_337" fill="none" d="M0 0H50V15H0z" transform="translate(155 394)"/>
    </g>
</svg>
