<svg xmlns="http://www.w3.org/2000/svg" width="21" height="21" viewBox="0 0 21 21">
    <g data-name="그룹 701">
        <g data-name="그룹 700">
            <path data-name="패스 688" d="M7696.263 6663.83a.4.4 0 0 1-.4-.4v-7.366a.4.4 0 0 1 .4-.4h2.817a2.346 2.346 0 0 1 2.393 2.341 2.236 2.236 0 0 1-2.393 2.379h-1.324a.4.4 0 1 1 0-.8h1.324a1.452 1.452 0 0 0 1.587-1.576 1.54 1.54 0 0 0-1.587-1.536h-2.415v6.964a.4.4 0 0 1-.402.394z" transform="translate(-7688.274 -6649.067)" style="fill:#1698ef"/>
        </g>
        <path data-name="패스 689" d="M7668.9 6628.57a.4.4 0 0 0-.53.211l-.647 1.507a8.252 8.252 0 1 0-.641 5.423.4.4 0 0 0-.724-.353 7.452 7.452 0 1 1 .623-4.686l-1.474-1.244a.4.4 0 1 0-.519.614l2.311 1.953a.4.4 0 0 0 .259.1.426.426 0 0 0 .093-.011.4.4 0 0 0 .277-.233l1.183-2.747a.4.4 0 0 0-.211-.534z" transform="translate(-7649.782 -6621.506)" style="fill:#2a2e3a"/>
    </g>
    <path data-name="사각형 529" style="fill:none" d="M0 0h21v21H0z"/>
</svg>
