<svg xmlns="http://www.w3.org/2000/svg" width="16.19" height="15.591" viewBox="0 0 16.19 15.591">
    <path fill="#1a1818" d="M6239.128 3300.169h-.233a7.289 7.289 0 0 0-.758-2.3 6.466 6.466 0 0 0-10.956-.018 7.84 7.84 0 0 0-.836 2.319h-.305a1.66 1.66 0 0 0-1.551 1.748v3.152a1.66 1.66 0 0 0 1.551 1.748h.974a1.383 1.383 0 0 0 .153-.009 6.924 6.924 0 0 0 1.931 2.507 5.209 5.209 0 0 0 2.342 1.045 1.165 1.165 0 0 0 .351.054h.12c.082 0 .15.006.2.006h.916a1.251 1.251 0 0 0 0-2.5h-1.237a1.221 1.221 0 0 0-1.19 1.062 4.247 4.247 0 0 1-.837-.512 5.9 5.9 0 0 1-1.644-2.173 1.86 1.86 0 0 0 .445-1.223v-3.152a1.73 1.73 0 0 0-1.136-1.682 5.039 5.039 0 0 1 5.166-4.326 4.886 4.886 0 0 1 5.218 4.3 1.717 1.717 0 0 0-1.209 1.7v3.152a1.66 1.66 0 0 0 1.551 1.748h.974a1.66 1.66 0 0 0 1.551-1.748v-3.152a1.66 1.66 0 0 0-1.551-1.746zm-7.463 8.995a.156.156 0 0 1 .126-.17h1.237a.178.178 0 0 1 0 .341h-1.084c-.06 0-.131-.011-.211-.023a.185.185 0 0 1-.068-.148zm-4.18-4.1c0 .362-.216.668-.472.668h-.974c-.255 0-.472-.306-.472-.668v-3.152c0-.362.216-.668.472-.668h.974c.256 0 .472.306.472.668zm12.114 0c0 .362-.216.668-.472.668h-.974c-.255 0-.471-.306-.471-.668v-3.152c0-.362.216-.668.471-.668h.974c.256 0 .472.306.472.668z" transform="translate(-6224.489 -3294.829)"/>
</svg>
