<svg xmlns="http://www.w3.org/2000/svg" width="15" height="15" viewBox="0 0 15 15">
    <g id="prefix__icon_q" transform="translate(-124 -85)">
        <g id="prefix__타원_69" fill="none" stroke="#5d87b4" stroke-width="0.8px" data-name="타원 69" transform="translate(124 85)">
            <circle cx="7.5" cy="7.5" r="7.5" stroke="none"/>
            <circle cx="7.5" cy="7.5" r="7.1"/>
        </g>
        <path id="prefix__패스_356" fill="#5d87b4" d="M-2.96-2.21h.81C-2.33-3.78-.53-4.37-.53-5.84A1.71 1.71 0 0 0-2.4-7.62a2.5 2.5 0 0 0-1.91.92l.52.48a1.705 1.705 0 0 1 1.29-.64 1.012 1.012 0 0 1 1.08 1.08c0 1.19-1.77 1.83-1.54 3.57zm.43 2.34a.663.663 0 0 0 .67-.69.68.68 0 0 0-.67-.71.678.678 0 0 0-.66.71.66.66 0 0 0 .66.69z" data-name="패스 356" transform="translate(134 96)"/>
    </g>
</svg>
