<svg xmlns="http://www.w3.org/2000/svg" width="17" height="17" viewBox="0 0 17 17">
    <g id="prefix__icon_info" transform="translate(-148 -84)">
        <path id="prefix__패스_351" fill="#9fa9bb" d="M2.2-5.2h.933C2.927-7 5-7.685 5-9.379a1.971 1.971 0 0 0-2.154-2.051 2.877 2.877 0 0 0-2.2 1.06l.6.553a1.965 1.965 0 0 1 1.487-.738A1.167 1.167 0 0 1 3.975-9.31c0 1.372-2.039 2.11-1.775 4.11zm.5 2.7a.763.763 0 0 0 .772-.8.783.783 0 0 0-.772-.813.781.781 0 0 0-.761.818.761.761 0 0 0 .761.795z" data-name="패스 351" transform="translate(153.931 99.91)"/>
        <g id="prefix__타원_71" fill="none" stroke="#9fa9bb" data-name="타원 71" transform="translate(148 84)">
            <circle cx="8.5" cy="8.5" r="8.5" stroke="none"/>
            <circle cx="8.5" cy="8.5" r="8"/>
        </g>
    </g>
</svg>
