<svg xmlns="http://www.w3.org/2000/svg" width="22" height="22" viewBox="0 0 22 22">
    <defs>
        <style>
            .prefix__cls-1{fill:#1a1818}
        </style>
    </defs>
    <g id="prefix__icon_p_wd" transform="translate(-232 -205)">
        <g id="prefix__그룹_393" data-name="그룹 393" transform="translate(-7071.189 -6048.95)">
            <g id="prefix__그룹_391" data-name="그룹 391" transform="translate(7304.167 6258.487)">
                <path id="prefix__패스_351" d="M7311.083 6272.32a6.917 6.917 0 1 1 6.6-9 .4.4 0 0 1-.763.24 6.117 6.117 0 1 0-5.835 7.954 6.155 6.155 0 0 0 5.861-4.359.4.4 0 1 1 .766.23 6.959 6.959 0 0 1-6.629 4.935z" class="prefix__cls-1" data-name="패스 351" transform="translate(-7304.167 -6258.487)"/>
            </g>
            <path id="prefix__패스_352" d="M7414.622 6292.928l-3-2.733a.4.4 0 0 0-.54.591l2.265 2.066h-5.345a.4.4 0 1 0 0 .8h5.271l-2.293 2.064a.4.4 0 0 0 .536.595l3.1-2.791a.4.4 0 0 0 0-.592z" class="prefix__cls-1" data-name="패스 352" transform="translate(-91.613 -27.991)"/>
            <g id="prefix__그룹_392" data-name="그룹 392" transform="translate(7308.985 6261.903)">
                <path id="prefix__패스_353" d="M7346.714 6295.453a.4.4 0 0 1-.4-.4v-6.279a.4.4 0 0 1 .4-.4h2.434a2.055 2.055 0 0 1 2.1 2.051 1.96 1.96 0 0 1-2.1 2.086h-1.161a.4.4 0 1 1 0-.8h1.161a1.171 1.171 0 0 0 1.3-1.286 1.255 1.255 0 0 0-1.3-1.251h-2.033v5.878a.4.4 0 0 1-.401.401z" class="prefix__cls-1" data-name="패스 353" transform="translate(-7346.314 -6288.374)"/>
            </g>
        </g>
        <path id="prefix__사각형_333" fill="none" d="M0 0H22V22H0z" data-name="사각형 333" opacity="0.24" transform="translate(232 205)"/>
    </g>
</svg>
