<svg xmlns="http://www.w3.org/2000/svg" width="13" height="13" viewBox="0 0 13 13">
    <defs>
        <style>
            .prefix__cls-2{fill:#202020}
        </style>
    </defs>
    <g id="prefix__icon_charge" transform="translate(-224 -124)">
        <path id="prefix__사각형_331" fill="none" d="M0 0H13V13H0z" data-name="사각형 331" transform="translate(224 124)"/>
        <g id="prefix__icon_charge-2" data-name="icon_charge" transform="translate(-5307.187 -5722.106)">
            <g id="prefix__그룹_402" data-name="그룹 402" transform="translate(5531.851 5847.106)">
                <path id="prefix__패스_358" d="M5537.5 5858.412a5.653 5.653 0 1 1 5.652-5.653 5.659 5.659 0 0 1-5.652 5.653zm0-10.6a4.944 4.944 0 1 0 4.943 4.944 4.949 4.949 0 0 0-4.943-4.941z" class="prefix__cls-2" data-name="패스 358" transform="translate(-5531.851 -5847.106)"/>
            </g>
            <g id="prefix__그룹_403" data-name="그룹 403" transform="translate(5535.417 5849.569)">
                <path id="prefix__패스_359" d="M5553.492 5867.521a.355.355 0 0 1-.3-.552l1.615-2.425-2.857.235 2.353-3.625a.355.355 0 1 1 .6.386l-1.567 2.413 2.878-.237-2.426 3.646a.358.358 0 0 1-.296.159z" class="prefix__cls-2" data-name="패스 359" transform="translate(-5551.954 -5860.992)"/>
            </g>
        </g>
    </g>
</svg>
