<svg xmlns="http://www.w3.org/2000/svg" width="36" height="36" viewBox="0 0 36 36">
    <defs>
        <style>
            .cls-1{fill:none}.cls-2{fill:#007262}.cls-3{fill:#bb0c32}
        </style>
    </defs>
    <g id="icon_hana" transform="translate(-49 -171)">
        <path id="사각형_231" d="M0 0h36v36H0z" class="cls-1" data-name="사각형 231" transform="translate(49 171)"/>
        <g id="그룹_303" data-name="그룹 303" transform="translate(-91.729 34.487)">
            <path id="패스_355" d="M173.078 170.024a3.756 3.756 0 0 0-.269-.914 4.507 4.507 0 0 0-1.809-2.1 4.069 4.069 0 0 0-4.193.026 3.682 3.682 0 0 0-1.382 1.479 4.393 4.393 0 0 0-.262.647 4.546 4.546 0 0 0 .288 3.54 1.785 1.785 0 0 0 .846.738 1.235 1.235 0 0 0 1.1-.085 1.162 1.162 0 0 0 .409-1.226 3.213 3.213 0 0 1 .041-1.713 1.3 1.3 0 0 1 .3-.487 1.13 1.13 0 0 1 .29-.2 1.212 1.212 0 0 1 .724-.118 1.386 1.386 0 0 1 .972.793 3.214 3.214 0 0 1 .263 1.268 19.019 19.019 0 0 1-.844 5.672q-.074.281-.154.56c-.041.144-.115.327-.023.468a.374.374 0 0 0 .168.129.641.641 0 0 0 .7-.249 10.142 10.142 0 0 0 2.308-4.039 12.906 12.906 0 0 0 .442-1.688 7.427 7.427 0 0 0 .085-2.508" class="cls-2" data-name="패스 355" transform="translate(-10.295 -13.12)"/>
            <path id="패스_356" d="M170.729 152.886a.481.481 0 0 0-.522-.462 2.508 2.508 0 0 0-.78.247 31.562 31.562 0 0 1-15.534 1.467c-.88-.127-1.772-.3-2.658-.443-.553-.086-1.1-.212-1.659-.254a2 2 0 0 0-1.453.278 1.535 1.535 0 0 0-.184 1.818 4.1 4.1 0 0 0 1.582 1.529 3.815 3.815 0 0 0 2.07.706q2.949-.188 5.882-.569a39.313 39.313 0 0 0 9.958-2.134 12.514 12.514 0 0 0 2.91-1.633c.16-.12.389-.319.389-.551" class="cls-2" data-name="패스 356" transform="translate(0 -4.732)"/>
            <path id="패스_357" d="M170.122 146.481a1.921 1.921 0 0 0 3.842 0 1.089 1.089 0 0 0-.1-.46c-.165-.349-.35-.518-.332-.937.025-.565-.7-.571-1.087-.571a2.821 2.821 0 0 0-1.259.252 1.918 1.918 0 0 0-1.059 1.672v.044" class="cls-3" data-name="패스 357" transform="translate(-13.395)"/>
        </g>
    </g>
</svg>
