<svg xmlns="http://www.w3.org/2000/svg" width="30" height="30" viewBox="0 0 30 30">
    <defs>
        <style>
            .cls-1{fill:none}.cls-2{fill:#262626}
        </style>
    </defs>
    <g id="icon_more_02" transform="translate(-15 -214)">
        <path id="사각형_292" d="M0 0h30v30H0z" class="cls-1" data-name="사각형 292" transform="translate(15 214)"/>
        <g id="그룹_517" data-name="그룹 517" transform="translate(-6504.654 -4670.223)">
            <g id="그룹_513" data-name="그룹 513" transform="translate(6524.655 4891.83)">
                <path id="패스_490" d="M6539.231 4905.707h-12.754a1.823 1.823 0 0 1-1.822-1.821v-.022l.722-10.225a1.823 1.823 0 0 1 1.821-1.81h14.614a1.823 1.823 0 0 1 1.821 1.821v.022l-.279 3.958-.634-.044.278-3.945a1.186 1.186 0 0 0-1.185-1.175H6527.2a1.186 1.186 0 0 0-1.186 1.184v.022l-.72 10.224a1.185 1.185 0 0 0 1.185 1.174h12.754z" class="cls-2" data-name="패스 490" transform="translate(-6524.655 -4891.829)"/>
            </g>
            <g id="그룹_516" data-name="그룹 516" transform="translate(6529.443 4895.541)">
                <g id="그룹_514" data-name="그룹 514" transform="translate(1.036)">
                    <path id="패스_491" d="M6566.374 4921.164a.32.32 0 0 1-.3-.205l-1.36-3.6-1.146 3.588a.319.319 0 0 1-.3.221.321.321 0 0 1-.3-.224l-1.682-5.373a.318.318 0 1 1 .606-.19l1.382 4.413 1.118-3.5a.317.317 0 0 1 .295-.221.311.311 0 0 1 .306.206l1.332 3.528 1.169-4.413a.319.319 0 0 1 .616.163l-1.424 5.373a.319.319 0 0 1-.292.236z" class="cls-2" data-name="패스 491" transform="translate(-6561.266 -4915.154)"/>
                </g>
                <g id="그룹_515" data-name="그룹 515" transform="translate(0 2.978)">
                    <path id="패스_492" d="M6563.361 4934.511h-8.286a.318.318 0 0 1 0-.636h8.286a.318.318 0 0 1 0 .636z" class="cls-2" data-name="패스 492" transform="translate(-6554.757 -4933.875)"/>
                </g>
            </g>
            <g id="gear-1" transform="translate(6537.706 4897.19)">
                <path id="패스_493" d="M6612.29 4935.464h-1.252a.317.317 0 0 1-.3-.211c-.034-.095-.063-.185-.092-.269-.167-.5-.24-.679-.513-.792s-.47-.028-.923.2c-.08.04-.164.082-.255.125a.317.317 0 0 1-.361-.062l-.886-.885a.319.319 0 0 1-.062-.362c.043-.09.085-.175.125-.255.226-.451.312-.645.2-.923s-.291-.345-.792-.514a17.533 17.533 0 0 1-.269-.091.317.317 0 0 1-.211-.3v-1.253a.32.32 0 0 1 .211-.3c.094-.034.184-.063.27-.092.5-.167.677-.239.791-.513s.039-.45-.2-.922c-.04-.08-.083-.165-.125-.256a.316.316 0 0 1 .062-.36l.886-.887a.321.321 0 0 1 .361-.062c.092.043.176.085.257.126.47.233.647.309.92.2.272-.113.345-.292.512-.791l.092-.27a.318.318 0 0 1 .3-.211h1.252a.318.318 0 0 1 .3.211l.093.271c.166.5.238.675.506.789h.013c.272.11.469.024.917-.2.081-.041.165-.082.255-.125a.319.319 0 0 1 .361.063l.886.887a.318.318 0 0 1 .062.36l-.124.256c-.235.473-.311.649-.2.922s.291.345.789.513c.086.029.176.059.271.093a.319.319 0 0 1 .211.3v1.253a.317.317 0 0 1-.211.3c-.095.034-.185.064-.27.092-.5.169-.678.241-.791.513s-.038.45.2.923c.04.08.082.165.125.255a.321.321 0 0 1-.062.362l-.886.885a.317.317 0 0 1-.361.063c-.093-.044-.178-.086-.259-.126-.471-.234-.647-.31-.916-.2s-.349.293-.518.794l-.092.268a.316.316 0 0 1-.297.208zm-1.025-.636h.8l.016-.046a1.425 1.425 0 0 1 2.32-.964l.046.023.565-.565-.022-.045a1.6 1.6 0 0 1-.214-1.449c.229-.554.668-.7 1.176-.873l.048-.016v-.8a.447.447 0 0 1-.049-.016c-.507-.17-.945-.318-1.174-.872a1.6 1.6 0 0 1 .214-1.45l.022-.044-.564-.565-.044.021a1.593 1.593 0 0 1-1.451.216 1.6 1.6 0 0 1-.868-1.173c0-.016-.011-.032-.017-.048h-.8c0 .017-.011.033-.017.048-.169.506-.316.944-.868 1.173a1.593 1.593 0 0 1-1.449-.214l-.046-.022-.564.565.022.045a1.6 1.6 0 0 1 .214 1.449c-.23.555-.668.7-1.177.872l-.047.016v.8l.046.016c.508.17.947.317 1.177.872a1.6 1.6 0 0 1-.215 1.451l-.021.043.564.565.046-.022a1.6 1.6 0 0 1 1.449-.215c.555.229.7.668.872 1.177-.002.019.005.032.01.048zm5.05-3.707zm-4.651 1.242a1.869 1.869 0 1 1 1.869-1.868 1.87 1.87 0 0 1-1.869 1.869zm0-3.1a1.232 1.232 0 1 0 1.233 1.232 1.233 1.233 0 0 0-1.233-1.232z" class="cls-2" data-name="패스 493" transform="translate(-6606.694 -4925.525)"/>
            </g>
        </g>
    </g>
</svg>
