<svg xmlns="http://www.w3.org/2000/svg" width="30" height="30" viewBox="0 0 30 30">
    <defs>
        <style>
            .cls-2{fill:#1a1818}
        </style>
    </defs>
    <g id="icon_alert_02" transform="translate(-15 -252)">
        <circle id="타원_136" cx="15" cy="15" r="15" fill="#fff" transform="translate(15 252)"/>
        <g id="그룹_294" transform="translate(21.686 258.14)">
            <g id="그룹_290" transform="translate(0 0)">
                <path id="패스_297" d="M6624.468 4765.275a3.279 3.279 0 0 1-3.225-2.3.27.27 0 0 1-.031-.064l-.029-.1-.011-.033c-.01-.03-.021-.06-.03-.091a.268.268 0 0 1-.013-.075c-.529-2.1.514-3.722 2.867-4.466a20.429 20.429 0 0 0 8.4-5.609.3.3 0 0 1 .509.1l3.708 11.739a.3.3 0 0 1-.357.375 20.467 20.467 0 0 0-10.094.233 5.643 5.643 0 0 1-1.694.291zm-2.707-2.593a.269.269 0 0 1 .018.038c.654 1.778 2.107 2.368 4.2 1.707a20.6 20.6 0 0 1 9.91-.361l-3.4-10.75a20.591 20.591 0 0 1-8.317 5.4c-2.095.663-2.944 1.98-2.459 3.811a.236.236 0 0 1 .008.042.244.244 0 0 0 .009.024l.009.026v.013l.007.021zm2.326-4.249z" class="cls-2" transform="translate(-6620.995 -4752.437)"/>
            </g>
            <g id="그룹_291" transform="translate(12.624 3.97)">
                <path id="패스_298" d="M6750.486 4797.021a.3.3 0 0 1-.17-.539l.963-.673-.8-2.519-1.2.106a.3.3 0 0 1-.052-.59l1.434-.127a.3.3 0 0 1 .309.205l.933 2.954a.3.3 0 0 1-.113.332l-1.141.8a.3.3 0 0 1-.163.051z" class="cls-2" transform="translate(-6748.964 -4792.677)"/>
            </g>
            <g id="그룹_292" transform="translate(4.326 11.538)">
                <path id="패스_299" d="M6668.077 4875.068a.3.3 0 0 1-.244-.128l-2.93-4.272a.3.3 0 1 1 .488-.334l2.806 4.091 1.389-.439-1.4-4.2a.3.3 0 0 1 .562-.188l1.5 4.481a.3.3 0 0 1-.191.376l-1.885.6a.3.3 0 0 1-.095.013z" class="cls-2" transform="translate(-6664.851 -4869.4)"/>
            </g>
            <g id="그룹_293" transform="translate(9.103 2.381)">
                <path id="패스_300" d="M6716.325 4785.867a.3.3 0 0 1-.283-.207l-2.749-8.7a.3.3 0 0 1 .193-.372.294.294 0 0 1 .371.193l2.75 8.7a.3.3 0 0 1-.193.372.292.292 0 0 1-.089.014z" class="cls-2" transform="translate(-6713.279 -4776.573)"/>
            </g>
        </g>
    </g>
</svg>
