<svg xmlns="http://www.w3.org/2000/svg" width="36" height="36" viewBox="0 0 36 36">
    <defs>
        <style>
            .cls-1{fill:none}.cls-2{fill:#fff}.cls-3{fill:#007ec0}.cls-4{fill:#e43e00}.cls-5{fill:#004187}
        </style>
    </defs>
    <g id="icon_ibk" transform="translate(-162 -479)">
        <path id="사각형_281" d="M0 0h36v36H0z" class="cls-1" data-name="사각형 281" transform="translate(162 479)"/>
        <g id="그룹_333" data-name="그룹 333" transform="translate(-634.923 283.763)">
            <g id="그룹_332" data-name="그룹 332" transform="translate(802.611 200.91)">
                <g id="그룹_331" data-name="그룹 331">
                    <path id="패스_462" d="M808.717 201.213a2.81 2.81 0 0 0-1.421 1.64l-4.538 13.638a2.838 2.838 0 0 0 1.8 3.587l14.881 5a2.834 2.834 0 0 0 3.588-1.8l4.539-13.634a2.841 2.841 0 0 0-1.8-3.591l-14.88-4.995a2.816 2.816 0 0 0-2.169.156" class="cls-2" data-name="패스 462" transform="translate(-802.611 -200.91)"/>
                    <path id="패스_463" d="M824.94 223.516a7.774 7.774 0 0 1-2.984 2.081l-.672.26v-6.319l.663.257a7.8 7.8 0 0 1 2.993 2.072 6.838 6.838 0 0 0-3.309-9.96l-2.15-.715a1.837 1.837 0 0 0-2.323 1.179l-4.551 13.645a1.863 1.863 0 0 0 1.193 2.344l10.327 3.448a6.836 6.836 0 0 0 .812-8.293m-5.97 2.73h-1.025v-7.084h1.025z" class="cls-3" data-name="패스 463" transform="translate(-811.56 -210.116)"/>
                    <path id="패스_464" d="M915.763 315.827a6.894 6.894 0 0 0-2.079-1.66v3.33a6.856 6.856 0 0 0 2.079-1.67" class="cls-4" data-name="패스 464" transform="translate(-902.978 -303.251)"/>
                    <path id="패스_465" d="M950.565 234.005l-9.478-3.167a7.806 7.806 0 0 1 .688 9.692 7.808 7.808 0 0 1-.453 9.458l3.559 1.188a1.837 1.837 0 0 0 2.325-1.182l4.553-13.644a1.866 1.866 0 0 0-1.195-2.345m-2.511 10.056h-1.28l-2.634-3.543 2.675-3.542h1.291l-2.681 3.552z" class="cls-5" data-name="패스 465" transform="translate(-927.741 -227.953)"/>
                </g>
            </g>
        </g>
    </g>
</svg>
