<svg xmlns="http://www.w3.org/2000/svg" width="30" height="30" viewBox="0 0 30 30">
    <g transform="translate(-15 -76)">
        <circle cx="15" cy="15" r="15" fill="#fff" transform="translate(15 76)"/>
        <path fill="#262626" d="M6981.354 5503.235h-4.294a1.969 1.969 0 0 0 1.194-.78 1.1 1.1 0 0 0-.146-1.187 1.2 1.2 0 0 0-1.052-.625c-.923.02-1.888 1.171-2.419 1.919-.526-.754-1.473-1.9-2.389-1.926a1.212 1.212 0 0 0-1.058.615 1.1 1.1 0 0 0-.156 1.186 1.982 1.982 0 0 0 1.206.8h-4.406a.7.7 0 0 0-.7.7v2.575a.7.7 0 0 0 .537.678v5.954a1.461 1.461 0 0 0 1.524 1.526h10.789a1.463 1.463 0 0 0 1.526-1.526v-5.954a.7.7 0 0 0 .534-.678v-2.575a.7.7 0 0 0-.69-.702zm-4.285-2.067h.013a.709.709 0 0 1 .588.389c.261.395.156.585.123.648-.278.512-1.621.752-2.7.816l-.017-.016a.255.255 0 0 0-.068-.047c.51-.737 1.383-1.775 2.061-1.79zm-5.568 1.023c-.034-.062-.136-.254.128-.647a.712.712 0 0 1 .586-.382h.019c.679.021 1.543 1.071 2.05 1.813a.262.262 0 0 0-.065.039l-.023.02c-1.083-.076-2.423-.328-2.696-.843zm-3.836 4.316v-2.575a.171.171 0 0 1 .171-.171h5.485l-1.857 1.548a.263.263 0 0 0 .168.465.267.267 0 0 0 .169-.061l2.343-1.952h.188v2.9h-6.395v.013h-.1a.171.171 0 0 1-.172-.167zm.536 6.632v-5.947h6.131v6.947h-5.132a.939.939 0 0 1-1-1zm11.788 1h-5.133v-6.947h6.133v5.947a.94.94 0 0 1-1 1zm1.535-7.632a.171.171 0 0 1-.17.171h-.1v-.013h-6.395v-2.9h.242l2.057 1.993a.263.263 0 1 0 .367-.377l-1.668-1.616h5.5a.171.171 0 0 1 .17.171z" transform="translate(-6944.735 -5417.251)"/>
    </g>
</svg>
