<svg xmlns="http://www.w3.org/2000/svg" width="30" height="30" viewBox="0 0 30 30">
    <defs>
        <style>
            .prefix__cls-1{fill:#1a1818}
        </style>
    </defs>
    <g id="prefix__icon_a_setting_03" transform="translate(-15 -183)">
        <g id="prefix__그룹_606" data-name="그룹 606" transform="translate(-7200.102 -4504.383)">
            <path id="prefix__패스_572" d="M7262.6 4722.5h-1.007l.64-2.416a.3.3 0 0 0-.577-.153l-.68 2.568h-1.007l-.657-1.74a.3.3 0 0 0-.279-.192h-.007a.3.3 0 0 0-.276.207l-.552 1.725h-.983l-.809-2.582a.3.3 0 1 0-.569.179l.753 2.4h-1.124a.3.3 0 0 0 0 .6h1.311l.637 2.036a.3.3 0 0 0 .284.209.3.3 0 0 0 .283-.208l.651-2.037h.923l.775 2.052a.3.3 0 0 0 .278.193h.016a.3.3 0 0 0 .272-.222l.537-2.023h1.166a.3.3 0 0 0 0-.6zm-4.9 1.554l-.3-.958h.6zm1.123-1.554l.233-.729.274.729zm1.737 1.567l-.366-.971h.624z" class="prefix__cls-1" data-name="패스 572" transform="translate(-30.164 -19.496)"/>
            <path id="prefix__패스_573" d="M7239.174 4699.738l.107-1.518v-.022a1.817 1.817 0 0 0-1.815-1.815h-15.83a1.818 1.818 0 0 0-1.816 1.8l-.719 10.194v.022a1.818 1.818 0 0 0 1.815 1.816h14.26a5.982 5.982 0 1 0 4-10.481zm-19.437 8.676l.718-10.193v-.022a1.182 1.182 0 0 1 1.181-1.181h15.83a1.182 1.182 0 0 1 1.181 1.171l-.111 1.578a5.979 5.979 0 0 0-3.983 9.819h-13.636a1.182 1.182 0 0 1-1.181-1.172zm19.381 2.657a5.35 5.35 0 1 1 5.35-5.35 5.356 5.356 0 0 1-5.351 5.35z" class="prefix__cls-1" data-name="패스 573"/>
            <path id="prefix__패스_574" d="M7334.955 4740.341a.317.317 0 0 0-.449 0l-1.84 1.839-1.839-1.839a.317.317 0 0 0-.449.449l1.839 1.839-1.839 1.839a.317.317 0 1 0 .449.449l1.839-1.839 1.84 1.839a.317.317 0 0 0 .449-.449l-1.84-1.839 1.84-1.839a.318.318 0 0 0 0-.449z" class="prefix__cls-1" data-name="패스 574" transform="translate(-93.549 -36.908)"/>
        </g>
        <g id="prefix__그룹_607" data-name="그룹 607" transform="translate(0 25)">
            <path id="prefix__사각형_291" d="M0 0H30V30H0z" data-name="사각형 291" transform="translate(15 158)" style="fill:none"/>
        </g>
    </g>
</svg>
