<svg xmlns="http://www.w3.org/2000/svg" width="30" height="30" viewBox="0 0 30 30">
    <defs>
        <style>
            .cls-1{fill:#1a1818}.cls-2{fill:none}
        </style>
    </defs>
    <g id="icon_a_setting_02" transform="translate(-15 -127)">
        <g id="그룹_523" data-name="그룹 523" transform="translate(-7019.17 -4732.234)">
            <path id="패스_506" d="M7054.109 4870.073v-2.13a4.709 4.709 0 1 0-9.418 0v2.13a7.143 7.143 0 0 0-3.521 6.151v1.058a7.147 7.147 0 0 0 7.141 7.14h2.18a7.149 7.149 0 0 0 7.141-7.14v-1.058a7.145 7.145 0 0 0-3.523-6.151zm-8.708-2.13a4 4 0 1 1 8 0v1.763a7.083 7.083 0 0 0-2.908-.621h-2.18a7.087 7.087 0 0 0-2.909.621zm11.519 9.34a6.437 6.437 0 0 1-6.429 6.429h-2.18a6.436 6.436 0 0 1-6.43-6.429v-1.058a6.436 6.436 0 0 1 6.43-6.429h2.18a6.437 6.437 0 0 1 6.429 6.429z" class="cls-1" data-name="패스 506" transform="translate(0 .001)"/>
            <path id="패스_507" d="M7078.926 4923.245a1.851 1.851 0 0 0-1.057 3.372v1.588a1.058 1.058 0 0 0 2.116 0v-1.588a1.852 1.852 0 0 0-1.059-3.372zm.537 2.86l-.189.1v2a.347.347 0 0 1-.695 0v-2l-.188-.1a1.141 1.141 0 1 1 1.072 0z" class="cls-1" data-name="패스 507" transform="translate(-29.526 -49.35)"/>
        </g>
        <g id="그룹_531" data-name="그룹 531" transform="translate(0 -31)">
            <path id="사각형_291" d="M0 0h30v30H0z" class="cls-2" data-name="사각형 291" transform="translate(15 158)"/>
        </g>
    </g>
</svg>
