<svg xmlns="http://www.w3.org/2000/svg" width="30" height="30" viewBox="0 0 30 30">
    <defs>
        <style>
            .cls-2{fill:#1a1818}
        </style>
    </defs>
    <g id="icon_more_09" transform="translate(-15 -377)">
        <path id="icon_more_09-2" fill="#fff" d="M0 0H30V30H0z" transform="translate(15 377)"/>
        <g id="그룹_752" transform="translate(-7394.79 -6528.699)">
            <path id="패스_1863" d="M7434.719 6921.195c0-1.693-2.765-3.02-6.293-3.02a13.269 13.269 0 0 0-1.67.1 6.684 6.684 0 1 0-4.589 5.2v5.913a.276.276 0 0 0 .016.093c.033.1.888 2.5 6.336 2.5 5.467 0 6.131-2.467 6.157-2.572a.277.277 0 0 0 .008-.07v-7.821a1.557 1.557 0 0 0 .035-.323zm-.6 0a1.048 1.048 0 0 1-.007.117.294.294 0 0 0-.028.124v.017c-.314 1.2-2.779 2.165-5.661 2.165s-5.348-.968-5.664-2.165v-.017a.309.309 0 0 0-.027-.124.945.945 0 0 1-.008-.117c0-1.314 2.609-2.423 5.7-2.423s5.699 1.109 5.699 2.423zm-.035 5.437v.112c-.092.25-.933 2.093-5.569 2.093-4.608 0-5.627-1.782-5.756-2.054v-1.662c.736.727 2.347 1.664 5.756 1.664 3.306 0 4.855-.9 5.569-1.638zm0-2.534c-.092.249-.933 2.092-5.569 2.092-4.608 0-5.627-1.781-5.756-2.052v-1.6c1.012 1 3.142 1.681 5.664 1.681s4.65-.677 5.661-1.681v1.564zm-13.916-.911a6.1 6.1 0 1 1 5.957-4.81c-2.36.432-4 1.516-4 2.818a1.556 1.556 0 0 0 .034.323v1.334a6.11 6.11 0 0 1-1.988.335zm8.347 8.2c-4.608 0-5.627-1.782-5.756-2.053v-1.564c.736.728 2.347 1.664 5.756 1.664 3.306 0 4.855-.9 5.569-1.639v1.5c-.084.247-.929 2.091-5.565 2.091z" class="cls-2" transform="translate(0)"/>
            <path id="패스_1864" d="M7524.55 6992.68a1.189 1.189 0 0 0 .725-.434c.2-.345-.293-.571-.772-.663v-.007a1.627 1.627 0 0 0 1.206-.445c.106-.183.018-.333-.21-.443a3.662 3.662 0 0 0-1.379-.275c-.487-.035-.978-.048-1.3-.043l-1.323 2.29c.224.031.583.07 1.062.105a6.416 6.416 0 0 0 1.991-.085zm-1.148-2.058c.118 0 .307 0 .627.023.7.051 1.12.192.962.465-.13.224-.656.359-1.391.306l-.631-.045zm-.564.977l.575.042c.759.055 1.313.231 1.129.549-.2.338-.923.4-1.642.353-.248-.017-.445-.035-.575-.055z" class="cls-2" transform="translate(-95.149 -70.437)"/>
            <path id="패스_1865" d="M7458.019 6940.909a1.7 1.7 0 0 0 .959-1.494 1.63 1.63 0 0 0-.443-1.189 2.5 2.5 0 0 0-1.843-.58 6.013 6.013 0 0 0-1.37.142l-.091.022v6.8l.241.02c.253.021.6.049 1.041.049a2.925 2.925 0 0 0 2.192-.671 1.893 1.893 0 0 0 .531-1.366 1.817 1.817 0 0 0-1.217-1.733zm-2.083-.271v-2.31a4.456 4.456 0 0 1 .736-.046c1.063 0 1.581.38 1.581 1.164 0 .713-.584 1.192-1.452 1.192zm2.575 2.018c0 1.211-1.171 1.392-1.869 1.392a5.947 5.947 0 0 1-.706-.031v-2.753h.727c.432 0 1.848.101 1.848 1.392z" class="cls-2" transform="translate(-36.774 -23.999)"/>
        </g>
    </g>
</svg>
