<svg xmlns="http://www.w3.org/2000/svg" width="30" height="30" viewBox="0 0 30 30">
    <defs>
        <style>
            .cls-1{fill:none}.cls-2{fill:#1a1818}
        </style>
    </defs>
    <g id="icon_more_06" transform="translate(-15 -432)">
        <path id="사각형_296" d="M0 0h30v30H0z" class="cls-1" data-name="사각형 296" transform="translate(15 432)"/>
        <g id="그룹_294" data-name="그룹 294" transform="translate(21 438.074)">
            <g id="그룹_290" data-name="그룹 290">
                <path id="패스_297" d="M6624.793 4766.48a3.586 3.586 0 0 1-3.527-2.513.283.283 0 0 1-.034-.07l-.032-.106-.011-.036a2.931 2.931 0 0 1-.034-.1.322.322 0 0 1-.015-.082c-.578-2.293.562-4.072 3.137-4.886a22.342 22.342 0 0 0 9.183-6.136.324.324 0 0 1 .557.111l4.057 12.84a.324.324 0 0 1-.392.411 22.379 22.379 0 0 0-11.041.255 6.182 6.182 0 0 1-1.848.312zm-2.961-2.836a.3.3 0 0 1 .02.042c.715 1.944 2.305 2.589 4.6 1.866a22.536 22.536 0 0 1 10.839-.395l-3.716-11.759a22.519 22.519 0 0 1-9.1 5.906c-2.291.724-3.221 2.166-2.69 4.168a.232.232 0 0 1 .009.046c0 .009.006.018.01.027l.009.028a.089.089 0 0 1 0 .014l.008.023zm2.544-4.648z" class="cls-2" data-name="패스 297" transform="translate(-6620.994 -4752.436)"/>
            </g>
            <g id="그룹_291" data-name="그룹 291" transform="translate(13.808 4.342)">
                <path id="패스_298" d="M6750.629 4797.428a.324.324 0 0 1-.187-.589l1.053-.737-.871-2.755-1.309.116a.324.324 0 0 1-.057-.646l1.568-.139a.323.323 0 0 1 .337.225l1.021 3.23a.324.324 0 0 1-.123.363l-1.249.873a.322.322 0 0 1-.183.059z" class="cls-2" data-name="패스 298" transform="translate(-6748.964 -4792.677)"/>
            </g>
            <g id="그룹_292" data-name="그룹 292" transform="translate(4.732 12.621)">
                <path id="패스_299" d="M6668.379 4875.6a.324.324 0 0 1-.267-.14l-3.2-4.673a.324.324 0 0 1 .534-.366l3.069 4.475 1.52-.48-1.533-4.589a.324.324 0 0 1 .614-.205l1.637 4.9a.322.322 0 0 1-.209.411l-2.062.652a.321.321 0 0 1-.103.015z" class="cls-2" data-name="패스 299" transform="translate(-6664.851 -4869.4)"/>
            </g>
            <g id="그룹_293" data-name="그룹 293" transform="translate(9.957 2.604)">
                <path id="패스_300" d="M6716.61 4786.739a.323.323 0 0 1-.309-.227l-3.007-9.518a.324.324 0 0 1 .617-.2l3.008 9.518a.323.323 0 0 1-.211.406.3.3 0 0 1-.098.021z" class="cls-2" data-name="패스 300" transform="translate(-6713.28 -4776.573)"/>
            </g>
        </g>
    </g>
</svg>
