<svg xmlns="http://www.w3.org/2000/svg" width="36.05" height="46.773" viewBox="0 0 36.05 46.773">
    <defs>
        <style>
            .cls-1{fill:#898989}
        </style>
    </defs>
    <g id="icon_pw" transform="translate(-6608.823 -4643.131)">
        <g id="그룹_620" transform="translate(6608.823 4658.738)">
            <path id="패스_557" d="M6637.72 4714.412h-21.743a7.162 7.162 0 0 1-7.154-7.154V4690.4a7.162 7.162 0 0 1 7.154-7.154h21.743a7.162 7.162 0 0 1 7.153 7.154v16.858a7.162 7.162 0 0 1-7.153 7.154zm-21.743-29.609a5.6 5.6 0 0 0-5.6 5.6v16.858a5.6 5.6 0 0 0 5.6 5.6h21.743a5.6 5.6 0 0 0 5.6-5.6V4690.4a5.6 5.6 0 0 0-5.6-5.6z" class="cls-1" transform="translate(-6608.823 -4683.247)"/>
        </g>
        <g id="그룹_621" transform="translate(6616.534 4643.131)">
            <path id="패스_558" d="M6649.271 4660.057h-1.557v-6.612a8.758 8.758 0 1 0-17.516 0V4660h-1.556v-6.551a10.314 10.314 0 1 1 20.628 0z" class="cls-1" transform="translate(-6628.642 -4643.131)"/>
        </g>
        <path id="패스_559" fill="#4cb4e9" d="M6652.49 4711.234a2.881 2.881 0 1 0-4.235 2.543v3.438a1.353 1.353 0 0 0 1.354 1.354 1.353 1.353 0 0 0 1.353-1.354v-3.437a2.88 2.88 0 0 0 1.528-2.544z" transform="translate(-22.761 -39.144)"/>
    </g>
</svg>
