<svg xmlns="http://www.w3.org/2000/svg" width="36" height="36" viewBox="0 0 36 36">
    <defs>
        <style>
            .cls-1{fill:none}.cls-2{fill:#dc000c;fill-rule:evenodd}.cls-3{fill:#003375}
        </style>
    </defs>
    <g id="icon_citi" transform="translate(-162 -171)">
        <path id="사각형_264" d="M0 0h36v36H0z" class="cls-1" data-name="사각형 264" transform="translate(162 171)"/>
        <g id="그룹_314" data-name="그룹 314" transform="translate(41.75 -60.683)">
            <g id="그룹_313" data-name="그룹 313" transform="translate(124.153 241.387)">
                <path id="패스_358" d="M193 245.914a10.634 10.634 0 0 0-17.411 0l-.1.146h2.521l.027-.03a8.591 8.591 0 0 1 12.519 0l.028.03h2.516l-.1-.146z" class="cls-2" data-name="패스 358" transform="translate(-166.313 -241.387)"/>
                <g id="그룹_312" data-name="그룹 312" transform="translate(0 3.101)">
                    <g id="그룹_311" data-name="그룹 311">
                        <g id="그룹_310" data-name="그룹 310">
                            <g id="그룹_309" data-name="그룹 309">
                                <g id="그룹_308" data-name="그룹 308">
                                    <g id="그룹_307" data-name="그룹 307">
                                        <g id="그룹_306" data-name="그룹 306">
                                            <g id="그룹_305" data-name="그룹 305">
                                                <g id="그룹_304" data-name="그룹 304">
                                                    <path id="패스_359" d="M132.326 284.039l-.047.048a3.646 3.646 0 0 1-2.593 1.206 3.44 3.44 0 0 1 0-6.877 3.643 3.643 0 0 1 2.593 1.21l.047.048 1.238-1.5-.033-.04a4.728 4.728 0 0 0-3.787-1.81 5.745 5.745 0 0 0-3.923 1.438 5.851 5.851 0 0 0 0 8.183 5.73 5.73 0 0 0 3.923 1.44 4.728 4.728 0 0 0 3.787-1.81l.033-.038z" class="cls-3" data-name="패스 359" transform="translate(-124.153 -273.183)"/>
                                                    <path id="사각형_265" d="M0 0h2.188v10.684H0z" class="cls-3" data-name="사각형 265" transform="translate(10.664 3.315)"/>
                                                    <path id="패스_360" d="M213.548 270.417a3.166 3.166 0 0 1-1.615.535c-.707 0-1.027-.373-1.027-1.2v-5.67h2.229v-2.011h-2.229v-3.325l-2.145 1.148v2.177h-1.851v2.011h1.851v6.032a2.519 2.519 0 0 0 2.427 2.795 3.431 3.431 0 0 0 1.942-.49l.021-.015.527-2.059z" class="cls-3" data-name="패스 360" transform="translate(-192.122 -258.741)"/>
                                                    <path id="사각형_266" d="M0 0h2.19v10.684H0z" class="cls-3" data-name="사각형 266" transform="translate(23.239 3.315)"/>
                                                </g>
                                            </g>
                                        </g>
                                    </g>
                                </g>
                            </g>
                        </g>
                    </g>
                </g>
            </g>
            <path id="패스_361" d="M283.173 264.52a.976.976 0 1 1-.976-.977.957.957 0 0 1 .976.977m.187 0a1.164 1.164 0 1 0-1.163 1.163 1.141 1.141 0 0 0 1.163-1.163m-.632-.274a.371.371 0 0 0-.415-.383h-.558v1.269h.216v-.49h.245l.248.49h.255l-.261-.513a.36.36 0 0 0 .27-.373m-.219.006c0 .126-.087.181-.2.181h-.336v-.362h.336a.18.18 0 0 1 .2.181" class="cls-3" data-name="패스 361" transform="translate(-128.847 -18.044)"/>
        </g>
    </g>
</svg>
