<svg xmlns="http://www.w3.org/2000/svg" width="36" height="36" viewBox="0 0 36 36">
    <defs>
        <style>
            .cls-1{fill:none}.cls-2{fill:url(#radial-gradient)}.cls-3{fill:url(#radial-gradient-2)}
        </style>
        <radialGradient id="radial-gradient" cx=".552" cy=".331" r=".474">
            <stop offset="0" stop-color="#fff"/>
            <stop offset="1" stop-color="#b8813e"/>
        </radialGradient>
        <radialGradient id="radial-gradient-2" cx=".574" cy=".365" r="1.047">
            <stop offset="0" stop-color="#00acdb"/>
            <stop offset=".219" stop-color="#007bb6"/>
            <stop offset=".278" stop-color="#006aa8"/>
            <stop offset=".368" stop-color="#005998"/>
            <stop offset=".463" stop-color="#004e8f"/>
            <stop offset=".573" stop-color="#004b8d"/>
        </radialGradient>
    </defs>
    <g id="icon_jj" transform="translate(-162 -248)">
        <path id="사각형_269" d="M0 0h36v36H0z" class="cls-1" data-name="사각형 269" transform="translate(162 248)"/>
        <g id="그룹_315" data-name="그룹 315" transform="translate(-78.203 -181.178)">
            <path id="패스_362" d="M258.723 437.881a10.278 10.278 0 1 0 10.734 9.8 10.274 10.274 0 0 0-10.734-9.8z" class="cls-2" data-name="패스 362" transform="translate(-.818 -.806)"/>
            <path id="패스_363" d="M257.9 436.935a10.418 10.418 0 1 0 10.879 9.936 10.419 10.419 0 0 0-10.879-9.936zm1.224 10.109a459.715 459.715 0 0 0 2.866 2.627c3.264 2.717 2.147 5.2.9 6.068a6.243 6.243 0 0 1-3.39 1.04.311.311 0 0 1-.356-.276c-.01-.234.333-.292.333-.292 3.08-.607 2.183-2.628 1.089-3.658-.456-.434-4.745-4.134-4.745-4.134-4.091-3.522-3.764-6.271-3.764-6.271.2-3.384 3.16-4.222 5.4-4.028.26.022.406.182.361.4-.051.238-.4.255-.4.255a3.646 3.646 0 0 0-1.833.444c-1.809 1.215-1.274 3.278 1.133 5.58.3.289.623.595.954.906.003-.005.491.423 1.452 1.338zm-1.4 8.746c.02.328-.786.474-1.7.385a6.566 6.566 0 0 1-3.72-1.512 7.191 7.191 0 0 1-2.116-3.411c-.338-1.178-.478-2.553.079-2.445.174.033.471.792.794 1.34a3.533 3.533 0 0 0 .862 1.078c.115.085.5-.789 1.079-1.287.331-.272.693-.368.751.451.073 1-.108 2.2.186 2.2.273 0 .89-.207 2.247-.322.507-.042.8.055.314.737a5.125 5.125 0 0 1-1.337 1.376c1.151 1.078 2.537.95 2.561 1.41zm.907-10.5a3.463 3.463 0 0 1-.038-1.309 8.918 8.918 0 0 1 .8-2.55c.468-1.183-.673-1.877-.486-2.312.256-.593 1.076.16 1.987.214.787.043 1.254.005 1.863.085a3.782 3.782 0 0 1 2.216.891c.394.463-.211 1.028-.937.673-.531-.258-1.2-.1-.807.455a1.78 1.78 0 0 0 1.18.668 1.223 1.223 0 0 1 .458 2.278c-1.022.747-2.059.438-2.474-1.03-.206-.732-.721-1.1-1.255-.9s-.213 1.172.19 2.067c.8 2.043-1.192 1.975-1.425 1.947a1.652 1.652 0 0 1-1.272-1.178z" class="cls-3" data-name="패스 363"/>
        </g>
    </g>
</svg>
