<svg xmlns="http://www.w3.org/2000/svg" width="36" height="36" viewBox="0 0 36 36">
    <defs>
        <style>
            .cls-1{fill:none}.cls-2{fill:#fff}.cls-3{fill:#006cbb}.cls-4{fill:url(#linear-gradient)}
        </style>
        <linearGradient id="linear-gradient" x1="-.017" x2="1.007" y1=".5" y2=".5" gradientUnits="objectBoundingBox">
            <stop offset=".1" stop-color="#006cbb"/>
            <stop offset=".224" stop-color="#0072c1"/>
            <stop offset=".396" stop-color="#0084d2"/>
            <stop offset=".4" stop-color="#0085d3"/>
            <stop offset=".75" stop-color="#00a88b"/>
            <stop offset="1" stop-color="#70b32f"/>
        </linearGradient>
    </defs>
    <g id="icon_dgb" transform="translate(-276 -402)">
        <path id="사각형_277" d="M0 0h36v36H0z" class="cls-1" data-name="사각형 277" transform="translate(276 402)"/>
        <g id="그룹_329" data-name="그룹 329" transform="translate(-529.773 82.853)">
            <g id="그룹_327" data-name="그룹 327" transform="translate(810.074 327.222)">
                <path id="패스_454" d="M824.566 327.222c-8.735 0-14.492 4.584-14.492 10.241s5.757 10.239 14.492 10.239 14.493-4.585 14.493-10.239-5.759-10.241-14.493-10.241z" class="cls-2" data-name="패스 454" transform="translate(-810.074 -327.222)"/>
                <path id="패스_455" d="M834.169 347.9c2.489-.432 10.89-2.161 9.855-6.955-.372-1.72-2.141-3.611-4.81-4.927a18.712 18.712 0 0 0-7.661-1.517c-8.109 0-13.748 4.286-13.748 9.573 0 3.682 2.737 6.878 7.139 8.479.933-2.463 4.656-3.863 9.225-4.653z" class="cls-3" data-name="패스 455" transform="translate(-817.095 -333.83)"/>
                <path id="패스_456" d="M905.095 430.7c-3.637.456-5.305 1.631-6.378 3.057a19.542 19.542 0 0 0 6.325.992c8.11 0 13.75-4.285 13.75-9.571a7.366 7.366 0 0 0-.131-1.38c-.27 6.208-9.589 6.408-13.566 6.902z" class="cls-4" data-name="패스 456" transform="translate(-890.584 -414.938)"/>
            </g>
            <g id="그룹_328" data-name="그룹 328" transform="translate(813.987 332.393)">
                <path id="패스_457" d="M855.44 384.352h-2.72l.031.078a3.946 3.946 0 0 1 .106 1.3v6.279h.054c.012 0 1.239.044 2.4.044a3.862 3.862 0 0 0 4.061-4.1c-.002-2.185-1.544-3.601-3.932-3.601zm-1.421.686c.157-.013.637-.048.983-.048 2.077 0 3.045 1.007 3.045 3.168 0 2.233-.86 3.32-2.628 3.32-1.295 0-1.4-.063-1.4-.83z" class="cls-2" data-name="패스 457" transform="translate(-852.72 -384.282)"/>
                <path id="패스_458" d="M939.075 391.267a11.55 11.55 0 0 1-.057-1.019v-2.682h-1.292l.042.083a1.948 1.948 0 0 1 .131.822c0 .019.005 1.864-.047 2.3a4.486 4.486 0 0 1-1 .109c-2.05 0-3.091-1.177-3.091-3.5a3.056 3.056 0 0 1 2.847-3.214 3.172 3.172 0 0 1 2.265.642l.093.081v-1.084l-.045-.009a9.435 9.435 0 0 0-1.769-.211c-2.952 0-4.714 1.553-4.714 4.155 0 2.771 2.152 3.758 4.167 3.758a15.834 15.834 0 0 0 2.423-.176l.051-.009z" class="cls-2" data-name="패스 458" transform="translate(-925.125 -383.589)"/>
                <path id="패스_459" d="M1021.547 387.806a1.888 1.888 0 0 0 1.446-1.8c0-1.036-.936-1.655-2.5-1.655h-2.326l.016.069a5.121 5.121 0 0 1 .069 1.014v6.641h.058c.008 0 .914-.018 2.035-.018 1.956 0 3.077-.849 3.077-2.329a2.117 2.117 0 0 0-1.875-1.922zm-2.137.373h.6c1.387 0 2.088.544 2.088 1.618 0 1.132-.6 1.683-1.849 1.683-.6 0-.839-.218-.839-.777zm0-3.225h.76c1.2 0 1.706.362 1.706 1.21 0 .965-.627 1.414-1.974 1.414h-.5z" class="cls-2" data-name="패스 459" transform="translate(-1002.986 -384.282)"/>
            </g>
        </g>
    </g>
</svg>
