<svg xmlns="http://www.w3.org/2000/svg" width="30" height="30" viewBox="0 0 30 30">
    <defs>
        <style>
            .cls-1{fill:none}.cls-2{fill:#262626}
        </style>
    </defs>
    <g id="icon_more_01" transform="translate(-15 -158)">
        <path id="사각형_291" d="M0 0h30v30H0z" class="cls-1" data-name="사각형 291" transform="translate(15 158)"/>
        <path id="패스_379" d="M7956.011 4847.026a3.469 3.469 0 0 1-1.935-2.4 67.062 67.062 0 0 1-.376-1.38 17.655 17.655 0 0 0-1.852-5.055 4.328 4.328 0 0 0-1.946-1.487 1.825 1.825 0 0 0 .042-.39 1.845 1.845 0 0 0-3.69 0 1.81 1.81 0 0 0 .051.421 4.335 4.335 0 0 0-1.865 1.456 17.68 17.68 0 0 0-1.852 5.056c-.129.487-.252.948-.375 1.379a3.472 3.472 0 0 1-1.934 2.4.346.346 0 0 0-.234.33v1.532a.346.346 0 0 0 .347.348h4.7a3.085 3.085 0 0 0 6.1 0h4.7a.347.347 0 0 0 .348-.348v-1.532a.349.349 0 0 0-.229-.33zm-9.061-10.712a1.149 1.149 0 1 1 2.3 0 1.121 1.121 0 0 1-.015.182 4.918 4.918 0 0 0-1.057-.125h-.064a4.846 4.846 0 0 0-1.143.147 1.2 1.2 0 0 1-.021-.204zm-3.69 7.111a17.427 17.427 0 0 1 1.74-4.825 3.855 3.855 0 0 1 3.131-1.53h.016a3.854 3.854 0 0 1 3.131 1.53 17.415 17.415 0 0 1 1.745 4.829c.13.49.253.954.379 1.393.022.075.045.148.069.221h-10.663c.024-.073.048-.146.069-.221.13-.442.253-.905.383-1.396zm4.884 7.731a2.393 2.393 0 0 1-2.344-1.922h4.687a2.393 2.393 0 0 1-2.343 1.923zm7.4-2.618h-14.804v-.958a4.108 4.108 0 0 0 1.785-1.845h11.239a4.1 4.1 0 0 0 1.784 1.845z" class="cls-2" data-name="패스 379" transform="translate(-7918.044 -4670.454)"/>
    </g>
</svg>
