<svg xmlns="http://www.w3.org/2000/svg" width="30" height="30" viewBox="0 0 30 30">
    <defs>
        <style>
            .prefix__cls-2{fill:#1a1818}
        </style>
    </defs>
    <g id="prefix__icon_more_08" transform="translate(-15 -538)">
        <path id="prefix__사각형_383" d="M0 0H30V30H0z" data-name="사각형 383" transform="translate(15 538)" style="fill:none"/>
        <g id="prefix__그룹_605" data-name="그룹 605" transform="translate(1.322 -.44)">
            <g id="prefix__그룹_468" data-name="그룹 468" transform="translate(21.033 543.832)">
                <path id="prefix__패스_368" d="M5895.542 5301.233a1.973 1.973 0 0 0-1.23-.481 1.712 1.712 0 0 0-.569-1.261 1.772 1.772 0 0 0-2.31.06c-.346.332-1.952 1.891-2.5 2.419a1.528 1.528 0 0 0-.683-.151h-.312a1.8 1.8 0 0 0 .055-.467c0-1.372-.866-1.372-1.7-1.372h-4.5a.355.355 0 0 0-.221.076l-3.651 2.875a.367.367 0 0 0 .223.658.361.361 0 0 0 .224-.078l3.552-2.8h4.371c.926 0 .972.03.972.639a.768.768 0 0 1-.054.341.364.364 0 0 0-.1.126h-3.555a.377.377 0 0 0-.229.078l-4.059 3.218a.367.367 0 0 0 .455.575l3.959-3.137h4.573a.634.634 0 0 1 .7.654.842.842 0 0 1-.415.779l-2.694.011a.367.367 0 0 0 0 .735l2.78-.012h1.96a.366.366 0 0 0 .259-.107l2.983-2.984c.307-.3 1.008-.068 1.2.123.142.142.578.641.243 1.127-.306.445-2.622 2.652-4.173 4.092h-7.05a.369.369 0 0 0-.223.076l-2.073 1.581a.368.368 0 0 0 .446.584l1.973-1.506h7.069a.366.366 0 0 0 .25-.1c.4-.371 3.926-3.644 4.385-4.313a1.577 1.577 0 0 0-.331-2.058zm-5.11 2.753h-.925a1.688 1.688 0 0 0 .176-.778 1.434 1.434 0 0 0-.2-.741c.572-.557 2.124-2.062 2.462-2.387a1.051 1.051 0 0 1 1.283-.071c.463.464.356.839.327.915a1.191 1.191 0 0 0-.244.186z" class="prefix__cls-2" data-name="패스 368" transform="translate(-5877.778 -5292.011)"/>
                <path id="prefix__패스_369" d="M5925.69 5258.414a.355.355 0 0 0 .075.057.37.37 0 0 0 .266.041.4.4 0 0 0 .125-.047.264.264 0 0 0 .054-.04c.815-.488 4.193-2.645 4.193-4.848a2.44 2.44 0 0 0-2.432-2.757 2.365 2.365 0 0 0-1.9 1.062c-.039.058-.076.116-.11.172-.033-.056-.069-.114-.11-.172a2.359 2.359 0 0 0-1.9-1.062 2.44 2.44 0 0 0-2.43 2.757c-.003 2.186 3.32 4.323 4.169 4.837zm-1.742-6.86a1.634 1.634 0 0 1 1.292.735 2.179 2.179 0 0 1 .36.759.367.367 0 0 0 .721 0 2.16 2.16 0 0 1 .36-.759 1.636 1.636 0 0 1 1.291-.735c.4 0 1.7.146 1.7 2.024 0 1.477-2.333 3.293-3.709 4.142-1.377-.849-3.708-2.665-3.708-4.142-.003-1.878 1.296-2.025 1.693-2.025z" class="prefix__cls-2" data-name="패스 369" transform="translate(-5915.025 -5250.82)"/>
            </g>
            <g id="prefix__패스_571" data-name="패스 571" style="fill:none">
                <path d="M1.443 0a1.443 1.443 0 0 1 1.444 1.443v7.7A1.443 1.443 0 1 1 0 9.141v-7.7A1.443 1.443 0 0 1 1.443 0z" style="stroke:none" transform="rotate(-34 916.806 247.936)"/>
                <path d="M1.443.75c-.382 0-.693.311-.693.693v7.698c0 .383.311.694.693.694.383 0 .694-.311.694-.694V1.443c0-.382-.311-.693-.694-.693m0-.75c.797 0 1.444.646 1.444 1.443v7.698c0 .797-.647 1.444-1.444 1.444C.646 10.585 0 9.938 0 9.14V1.443C0 .646.646 0 1.443 0z" style="stroke:none;fill:#1a1818" transform="rotate(-34 916.806 247.936)"/>
            </g>
        </g>
    </g>
</svg>
