<svg xmlns="http://www.w3.org/2000/svg" width="36" height="36" viewBox="0 0 36 36">
    <defs>
        <style>
            .cls-1{fill:none}.cls-2{fill:#00a1e0}.cls-3{fill:#005a9f}
        </style>
    </defs>
    <g id="icon_sh" transform="translate(-276 -325)">
        <path id="사각형_274" d="M0 0h36v36H0z" class="cls-1" data-name="사각형 274" transform="translate(276 325)"/>
        <g id="그룹_324" data-name="그룹 324" transform="translate(-60.869 -46.937)">
            <path id="패스_448" d="M362.413 384.746l1.1-2.006s-1.287-1.173-4.315-1.136c-3.52.044-5.6 2.044-5.828 4.239s1.892 3.558 3.255 4.5 2.153 1.852 1.925 2.873a5.025 5.025 0 0 1-1.029 1.925 5.645 5.645 0 0 0 2.506-2.044c.74-1.155 1.361-2.466.074-3.979s-2.711-1.823-3.288-2.862c-.757-1.363.227-3.179 2.384-3.217a3.855 3.855 0 0 1 3.216 1.707z" class="cls-2" data-name="패스 448" transform="translate(-6.056)"/>
            <path id="패스_449" d="M358.366 382.293a12.559 12.559 0 0 1 3.364-.151.868.868 0 0 1 .416 1.325c-.227.454-2.271 5-2.271 5s2.952-1.817 4.769-1.627 2.271 1.514 1.551 3.784-2.2 5.45-1.93 6.169.681.84.681.84a12.437 12.437 0 0 1-3.065.031c-1.022-.227-.492-1.855-.038-2.687s2.006-5.147 1.438-5.6-1.514-.227-2.99.946a17.28 17.28 0 0 0-3.784 5.715c-.189.87-.038 1.363.189 1.551a3.671 3.671 0 0 0 .416.3 13.125 13.125 0 0 1-2.612-.018c-.908-.265-1.211-1.458-1.211-1.458a6.528 6.528 0 0 1-4.5 1.59c-2.952 0-5.45-2.839-5.45-2.839l1.93-4.655s-.265 2.574 1.173 4.012a4.733 4.733 0 0 0 5 1.287c2.2-.643 3.951-3.421 4.669-4.879a49.024 49.024 0 0 0 2.965-7.261 1.249 1.249 0 0 0-.71-1.375z" class="cls-3" data-name="패스 449" transform="translate(0 -.272)"/>
        </g>
    </g>
</svg>
