<svg xmlns="http://www.w3.org/2000/svg" width="30" height="30" viewBox="0 0 30 30">
    <defs>
        <style>
            .cls-1{fill:none}.cls-2{fill:#262626}
        </style>
    </defs>
    <g id="icon_more_03" transform="translate(-15 -267)">
        <path id="사각형_293" d="M0 0h30v30H0z" class="cls-1" data-name="사각형 293" transform="translate(15 267)"/>
        <path id="패스_414" d="M6983.868 5503.694h-5.053a2.318 2.318 0 0 0 1.405-.918 1.3 1.3 0 0 0-.171-1.4 1.418 1.418 0 0 0-1.238-.736c-1.086.023-2.222 1.378-2.847 2.259-.619-.887-1.732-2.232-2.811-2.267a1.427 1.427 0 0 0-1.245.724 1.3 1.3 0 0 0-.184 1.4 2.333 2.333 0 0 0 1.419.938h-5.185a.821.821 0 0 0-.82.82v3.031a.821.821 0 0 0 .631.8v7.006a1.72 1.72 0 0 0 1.795 1.8h12.7a1.721 1.721 0 0 0 1.8-1.8v-7.006a.822.822 0 0 0 .629-.8v-3.031a.82.82 0 0 0-.825-.82zm-5.043-2.432h.016a.834.834 0 0 1 .691.458c.307.464.185.688.145.762-.327.6-1.907.885-3.181.96l-.02-.018a.3.3 0 0 0-.081-.055c.605-.869 1.631-2.089 2.43-2.107zm-6.553 1.2c-.04-.074-.159-.3.15-.761a.838.838 0 0 1 .689-.45h.021c.8.024 1.816 1.261 2.413 2.133a.324.324 0 0 0-.077.045l-.027.023c-1.271-.083-2.848-.381-3.169-.986zm-4.514 5.08v-3.031a.2.2 0 0 1 .2-.2h6.455l-2.187 1.821a.31.31 0 0 0 .2.547.314.314 0 0 0 .2-.072l2.757-2.3h.222v3.418h-7.524v.015h-.119a.2.2 0 0 1-.203-.195zm.63 7.8v-7h7.215v8.175h-6.038a1.105 1.105 0 0 1-1.176-1.167zm13.873 1.177h-6.04v-8.175h7.217v7a1.105 1.105 0 0 1-1.176 1.182zm1.807-8.981a.2.2 0 0 1-.2.2h-.121v-.015h-7.525v-3.418h.285l2.42 2.346a.31.31 0 0 0 .438-.007.308.308 0 0 0-.007-.437l-1.963-1.9h6.473a.2.2 0 0 1 .2.2z" class="cls-2" data-name="패스 414" transform="translate(-6946.14 -5227.631)"/>
    </g>
</svg>
