<svg xmlns="http://www.w3.org/2000/svg" width="30" height="30" viewBox="0 0 30 30">
    <g transform="translate(-15 -349)">
        <circle cx="15" cy="15" r="15" fill="#fff" transform="translate(15 349)"/>
        <path fill="#1a1818" d="M2.3-3.464l.621-1.821c.4-1.172.745-2.234 1.09-3.448h.055c.359 1.214.69 2.276 1.1 3.448l.607 1.821zM7.11.578h.883L4.476-9.477h-.855L.1.578h.832L2.076-2.8h3.917zm2.441 0h2.386c3.076 0 4.593-1.986 4.593-5.062s-1.517-4.993-4.607-4.993H9.552zm.828-.7v-8.665h1.462c2.648 0 3.82 1.7 3.82 4.3s-1.172 4.361-3.82 4.361z" transform="translate(21.896 368.477)"/>
    </g>
</svg>
