<svg xmlns="http://www.w3.org/2000/svg" width="19" height="19" viewBox="0 0 19 19">
    <g id="prefix__icon_c_cs" transform="translate(-124 -345)">
        <path id="prefix__cs_icon" d="M5741.53 3173.154h-.289a6.672 6.672 0 00-.7-2.175 5.907 5.907 0 00-10-.015 7.2 7.2 0 00-.779 2.19h-.351a1.455 1.455 0 00-1.354 1.536v2.919a1.455 1.455 0 001.354 1.535h.9a1.25 1.25 0 00.191-.017 6.333 6.333 0 001.791 2.349 4.729 4.729 0 002.139.953.991.991 0 00.3.047h.109c.076 0 .138.006.186.006h.85a1.075 1.075 0 000-2.149h-1.145a1.053 1.053 0 00-1.031 1.024 4 4 0 01-.9-.532 5.555 5.555 0 01-1.569-2.095 1.633 1.633 0 00.427-1.116v-2.919a1.506 1.506 0 00-1.063-1.5 6.326 6.326 0 01.664-1.819 4.491 4.491 0 014.216-2.331 4.613 4.613 0 014.929 4.136 1.492 1.492 0 00-1.132 1.513v2.919a1.454 1.454 0 001.354 1.535h.9a1.454 1.454 0 001.353-1.535v-2.919a1.455 1.455 0 00-1.35-1.54zm-7 8.249a.224.224 0 01.2-.241h1.145a.245.245 0 010 .482h-1c-.063 0-.142-.012-.231-.025a.25.25 0 01-.111-.219zm-3.705-3.794c0 .38-.239.7-.52.7h-.9c-.282 0-.521-.322-.521-.7v-2.919c0-.381.238-.7.521-.7h.9c.281 0 .52.322.52.7zm11.222 0c0 .38-.239.7-.52.7h-.9c-.283 0-.521-.322-.521-.7v-2.919c0-.381.238-.7.521-.7h.9c.281 0 .52.322.52.7z" transform="translate(-5602.458 -2820.593)" style="fill:#7488b6"/>
        <path id="prefix__사각형_356" d="M0 0H19V19H0z" data-name="사각형 356" transform="translate(124 345)" style="fill:none"/>
    </g>
</svg>
