<svg xmlns="http://www.w3.org/2000/svg" width="36" height="36" viewBox="0 0 36 36">
    <defs>
        <style>
            .cls-1{fill:none}.cls-2{fill:#d10a11}
        </style>
    </defs>
    <g id="icon_kn" transform="translate(-162 -556)">
        <path id="사각형_284" d="M0 0h36v36H0z" class="cls-1" data-name="사각형 284" transform="translate(162 556)"/>
        <g id="그룹_335" data-name="그룹 335" transform="translate(-213.504 371.802)">
            <g id="그룹_325" data-name="그룹 325" transform="translate(379.504 197.516)">
                <path id="패스_450" d="M438.2 199.137h.764a.09.09 0 0 0 .09-.091v-1.439a.089.089 0 0 0-.09-.091h-1.074a2.133 2.133 0 0 0-2.273 1.24l-2.336 5.717a.711.711 0 0 1-.749.5v-7.371a.088.088 0 0 0-.089-.091h-1.717a.088.088 0 0 0-.088.091v8.834a.16.16 0 0 0 .158.159h1.924a2.018 2.018 0 0 0 2.185-1.239l2.3-5.648a.932.932 0 0 1 .995-.571z" class="cls-2" data-name="패스 450" transform="translate(-410.334 -197.516)"/>
                <path id="패스_451" d="M386.407 202.059a2.032 2.032 0 0 0 1.26-2c0-1.586-1.363-2.547-3-2.547H379.6a.09.09 0 0 0-.093.091v1.439a.091.091 0 0 0 .093.091h4.716a1.061 1.061 0 1 1 0 2.078h-2.8v-1.071a.093.093 0 0 0-.094-.091H379.6a.092.092 0 0 0-.093.091v6.365a.091.091 0 0 0 .093.09h4.994c1.869 0 3.206-.871 3.206-2.648a1.955 1.955 0 0 0-1.393-1.888zm-2 2.959h-2.9v-2.13h2.9a1.088 1.088 0 1 1 0 2.13z" class="cls-2" data-name="패스 451" transform="translate(-379.504 -197.516)"/>
                <path id="패스_452" d="M448.443 214.408l-2.942-3.76a.014.014 0 0 0-.026 0l-.791 1.935a.042.042 0 0 0 0 .038l1.285 1.723a.393.393 0 0 0 .348.166h2.07a.062.062 0 0 0 .056-.102z" class="cls-2" data-name="패스 452" transform="translate(-418.801 -205.429)"/>
                <path id="사각형_279" d="M.228 0h1.444A.225.225 0 0 1 1.9.225v6.094a.226.226 0 0 1-.226.226H.229A.229.229 0 0 1 0 6.316V.228A.228.228 0 0 1 .228 0z" class="cls-2" data-name="사각형 279" transform="translate(9.706 2.538)"/>
                <path id="패스_453" d="M412.817 197.516H411.1a.089.089 0 0 0-.09.091v7.371a.714.714 0 0 1-.749-.5l-2.333-5.717a2.138 2.138 0 0 0-2.277-1.24h-1.617a.089.089 0 0 0-.089.091v1.439a.09.09 0 0 0 .089.091h1.308a.932.932 0 0 1 .993.575l2.3 5.648a2.016 2.016 0 0 0 2.184 1.239h1.924a.16.16 0 0 0 .159-.159v-8.834a.09.09 0 0 0-.085-.095z" class="cls-2" data-name="패스 453" transform="translate(-394.241 -197.516)"/>
            </g>
        </g>
    </g>
</svg>
