<svg xmlns="http://www.w3.org/2000/svg" width="36" height="36" viewBox="0 0 36 36">
    <defs>
        <style>
            .cls-1{fill:none}.cls-2{fill:#65aad0}.cls-3{fill:#006ea9}.cls-4{fill:#9cc790}.cls-5{fill:#3e9b35}
        </style>
    </defs>
    <g id="icon_sc" transform="translate(-276 -556)">
        <path id="사각형_285" d="M0 0h36v36H0z" class="cls-1" data-name="사각형 285" transform="translate(276 556)"/>
        <g id="그룹_336" data-name="그룹 336" transform="translate(-680.155 192.34)">
            <path id="패스_467" d="M977.594 373.554s6.061-3.788 6.262-3.877a.513.513 0 0 1 .579.176 2.657 2.657 0 0 1 1.047 2.3 2.87 2.87 0 0 1-1.716 2.5c-1.025.646-2.184 1.269-2.5 1.56-.57.532.228.956.228.956l-4.324-1.769z" class="cls-2" data-name="패스 467" transform="translate(-8.267)"/>
            <path id="패스_468" d="M1016.051 445.915s.353.152.131.577a10.822 10.822 0 0 1-1.736 1.192l4.613 2.095a6.561 6.561 0 0 0 .691-.535c.067-.1 1.248-1.727.535-2.251a11.364 11.364 0 0 0-3.476-1.148 3.333 3.333 0 0 0-.758.07z" class="cls-2" data-name="패스 468" transform="translate(-39.037 -62.902)"/>
            <path id="패스_469" d="M972.075 391.915a4.08 4.08 0 0 0-1.671 3.343 3.266 3.266 0 0 0 2.095 3.008l8.824 3.9c1.359.6 1.916 1.181 1.894 1.85a2.192 2.192 0 0 1-.314 1.092 3.733 3.733 0 0 0 2.03-3.053 3.676 3.676 0 0 0-1.694-3.286c-.468-.268-9.515-4.207-10.005-4.5s-.91-.447-1.137-1.109a1.667 1.667 0 0 1-.022-1.245z" class="cls-3" data-name="패스 469" transform="translate(-2.682 -18.386)"/>
            <path id="패스_470" d="M977.133 432.894s-.251.156-.675.479-.5 2.685-.5 2.685l2.8 1.181 1.743-.318s-.529-.206-.484-.563a1.061 1.061 0 0 1 .546-.747 8.956 8.956 0 0 1 1.143-.579z" class="cls-4" data-name="패스 470" transform="translate(-7.265 -52.211)"/>
            <path id="패스_471" d="M971.747 434.058a3.945 3.945 0 0 0-1.981 3.318 3.663 3.663 0 0 0 2.206 3.182s7.4 3.35 8.76 3.949a9.829 9.829 0 0 1 2.649 1.649s.7-.423.852-2.095a3.223 3.223 0 0 0-1.916-3.1c-.477-.251-9.119-4.009-9.609-4.3a2.125 2.125 0 0 1-1.137-1.2 1.629 1.629 0 0 1 .176-1.403z" class="cls-5" data-name="패스 471" transform="translate(-2.155 -53.172)"/>
            <path id="패스_472" d="M970.078 476.582l-2.9 1.783a1.565 1.565 0 0 0 .157.988 3.437 3.437 0 0 0 1.29 1.447 3.027 3.027 0 0 0 1.315.323 4.764 4.764 0 0 0 1.66-.535c.234-.134 3.028-1.913 3.028-1.913z" class="cls-2" data-name="패스 472" transform="translate(0 -88.273)"/>
            <path id="패스_473" d="M1013.206 397.751l5.326-3.247a3.293 3.293 0 0 1 1.231 1.219 2.908 2.908 0 0 1 0 2.451 8.094 8.094 0 0 1-1.918 1.654z" class="cls-4" data-name="패스 473" transform="translate(-38.012 -20.523)"/>
        </g>
    </g>
</svg>
