<svg xmlns="http://www.w3.org/2000/svg" width="22" height="22" viewBox="0 0 22 22">
    <g id="prefix__icon_shopping" transform="translate(-233 -205)">
        <g id="prefix__그룹_418" data-name="그룹 418">
            <path id="prefix__패스_543" fill="#1a1818" d="M6573.024 6397.947l-.362-7.646a1.6 1.6 0 0 0-1.65-1.52h-.467v-1.156a3.22 3.22 0 0 0-6.416 0v1.156h-.467a1.6 1.6 0 0 0-1.65 1.52l-.363 7.646v.018a1.6 1.6 0 0 0 1.649 1.53h8.077a1.6 1.6 0 0 0 1.65-1.53.115.115 0 0 0-.001-.018zm-8.125-10.322a2.455 2.455 0 0 1 4.876 0v1.156h-4.875zm4.91 4.061l1.006 2.367-1.714.656-1.1-2.506.479-1.126a.383.383 0 0 0 .077-.032zm1.567 7.04h-8.076a.83.83 0 0 1-.88-.752l.363-7.644a.124.124 0 0 0 0-.019.828.828 0 0 1 .881-.76h3.979l.261.916-.674 1.588a.384.384 0 0 0 0 .3l1.315 2.995a.384.384 0 0 0 .353.23.379.379 0 0 0 .137-.026l2.429-.93a.385.385 0 0 0 .216-.51l-1.217-2.863a.389.389 0 0 0-.179-.191l-1.651-.846-.19-.668h2.57a.828.828 0 0 1 .881.76v.019l.364 7.644a.83.83 0 0 1-.883.756z" data-name="패스 543" transform="translate(-6322.648 -6176.685)"/>
        </g>
        <path id="prefix__사각형_334" fill="none" d="M0 0H22V22H0z" data-name="사각형 334" opacity="0.24" transform="translate(233 205)"/>
    </g>
</svg>
