<svg xmlns="http://www.w3.org/2000/svg" width="13" height="13" viewBox="0 0 13 13">
    <g id="prefix__icon_gift" transform="translate(-291 -124)">
        <path id="prefix__패스_357" fill="#202020" d="M5417.72 5880.451h-2.341a1.492 1.492 0 0 0 .76-.6 1.047 1.047 0 0 0-.129-1.129 1.141 1.141 0 0 0-.995-.584c-.785.017-1.59.917-2.072 1.571-.477-.657-1.267-1.552-2.047-1.577a1.131 1.131 0 0 0-1 .575 1.046 1.046 0 0 0-.14 1.128 1.511 1.511 0 0 0 .776.619h-2.427a.642.642 0 0 0-.642.642v1.832a.643.643 0 0 0 .381.586v4.13a1.192 1.192 0 0 0 1.231 1.231h7.673a1.192 1.192 0 0 0 1.231-1.231v-4.13a.643.643 0 0 0 .381-.586v-1.832a.643.643 0 0 0-.64-.645zm-2.69-1.651h.01c.1 0 .248.034.413.285.187.285.122.406.1.445-.2.365-1.224.57-2.12.636.453-.621 1.12-1.356 1.597-1.366zm-4.685.72c-.021-.04-.086-.161.1-.445.165-.246.312-.281.412-.281h.014c.47.015 1.121.724 1.587 1.381-.892-.075-1.918-.288-2.112-.656zm-2.216 3.381v-1.783h3.474l-1.011.843a.333.333 0 1 0 .426.512l1.561-1.3v1.721h-4.4v.009zm.381 4.741v-4.084h4.068v4.649h-3.5a.525.525 0 0 1-.567-.566zm8.238.565h-3.5v-4.649h4.068v4.084a.525.525 0 0 1-.566.564zm.946-5.306h-.047v-.009h-4.4v-1.741l1.387 1.344a.333.333 0 1 0 .463-.479l-.927-.9h3.526z" data-name="패스 357" transform="translate(-5115.175 -5752.872)"/>
        <g id="prefix__그룹_422" data-name="그룹 422" transform="translate(67)">
            <path id="prefix__사각형_331" fill="none" d="M0 0H13V13H0z" data-name="사각형 331" transform="translate(224 124)"/>
        </g>
    </g>
</svg>
