<svg xmlns="http://www.w3.org/2000/svg" width="30" height="30" viewBox="0 0 30 30">
    <defs>
        <style>
            .cls-1{fill:#1a1818}.cls-2{fill:#fff}.cls-3{fill:none}
        </style>
    </defs>
    <g id="icon_a_setting_01" transform="translate(-15 -73)">
        <g id="그룹_490" data-name="그룹 490" transform="translate(-7533.83 -5308.702)">
            <g id="그룹_484" data-name="그룹 484" transform="translate(7552.83 5389.702)">
                <path id="패스_469" d="M7569.994 5403.705h-15.386a1.81 1.81 0 0 1-1.778-1.837v-.021l.7-10.317a1.809 1.809 0 0 1 1.776-1.826h15.387a1.811 1.811 0 0 1 1.778 1.838v.021l-.7 10.317a1.809 1.809 0 0 1-1.777 1.825zm-16.521-1.827a1.168 1.168 0 0 0 1.136 1.186h15.386a1.168 1.168 0 0 0 1.136-1.2v-.021l.7-10.316a1.168 1.168 0 0 0-1.136-1.186h-15.387a1.167 1.167 0 0 0-1.134 1.2v.021z" class="cls-1" data-name="패스 469" transform="translate(-7552.83 -5389.703)"/>
            </g>
            <g id="그룹_487" data-name="그룹 487" transform="translate(7557.984 5393.492)">
                <g id="그룹_485" data-name="그룹 485" transform="translate(1.045)">
                    <path id="패스_470" d="M7596.606 5419.374a.32.32 0 0 1-.3-.207l-1.373-3.636-1.156 3.62a.32.32 0 0 1-.306.223.32.32 0 0 1-.306-.225l-1.7-5.421a.321.321 0 0 1 .612-.192l1.4 4.453 1.128-3.531a.321.321 0 0 1 .3-.223h.008a.322.322 0 0 1 .3.208l1.344 3.561 1.181-4.453a.321.321 0 1 1 .62.165l-1.437 5.421a.32.32 0 0 1-.294.238z" class="cls-1" data-name="패스 470" transform="translate(-7591.453 -5413.312)"/>
                </g>
                <g id="그룹_486" data-name="그룹 486" transform="translate(0 3.005)">
                    <path id="패스_471" d="M7593.623 5432.67h-8.36a.321.321 0 1 1 0-.642h8.36a.321.321 0 1 1 0 .642z" class="cls-1" data-name="패스 471" transform="translate(-7584.941 -5432.029)"/>
                </g>
            </g>
            <g id="그룹_488" data-name="그룹 488" transform="translate(7567.859 5391.722)">
                <path id="패스_472" d="M7654.79 5404.286l-5.728 8.722-.6 4.016 3.46-2.079 6.018-8.666z" class="cls-2" data-name="패스 472" transform="translate(-7648.141 -5403.965)"/>
                <path id="패스_473" d="M7646.783 5415.666a.321.321 0 0 1-.318-.368l.6-4.016a.322.322 0 0 1 .049-.129l5.728-8.722a.321.321 0 0 1 .441-.1l3.15 1.994a.321.321 0 0 1 .092.454l-6.017 8.666a.344.344 0 0 1-.1.092l-3.461 2.078a.319.319 0 0 1-.164.051zm.906-4.219l-.488 3.272 2.818-1.692 5.787-8.334-2.6-1.646z" class="cls-1" data-name="패스 473" transform="translate(-7646.461 -5402.286)"/>
            </g>
            <g id="그룹_489" data-name="그룹 489" transform="translate(7568.968 5400.246)">
                <path id="선_20" d="M0 0l2.467 1.688" class="cls-2" data-name="선 20" transform="translate(.321 .321)"/>
                <path id="패스_474" d="M7656.156 5457.721a.32.32 0 0 1-.181-.056l-2.468-1.688a.322.322 0 0 1 .364-.53l2.466 1.688a.321.321 0 0 1-.181.586z" class="cls-1" data-name="패스 474" transform="translate(-7653.368 -5455.39)"/>
            </g>
        </g>
        <g id="그룹_524" data-name="그룹 524" transform="translate(0 -85)">
            <path id="사각형_291" d="M0 0h30v30H0z" class="cls-3" data-name="사각형 291" transform="translate(15 158)"/>
        </g>
    </g>
</svg>
