<svg xmlns="http://www.w3.org/2000/svg" width="30" height="30" viewBox="0 0 30 30">
    <defs>
        <style>
            .cls-1{fill:none}.cls-2{fill:#1a1818}
        </style>
    </defs>
    <g id="icon_more_04" transform="translate(-15 -322)">
        <path id="사각형_294" d="M0 0h30v30H0z" class="cls-1" data-name="사각형 294" transform="translate(15 322)"/>
        <g id="그룹_289" data-name="그룹 289" transform="translate(21 328.2)">
            <g id="그룹_280" data-name="그룹 280" transform="translate(0 6.229)">
                <path id="패스_289" d="M6171.58 4485.868h-1.136a1.623 1.623 0 0 1-1.494-1.724v-3.676a1.622 1.622 0 0 1 1.494-1.723h1.136a1.622 1.622 0 0 1 1.494 1.723v3.676a1.623 1.623 0 0 1-1.494 1.724zm-1.136-6.494a1 1 0 0 0-.865 1.094v3.676a1 1 0 0 0 .865 1.094h1.136a1 1 0 0 0 .865-1.094v-3.676a1 1 0 0 0-.865-1.094z" class="cls-2" data-name="패스 289" transform="translate(-6168.95 -4478.745)"/>
            </g>
            <g id="그룹_281" data-name="그룹 281" transform="translate(14.13 6.229)">
                <path id="패스_291" d="M6306.266 4485.868h-1.136a1.623 1.623 0 0 1-1.5-1.724v-3.676a1.623 1.623 0 0 1 1.5-1.723h1.136a1.622 1.622 0 0 1 1.493 1.723v3.676a1.622 1.622 0 0 1-1.493 1.724zm-1.136-6.494a1 1 0 0 0-.865 1.094v3.676a1 1 0 0 0 .865 1.094h1.136a1 1 0 0 0 .864-1.094v-3.676a1 1 0 0 0-.864-1.094z" class="cls-2" data-name="패스 291" transform="translate(-6303.635 -4478.745)"/>
            </g>
            <g id="그룹_282" data-name="그룹 282" transform="translate(2.056)">
                <path id="패스_292" d="M6202.113 4426.125a7.572 7.572 0 0 0-.864-3.09 6.605 6.605 0 0 0-11.1 0 8.178 8.178 0 0 0-.976 3.088l-.628-.042a8.68 8.68 0 0 1 1.045-3.336 6.5 6.5 0 0 1 6.039-3.363c3.612 0 5.358 1.838 6.188 3.379a8.091 8.091 0 0 1 .929 3.357z" class="cls-2" data-name="패스 292" transform="translate(-6188.543 -4419.377)"/>
            </g>
            <g id="그룹_283" data-name="그룹 283" transform="translate(2.991 13.059)">
                <path id="패스_293" d="M6203.04 4548.345a5.545 5.545 0 0 1-3.311-1.224 7.734 7.734 0 0 1-2.264-3.052l.589-.222a7.22 7.22 0 0 0 2.063 2.778 4.887 4.887 0 0 0 3 1.088l.041.628a1 1 0 0 1-.118.004z" class="cls-2" data-name="패스 293" transform="translate(-6197.465 -4543.848)"/>
            </g>
            <g id="그룹_284" data-name="그룹 284" transform="translate(7.111 15.262)">
                <path id="패스_294" d="M6239.268 4567.139h-1.443a1.145 1.145 0 0 1 0-2.287h1.443a1.145 1.145 0 0 1 0 2.287zm-1.443-1.657a.516.516 0 0 0 0 1.027h1.443a.516.516 0 0 0 0-1.027z" class="cls-2" data-name="패스 294" transform="translate(-6236.734 -4564.852)"/>
            </g>
        </g>
    </g>
</svg>
