<svg xmlns="http://www.w3.org/2000/svg" width="36" height="36" viewBox="0 0 36 36">
    <defs>
        <style>
            .cls-1{fill:none}.cls-2{fill:#fca400}
        </style>
    </defs>
    <g id="icon_kb" transform="translate(-276 -479)">
        <g id="그룹_344" data-name="그룹 344">
            <path id="사각형_282" d="M0 0h36v36H0z" class="cls-1" data-name="사각형 282" transform="translate(276 479)"/>
            <path id="패스_466" d="M262.609 278.521l-.215-.135a3.828 3.828 0 0 0-3.1-.964 5.832 5.832 0 0 0-2.709.934v-.031a10.85 10.85 0 0 1 .08-1.109 10.877 10.877 0 0 0 .081-1.128 2.63 2.63 0 0 0-.171-1.026.2.2 0 0 0-.193-.124 2.956 2.956 0 0 0-1.25.409l-.094.206a8.412 8.412 0 0 1-.184 1.669c0-.005-.049.136-.049.136a20.358 20.358 0 0 0-.014 4.244c.016.121.25.305.43.371a2.728 2.728 0 0 0 1.176-.229l.136-.02a.2.2 0 0 0 .174-.236l.008-.35a3.491 3.491 0 0 1 2.541-2.491 1.757 1.757 0 0 1 1.687.544 2.306 2.306 0 0 1-.274 1.708 3.541 3.541 0 0 1-1.931 1.523 7.4 7.4 0 0 1-2.955.414l-1.087-.734a15.686 15.686 0 0 0-3.1-1.844 3.679 3.679 0 0 1-.7-.5l-.107-.088c-.6-.48-1.735-1.237-2.65-1.847l-.493-.329v-.1c.026-.029.6-.373.6-.373a6.154 6.154 0 0 0 1.255-.82c-.016.019.107-.063.107-.063L251.6 275a24.466 24.466 0 0 0 5.218-3.423l.055-.179.025-.161a1.115 1.115 0 0 0 .017-.669.215.215 0 0 0-.154-.153 4.353 4.353 0 0 0-3.078 1.423 2.742 2.742 0 0 1-.642.443l-.16.089c-1.151.653-3.743 2.261-5.1 3.13a45.8 45.8 0 0 1 .691-5.264l-.037-.206-.14-.262-.106-.188-.031-.008a.846.846 0 0 0-.653-.039l-.272.1-.361.131a.2.2 0 0 0-.151.127 21.976 21.976 0 0 0-1.315 6.2 31.291 31.291 0 0 0-3.078-1.7l-.017-.008-.07-.016a2.183 2.183 0 0 1-.717-.333c-.025-.015-.491-.318-.491-.318l-.754-.482c.008 0-.2-.045-.2-.045a2.344 2.344 0 0 0-1.127.756.209.209 0 0 0-.034.121.662.662 0 0 0 .034.177l.034.154.035.093a10.8 10.8 0 0 0 2.162 1.466l1.035.548 1.582.865c0 .007.271.214.271.214l.186.108.032.021-2.878 1.923-1.515 1a8.813 8.813 0 0 1-.872.419 1.246 1.246 0 0 0-.681.561l-.04.087.04.058.115.088.156.1.166.114.158.024a4 4 0 0 0 1.4-.463c.676-.3 2.516-1.409 3.3-1.883l.336-.2a.737.737 0 0 0 .427-.209 4.2 4.2 0 0 1 .711-.428l.237-.13v.09a32.22 32.22 0 0 0 .437 5.5v.024l.026.054a6.018 6.018 0 0 1 .407 1.263l.3 1c.006.011.085.095.085.095a1.991 1.991 0 0 0 1.04.275l.087-.011.055-.122a2.349 2.349 0 0 0 .04-.459c0-.183-.014-.386-.03-.633l-.023-.363c-.11-1.678-.22-4.1-.22-5.715v-.128l1.533.966c2.123 1.377 5.33 3.459 7.268 4.009a.287.287 0 0 0 .282-.065l.3-.191.054-.023a.536.536 0 0 0 .2-.445 7.265 7.265 0 0 0 5.132-2.244 3.2 3.2 0 0 0 .685-1.946 1.65 1.65 0 0 0-.4-1.192" class="cls-2" data-name="패스 466" transform="translate(43.163 219.509)"/>
        </g>
    </g>
</svg>
