<svg xmlns="http://www.w3.org/2000/svg" width="30" height="30" viewBox="0 0 30 30">
    <defs>
        <style>
            .cls-1{fill:none}.cls-2{fill:#1c1f21}
        </style>
    </defs>
    <g id="icon_more_05" transform="translate(-15 -377)">
        <path id="사각형_295" d="M0 0h30v30H0z" class="cls-1" data-name="사각형 295" transform="translate(15 377)"/>
        <g id="그룹_288" data-name="그룹 288" transform="translate(22 382)">
            <g id="그룹_274" data-name="그룹 274" transform="translate(5.923 5.999)">
                <g id="그룹_272" data-name="그룹 272" transform="translate(1.986)">
                    <path id="패스_282" d="M5979.916 4171.071a.91.91 0 0 1 .841.494.985.985 0 0 1-.546 1.274 1.142 1.142 0 0 1-.493.112.906.906 0 0 1-.84-.493.983.983 0 0 1 .545-1.274 1.142 1.142 0 0 1 .493-.114m0-.691a1.845 1.845 0 0 0-.79.18 1.676 1.676 0 0 0-.874 2.2 1.592 1.592 0 0 0 1.466.889 1.848 1.848 0 0 0 .79-.18 1.8 1.8 0 0 0 .888-.911 1.564 1.564 0 0 0-.015-1.286 1.593 1.593 0 0 0-1.465-.888z" class="cls-2" data-name="패스 282" transform="translate(-5978.106 -4170.38)"/>
                </g>
                <g id="그룹_273" data-name="그룹 273" transform="translate(0 2.664)">
                    <path id="패스_284" d="M5963.669 4194.162c1.115 0 1.271.819 1.06 1.5s-.65 1.779-.876 2.344c-.142.358-.076.545.1.545a.686.686 0 0 0 .4-.193c.423-.352.509-.437.509-.437l.2.353s-1.257 1.341-2.217 1.412c-.066.006-.13.007-.192.007-.9 0-1.158-.54-.854-1.546.326-1.073.847-2.161 1.031-2.7.128-.375.022-.487-.112-.487a.351.351 0 0 0-.17.05c-.169.1-.629.466-.629.466l-.19-.367a2.941 2.941 0 0 1 1.949-.946m0-.692a3.639 3.639 0 0 0-2.468 1.181l-.313.355.218.42.19.367.359.7c-.182.449-.374.949-.526 1.456a2 2 0 0 0 .132 1.846 1.61 1.61 0 0 0 1.383.593c.078 0 .16 0 .243-.009a5.152 5.152 0 0 0 2.671-1.629l.346-.37-.248-.442-.2-.354-.412-.736c.133-.357.255-.7.342-.978a1.923 1.923 0 0 0-.2-1.726 1.767 1.767 0 0 0-1.519-.67z" class="cls-2" data-name="패스 284" transform="translate(-5960.888 -4193.469)"/>
                </g>
            </g>
            <g id="그룹_275" data-name="그룹 275">
                <path id="패스_285" d="M5929.207 4133.295H5915a2.616 2.616 0 0 1-2.708-2.5v-14.2a2.616 2.616 0 0 1 2.708-2.505h14.2a.347.347 0 0 1 .36.333v1.652a.346.346 0 0 1-.36.332h-13.616a.481.481 0 1 0 0 .958h13.616a.347.347 0 0 1 .36.332v15.271a.347.347 0 0 1-.353.327zm-14.2-18.546a1.922 1.922 0 0 0-1.99 1.841v14.2a1.921 1.921 0 0 0 1.99 1.839h13.844v-14.6h-13.257a1.147 1.147 0 1 1 0-2.288h13.257v-.988z" class="cls-2" data-name="패스 285" transform="translate(-5912.296 -4114.084)"/>
            </g>
        </g>
    </g>
</svg>
