<svg xmlns="http://www.w3.org/2000/svg" width="295" height="260.686" viewBox="0 0 295 260.686">
    <defs>
        <style>
            .prefix__cls-2{fill:#41e8af}.prefix__cls-4{fill:#ff8b8b}.prefix__cls-5{fill:#f5dd7c}.prefix__cls-6{fill:#72b2fb}.prefix__cls-7{fill:#ffa033}.prefix__cls-8{fill:#f6b7af}.prefix__cls-9{fill:#272725}.prefix__cls-12{fill:#eb666f}.prefix__cls-13{fill:#191919}.prefix__cls-16{fill:#30000a}.prefix__cls-17{fill:#b28956}
        </style>
    </defs>
    <g id="prefix__img_join_end" transform="translate(-33 -219.107)">
        <path id="prefix__패스_405" d="M147.5 0C228.962 0 295 24.9 295 50.676c0 36.5-66.038 56.14-147.5 56.14S0 91.793 0 50.676C0 23.176 66.038 0 147.5 0z" data-name="패스 405" transform="translate(33 372.977)" style="fill:#d1f5ff"/>
        <path id="prefix__패스_340" d="M2182.932 249.959l4.912-2.959v2.959l-2.646 2.959z" class="prefix__cls-2" data-name="패스 340" transform="translate(-2054.313 18.24)"/>
        <path id="prefix__패스_406" d="M2182.932 250.9l6.478-3.9v3.9l-3.49 3.9z" data-name="패스 406" transform="rotate(70 1171.477 -1188.574)" style="fill:#f39fda"/>
        <path id="prefix__패스_341" d="M2365.468 253.3l-1.968-6.3h5.235v4.654z" class="prefix__cls-4" data-name="패스 341" transform="translate(-2132.41 7.517)"/>
        <path id="prefix__패스_349" d="M1.64 5.253L0 0h4.363v3.878z" class="prefix__cls-4" data-name="패스 349" transform="rotate(-58 305.751 65.743)"/>
        <path id="prefix__패스_354" d="M1.64 5.253L0 0h4.363v3.878z" class="prefix__cls-4" data-name="패스 354" transform="rotate(-58 437.145 -128.507)"/>
        <path id="prefix__패스_346" d="M1.968 6.3L0 0h5.235v4.654z" class="prefix__cls-5" data-name="패스 346" transform="rotate(-69 240.893 55.482)"/>
        <path id="prefix__패스_347" d="M1.968 6.3L0 0h5.235v4.654z" class="prefix__cls-5" data-name="패스 347" transform="rotate(-69 320.686 -66.117)"/>
        <path id="prefix__패스_408" d="M1.968 6.3L0 0h5.235v4.654z" class="prefix__cls-5" data-name="패스 408" transform="rotate(-69 282.14 -6.917)"/>
        <path id="prefix__패스_355" d="M1.968 6.3L0 0h5.235v4.654z" class="prefix__cls-5" data-name="패스 355" transform="rotate(-69 230.963 114.375)"/>
        <path id="prefix__패스_342" d="M2201 202.572l5.235 2.909V198.5z" class="prefix__cls-2" data-name="패스 342" transform="translate(-2082.956 27.003)"/>
        <path id="prefix__패스_348" d="M0 2.818l3.624 2.013V0z" class="prefix__cls-2" data-name="패스 348" transform="rotate(-69 343.666 -47.726)"/>
        <path id="prefix__패스_351" d="M0 2.818l3.624 2.013V0z" class="prefix__cls-2" data-name="패스 351" transform="rotate(-69 239.445 80.824)"/>
        <path id="prefix__패스_343" d="M0 0v5.172l2.464-1.111 1.1-2.453z" class="prefix__cls-6" data-name="패스 343" transform="rotate(-20 1079.184 -596.024)"/>
        <path id="prefix__패스_350" d="M0 0v5.172h3.564V1.608z" class="prefix__cls-6" data-name="패스 350" transform="rotate(-59 321.114 -63.59)"/>
        <path id="prefix__패스_409" d="M0 0v5.172h3.564V1.608z" class="prefix__cls-4" data-name="패스 409" transform="rotate(-120 158.131 61.402)"/>
        <path id="prefix__패스_407" d="M0 0v5.172h3.564V1.608z" class="prefix__cls-6" data-name="패스 407" transform="rotate(-59 283.811 -10.031)"/>
        <path id="prefix__패스_353" d="M0 0v5.508l2.24-1.077.831-2.718z" class="prefix__cls-6" data-name="패스 353" transform="rotate(-141 87.678 107.692)"/>
        <path id="prefix__패스_404" d="M0 0v5.191l2.112-1.015.788-2.562z" class="prefix__cls-6" data-name="패스 404" transform="rotate(-141 201.131 92.93)"/>
        <path id="prefix__패스_401" d="M0 0v5.828l2.371-1.14.879-2.876z" class="prefix__cls-6" data-name="패스 401" transform="rotate(135 86.853 170.752)"/>
        <path id="prefix__패스_344" d="M0 0v5.172h3.564V1.608z" class="prefix__cls-7" data-name="패스 344" transform="rotate(-79.98 246.357 -24.26)"/>
        <path id="prefix__패스_352" d="M0 0v5.172h3.564V1.608z" class="prefix__cls-7" data-name="패스 352" transform="rotate(-79.98 341.97 -11.692)"/>
        <path id="prefix__패스_345" d="M0 0v5.172h3.564V1.608z" class="prefix__cls-7" data-name="패스 345" transform="rotate(-143 84.06 154.877)"/>
        <path id="prefix__패스_403" d="M0 0v5.172h3.564V1.608z" class="prefix__cls-7" data-name="패스 403" transform="rotate(-143 173.413 96.13)"/>
        <g id="prefix__그룹_95" data-name="그룹 95" transform="translate(68.978 269.842)">
            <path id="prefix__패스_356" d="M282.03 895.328l.148 25.831 5.047.445 5.2-26.869-9.2-1.485z" class="prefix__cls-8" data-name="패스 356" transform="translate(-240.199 -760.761)"/>
            <path id="prefix__패스_357" d="M458.18 891.585l7.719 27.909 5.492-.742-2.226-28.5z" class="prefix__cls-8" data-name="패스 357" transform="translate(-390.221 -758.206)"/>
            <path id="prefix__패스_358" d="M274.15 1080.746s4.454-.741 5.641.148 4.156 2.673 5.492 3.859 2.078 1.336-1.04 2.375-5.641 0-7.719-.148-3.414.3-3.711-2.226a4.872 4.872 0 0 1 1.337-4.008z" class="prefix__cls-9" data-name="패스 358" transform="translate(-232.318 -920.201)"/>
            <path id="prefix__패스_359" d="M510.424 1072.553s3.956-2.176 5.372-1.729 4.807 1.144 6.461 1.822 2.4.573-.194 2.585-5.322 1.869-7.333 2.417-3.124 1.41-4.239-.872a4.87 4.87 0 0 1-.067-4.223z" class="prefix__cls-9" data-name="패스 359" transform="translate(-434.336 -911.945)"/>
            <path id="prefix__패스_360" d="M272.862 597.8l-1.8 5.885-.24 61.863 8.889.961 9.49-49.73 14.175 48.769 9.249-1.921-5.286-56.578-2.643-9.49z" data-name="패스 360" transform="translate(-230.651 -508.929)" style="fill:#383838"/>
            <path id="prefix__패스_361" d="M7.7 217.327S1.083 213.3.2 214.3s3.8 6.293 3.8 6.293L.313 219.3s-.884.218.328 1.333 5.859 2.488 5.859 2.488l2.774-3.2z" class="prefix__cls-8" data-name="패스 361" transform="translate(-.002 -182.379)"/>
            <path id="prefix__패스_362" d="M591.76 7.117s3.954-5.052 5.619-5.963 2.287-1.642 2.7-.73c.262.575-.447 1.166-1.178 1.921-.648.669-1.316 1.544-1.316 1.544a1.5 1.5 0 0 1 1.556.046c.623.547 2.434 2.839 1.44 3.271s-3.9 2.071-3.9 2.071z" class="prefix__cls-8" data-name="패스 362" transform="translate(-503.989 -.006)"/>
            <path id="prefix__패스_363" d="M37.246 71.7l41.978 9.264 10.169-4.152 28.1-34.116 5.4 2.794-21.853 39.768 3.935 41.129-36.121.715.43-31.881L34.52 76.475z" data-name="패스 363" transform="translate(-29.4 -36.367)" style="fill:#4daae0"/>
            <path id="prefix__패스_364" d="M346.285 267.391l-.715 5.722s2.5 1.43 3.934.715l1.43-.715-.358-8.583z" class="prefix__cls-8" data-name="패스 364" transform="translate(-294.314 -225.295)"/>
            <path id="prefix__패스_365" d="M326.945 157.156c-1.215-1.643-1.761-5.043-3.953-5.12-.44-.188-1.384 1.319-1.83 1.142a3.9 3.9 0 0 0-2.987.39c-.53.31-1.341-.792-1.691-.22-.111.09-.285.338-.013 1.893.187 1.068-1.031 1.664-1.135 2.741 0 .03 0 .059-.006.088-.03.056-.067.108-.095.166a11.5 11.5 0 0 0-.982 7.413 7.521 7.521 0 0 0 5.323 5.894 7.786 7.786 0 0 0 5.076-.6c1.348-.6 4.134-3.477 4.521-4.878.981-3.572-1.013-7.265-2.228-8.909z" class="prefix__cls-8" data-name="패스 365" transform="translate(-267.448 -129.473)"/>
            <g id="prefix__그룹_73" data-name="그룹 73" transform="translate(51.372 31.361)">
                <g id="prefix__그룹_72" data-name="그룹 72">
                    <path id="prefix__패스_366" d="M347.133 212.991a.8.8 0 0 0 .549-.227.776.776 0 0 0-.549-1.325.8.8 0 0 0-.549.227.776.776 0 0 0 .549 1.324z" data-name="패스 366" transform="translate(-346.356 -211.44)"/>
                </g>
            </g>
            <g id="prefix__그룹_75" data-name="그룹 75" transform="translate(57.236 29.06)">
                <g id="prefix__그룹_74" data-name="그룹 74">
                    <path id="prefix__패스_367" d="M386.663 197.482a.8.8 0 0 0 .549-.227.776.776 0 0 0-.549-1.325.8.8 0 0 0-.549.227.776.776 0 0 0 .549 1.325z" data-name="패스 367" transform="translate(-385.886 -195.93)"/>
                </g>
            </g>
            <g id="prefix__그룹_77" data-name="그룹 77" transform="translate(53.295 34.978)">
                <g id="prefix__그룹_76" data-name="그룹 76">
                    <path id="prefix__패스_368" d="M359.426 237.837a6.49 6.49 0 0 0 2.434.387 2.865 2.865 0 0 0 2.022-.89 3.1 3.1 0 0 0 .653-1.313.156.156 0 0 0-.3-.083 2.861 2.861 0 0 1-.5 1.087 2.225 2.225 0 0 1-.8.635 3.722 3.722 0 0 1-2.109.2 7.893 7.893 0 0 1-1.316-.325c-.188-.064-.27.236-.082.3z" data-name="패스 368" transform="translate(-359.319 -235.828)"/>
                </g>
            </g>
            <g id="prefix__그룹_79" data-name="그룹 79" transform="translate(49.552 29.365)">
                <g id="prefix__그룹_78" data-name="그룹 78">
                    <path id="prefix__패스_369" d="M334.548 199.353v-.045.007l.013-.074a1.112 1.112 0 0 1 .033-.12c.006-.019.013-.039.021-.058.018-.052-.015.027.007-.018s.037-.076.059-.111l.037-.056c.013-.019.043-.053.009-.013a1.013 1.013 0 0 1 .076-.085c.028-.028.062-.053.09-.082l-.01.007.031-.022.047-.031a.955.955 0 0 1 .1-.056.56.56 0 0 1 .052-.025l.036-.016h-.01c.079-.024.154-.053.236-.073l.129-.024h-.012H335.596a2.094 2.094 0 0 1 .273 0 .234.234 0 0 0 .233-.233.238.238 0 0 0-.233-.233 1.882 1.882 0 0 0-1.172.28 1.415 1.415 0 0 0-.613 1.081.234.234 0 0 0 .233.233.24.24 0 0 0 .228-.233z" data-name="패스 369" transform="translate(-334.086 -197.986)"/>
                </g>
            </g>
            <g id="prefix__그룹_81" data-name="그룹 81" transform="translate(55.985 26.62)">
                <g id="prefix__그룹_80" data-name="그룹 80">
                    <path id="prefix__패스_370" d="M379.272 179.664a1.323 1.323 0 0 0-1.787.429.233.233 0 1 0 .4.236q.025-.04.053-.08c-.03.043.006-.006.012-.012l.025-.028a.868.868 0 0 1 .076-.071c.007-.007.045-.034 0 0l.039-.028a1.818 1.818 0 0 1 .166-.092c.024-.013-.036.012.006 0l.053-.019a.913.913 0 0 1 .092-.025q.047-.011.093-.018c-.033 0-.021 0 0 0h.189c.016 0 .036 0 0 0a1.078 1.078 0 0 1 .193.048c.01 0 .052.021.006 0 .015.006.028.013.043.021.031.016.061.033.09.052a.236.236 0 0 0 .319-.083.243.243 0 0 0-.085-.322z" data-name="패스 370" transform="translate(-377.454 -179.479)"/>
                </g>
            </g>
            <g id="prefix__그룹_83" data-name="그룹 83" transform="translate(50.415 34.792)">
                <g id="prefix__그룹_82" data-name="그룹 82">
                    <path id="prefix__패스_371" d="M340.711 236.172l1.046-.589a.56.56 0 0 0 .249-.323.543.543 0 0 0-.378-.666.567.567 0 0 0-.417.055l-1.046.589a.56.56 0 0 0-.249.323.543.543 0 0 0 .378.666.584.584 0 0 0 .417-.055z" class="prefix__cls-12" data-name="패스 371" transform="translate(-339.898 -234.577)"/>
                </g>
            </g>
            <g id="prefix__그룹_85" data-name="그룹 85" transform="translate(59.254 31.229)">
                <g id="prefix__그룹_84" data-name="그룹 84">
                    <path id="prefix__패스_372" d="M400.194 211.79l.667-.371a.475.475 0 0 0 .214-.277.358.358 0 0 0 .009-.185.346.346 0 0 0-.055-.174.466.466 0 0 0-.277-.214.5.5 0 0 0-.359.047l-.667.371a.476.476 0 0 0-.214.277.358.358 0 0 0-.009.185.347.347 0 0 0 .055.174.466.466 0 0 0 .277.214.5.5 0 0 0 .359-.047z" class="prefix__cls-12" data-name="패스 372" transform="translate(-399.495 -210.555)"/>
                </g>
            </g>
            <path id="prefix__패스_373" d="M294.82 111.479a3.989 3.989 0 0 0-2.119-1.494 2.961 2.961 0 0 0-1.632.022 2.124 2.124 0 0 0-.943.828c-.461.613-1.081 1.2-1.617 1.87a17.268 17.268 0 0 1-1.933 2.2c-1.379 1.227-3.107 2.029-4.335 3.434a8.015 8.015 0 0 0-1.9 4.939c-.208 4.361 2.679 7.946 5.966 10.452.528.4 1.124-.165 1.181-.676.2-1.824-1.547-3.46-1.839-5.255-.267-1.636.917-3.5 1.333-5.131.087-.09.175-.181.257-.276.211-.246.323-.527.486-.71a3.961 3.961 0 0 1 1.422-.985c1.1-.5 2.511-.785 3.711-1.261a5.26 5.26 0 0 0 3.208-2.83c.719-1.836-.098-3.681-1.246-5.127z" class="prefix__cls-13" data-name="패스 373" transform="translate(-238.75 -93.585)"/>
            <g id="prefix__그룹_86" data-name="그룹 86" transform="translate(45.109 34.036)">
                <path id="prefix__패스_374" d="M306.635 230.137a6.8 6.8 0 0 0-1.817-.636.531.531 0 0 0-.356.016.515.515 0 0 0-.208.331 3.659 3.659 0 0 0 1.74 4.11.727.727 0 0 0 .69.082.713.713 0 0 0 .252-.32 3.3 3.3 0 0 0-.074-2.974z" class="prefix__cls-8" data-name="패스 374" transform="translate(-304.128 -229.479)"/>
            </g>
            <g id="prefix__그룹_88" data-name="그룹 88" transform="translate(55.234 28.423)">
                <g id="prefix__그룹_87" data-name="그룹 87">
                    <path id="prefix__패스_375" d="M372.464 191.743a3.547 3.547 0 0 0 .653 2.732c.133.206.279.4.43.6s.31.368.457.558a1.25 1.25 0 0 1 .28.593 1 1 0 0 1-.1.577.973.973 0 0 1-1.155.466c-.191-.059-.273.239-.083.3a1.271 1.271 0 0 0 1.605-1.569 1.93 1.93 0 0 0-.381-.65c-.159-.2-.325-.386-.476-.589a5.728 5.728 0 0 1-.774-1.325 2.675 2.675 0 0 1-.154-1.609c.045-.191-.255-.274-.3-.08z" data-name="패스 375" transform="translate(-372.391 -191.633)"/>
                </g>
            </g>
            <g id="prefix__그룹_90" data-name="그룹 90" transform="translate(40.298 27.241)">
                <g id="prefix__그룹_89" data-name="그룹 89">
                    <path id="prefix__패스_376" d="M273.727 183.682a3.547 3.547 0 0 0-1.8.3.475.475 0 0 0-.217.282.471.471 0 0 0 .329.578.546.546 0 0 0 .362-.047l.052-.022-.113.047a3.117 3.117 0 0 1 .755-.206c-.042.006-.083.012-.125.016a3.138 3.138 0 0 1 .755-.009.465.465 0 0 0 .332-.138.469.469 0 0 0 0-.664.538.538 0 0 0-.331-.136z" class="prefix__cls-13" data-name="패스 376" transform="translate(-271.694 -183.663)"/>
                </g>
            </g>
            <g id="prefix__그룹_92" data-name="그룹 92" transform="translate(40.904 25.454)">
                <g id="prefix__그룹_91" data-name="그룹 91">
                    <path id="prefix__패스_377" d="M277.077 173.771a3.51 3.51 0 0 0-.424-1.921.474.474 0 0 0-.644-.169.481.481 0 0 0-.169.644c.021.039.042.079.061.119s.033.105.056.12c-.012-.007-.037-.095-.013-.031l.027.068.044.126a3.121 3.121 0 0 1 .119.518c-.006-.042-.012-.083-.016-.125a3.168 3.168 0 0 1 .019.65.473.473 0 0 0 .47.47.479.479 0 0 0 .47-.469z" class="prefix__cls-13" data-name="패스 377" transform="translate(-275.779 -171.616)"/>
                </g>
            </g>
            <g id="prefix__그룹_94" data-name="그룹 94" transform="translate(47.287 38.512)">
                <g id="prefix__그룹_93" data-name="그룹 93">
                    <path id="prefix__패스_378" d="M318.914 260.829l.921 1.467a.82.82 0 0 0 .469.36.8.8 0 0 0 .6-.079.784.784 0 0 0 .282-1.072l-.921-1.467a.819.819 0 0 0-.469-.36.8.8 0 0 0-.6.079.793.793 0 0 0-.36.469.8.8 0 0 0 .079.6z" class="prefix__cls-13" data-name="패스 378" transform="translate(-318.81 -259.652)"/>
                </g>
            </g>
        </g>
        <g id="prefix__그룹_116" data-name="그룹 116" transform="translate(191.733 277.61)">
            <path id="prefix__패스_379" d="M311.1 819.608l-.148 25.831-5.047.445-5.2-26.869 9.2-1.485z" class="prefix__cls-8" data-name="패스 379" transform="translate(-256.107 -696.271)"/>
            <path id="prefix__패스_380" d="M118.753 815.865l-7.72 27.909-5.492-.742 2.226-28.5z" class="prefix__cls-8" data-name="패스 380" transform="translate(-89.886 -693.716)"/>
            <path id="prefix__패스_381" d="M129.261 500.752l4.65 43.988-6.795 1.431-.359 1.789-8.225 1.787h-7.154l-6.08 1.072-6.437-2.145h-6.793l-.715-1.431-4.843-1.319L96 500.037l28.612-5.007z" data-name="패스 381" transform="translate(-73.678 -421.605)" style="fill:#603538"/>
            <path id="prefix__패스_382" d="M609.137 151.08s6.057-4.825 7.054-3.941-2.98 6.72-2.98 6.72l3.5-1.743s.9.105-.159 1.365-5.5 3.2-5.5 3.2l-3.152-2.826z" class="prefix__cls-8" data-name="패스 382" transform="translate(-517.734 -125.222)"/>
            <path id="prefix__패스_383" d="M7.6 5.607S3.29-.567 2.161.039s1.032 7.243 1.032 7.243L.442 4.725s-.85-.123-.2 1.359 4.211 4.465 4.211 4.465L8.033 8.6z" class="prefix__cls-8" data-name="패스 383" transform="translate(.002 .003)"/>
            <path id="prefix__패스_384" d="M108.38 68.606l-43.632 6.939-9.537-2.508L26.24 49.52l-5.4 2.794 22.093 27.522L39 120.964l36.121.715L73.275 91.1l38.855-17.383z" data-name="패스 384" transform="translate(-17.749 -42.175)" style="fill:#ee8bb6"/>
            <path id="prefix__패스_385" d="M275.718 191.671l.715 5.722s-2.5 1.43-3.934.715l-1.43-.715.357-8.583z" class="prefix__cls-8" data-name="패스 385" transform="translate(-230.864 -160.805)"/>
            <path id="prefix__패스_386" d="M237.321 88.437c1.016-1.774-.142-3.988 2.048-4.066.44-.188 3.11-.982 3.555-1.158a3.9 3.9 0 0 1 2.987.39c.53.31 1.341-.792 1.691-.22.111.09.285.338.013 1.893-.187 1.068 1.031 1.664 1.135 2.741 0 .03 0 .059.006.087.03.056.067.108.095.166 1.147 2.354 3.757 4.634 3.253 7.207-.528 2.689-4.849 5.466-7.593 6.1a7.786 7.786 0 0 1-5.076-.6c-1.348-.6-4.134-3.477-4.521-4.878-.98-3.569.602-4.511 2.407-7.662z" class="prefix__cls-8" data-name="패스 386" transform="translate(-199.815 -70.739)"/>
            <path id="prefix__패스_387" d="M256.69 57.493a9.084 9.084 0 0 0 3.265-.939 17.345 17.345 0 0 1 2.907-1.259 8.969 8.969 0 0 0 .776 3.779c.724 1.56 2.4 3.026 2.7 3.971a5.333 5.333 0 0 0 1.279 2.136c.7.611 1.652.691 1.842 1.163.712 1.775.182 4.214-1.259 4.749A42.136 42.136 0 0 0 263.445 74s-.246.338.129.973a10.51 10.51 0 0 0 1.449 1.5c1.3 1.244 3.033 2.048 3.454 3.733.715 2.861 5.727 10.817 10.377 10.46s6.152-1.872 6.433-7.241c.159-3.033-1.43-2.861-3.934-8.583s1.789-6.08-2.5-9.656-.607-5.57-3.825-9.5-5.353-4.393-10.09-4.964c-6.287-.758-8.248 6.771-8.248 6.771z" class="prefix__cls-16" data-name="패스 387" transform="translate(-218.617 -43.153)"/>
            <path id="prefix__패스_388" d="M300.226 1005.027s-4.454-.742-5.641.148-4.156 2.673-5.492 3.859-2.078 1.336 1.04 2.374 5.641 0 7.719-.148 3.414.3 3.711-2.226a4.872 4.872 0 0 0-1.337-4.007z" class="prefix__cls-17" data-name="패스 388" transform="translate(-245.232 -855.711)"/>
            <path id="prefix__패스_389" d="M63.219 996.833s-3.956-2.176-5.372-1.729-4.807 1.144-6.461 1.821-2.4.573.194 2.585 5.322 1.869 7.333 2.418 3.124 1.411 4.239-.872a4.864 4.864 0 0 0 .067-4.223z" class="prefix__cls-17" data-name="패스 389" transform="translate(-42.483 -847.454)"/>
            <g id="prefix__그룹_97" data-name="그룹 97" transform="translate(43.9 20.131)">
                <g id="prefix__그룹_96" data-name="그룹 96">
                    <path id="prefix__패스_390" d="M296.753 137.271a.8.8 0 0 0 .549-.227.776.776 0 0 0-.549-1.325.8.8 0 0 0-.549.227.776.776 0 0 0 .549 1.325z" data-name="패스 390" transform="translate(-295.976 -135.72)"/>
                </g>
            </g>
            <g id="prefix__그룹_99" data-name="그룹 99" transform="translate(38.036 17.83)">
                <g id="prefix__그룹_98" data-name="그룹 98">
                    <path id="prefix__패스_391" d="M257.213 121.761a.8.8 0 0 0 .549-.227.776.776 0 0 0-.549-1.325.8.8 0 0 0-.549.227.776.776 0 0 0 .549 1.325z" data-name="패스 391" transform="translate(-256.436 -120.21)"/>
                </g>
            </g>
            <g id="prefix__그룹_101" data-name="그룹 101" transform="translate(38.309 23.749)">
                <g id="prefix__그룹_100" data-name="그룹 100">
                    <path id="prefix__패스_392" d="M262.05 161.356a3.079 3.079 0 0 1-.743.455 2.282 2.282 0 0 1-.844.242 1.652 1.652 0 0 1-.875-.225 1.85 1.85 0 0 1-.4-.265 1.425 1.425 0 0 1-.264-.344 3.852 3.852 0 0 1-.344-.994c-.047-.194-.347-.111-.3.083a4.5 4.5 0 0 0 .331.985 1.782 1.782 0 0 0 .712.743 2.133 2.133 0 0 0 1 .329 2.329 2.329 0 0 0 1-.223 3.488 3.488 0 0 0 .945-.565c.151-.133-.068-.352-.218-.221z" data-name="패스 392" transform="translate(-258.276 -160.114)"/>
                </g>
            </g>
            <g id="prefix__그룹_103" data-name="그룹 103" transform="translate(45.258 18.138)">
                <g id="prefix__그룹_102" data-name="그룹 102">
                    <path id="prefix__패스_393" d="M306.511 122.941a1.237 1.237 0 0 0-1.15-.654.233.233 0 0 0 0 .466 1.1 1.1 0 0 1 .139 0h.034c.028 0-.062-.01-.013 0l.068.013a.959.959 0 0 1 .126.04c.037.015 0 .006-.01 0a.121.121 0 0 0 .031.015l.062.033.053.033a.44.44 0 0 0 .056.04c-.04-.015-.028-.022-.009-.006l.027.022c.018.015.034.031.05.047s.031.034.047.052a.244.244 0 0 0 .018.021c-.043-.044-.013-.018 0 0a.966.966 0 0 1 .071.119.232.232 0 1 0 .4-.234z" data-name="패스 393" transform="translate(-305.129 -122.285)"/>
                </g>
            </g>
            <g id="prefix__그룹_105" data-name="그룹 105" transform="translate(38.878 15.843)">
                <g id="prefix__그룹_104" data-name="그룹 104">
                    <path id="prefix__패스_394" d="M263.509 107.061a1.9 1.9 0 0 0-1.224-.231.234.234 0 0 0-.139.107.237.237 0 0 0-.024.179.235.235 0 0 0 .107.139.278.278 0 0 0 .179.024c-.065.009.013 0 .027 0h.062a1.332 1.332 0 0 1 .134 0c.042 0 .083.006.125.009s-.04-.007.009 0c.024 0 .047.007.07.013a1.63 1.63 0 0 1 .239.068c.01 0 .086.03.027.01.016.006.033.015.049.022.043.021.085.043.126.067a.237.237 0 0 0 .319-.083.241.241 0 0 0-.085-.32z" data-name="패스 394" transform="translate(-262.114 -106.81)"/>
                </g>
            </g>
            <g id="prefix__그룹_107" data-name="그룹 107" transform="translate(44.363 23.636)">
                <g id="prefix__그룹_106" data-name="그룹 106">
                    <path id="prefix__패스_395" d="M300.943 159.728l-1.265-.36a.465.465 0 1 0-.248.9l1.265.36a.465.465 0 0 0 .248-.9z" class="prefix__cls-12" data-name="패스 395" transform="translate(-299.092 -159.352)"/>
                </g>
            </g>
            <g id="prefix__그룹_109" data-name="그룹 109" transform="translate(35.972 19.998)">
                <g id="prefix__그룹_108" data-name="그룹 108">
                    <path id="prefix__패스_396" d="M243.891 135.26l-.667-.371a.488.488 0 0 0-.359-.047.467.467 0 0 0-.277.214.464.464 0 0 0 .166.636l.667.371a.488.488 0 0 0 .359.047.467.467 0 0 0 .277-.214.464.464 0 0 0-.166-.636z" class="prefix__cls-12" data-name="패스 396" transform="translate(-242.522 -134.826)"/>
                </g>
            </g>
            <g id="prefix__그룹_111" data-name="그룹 111" transform="translate(38.127 11.633)">
                <g id="prefix__그룹_110" data-name="그룹 110">
                    <path id="prefix__패스_397" d="M263.261 78.576a5.331 5.331 0 0 1-.932 1.2 2.376 2.376 0 0 1-1.3.5c-.811.125-1.626.243-2.444.322a7.762 7.762 0 0 1-1.231.053c-.4-.025-.4.6 0 .627a13.356 13.356 0 0 0 2.581-.214c.409-.055.82-.116 1.228-.178a2.97 2.97 0 0 0 1.458-.547 5.43 5.43 0 0 0 1.179-1.454c.215-.344-.326-.659-.541-.317z" class="prefix__cls-16" data-name="패스 397" transform="translate(-257.054 -78.429)"/>
                </g>
            </g>
            <g id="prefix__그룹_113" data-name="그룹 113" transform="translate(61.544 25.605)">
                <g id="prefix__그룹_112" data-name="그룹 112">
                    <path id="prefix__패스_398" d="M414.927 172.933a12.072 12.072 0 0 0 1.166 4.638c.344.721.8 1.372 1.172 2.079a4.835 4.835 0 0 1 .529 2.244 10.81 10.81 0 0 1-.4 2.682.314.314 0 0 0 .605.166 7.968 7.968 0 0 0 .086-4.794 18.1 18.1 0 0 0-1.163-2.133 11.3 11.3 0 0 1-1.369-4.883c-.018-.4-.645-.4-.626 0z" class="prefix__cls-16" data-name="패스 398" transform="translate(-414.927 -172.63)"/>
                </g>
            </g>
            <g id="prefix__그룹_115" data-name="그룹 115" transform="translate(39.385 18.78)">
                <g id="prefix__그룹_114" data-name="그룹 114">
                    <path id="prefix__패스_399" d="M267.533 126.692a14.818 14.818 0 0 1-1.212 1.89c-.221.294-.46.571-.7.851a.276.276 0 0 0-.083.24.359.359 0 0 0 .166.2 4.513 4.513 0 0 0 .444.3 4.72 4.72 0 0 0 1.138.475.156.156 0 0 0 .083-.3 4.353 4.353 0 0 1-.909-.356 4.516 4.516 0 0 1-.429-.26l-.092-.065c-.03-.022-.065-.062-.091-.068l-.013-.012c0 .024 0 .046.006.07a.393.393 0 0 0 .044-.05l.088-.1a15.015 15.015 0 0 0 1.228-1.642q.318-.494.6-1.01c.095-.175-.172-.332-.267-.157z" data-name="패스 399" transform="translate(-265.536 -126.615)"/>
                </g>
            </g>
        </g>
        <path id="prefix__패스_402" d="M2201 202.572l5.235 2.909V198.5z" class="prefix__cls-2" data-name="패스 402" transform="translate(-1906.929 64.579)"/>
        <path id="prefix__패스_410" d="M2201 202.572l5.235 2.909V198.5z" class="prefix__cls-2" data-name="패스 410" transform="translate(-2025.929 94.579)"/>
    </g>
</svg>
