<svg xmlns="http://www.w3.org/2000/svg" width="161" height="110" viewBox="0 0 161 110">
  <defs>
    <style>
      .cls-1 {
        fill: #8cbce6;
      }

      .cls-2 {
        fill: #d7dde8;
      }

      .cls-3 {
        fill: #fff;
      }

      .cls-4 {
        opacity: 0.51;
      }

      .cls-5 {
        fill: #f2c276;
      }

      .cls-6 {
        fill: #80b7dd;
      }

      .cls-7 {
        fill: #e59ea5;
      }

      .cls-8 {
        fill: #97c394;
      }
    </style>
  </defs>
  <g id="img_tag_info_ios" transform="translate(-100 -186)">
    <rect id="사각형_262" data-name="사각형 262" class="cls-1" width="161" height="100" rx="10" transform="translate(100 186)"/>
    <path id="사각형_259" data-name="사각형 259" class="cls-2" d="M20,0h88a20,20,0,0,1,20,20V83a0,0,0,0,1,0,0H0a0,0,0,0,1,0,0V20A20,20,0,0,1,20,0Z" transform="translate(117 213)"/>
    <path id="사각형_260" data-name="사각형 260" class="cls-3" d="M12,0h90a12,12,0,0,1,12,12V66a0,0,0,0,1,0,0H0a0,0,0,0,1,0,0V12A12,12,0,0,1,12,0Z" transform="translate(124 230)"/>
    <rect id="사각형_261" data-name="사각형 261" class="cls-3" width="23" height="4" rx="2" transform="translate(170 220)"/>
    <path id="패스_512" data-name="패스 512" class="cls-3" d="M-13.675-7.27a17.609,17.609,0,0,1-.292,3.67l.764.094a18.117,18.117,0,0,0,.3-3.765V-8.2h-5.963v.632h5.189ZM-14.92-2.41v-2.8h-.764v2.8h-1.33v-2.8h-.764v2.8h-1.878v.632H-12V-2.41Zm7.765,1.227c-1.359,0-2.123-.264-2.123-.774s.764-.774,2.123-.774,2.123.274,2.123.774S-5.787-1.184-7.155-1.184Zm0-2.123c-1.84,0-2.9.472-2.9,1.349S-8.995-.6-7.155-.6s2.9-.472,2.9-1.359S-5.315-3.307-7.155-3.307Zm.387-1.264V-5.4h2.548v-.6H-9.2v-.83h4.708v-.585H-9.2V-8.2h4.935v-.6H-9.976V-5.4h2.434v.83h-3.444v.623h7.662v-.623Zm5.01-3.6v.632H1.29a6.319,6.319,0,0,1-.255,1.481l-3.217.217.132.679L.8-5.439A6.028,6.028,0,0,1-2.22-2.571l.425.594a6.333,6.333,0,0,0,3.859-6.2ZM5.573-5.619H4.215V-9.053H3.441V-.589h.774V-4.977H5.573Zm7.6.623H8.121V-7.638h4.963v-.642H7.357v3.916h5.812ZM6.375-2.373v.642h7.68v-.642Z" transform="translate(131.401 204.546)"/>
    <g id="그룹_597" data-name="그룹 597" class="cls-4" transform="translate(-344.196 -49.704)">
      <g id="그룹_570" data-name="그룹 570" transform="translate(515.196 302.474)">
        <rect id="사각형_376" data-name="사각형 376" class="cls-5" width="8.42" height="2.031" rx="1.016" transform="translate(0 0)"/>
        <rect id="사각형_377" data-name="사각형 377" class="cls-5" width="8.42" height="2.031" rx="1.016" transform="translate(0 3.223)"/>
        <rect id="사각형_378" data-name="사각형 378" class="cls-5" width="8.42" height="2.031" rx="1.016" transform="translate(0 6.447)"/>
      </g>
      <path id="패스_535" data-name="패스 535" class="cls-6" d="M520.124,290.682h-3.16a1.019,1.019,0,0,0-1.019,1.019v7.368a1.019,1.019,0,0,0,1.019,1.019h3.16a4.51,4.51,0,0,0,4.51-4.511v-.384A4.511,4.511,0,0,0,520.124,290.682Zm1.2,5.388-.794.795a.436.436,0,0,1-.617,0l-1.4-1.4a.437.437,0,0,1,0-.617l.794-.795a.436.436,0,0,1,.617,0l1.4,1.4A.436.436,0,0,1,521.326,296.07Z" transform="translate(-0.437 -0.007)"/>
      <path id="패스_536" data-name="패스 536" class="cls-7" d="M551.046,298.031l-3.868-6.719a1.281,1.281,0,0,0-2.22,0l-3.868,6.719a1.281,1.281,0,0,0,1.11,1.92h7.737a1.281,1.281,0,0,0,1.11-1.92Zm-4.058-.876a.481.481,0,0,1-.481.481h-.879a.481.481,0,0,1-.481-.481v-1.668a.481.481,0,0,1,.481-.481h.879a.481.481,0,0,1,.481.481Z" transform="translate(-15.021)"/>
      <path id="패스_537" data-name="패스 537" class="cls-8" d="M549.993,318.056a1.58,1.58,0,0,0-1.138.471l-1.9,1.769a.673.673,0,0,1-1.008.023c-.54-.514-1.985-1.793-1.985-1.793a1.772,1.772,0,0,0-1.138-.471,1.118,1.118,0,0,0-1.16,1.1V326.2a1.133,1.133,0,0,0,1.16,1.1h2.565c.293,0,.488-.821,1.074-.821s.782.821,1.12.821h2.414a1.133,1.133,0,0,0,1.161-1.1V319.16A1.105,1.105,0,0,0,549.993,318.056Zm-2.551,5.756h-.474v.474a.474.474,0,0,1-.948,0v-.474h-.474a.474.474,0,0,1,0-.948h.474v-.474a.474.474,0,1,1,.948,0v.474h.474a.474.474,0,1,1,0,.948Z" transform="translate(-15.455 -15.994)"/>
    </g>
  </g>
</svg>
