<svg xmlns="http://www.w3.org/2000/svg" width="87" height="79" viewBox="0 0 87 79">
    <defs>
        <style>
            .prefix__cls-3{fill:#fff}.prefix__cls-5{fill:#f2c276}
        </style>
    </defs>
    <g id="prefix__img_charge_tag" transform="translate(-27 -37)">
        <rect id="prefix__사각형_262" width="87" height="54" data-name="사각형 262" rx="5" transform="translate(27 37)" style="fill:#8cbce6"/>
        <path id="prefix__사각형_259" d="M10 0h49a10 10 0 0 1 10 10v54H0V10A10 10 0 0 1 10 0z" data-name="사각형 259" transform="translate(36 52)" style="fill:#d7dde8"/>
        <path id="prefix__사각형_260" d="M8 0h45a8 8 0 0 1 8 8v47H0V8a8 8 0 0 1 8-8z" class="prefix__cls-3" data-name="사각형 260" transform="translate(40 61)"/>
        <rect id="prefix__사각형_261" width="12" height="1" class="prefix__cls-3" data-name="사각형 261" rx=".5" transform="translate(65 56)"/>
        <path id="prefix__패스_512" d="M-16.415-8.087a9.543 9.543 0 0 1-.159 1.987l.414.051A9.818 9.818 0 0 0-16-8.087v-.506h-3.232v.343h2.812zm-.675 2.633v-1.518h-.41v1.519h-.721v-1.519h-.414v1.519h-1.018v.343h4.147v-.343zm4.208.665c-.736 0-1.15-.143-1.15-.419s.414-.419 1.15-.419 1.15.148 1.15.419-.408.419-1.15.419zm0-1.15c-1 0-1.57.256-1.57.731s.573.736 1.57.736 1.57-.256 1.57-.736-.573-.731-1.57-.731zm.21-.685v-.45h1.381V-7.4h-2.7v-.45h2.552v-.317h-2.552v-.424h2.674v-.329h-3.094v1.846h1.319v.45h-1.866v.337h4.152v-.337zm2.715-1.953v.343h1.652a3.424 3.424 0 0 1-.138.8l-1.744.118.072.368 1.544-.148a3.267 3.267 0 0 1-1.637 1.556l.23.322a3.432 3.432 0 0 0 2.092-3.359zm3.973 1.386h-.736v-1.862h-.42v4.587h.419v-2.378h.736zm4.116.337H-4.6v-1.432h2.69v-.348h-3.1v2.122h3.15zm-3.681 1.421v.348h4.162v-.348z" class="prefix__cls-3" data-name="패스 512" transform="translate(52.859 51.142)"/>
        <g id="prefix__그룹_597" data-name="그룹 597" transform="translate(-450.183 -222.76)" style="opacity:.51">
            <g id="prefix__그룹_570" data-name="그룹 570" transform="translate(515.196 297.962)">
                <rect id="prefix__사각형_376" width="5.202" height="1.255" class="prefix__cls-5" data-name="사각형 376" rx=".628"/>
                <rect id="prefix__사각형_377" width="5.202" height="1.255" class="prefix__cls-5" data-name="사각형 377" rx=".628" transform="translate(0 1.992)"/>
                <rect id="prefix__사각형_378" width="5.202" height="1.255" class="prefix__cls-5" data-name="사각형 378" rx=".628" transform="translate(0 3.983)"/>
            </g>
            <path id="prefix__패스_535" d="M518.527 290.682h-1.952a.63.63 0 0 0-.63.63v4.552a.63.63 0 0 0 .63.63h1.952a2.787 2.787 0 0 0 2.787-2.787v-.237a2.787 2.787 0 0 0-2.787-2.788zm.743 3.329l-.491.491a.27.27 0 0 1-.382 0l-.865-.865a.27.27 0 0 1 0-.381l.491-.491a.27.27 0 0 1 .381 0l.865.865a.27.27 0 0 1 .001.381z" data-name="패스 535" transform="translate(-.557 -.009)" style="fill:#80b7dd"/>
            <path id="prefix__패스_536" d="M547.175 295.218l-2.39-4.151a.791.791 0 0 0-1.372 0l-2.39 4.151a.791.791 0 0 0 .686 1.186h4.78a.791.791 0 0 0 .686-1.186zm-2.507-.541a.3.3 0 0 1-.3.3h-.543a.3.3 0 0 1-.3-.3v-1.031a.3.3 0 0 1 .3-.3h.543a.3.3 0 0 1 .3.3z" data-name="패스 536" transform="translate(-19.111)" style="fill:#e59ea5"/>
            <path id="prefix__패스_537" d="M546.808 318.056a.976.976 0 0 0-.7.291l-1.176 1.093a.416.416 0 0 1-.623.014c-.334-.318-1.226-1.107-1.226-1.107a1.1 1.1 0 0 0-.7-.291.691.691 0 0 0-.717.682v4.349a.7.7 0 0 0 .717.682h1.585c.181 0 .3-.507.664-.507s.483.507.692.507h1.492a.7.7 0 0 0 .717-.682v-4.349a.683.683 0 0 0-.725-.682zm-1.576 3.556h-.293v.293a.293.293 0 0 1-.586 0v-.293h-.293a.293.293 0 0 1 0-.586h.293v-.293a.293.293 0 1 1 .586 0v.293h.293a.293.293 0 1 1 0 .586z" data-name="패스 537" transform="translate(-19.662 -20.348)" style="fill:#97c394"/>
        </g>
    </g>
</svg>
