<svg xmlns="http://www.w3.org/2000/svg" width="360" height="208.275" viewBox="0 0 360 208.275">
    <defs>
        <clipPath id="clip-path">
            <path id="패스_700" d="M4677.379 7528.854c0 1.887.074 4.842.074 4.842-3.918 10.331-19.756 18.649-37.348 18.649-20.586 0-37.275-10.517-37.275-23.491s16.689-23.492 37.275-23.492 37.274 10.518 37.274 23.492z" class="cls-1" transform="translate(-4602.83 -7505.362)"/>
        </clipPath>
        <style>
            .cls-1{fill:none}.cls-5{fill:#ff8b8b}.cls-6{fill:#f5dd7c}.cls-7{fill:#41e8af}.cls-8{fill:#72b2fb}.cls-9{fill:#ffa033}.cls-10{fill:#f6b7af}.cls-11{fill:#272725}.cls-14{fill:#eb666f}.cls-15{fill:#191919}.cls-18{fill:#30000a}.cls-19{fill:#b28956}.cls-20{fill:#f0a804}.cls-21{fill:#ffc819}.cls-23{fill:#b9711b}.cls-27{fill:#dd9912}.cls-28{fill:#ffecb2}.cls-30{fill:#fff2cc}
        </style>
    </defs>
    <g id="dd_join_fin_img" transform="translate(37.778 -216.064)">
        <path id="사각형_505" d="M0 0H360V208.08H0z" class="cls-1" transform="translate(-37.778 216.259)"/>
        <ellipse id="타원_115" cx="121.221" cy="48.679" fill="#d1f5ff" rx="121.221" ry="48.679" transform="translate(21.001 326.98)"/>
        <ellipse id="타원_116" cx="41.043" cy="27.68" fill="#99cbd8" rx="41.043" ry="27.68" transform="translate(103.088 340.343)"/>
        <path id="패스_340" fill="#f39fda" d="M2182.932 250.055L2188 247v3.055l-2.732 3.055z" transform="translate(-2090.424 41.458)"/>
        <path id="패스_341" d="M2364.917 251.539L2363.5 247h3.77v3.351z" class="cls-5" transform="translate(-2159.545 -3.947)"/>
        <path id="패스_349" d="M1.283 4.111L0 0h3.415v3.035z" class="cls-5" transform="rotate(-58 321.682 76.282)"/>
        <path id="패스_354" d="M1.181 3.783L0 0h3.142v2.793z" class="cls-5" transform="rotate(-58 348.453 -61.37)"/>
        <path id="패스_346" d="M1.54 4.934L0 0h4.1v3.643z" class="cls-6" transform="rotate(-69 246.17 101.416)"/>
        <path id="패스_347" d="M1.417 4.539L0 0h3.77v3.351z" class="cls-6" transform="rotate(-69 289.488 4.148)"/>
        <path id="패스_355" d="M1.54 4.934L0 0h4.1v3.643z" class="cls-6" transform="rotate(-69 227.858 120.15)"/>
        <path id="패스_342" d="M2201 201.687l4.1 2.277V198.5z" class="cls-7" transform="translate(-2124.991 76.049)"/>
        <path id="패스_721" d="M2201 201.432l3.77 2.095V198.5z" class="cls-7" transform="translate(-1974.753 73.753)"/>
        <path id="패스_348" d="M0 2.03l2.61 1.45V0z" class="cls-7" transform="rotate(-69 302.12 5.627)"/>
        <path id="패스_351" d="M0 2.206l2.836 1.576V0z" class="cls-7" transform="rotate(-69 229.786 88.52)"/>
        <path id="패스_343" d="M0 0v3.725l1.775-.8.792-1.767z" class="cls-8" transform="rotate(-20 957.786 -395.557)"/>
        <path id="패스_350" d="M0 0v3.725h2.566V1.158z" class="cls-8" transform="rotate(-25.97 684.808 -298.743)"/>
        <path id="패스_353" d="M0 0v6.334L2.577 5.1l.955-3.13z" class="cls-8" transform="rotate(-141 76.886 134.98)"/>
        <path id="패스_404" d="M0 0v3.738l1.521-.731.564-1.845z" class="cls-8" transform="rotate(-141 160.207 106.903)"/>
        <path id="패스_401" d="M0 0v4.562l1.856-.892.688-2.251z" class="cls-8" transform="rotate(135 -8.752 147.016)"/>
        <path id="패스_344" d="M0 0v3.725h2.566V1.158z" class="cls-9" transform="rotate(-79.98 241.406 12.182)"/>
        <path id="패스_722" d="M0 0v4.048h2.789V1.259z" class="cls-9" transform="rotate(-79.98 177.031 83.453)"/>
        <path id="패스_720" d="M0 0v3.725h2.566V1.158z" class="cls-9" transform="rotate(-159 112.204 135.709)"/>
        <path id="패스_352" d="M0 0v3.725h2.566V1.158z" class="cls-9" transform="rotate(-79.98 287.381 24.052)"/>
        <path id="패스_345" d="M0 0v4.048h2.79V1.259z" class="cls-9" transform="rotate(-143 76.326 148.712)"/>
        <path id="패스_403" d="M0 0v3.725h2.567V1.158z" class="cls-9" transform="rotate(-110 191.251 59.104)"/>
        <g id="그룹_95" transform="translate(43.568 321.81)">
            <path id="패스_356" d="M282.03 894.1l.06 10.507 2.053.181 2.113-10.929-3.744-.6z" class="cls-10" transform="translate(-265.015 -839.359)"/>
            <path id="패스_357" d="M458.18 890.793l3.14 11.352 2.234-.3-.906-11.593z" class="cls-10" transform="translate(-430.537 -836.54)"/>
            <path id="패스_358" d="M273.335 1080.575s1.812-.3 2.294.06 1.691 1.087 2.234 1.57.845.543-.423.966a6.719 6.719 0 0 1-3.14-.06c-.845-.06-1.389.121-1.509-.906a1.982 1.982 0 0 1 .544-1.63z" class="cls-11" transform="translate(-256.32 -1015.272)"/>
            <path id="패스_359" d="M510.159 1071.491s1.609-.885 2.185-.7 1.955.465 2.628.741.977.233-.079 1.052a6.727 6.727 0 0 1-2.983.983c-.818.223-1.271.574-1.724-.355a1.981 1.981 0 0 1-.027-1.721z" class="cls-11" transform="translate(-479.209 -1006.163)"/>
            <path id="패스_360" fill="#383838" d="M271.651 597.658l-.733 2.394-.1 25.163 3.616.391 3.86-20.228 5.766 19.837 3.762-.781-2.15-23.013-1.075-3.86z" transform="translate(-254.481 -561.509)"/>
            <path id="패스_361" d="M3.132 215.436S.442 213.8.084 214.2s1.545 2.56 1.545 2.56l-1.5-.526s-.36.089.133.542a9.637 9.637 0 0 0 2.383 1.011l1.128-1.3z" class="cls-10" transform="translate(-.002 -201.221)"/>
            <path id="패스_362" d="M591.76 2.9a15.137 15.137 0 0 1 2.285-2.427c.677-.37.93-.668 1.1-.3.107.234-.182.474-.479.781-.264.272-.535.628-.535.628s.379-.2.633.019.99 1.155.586 1.33-1.587.842-1.587.842z" class="cls-10" transform="translate(-556.058 -.006)"/>
            <path id="패스_363" fill="#4daae0" d="M35.629 54.5L52.7 58.265l4.136-1.689L68.269 42.7l2.2 1.137-8.892 16.174 1.6 16.729-14.692.291.175-12.968-14.14-7.625z" transform="translate(-32.437 -40.124)"/>
            <path id="패스_364" d="M345.861 265.694l-.291 2.328s1.018.582 1.6.291l.582-.291-.145-3.491z" class="cls-10" transform="translate(-324.721 -248.571)"/>
            <path id="패스_365" d="M319.28 154.109c-.494-.668-.716-2.051-1.608-2.083-.179-.077-.563.536-.744.465a1.587 1.587 0 0 0-1.215.159c-.215.126-.545-.322-.688-.089-.045.037-.116.138-.005.77.076.434-.419.677-.462 1.115v.036c0 .012-.027.044-.039.068a4.676 4.676 0 0 0-.4 3.015 3.059 3.059 0 0 0 2.165 2.4 3.167 3.167 0 0 0 2.065-.244 4.9 4.9 0 0 0 1.839-1.984 4.549 4.549 0 0 0-.908-3.628z" class="cls-10" transform="translate(-295.08 -142.849)"/>
            <g id="그룹_73" transform="translate(20.896 12.756)">
                <g id="그룹_72">
                    <path id="패스_366" d="M346.672 212.071a.326.326 0 0 0 .223-.092.316.316 0 0 0-.223-.539.325.325 0 0 0-.223.092.316.316 0 0 0 .223.539z" transform="translate(-346.356 -211.44)"/>
                </g>
            </g>
            <g id="그룹_75" transform="translate(23.281 11.82)">
                <g id="그룹_74">
                    <path id="패스_367" d="M386.2 196.561a.325.325 0 0 0 .223-.092.316.316 0 0 0-.223-.539.325.325 0 0 0-.223.092.316.316 0 0 0 .223.539z" transform="translate(-385.886 -195.93)"/>
                </g>
            </g>
            <g id="그룹_77" transform="translate(21.678 14.227)">
                <g id="그룹_76">
                    <path id="패스_368" d="M359.363 236.645a2.64 2.64 0 0 0 .99.157 1.165 1.165 0 0 0 .822-.362 1.262 1.262 0 0 0 .265-.534.063.063 0 0 0-.122-.034 1.163 1.163 0 0 1-.2.442.905.905 0 0 1-.327.258 1.514 1.514 0 0 1-.858.083 3.214 3.214 0 0 1-.535-.132c-.077-.026-.11.1-.033.121z" transform="translate(-359.319 -235.828)"/>
                </g>
            </g>
            <g id="그룹_79" transform="translate(20.156 11.944)">
                <g id="그룹_78">
                    <path id="패스_369" d="M334.274 198.542v-.018c0 .009 0 .01 0 0l.005-.03a.458.458 0 0 1 .013-.049c0-.008.005-.016.008-.023s-.006.011 0-.007.015-.031.024-.045l.015-.023s.018-.022 0-.005a.425.425 0 0 1 .031-.034l.037-.033.013-.009.019-.013a.385.385 0 0 1 .04-.023l.021-.01.015-.007c.032-.01.063-.022.1-.03l.053-.01h.042a.859.859 0 0 1 .111 0 .1.1 0 0 0 .095-.095.1.1 0 0 0-.095-.095.766.766 0 0 0-.477.114.575.575 0 0 0-.249.44.1.1 0 0 0 .095.095.1.1 0 0 0 .093-.095z" transform="translate(-334.086 -197.986)"/>
                </g>
            </g>
            <g id="그룹_81" transform="translate(22.772 10.828)">
                <g id="그룹_80">
                    <path id="패스_370" d="M378.193 179.554a.538.538 0 0 0-.727.174.095.095 0 1 0 .163.1l.022-.033c-.012.018 0 0 0 0l.01-.011a.35.35 0 0 1 .031-.029s.018-.014 0 0l.016-.011a.74.74 0 0 1 .068-.037c.01-.005-.014 0 0 0l.022-.008.037-.01.038-.007c-.013 0-.008 0 0 0h.077c.01 0 .014 0 0 0a.441.441 0 0 1 .078.019s.021.008 0 0l.017.008.037.021a.1.1 0 0 0 .13-.034.1.1 0 0 0-.034-.131z" transform="translate(-377.454 -179.479)"/>
                </g>
            </g>
            <g id="그룹_83" transform="translate(20.506 14.152)">
                <g id="그룹_82">
                    <path id="패스_371" d="M340.229 235.226l.425-.24a.228.228 0 0 0 .1-.132.221.221 0 0 0-.154-.271.231.231 0 0 0-.17.022l-.425.24a.228.228 0 0 0-.1.132.221.221 0 0 0 .154.271.237.237 0 0 0 .17-.022z" class="cls-14" transform="translate(-339.898 -234.577)"/>
                </g>
            </g>
            <g id="그룹_85" transform="translate(24.102 12.703)">
                <g id="그룹_84">
                    <path id="패스_372" d="M399.779 211.057l.272-.151a.193.193 0 0 0 .087-.113.146.146 0 0 0 0-.075.141.141 0 0 0-.022-.071.189.189 0 0 0-.113-.087.2.2 0 0 0-.146.019l-.271.151a.193.193 0 0 0-.087.113.146.146 0 0 0 0 .075.142.142 0 0 0 .022.071.19.19 0 0 0 .113.087.2.2 0 0 0 .146-.019z" class="cls-14" transform="translate(-399.495 -210.555)"/>
                </g>
            </g>
            <path id="패스_373" d="M286.223 110.532a1.622 1.622 0 0 0-.862-.608 1.2 1.2 0 0 0-.664.009.864.864 0 0 0-.384.337c-.188.249-.44.489-.658.761a7.023 7.023 0 0 1-.786.9 17.785 17.785 0 0 0-1.763 1.4 3.26 3.26 0 0 0-.773 2.009 5.268 5.268 0 0 0 2.427 4.252c.215.163.457-.067.48-.275.081-.742-.629-1.408-.748-2.138-.109-.665.373-1.426.542-2.087.036-.037.071-.074.1-.112.086-.1.131-.214.2-.289a1.611 1.611 0 0 1 .579-.4c.446-.205 1.021-.319 1.509-.513a1.884 1.884 0 0 0 .8-3.237z" class="cls-15" transform="translate(-263.416 -103.253)"/>
            <g id="그룹_86" transform="translate(18.348 13.844)">
                <path id="패스_374" d="M305.148 229.747a2.768 2.768 0 0 0-.739-.259.216.216 0 0 0-.145.007.209.209 0 0 0-.085.135 1.488 1.488 0 0 0 .708 1.672.3.3 0 0 0 .281.033.29.29 0 0 0 .1-.13 1.342 1.342 0 0 0-.03-1.21z" class="cls-10" transform="translate(-304.128 -229.479)"/>
            </g>
            <g id="그룹_88" transform="translate(22.467 11.561)">
                <g id="그룹_87">
                    <path id="패스_375" d="M372.421 191.678a1.443 1.443 0 0 0 .265 1.111c.054.084.113.165.175.244s.126.15.186.227a.509.509 0 0 1 .114.241.4.4 0 0 1-.042.235.4.4 0 0 1-.47.189c-.078-.024-.111.1-.034.122a.517.517 0 0 0 .654-.64.785.785 0 0 0-.155-.264c-.065-.08-.132-.157-.194-.24a2.331 2.331 0 0 1-.315-.539 1.088 1.088 0 0 1-.063-.655c.018-.078-.1-.112-.122-.033z" transform="translate(-372.391 -191.633)"/>
                </g>
            </g>
            <g id="그룹_90" transform="translate(16.392 11.08)">
                <g id="그룹_89">
                    <path id="패스_376" d="M272.521 183.671a1.443 1.443 0 0 0-.732.122.193.193 0 0 0-.088.115.192.192 0 0 0 .134.235.222.222 0 0 0 .147-.019l.021-.009-.046.019a1.268 1.268 0 0 1 .307-.084l-.051.007a1.276 1.276 0 0 1 .307 0 .189.189 0 0 0 .135-.056.191.191 0 0 0 0-.27.219.219 0 0 0-.135-.055z" class="cls-15" transform="translate(-271.694 -183.663)"/>
                </g>
            </g>
            <g id="그룹_92" transform="translate(16.638 10.353)">
                <g id="그룹_91">
                    <path id="패스_377" d="M276.307 172.493a1.427 1.427 0 0 0-.172-.781.193.193 0 0 0-.262-.069.2.2 0 0 0-.069.262l.025.048c.005.011.013.043.023.049s-.015-.039-.005-.013l.011.028.018.051a1.271 1.271 0 0 1 .048.211c0-.017 0-.034-.007-.051a1.289 1.289 0 0 1 .008.264.192.192 0 0 0 .191.191.2.2 0 0 0 .191-.191z" class="cls-15" transform="translate(-275.779 -171.616)"/>
                </g>
            </g>
            <g id="그룹_94" transform="translate(19.234 15.665)">
                <g id="그룹_93">
                    <path id="패스_378" d="M318.852 260.131l.375.6a.334.334 0 0 0 .191.147.326.326 0 0 0 .246-.032.319.319 0 0 0 .115-.436l-.375-.6a.333.333 0 0 0-.191-.147.319.319 0 0 0-.36.468z" class="cls-15" transform="translate(-318.81 -259.652)"/>
                </g>
            </g>
        </g>
        <g id="그룹_116" transform="translate(202.435 322.813)">
            <path id="패스_379" d="M304.981 818.384L304.92 829l-2.075.183-2.135-11.043 3.783-.61z" class="cls-10" transform="translate(-282.377 -767.689)"/>
            <path id="패스_380" d="M110.971 815.079L107.8 826.55l-2.258-.3.915-11.715z" class="cls-10" transform="translate(-99.106 -764.872)"/>
            <path id="패스_381" fill="#603538" d="M104.082 497.382l1.911 18.08-2.793.588-.148.735-3.381.735h-2.94l-2.5.441-2.646-.882h-2.791l-.294-.588-1.991-.542 3.9-18.861 11.76-2.058z" transform="translate(-81.236 -464.85)"/>
            <path id="패스_382" d="M608.408 148.7s2.49-1.983 2.9-1.62-1.225 2.762-1.225 2.762l1.439-.716s.371.043-.065.561A9.723 9.723 0 0 1 609.2 151l-1.3-1.161z" class="cls-10" transform="translate(-570.839 -138.067)"/>
            <path id="패스_383" d="M3.123 2.3S1.351-.235.887.014s.424 2.977.424 2.977L.181 1.94s-.35-.05-.081.56a9.236 9.236 0 0 0 1.73 1.834l1.47-.8z" class="cls-10" transform="translate(.002 .003)"/>
            <path id="패스_384" fill="#ee8bb6" d="M56.822 57.365l-17.934 2.852-3.92-1.031L23.06 49.52l-2.22 1.149 9.081 11.312L28.3 78.886l14.847.294-.758-12.569 15.97-7.145z" transform="translate(-19.569 -46.501)"/>
            <path id="패스_385" d="M272.981 189.986l.294 2.352s-1.029.588-1.617.294l-.588-.294.147-3.528z" class="cls-10" transform="translate(-254.544 -177.299)"/>
            <path id="패스_386" d="M235.727 85.27c.418-.729-.059-1.639.842-1.671.181-.077 1.278-.4 1.461-.476a1.6 1.6 0 0 1 1.228.16c.218.127.551-.326.695-.09.046.037.117.139.005.778-.077.439.424.684.466 1.127v.036c0 .012.027.045.039.068.471.968 1.544 1.9 1.337 2.962-.217 1.105-1.993 2.247-3.121 2.507a3.2 3.2 0 0 1-2.086-.247 4.955 4.955 0 0 1-1.858-2.005c-.4-1.467.25-1.854.992-3.149z" class="cls-10" transform="translate(-220.311 -77.995)"/>
            <path id="패스_387" d="M256.69 53.474a3.734 3.734 0 0 0 1.342-.386 7.127 7.127 0 0 1 1.195-.518 3.686 3.686 0 0 0 .319 1.553c.3.641.987 1.244 1.108 1.632a2.192 2.192 0 0 0 .526.878c.289.251.679.284.757.478.293.73.075 1.732-.518 1.952a17.321 17.321 0 0 0-1.952 1.195s-.1.139.053.4a4.317 4.317 0 0 0 .6.618c.533.511 1.247.842 1.42 1.534.294 1.176 2.354 4.446 4.265 4.3s2.529-.769 2.644-2.976c.065-1.247-.588-1.176-1.617-3.528s.735-2.5-1.029-3.969-.249-2.289-1.572-3.906-2.2-1.806-4.147-2.041c-2.584-.311-3.394 2.784-3.394 2.784z" class="cls-18" transform="translate(-241.041 -47.579)"/>
            <path id="패스_388" d="M292.991 1004.856s-1.831-.3-2.319.061-1.708 1.1-2.257 1.586-.854.549.427.976a6.789 6.789 0 0 0 3.173-.061c.854-.061 1.4.122 1.525-.915a2 2 0 0 0-.549-1.647z" class="cls-19" transform="translate(-270.386 -943.483)"/>
            <path id="패스_389" d="M55.364 995.779s-1.626-.894-2.208-.711-1.976.47-2.656.749-.988.235.08 1.063a6.8 6.8 0 0 0 3.014.994c.826.226 1.284.58 1.742-.358a2 2 0 0 0 .028-1.737z" class="cls-19" transform="translate(-46.841 -934.38)"/>
            <g id="그룹_97" transform="translate(18.044 8.274)">
                <g id="그룹_96">
                    <path id="패스_390" d="M296.3 136.358a.329.329 0 0 0 .226-.093.319.319 0 0 0-.226-.544.329.329 0 0 0-.226.093.319.319 0 0 0 .226.544z" transform="translate(-295.976 -135.72)"/>
                </g>
            </g>
            <g id="그룹_99" transform="translate(15.634 7.329)">
                <g id="그룹_98">
                    <path id="패스_391" d="M256.755 120.848a.329.329 0 0 0 .226-.093.319.319 0 0 0-.226-.544.329.329 0 0 0-.226.093.319.319 0 0 0 .226.544z" transform="translate(-256.436 -120.21)"/>
                </g>
            </g>
            <g id="그룹_101" transform="translate(15.746 9.762)">
                <g id="그룹_100">
                    <path id="패스_392" d="M259.827 160.625a1.266 1.266 0 0 1-.305.187.938.938 0 0 1-.347.1.679.679 0 0 1-.36-.093.76.76 0 0 1-.164-.109.586.586 0 0 1-.109-.141 1.586 1.586 0 0 1-.141-.408c-.02-.08-.143-.046-.123.034a1.852 1.852 0 0 0 .136.4.733.733 0 0 0 .293.305.876.876 0 0 0 .409.135.957.957 0 0 0 .413-.091 1.434 1.434 0 0 0 .388-.232c.062-.055-.028-.144-.09-.091z" transform="translate(-258.276 -160.114)"/>
                </g>
            </g>
            <g id="그룹_103" transform="translate(18.602 7.455)">
                <g id="그룹_102">
                    <path id="패스_393" d="M305.7 122.555a.509.509 0 0 0-.473-.269.1.1 0 0 0 0 .191.455.455 0 0 1 .057 0H305.293l.028.005a.4.4 0 0 1 .052.016c.015.006 0 0 0 0a.05.05 0 0 0 .013.006l.026.013.022.013a.182.182 0 0 0 .023.016c-.016-.006-.012-.009 0 0l.011.009.021.02.02.021.007.009c-.018-.018-.005-.007 0 0a.39.39 0 0 1 .029.049.1.1 0 1 0 .165-.1z" transform="translate(-305.129 -122.285)"/>
                </g>
            </g>
            <g id="그룹_105" transform="translate(15.98 6.512)">
                <g id="그룹_104">
                    <path id="패스_394" d="M262.687 106.913a.779.779 0 0 0-.5-.1.1.1 0 0 0-.057.044.1.1 0 0 0 .034.131.114.114 0 0 0 .074.01h.037a.544.544 0 0 1 .055 0h.051c.023 0-.016 0 0 0l.029.005a.669.669 0 0 1 .1.028s.035.012.011 0l.02.009.052.027a.1.1 0 0 0 .131-.034.1.1 0 0 0-.035-.132z" transform="translate(-262.114 -106.81)"/>
                </g>
            </g>
            <g id="그룹_107" transform="translate(18.234 9.715)">
                <g id="그룹_106">
                    <path id="패스_395" d="M299.853 159.507l-.52-.148a.191.191 0 0 0-.1.369l.52.148a.191.191 0 0 0 .1-.369z" class="cls-14" transform="translate(-299.092 -159.352)"/>
                </g>
            </g>
            <g id="그룹_109" transform="translate(14.786 8.22)">
                <g id="그룹_108">
                    <path id="패스_396" d="M243.085 135l-.274-.152a.2.2 0 0 0-.148-.02.192.192 0 0 0-.114.088.191.191 0 0 0 .068.262l.274.152a.2.2 0 0 0 .148.019.192.192 0 0 0 .114-.088.191.191 0 0 0-.068-.262z" class="cls-14" transform="translate(-242.522 -134.826)"/>
                </g>
            </g>
            <g id="그룹_111" transform="translate(15.671 4.782)">
                <g id="그룹_110">
                    <path id="패스_397" d="M259.6 78.49a2.191 2.191 0 0 1-.383.5.977.977 0 0 1-.533.207c-.333.051-.668.1-1 .132a3.191 3.191 0 0 1-.506.022c-.166-.01-.165.248 0 .258a5.487 5.487 0 0 0 1.061-.088c.168-.023.337-.048.5-.073a1.221 1.221 0 0 0 .6-.225 2.232 2.232 0 0 0 .485-.6c.088-.141-.134-.271-.223-.13z" class="cls-18" transform="translate(-257.054 -78.429)"/>
                </g>
            </g>
            <g id="그룹_113" transform="translate(25.296 10.525)">
                <g id="그룹_112">
                    <path id="패스_398" d="M414.927 172.754a4.962 4.962 0 0 0 .479 1.906c.141.3.33.564.482.855a1.987 1.987 0 0 1 .218.922 4.442 4.442 0 0 1-.165 1.1.129.129 0 0 0 .249.068 3.275 3.275 0 0 0 .035-1.97 7.443 7.443 0 0 0-.478-.877 4.645 4.645 0 0 1-.563-2.007c-.007-.165-.265-.166-.257 0z" class="cls-18" transform="translate(-414.927 -172.63)"/>
                </g>
            </g>
            <g id="그룹_115" transform="translate(16.189 7.719)">
                <g id="그룹_114">
                    <path id="패스_399" d="M266.357 126.647a6.1 6.1 0 0 1-.5.777c-.091.121-.189.235-.287.35a.114.114 0 0 0-.034.1.147.147 0 0 0 .068.082 1.856 1.856 0 0 0 .182.122 1.94 1.94 0 0 0 .468.2.064.064 0 0 0 .034-.123 1.788 1.788 0 0 1-.374-.146 1.854 1.854 0 0 1-.176-.107l-.038-.027c-.009-.006-.027-.026-.037-.028h-.005v.029a.166.166 0 0 0 .018-.021l.036-.041a6.165 6.165 0 0 0 .5-.675q.131-.2.245-.415c.039-.072-.071-.137-.11-.065z" transform="translate(-265.536 -126.615)"/>
                </g>
            </g>
        </g>
        <path id="패스_402" d="M2201 201.432l3.77 2.095V198.5z" class="cls-7" transform="translate(-1967.983 106.538)"/>
        <g id="그룹_722" transform="translate(99.94 305.974)">
            <g id="그룹_709" transform="translate(2.793 38.054)">
                <ellipse id="타원_97" cx="38.55" cy="24.296" class="cls-20" rx="38.55" ry="24.296"/>
                <path id="사각형_229" d="M0 0H77.1V10.258H0z" class="cls-20" transform="translate(0 15.416)"/>
            </g>
            <ellipse id="타원_98" cx="38.55" cy="24.296" class="cls-20" rx="38.55" ry="24.296" transform="translate(2.793 29.174)"/>
            <ellipse id="타원_99" cx="37.7" cy="23.76" class="cls-21" rx="37.7" ry="23.76" transform="translate(3.643 29.71)"/>
            <g id="그룹_712" opacity="0.75" transform="translate(2.91 26.974)">
                <g id="그룹_711">
                    <g id="그룹_710">
                        <ellipse id="타원_100" cx="37.274" cy="23.492" class="cls-23" rx="37.274" ry="23.492"/>
                    </g>
                    <path id="패스_699" fill="#bc811b" d="M4684.5 7573.651h-74.549v-9.919l70.7.458z" transform="translate(-4609.947 -7548.826)"/>
                </g>
            </g>
            <g id="그룹_713" transform="translate(0 26.597)">
                <ellipse id="타원_101" cx="37.274" cy="23.492" class="cls-20" rx="37.274" ry="23.492"/>
                <path id="사각형_230" d="M0 0H74.548V9.919H0z" class="cls-20" transform="translate(0 14.906)"/>
            </g>
            <ellipse id="타원_102" cx="37.274" cy="23.492" class="cls-20" rx="37.274" ry="23.492" transform="translate(0 18.011)"/>
            <ellipse id="타원_103" cx="36.527" cy="23.021" class="cls-21" rx="36.527" ry="23.021" transform="translate(.748 18.482)"/>
            <g id="그룹_715" opacity="0.8" transform="translate(0 18.011)">
                <g id="그룹_714" clip-path="url(#clip-path)">
                    <ellipse id="타원_104" cx="36.527" cy="23.021" class="cls-23" rx="36.527" ry="23.021" transform="translate(5.417 -7.157)"/>
                </g>
            </g>
            <g id="그룹_721" transform="translate(4.385)">
                <g id="그룹_716" transform="translate(0 8.586)">
                    <ellipse id="타원_105" cx="37.274" cy="23.492" class="cls-20" rx="37.274" ry="23.492"/>
                    <path id="사각형_231" d="M0 0H74.548V9.919H0z" class="cls-20" transform="translate(0 14.906)"/>
                </g>
                <ellipse id="타원_106" cx="37.274" cy="23.492" class="cls-20" rx="37.274" ry="23.492"/>
                <ellipse id="타원_107" cx="36.26" cy="22.853" class="cls-21" rx="36.26" ry="22.853" transform="translate(1.015 .639)"/>
                <g id="그룹_718" transform="translate(13.801 8.875)">
                    <g id="그룹_717">
                        <path id="패스_701" d="M4671.5 7521.062a3.015 3.015 0 0 0-3.146.776c-.646.807-.284 1.768.808 2.146a3.016 3.016 0 0 0 3.145-.777c.643-.807.281-1.768-.807-2.145z" class="cls-27" transform="translate(-4659.554 -7505.416)"/>
                        <ellipse id="타원_108" cx="2.306" cy="1.599" class="cls-27" rx="2.306" ry="1.599" transform="rotate(-7.459 182.551 -191.11)"/>
                        <path id="패스_702" d="M4659.31 7489.7a2.332 2.332 0 0 0-2.433.6l-2.329 2.912c-.5.624-.22 1.368.624 1.66a2.333 2.333 0 0 0 2.433-.6l2.331-2.912c.498-.629.219-1.371-.626-1.66z" class="cls-27" transform="translate(-4651.438 -7486.897)"/>
                        <path id="패스_703" d="M4758.455 7524.036a2.333 2.333 0 0 0-2.433.6l-2.33 2.913c-.5.624-.219 1.367.625 1.66a2.334 2.334 0 0 0 2.433-.6l2.33-2.912c.498-.626.22-1.369-.625-1.661z" class="cls-27" transform="translate(-4710.038 -7507.194)"/>
                        <path id="패스_704" d="M4693.934 7494.043a5.709 5.709 0 0 0-3.051-3.3 8.77 8.77 0 0 0-1.086-.466l-.548-.191-.454-.156-1.307-.454-5.232-1.812-.054-.018-11.671-4.043c-4.188-1.451-9.611-.111-12.09 2.986l-10.924 13.656c-.435.543-.192 1.19.544 1.445a2.029 2.029 0 0 0 2.117-.524l5.343-6.679 29.137 10.092-5.344 6.679c-.435.543-.191 1.19.543 1.445a2.029 2.029 0 0 0 2.118-.523l10.924-13.655a5.446 5.446 0 0 0 1.143-2.4 4.313 4.313 0 0 0-.108-2.082zm-37-1.316l4.169-5.212c1.609-2.012 5.133-2.882 7.854-1.939l13.438 4.654.454.157 5.375 1.861a4.2 4.2 0 0 1 2.535 2.063 2.826 2.826 0 0 1 .214 1.725 3.5 3.5 0 0 1-.733 1.57l-4.17 5.212z" class="cls-27" transform="translate(-4647.301 -7483.022)"/>
                    </g>
                </g>
                <g id="그룹_720" transform="translate(13.325 8.253)">
                    <g id="그룹_719">
                        <path id="패스_705" d="M4670.333 7519.541a3.013 3.013 0 0 0-3.145.776c-.646.807-.284 1.767.808 2.146a3.017 3.017 0 0 0 3.145-.778c.646-.807.285-1.767-.808-2.144z" class="cls-28" transform="translate(-4658.391 -7503.895)"/>
                        <ellipse id="타원_109" cx="2.306" cy="1.599" class="cls-28" rx="2.306" ry="1.599" transform="rotate(-7.459 182.551 -191.11)"/>
                        <path id="패스_706" d="M4658.148 7488.175a2.334 2.334 0 0 0-2.433.6l-2.329 2.912c-.5.624-.221 1.367.624 1.66a2.332 2.332 0 0 0 2.433-.6l2.33-2.912c.499-.623.22-1.367-.625-1.66z" class="cls-28" transform="translate(-4650.275 -7485.376)"/>
                        <path id="패스_707" d="M4757.292 7522.516a2.331 2.331 0 0 0-2.434.6l-2.329 2.912c-.5.624-.22 1.367.624 1.66a2.336 2.336 0 0 0 2.434-.6l2.33-2.912c.499-.625.219-1.368-.625-1.66z" class="cls-28" transform="translate(-4708.875 -7505.674)"/>
                        <path id="패스_708" d="M4692.772 7492.521a5.71 5.71 0 0 0-3.051-3.294 9 9 0 0 0-1.086-.467l-.548-.189-.454-.159-1.306-.453-5.232-1.811-.055-.02-11.671-4.042c-4.188-1.45-9.611-.112-12.088 2.986l-10.925 13.655c-.435.544-.191 1.191.544 1.445a2.03 2.03 0 0 0 2.118-.522l5.343-6.681 29.135 10.092-5.343 6.68c-.435.543-.191 1.19.544 1.445a2.029 2.029 0 0 0 2.117-.523l10.925-13.657a5.445 5.445 0 0 0 1.144-2.4 4.326 4.326 0 0 0-.111-2.085zm-37-1.314l4.169-5.212c1.61-2.013 5.133-2.882 7.854-1.94l13.438 4.654.453.157 5.374 1.861a4.2 4.2 0 0 1 2.535 2.064 2.822 2.822 0 0 1 .214 1.725 3.489 3.489 0 0 1-.734 1.57l-4.169 5.211z" class="cls-28" transform="translate(-4646.139 -7481.502)"/>
                    </g>
                </g>
            </g>
            <path id="패스_709" fill="#fff" d="M4616.034 7485.736a16.074 16.074 0 0 1 3.287-9.521c5.729-7.867 18.338-13.332 32.973-13.332 12.316 0 23.2 3.87 29.751 9.786 4.102 3.704-66.011 25.688-66.011 13.067z" opacity="0.33" transform="translate(-4610.634 -7462.244)"/>
        </g>
        <g id="그룹_728" transform="translate(89.016 216.064)">
            <g id="그룹_723" transform="translate(5.714 7.267)">
                <ellipse id="타원_110" cx="39.721" cy="25.187" class="cls-20" rx="39.721" ry="25.187" transform="rotate(-44.951 67.832 28.063)"/>
                <path id="패스_710" d="M4678.1 7278.859l-58.736 53.29-6.6-8.394 58.735-53.292z" class="cls-20" transform="translate(-4601.936 -7258.487)"/>
            </g>
            <ellipse id="타원_111" cx="39.721" cy="25.187" class="cls-20" rx="39.721" ry="25.187" transform="rotate(-44.951 67.832 28.063)"/>
            <ellipse id="타원_112" cx="38.64" cy="24.501" class="cls-21" rx="38.64" ry="24.501" transform="rotate(-44.951 68.12 26.413)"/>
            <g id="그룹_725" transform="translate(24.231 25.451)">
                <g id="그룹_724">
                    <path id="패스_711" d="M4657.305 7350.382a3.335 3.335 0 0 0-1.961 2.906 1.361 1.361 0 0 0 2.064 1.238 3.334 3.334 0 0 0 1.961-2.9 1.361 1.361 0 0 0-2.064-1.244z" class="cls-27" transform="translate(-4644.031 -7320.832)"/>
                    <ellipse id="타원_113" cx="2.482" cy="1.698" class="cls-27" rx="2.482" ry="1.698" transform="rotate(-53.296 39.33 -16.295)"/>
                    <path id="패스_712" d="M4631.515 7332.586a2.578 2.578 0 0 0-1.517 2.248l.1 4.129a1.053 1.053 0 0 0 1.6.959 2.581 2.581 0 0 0 1.517-2.248l-.1-4.129a1.053 1.053 0 0 0-1.6-.959z" class="cls-27" transform="translate(-4629.998 -7310.999)"/>
                    <path id="패스_713" d="M4724.027 7294.278a2.578 2.578 0 0 0-1.517 2.248l.1 4.129a1.054 1.054 0 0 0 1.6.959 2.58 2.58 0 0 0 1.517-2.248l-.1-4.129a1.053 1.053 0 0 0-1.6-.959z" class="cls-27" transform="translate(-4681.22 -7289.788)"/>
                    <path id="패스_714" d="M4673.237 7285.21a5.542 5.542 0 0 0-4.6-.606 8.534 8.534 0 0 0-1.167.381l-.558.231-.462.191-1.331.551-5.328 2.207-.056.022-11.886 4.921c-4.265 1.767-7.646 6.777-7.538 11.169l.481 19.368a.916.916 0 0 0 1.389.833 2.244 2.244 0 0 0 1.321-1.956l-.235-9.474 29.671-12.286.235 9.472a.916.916 0 0 0 1.39.834 2.243 2.243 0 0 0 1.321-1.956l-.48-19.367a6.385 6.385 0 0 0-.695-2.847 4.688 4.688 0 0 0-1.472-1.688zm-30.028 25.338l-.183-7.392a8.337 8.337 0 0 1 4.9-7.256l13.686-5.667.461-.191 5.473-2.267a4.059 4.059 0 0 1 3.372-.065 3.01 3.01 0 0 1 1.317 1.307 4.1 4.1 0 0 1 .466 1.852l.184 7.392z" class="cls-27" transform="translate(-4635.709 -7284.374)"/>
                </g>
            </g>
            <g id="그룹_727" transform="translate(23.443 25.265)">
                <g id="그룹_726">
                    <path id="패스_715" d="M4655.539 7349.964a3.335 3.335 0 0 0-1.961 2.906 1.362 1.362 0 0 0 2.065 1.239 3.337 3.337 0 0 0 1.961-2.905 1.362 1.362 0 0 0-2.065-1.24z" class="cls-30" transform="translate(-4642.264 -7320.413)"/>
                    <ellipse id="타원_114" cx="2.482" cy="1.698" class="cls-30" rx="2.482" ry="1.698" transform="rotate(-53.296 39.33 -16.295)"/>
                    <path id="패스_716" d="M4629.749 7332.168a2.58 2.58 0 0 0-1.517 2.249l.1 4.129a1.053 1.053 0 0 0 1.6.958 2.578 2.578 0 0 0 1.517-2.249l-.1-4.129a1.053 1.053 0 0 0-1.6-.958z" class="cls-30" transform="translate(-4628.231 -7310.581)"/>
                    <path id="패스_717" d="M4722.261 7293.859a2.579 2.579 0 0 0-1.518 2.248l.1 4.129a1.053 1.053 0 0 0 1.6.959 2.582 2.582 0 0 0 1.518-2.248l-.1-4.13a1.053 1.053 0 0 0-1.6-.958z" class="cls-30" transform="translate(-4679.453 -7289.37)"/>
                    <path id="패스_718" d="M4671.47 7284.792a5.539 5.539 0 0 0-4.6-.606 8.608 8.608 0 0 0-1.166.381l-.559.231-.462.191-1.331.551-5.328 2.207-.057.022-11.884 4.922c-4.266 1.766-7.648 6.777-7.539 11.169l.48 19.367a.917.917 0 0 0 1.39.834 2.245 2.245 0 0 0 1.321-1.957l-.235-9.473 29.672-12.287.235 9.473a.916.916 0 0 0 1.39.834 2.246 2.246 0 0 0 1.321-1.956l-.481-19.367a6.38 6.38 0 0 0-.7-2.846 4.669 4.669 0 0 0-1.467-1.69zm-30.028 25.337l-.183-7.391a8.339 8.339 0 0 1 4.9-7.257l13.685-5.667.462-.192 5.472-2.266a4.055 4.055 0 0 1 3.371-.065 3 3 0 0 1 1.317 1.306 4.087 4.087 0 0 1 .466 1.853l.183 7.392z" class="cls-30" transform="translate(-4633.942 -7283.956)"/>
                </g>
            </g>
            <path id="패스_719" fill="#fff" d="M4666.97 7264.122c8.4 10.681-60.54 45.614-60.855 41.8-.892-10.809 5.418-24.639 17.079-35.22 10.528-9.55 22.756-14.04 32.224-12.8a17.052 17.052 0 0 1 11.552 6.22z" opacity="0.37" transform="translate(-4592.496 -7244.153)"/>
        </g>
    </g>
</svg>
