<svg xmlns="http://www.w3.org/2000/svg" width="40" height="40" viewBox="0 0 40 40">
    <defs>
        <style>
            .cls-1{fill:#2387ea}
        </style>
    </defs>
    <g id="dd_join_fin_icon_01" transform="translate(-55 -556.767)">
        <g id="그룹_817" transform="translate(59.734 561.201)">
            <path id="패스_726" d="M6361.308 6510.572h-3.608a.748.748 0 1 0 0 1.5h3.605a.748.748 0 0 0 0-1.5z" class="cls-1" transform="translate(-6349.757 -6482.973)"/>
            <path id="패스_727" fill="#414141" d="M6351.524 6390.206h-8.74v-5.284a3.457 3.457 0 0 0-3.454-3.453h-12.59a3.457 3.457 0 0 0-3.453 3.453v24.826a3.456 3.456 0 0 0 3.453 3.452h12.591a3.457 3.457 0 0 0 3.454-3.452v-4.314h8.74a2.763 2.763 0 0 0 2.76-2.76v-9.707a2.763 2.763 0 0 0-2.761-2.761zm-24.784-7.241h12.591a1.959 1.959 0 0 1 1.957 1.957v.739h-16.5v-.739a1.959 1.959 0 0 1 1.952-1.957zm12.591 28.738h-12.591a1.957 1.957 0 0 1-1.956-1.956v-1.541h16.5v1.541a1.958 1.958 0 0 1-1.953 1.953zm1.957-4.993h-16.5v-19.554h16.5v3.049h-6.545a2.763 2.763 0 0 0-2.759 2.76v9.707a2.763 2.763 0 0 0 2.759 2.76h6.545zm11.5-4.037a1.264 1.264 0 0 1-1.263 1.264h-16.782a1.265 1.265 0 0 1-1.263-1.264v-9.707a1.265 1.265 0 0 1 1.263-1.264h16.782a1.265 1.265 0 0 1 1.263 1.264z" transform="translate(-6323.288 -6381.469)"/>
            <path id="패스_728" d="M6389.8 6473.087h-1.537a.748.748 0 1 0 0 1.5h1.537a.748.748 0 1 0 0-1.5z" class="cls-1" transform="translate(-6373.786 -6453.501)"/>
            <path id="패스_729" d="M6407.894 6473.087h-1.538a.748.748 0 0 0 0 1.5h1.538a.748.748 0 1 0 0-1.5z" class="cls-1" transform="translate(-6388.01 -6453.501)"/>
            <path id="패스_730" d="M6425.989 6473.087h-1.538a.748.748 0 0 0 0 1.5h1.538a.748.748 0 0 0 0-1.5z" class="cls-1" transform="translate(-6402.236 -6453.501)"/>
            <path id="패스_731" d="M6444.08 6473.087h-1.537a.748.748 0 1 0 0 1.5h1.537a.748.748 0 1 0 0-1.5z" class="cls-1" transform="translate(-6416.46 -6453.501)"/>
        </g>
        <path id="사각형_511" fill="none" d="M0 0H40V40H0z" transform="translate(55 556.767)"/>
    </g>
</svg>
