<svg xmlns="http://www.w3.org/2000/svg" width="40" height="40" viewBox="0 0 40 40">
    <g>
        <g>
            <path fill="#414141" d="M6493.726 6288.153l-.759-16a3.34 3.34 0 0 0-3.452-3.18h-.978v-2.42a6.736 6.736 0 0 0-13.421 0v2.42h-.977a3.339 3.339 0 0 0-3.452 3.18l-.759 16v.039a3.337 3.337 0 0 0 3.452 3.2h16.9a3.337 3.337 0 0 0 3.453-3.2c-.006-.013-.007-.026-.007-.039zm-17-21.6a5.136 5.136 0 0 1 10.2 0v2.42h-10.2zm13.55 23.225h-16.9a1.736 1.736 0 0 1-1.843-1.573l.759-15.994v-.038a1.733 1.733 0 0 1 1.843-1.591h15.376a1.733 1.733 0 0 1 1.843 1.591v.038l.759 15.994a1.736 1.736 0 0 1-1.839 1.577z" transform="translate(-160 -559) translate(-6301.925 -5698.408)"/>
            <path fill="#2387ea" d="M6520.471 6309.909a.8.8 0 0 0 0 .639l2.75 6.264a.8.8 0 0 0 1.025.429l5.081-1.946a.805.805 0 0 0 .453-1.066l-2.546-5.989a.8.8 0 0 0-.374-.4l-3.454-1.769-.4-1.4h-1.674l.547 1.917zm2.618-2.045a.87.87 0 0 0 .161-.067l2.62 1.341 2.105 4.952-3.585 1.374-2.3-5.245z" transform="translate(-160 -559) translate(-6301.925 -5698.408) translate(-39.873 -34.085)"/>
        </g>
        <path fill="none" d="M0 0H40V40H0z" transform="translate(-160 -559) translate(160 559)"/>
    </g>
</svg>
