<svg xmlns="http://www.w3.org/2000/svg" width="40" height="40" viewBox="0 0 40 40">
    <g>
        <g>
            <g>
                <path fill="#2387ea" d="M7534.158 6503.687a.827.827 0 0 1-.827-.827v-12.977a.826.826 0 0 1 .827-.827h4.963a4.246 4.246 0 0 1 4.331 4.239 4.05 4.05 0 0 1-4.331 4.312h-2.334a.827.827 0 1 1 0-1.654h2.334a2.42 2.42 0 0 0 2.677-2.658 2.6 2.6 0 0 0-2.677-2.586h-4.136v12.15a.828.828 0 0 1-.827.828z" transform="translate(-262 -557) translate(265.81 562.714) translate(10.504 7.521) translate(-7533.331 -6489.056)"/>
            </g>
            <path fill="#414141" d="M7519.852 6465.589a.823.823 0 0 0-1.085.433l-1 2.328a14.655 14.655 0 1 0-1.057 9.979.827.827 0 1 0-1.486-.728 13.01 13.01 0 1 1 1.017-8.513l-2.335-1.971a.826.826 0 0 0-1.065 1.263l4.072 3.439a.822.822 0 0 0 .533.2.846.846 0 0 0 .19-.021.828.828 0 0 0 .569-.479l2.082-4.839a.828.828 0 0 0-.435-1.091z" transform="translate(-262 -557) translate(265.81 562.714) translate(-7488.875 -6457.224)"/>
        </g>
        <path fill="none" d="M0 0H40V40H0z" transform="translate(-262 -557) translate(262 557)"/>
    </g>
</svg>
