<svg xmlns="http://www.w3.org/2000/svg" width="60" height="37" viewBox="0 0 60 37">
    <defs>
        <style>
            .cls-1{fill:#17ac9d}.cls-2{fill:#00203b}
        </style>
    </defs>
    <g id="logo_pl" transform="translate(-40 -218)">
        <g id="payletter_logo" transform="translate(42 231)">
            <path id="패스_550" d="M23.845 39.739a2.959 2.959 0 0 1 3.2 3.131v1.365a2.818 2.818 0 0 1-2.933 3.048 3.446 3.446 0 0 1-1.244-.235v2.427c0 .166-.081.248-.23.248h-1.591a.217.217 0 0 1-.243-.248v-8.95a.244.244 0 0 1 .175-.262 8.659 8.659 0 0 1 2.866-.524m1.108 4.537v-1.448c0-.855-.419-1.213-1.149-1.213a2.767 2.767 0 0 0-.933.152v3.448a1.854 1.854 0 0 0 .946.235 1.024 1.024 0 0 0 1.135-1.172" class="cls-1" transform="translate(-20.804 -37.243)"/>
            <path id="패스_551" d="M76.292 39.74c1.865 0 2.96.993 2.96 3.089v3.779a.267.267 0 0 1-.2.276 10.067 10.067 0 0 1-2.784.4c-1.946 0-3.176-.745-3.176-2.372 0-1.434 1.108-2.151 2.946-2.151a9.372 9.372 0 0 1 1.149.083v-.138c0-.731-.257-1.131-1.135-1.131a3.874 3.874 0 0 0-1.69.386.215.215 0 0 1-.324-.083l-.557-1.078c-.068-.138-.068-.235.027-.3a5.209 5.209 0 0 1 2.784-.759m-.027 5.834a4.542 4.542 0 0 0 .919-.11v-1.216a5.132 5.132 0 0 0-.933-.082c-.743 0-1.068.248-1.068.69 0 .483.432.717 1.081.717" class="cls-1" transform="translate(-66.06 -37.244)"/>
            <path id="패스_552" d="M131.231 41.411a.219.219 0 0 1 .243-.235h1.595a.209.209 0 0 1 .23.235v6.247c0 2.4-.987 3.476-3.2 3.476a4.223 4.223 0 0 1-2.69-.759.214.214 0 0 1-.067-.331l.716-1.117a.21.21 0 0 1 .311-.082 3.185 3.185 0 0 0 1.635.469c.811 0 1.284-.317 1.271-1.338a4.428 4.428 0 0 1-1.23.193 2.748 2.748 0 0 1-2.879-2.951v-3.807a.219.219 0 0 1 .243-.235H129a.209.209 0 0 1 .23.235v3.765a1.025 1.025 0 0 0 1.122 1.172 2.028 2.028 0 0 0 .878-.193z" class="cls-1" transform="translate(-112.864 -38.487)"/>
            <path id="패스_553" d="M186.164 31.214a2.364 2.364 0 0 1-2.5-2.676v-7.116a.217.217 0 0 1 .243-.248h1.593c.148 0 .23.083.23.248v6.854c0 .69.27 1.007.8 1.007.135 0 .284 0 .419-.014a.212.212 0 0 1 .256.234v1.379c0 .124-.054.234-.149.248a4.917 4.917 0 0 1-.892.083" class="cls-2" transform="translate(-161.769 -21.174)"/>
            <path id="패스_554" d="M221.221 44a.213.213 0 0 1-.243.234h-3.825v.22c0 .7.446 1.062 1.162 1.062a3.271 3.271 0 0 0 1.716-.5.19.19 0 0 1 .311.055l.7.951a.235.235 0 0 1-.041.345 4.311 4.311 0 0 1-2.757.91c-1.757 0-3.176-.952-3.176-2.869v-1.732c0-2.054 1.419-2.937 3.135-2.937a2.721 2.721 0 0 1 3.014 2.937zm-3.027-2.51a.958.958 0 0 0-1.041 1.09v.289h2.081v-.289a.97.97 0 0 0-1.041-1.09" class="cls-2" transform="translate(-188.954 -37.243)"/>
            <path id="패스_555" d="M272.243 35.54c.121 0 .284-.014.432-.027.176-.028.257.041.257.207v1.352a.247.247 0 0 1-.189.275 4.95 4.95 0 0 1-.852.069 2.4 2.4 0 0 1-2.622-2.634v-6.193a.213.213 0 0 1 .243-.234h1.406a.215.215 0 0 1 .243.221l.162 1.655h1.217a.219.219 0 0 1 .243.234v1.324a.219.219 0 0 1-.243.234h-1.2v2.5c0 .676.311 1.021.906 1.021" class="cls-2" transform="translate(-235.865 -27.39)"/>
            <path id="패스_556" d="M306.043 35.54c.122 0 .284-.014.433-.027.176-.028.257.041.257.207v1.352a.247.247 0 0 1-.19.275 4.945 4.945 0 0 1-.851.069 2.4 2.4 0 0 1-2.623-2.634v-6.193a.213.213 0 0 1 .243-.234h1.406a.215.215 0 0 1 .243.221l.162 1.655h1.216a.219.219 0 0 1 .243.234v1.324a.219.219 0 0 1-.243.234h-1.2v2.5c0 .676.311 1.021.905 1.021" class="cls-2" transform="translate(-265.121 -27.39)"/>
            <path id="패스_557" d="M341.908 44a.213.213 0 0 1-.244.234h-3.825v.22c0 .7.446 1.062 1.163 1.062a3.271 3.271 0 0 0 1.716-.5.19.19 0 0 1 .311.055l.7.951a.234.234 0 0 1-.041.345 4.311 4.311 0 0 1-2.758.91c-1.757 0-3.176-.952-3.176-2.869v-1.732c0-2.054 1.419-2.937 3.135-2.937a2.721 2.721 0 0 1 3.014 2.937zm-3.028-2.51a.958.958 0 0 0-1.041 1.09v.289h2.082v-.289a.97.97 0 0 0-1.041-1.09" class="cls-2" transform="translate(-293.415 -37.243)"/>
            <path id="패스_558" d="M390.2 47.1a.217.217 0 0 1-.244-.248V40.6a.312.312 0 0 1 .176-.29 5.587 5.587 0 0 1 2.487-.566 7.84 7.84 0 0 1 1.311.138.235.235 0 0 1 .216.262v1.269a.2.2 0 0 1-.257.221 5.7 5.7 0 0 0-.838-.055 2.7 2.7 0 0 0-1.027.179v5.1c0 .165-.081.248-.23.248z" class="cls-2" transform="translate(-340.325 -37.244)"/>
            <path id="패스_559" d="M426.732 75.979H424.7c-.149 0-.23.083-.23.248v2c0 .166.081.248.23.248h2.034c.149 0 .23-.083.23-.248v-2c0-.165-.081-.248-.23-.248" class="cls-1" transform="translate(-370.199 -68.611)"/>
        </g>
        <path id="사각형_384" fill="none" d="M0 0H60V37H0z" transform="translate(40 218)"/>
    </g>
</svg>
