<svg xmlns="http://www.w3.org/2000/svg" width="60" height="37" viewBox="0 0 60 37">
    <defs>
        <style>
            .cls-3{fill:#d80676}
        </style>
    </defs>
    <g id="logo_gm" transform="translate(-260 -218)">
        <path id="사각형_385" fill="none" d="M0 0H60V37H0z" transform="translate(260 218)"/>
        <g id="그룹_614" transform="translate(265.271 224.534)">
            <g id="그룹_612">
                <path id="패스_571" fill="#001f74" d="M202.544 244.571a1.828 1.828 0 0 0-.357-.787 1.883 1.883 0 0 0-.8-.512 4.235 4.235 0 0 0-1.447-.208 4.6 4.6 0 0 0-1.583.248 2.267 2.267 0 0 0-1.026.687 2.132 2.132 0 0 0-.481 1.245h1.023a1.505 1.505 0 0 1 .593-1.035 2.207 2.207 0 0 1 1.3-.312 2.09 2.09 0 0 1 1.424.427 1.406 1.406 0 0 1 .365 1.1v.373l-.054.019a11.1 11.1 0 0 1-2.164.416 8.07 8.07 0 0 0-1.059.181 2.84 2.84 0 0 0-.84.381 1.927 1.927 0 0 0-.6.664 1.9 1.9 0 0 0-.226.914 1.819 1.819 0 0 0 .6 1.4 2.5 2.5 0 0 0 1.743.549 3.6 3.6 0 0 0 1.3-.231 4.22 4.22 0 0 0 1.186-.724l.132-.109v.905h1.03v-4.5a7.159 7.159 0 0 0-.059-1.091zm-1 2.547a2.969 2.969 0 0 1-.2 1.239 1.938 1.938 0 0 1-.83.865 2.527 2.527 0 0 1-1.275.316 1.639 1.639 0 0 1-1.118-.342 1.144 1.144 0 0 1-.211-1.48 1.115 1.115 0 0 1 .509-.418 4.6 4.6 0 0 1 1.071-.248 8.593 8.593 0 0 0 1.943-.449l.113-.045zm-9.655-3.9l-1.741 2.585-1.743-2.585h-1.193l2.338 3.471-2.339 3.468h1.195l1.743-2.582 1.741 2.582h1.193l-2.339-3.469 2.339-3.471zm-23.788 1.327a2.268 2.268 0 0 0-2.16-1.387 3 3 0 0 0-1.476.33 2.879 2.879 0 0 0-.966.847 3.373 3.373 0 0 0-.521 1.153 5.146 5.146 0 0 0-.159 1.249 4.489 4.489 0 0 0 .19 1.323 3.112 3.112 0 0 0 .569 1.084 2.738 2.738 0 0 0 .937.736 2.969 2.969 0 0 0 1.32.272 2.317 2.317 0 0 0 2.266-1.476v.768a4.7 4.7 0 0 1-.117 1.078 2.292 2.292 0 0 1-.383.856 1.892 1.892 0 0 1-.671.56 2.206 2.206 0 0 1-.989.2 3.32 3.32 0 0 1-.606-.059 2.258 2.258 0 0 1-.591-.2 1.538 1.538 0 0 1-.47-.369.909.909 0 0 1-.206-.495h-.968a1.665 1.665 0 0 0 .274.824 2.054 2.054 0 0 0 .652.607 2.94 2.94 0 0 0 .887.337 4.508 4.508 0 0 0 .969.107 3.083 3.083 0 0 0 2.378-.818 3.564 3.564 0 0 0 .758-2.493v-6.26h-.91zm-.17 3a2.926 2.926 0 0 1-.366.889 1.979 1.979 0 0 1-.665.645 1.949 1.949 0 0 1-1 .245 1.824 1.824 0 0 1-.98-.247 1.886 1.886 0 0 1-.631-.646 2.73 2.73 0 0 1-.333-.877 4.872 4.872 0 0 1-.1-.952 4.013 4.013 0 0 1 .116-.973 2.431 2.431 0 0 1 .376-.832 1.9 1.9 0 0 1 .663-.582A2.069 2.069 0 0 1 166 244a1.807 1.807 0 0 1 1.591.82 2.619 2.619 0 0 1 .353.824 3.963 3.963 0 0 1 .109.919 4.277 4.277 0 0 1-.118.983zm17.927-3.761a1.875 1.875 0 0 0-.8-.512 4.219 4.219 0 0 0-1.445-.208 4.583 4.583 0 0 0-1.583.248A2.281 2.281 0 0 0 181 244a2.144 2.144 0 0 0-.48 1.245h1.023a1.511 1.511 0 0 1 .6-1.035 2.2 2.2 0 0 1 1.3-.312 2.08 2.08 0 0 1 1.426.427 1.406 1.406 0 0 1 .365 1.1v.374l-.054.019a11.076 11.076 0 0 1-2.164.416 8.029 8.029 0 0 0-1.059.181 2.865 2.865 0 0 0-.842.381 1.929 1.929 0 0 0-.6.664 1.885 1.885 0 0 0-.225.914 1.809 1.809 0 0 0 .6 1.4 2.5 2.5 0 0 0 1.745.549 3.576 3.576 0 0 0 1.295-.231 4.187 4.187 0 0 0 1.188-.724l.132-.109v.905h1.028v-4.5a6.689 6.689 0 0 0-.058-1.09 1.818 1.818 0 0 0-.358-.79zm-.636 3.333a2.94 2.94 0 0 1-.2 1.239 1.93 1.93 0 0 1-.825.865 2.545 2.545 0 0 1-1.277.316 1.634 1.634 0 0 1-1.117-.342 1.1 1.1 0 0 1-.395-.863 1.13 1.13 0 0 1 .181-.616 1.106 1.106 0 0 1 .509-.42 4.638 4.638 0 0 1 1.072-.248 8.618 8.618 0 0 0 1.945-.449l.113-.045zm-9.273-3.333a1.892 1.892 0 0 0-.8-.512 4.225 4.225 0 0 0-1.449-.208 4.575 4.575 0 0 0-1.582.248 2.264 2.264 0 0 0-1.028.687 2.119 2.119 0 0 0-.48 1.245h1.023a1.506 1.506 0 0 1 .593-1.035 2.217 2.217 0 0 1 1.3-.313 2.15 2.15 0 0 1 1.424.429c.455.378.365 1.47.365 1.47a9.5 9.5 0 0 1-2.218.435 8.371 8.371 0 0 0-1.057.181 2.838 2.838 0 0 0-.842.381 1.9 1.9 0 0 0-.824 1.578 1.809 1.809 0 0 0 .6 1.4 2.5 2.5 0 0 0 1.743.549 3.788 3.788 0 0 0 2.615-1.064v.905h1.03v-4.5a7.054 7.054 0 0 0-.056-1.09 1.862 1.862 0 0 0-.353-.786zm-.638 3.333a3 3 0 0 1-.2 1.239 1.931 1.931 0 0 1-.827.865 2.538 2.538 0 0 1-1.275.316 1.641 1.641 0 0 1-1.12-.342 1.1 1.1 0 0 1-.393-.863 1.1 1.1 0 0 1 .69-1.036 4.977 4.977 0 0 1 1.071-.248 8.1 8.1 0 0 0 2.057-.481zm2.619 3.04h1.039v-8.987h-1.039zm16.367 0h1.039v-6.94H194.3z" transform="translate(-162.823 -234.078)"/>
                <path id="패스_572" d="M301.461 204.068l-3.786.345 1.234-3.6-2.093 3.187-2.042-3.208 1.18 3.616-3.783-.4 3.566 1.332-2.674 2.707 3.262-1.957.45 3.777.505-3.769 3.233 2-2.633-2.744z" class="cls-3" transform="translate(-269.453 -200.788)"/>
            </g>
            <g id="그룹_613" transform="translate(24.423 18.096)">
                <path id="패스_573" d="M304.459 304.086h.433v3.235h-.466V304.8l-.994 1.25h-.086l-1.006-1.25v2.517h-.463v-3.235h.438l1.075 1.328z" class="cls-3" transform="translate(-301.877 -304.04)"/>
                <path id="패스_574" d="M323.925 303.822a1.74 1.74 0 0 1 1.248.475 1.574 1.574 0 0 1 .5 1.19 1.549 1.549 0 0 1-.5 1.184 1.79 1.79 0 0 1-1.269.469 1.686 1.686 0 0 1-1.218-.469 1.562 1.562 0 0 1-.487-1.175 1.6 1.6 0 0 1 .491-1.2 1.712 1.712 0 0 1 1.235-.474zm.018.44a1.255 1.255 0 0 0-.913.347 1.183 1.183 0 0 0-.357.887 1.161 1.161 0 0 0 .359.871 1.331 1.331 0 0 0 1.8-.007 1.183 1.183 0 0 0 .362-.882 1.156 1.156 0 0 0-.362-.865 1.229 1.229 0 0 0-.889-.351z" class="cls-3" transform="translate(-318.626 -303.822)"/>
                <path id="패스_575" d="M347.873 304.086h.44v3.235h-.4l-2.163-2.491v2.491h-.435v-3.235h.375l2.181 2.513z" class="cls-3" transform="translate(-337.687 -304.04)"/>
                <path id="패스_576" d="M366.319 304.086h1.834v.412h-1.371v.986h1.324v.414h-1.324v1.002h1.418v.412h-1.878z" class="cls-3" transform="translate(-355.001 -304.04)"/>
                <path id="패스_577" d="M380.091 304.086h.562l-1.195 1.524v1.711h-.475v-1.711l-1.195-1.524h.559l.866 1.115z" class="cls-3" transform="translate(-364.456 -304.04)"/>
                <path id="패스_578" d="M394.557 304.061h2.7v.412h-1.128v2.827h-.465v-2.827h-1.109z" class="cls-3" transform="translate(-378.279 -304.019)"/>
                <path id="패스_579" d="M412.514 307.321v-3.235h.811a1.17 1.17 0 0 1 .779.243.816.816 0 0 1 .288.658.809.809 0 0 1-.547.8 1.428 1.428 0 0 1 .3.278 5.544 5.544 0 0 1 .417.614q.169.276.271.414l.172.232h-.551l-.141-.213c0-.008-.014-.021-.028-.039l-.09-.127-.143-.236-.155-.252a2.5 2.5 0 0 0-.263-.317 1 1 0 0 0-.216-.17.728.728 0 0 0-.323-.052h-.121v1.408zm.6-2.841h-.139v1.02h.176a1.308 1.308 0 0 0 .483-.06.454.454 0 0 0 .2-.182.528.528 0 0 0 .073-.277.5.5 0 0 0-.081-.277.436.436 0 0 0-.228-.175 1.657 1.657 0 0 0-.482-.049z" class="cls-3" transform="translate(-393.082 -304.04)"/>
                <path id="패스_580" d="M428.744 304.086h1.834v.412h-1.371v.986h1.325v.414h-1.325v1.002h1.415v.412h-1.878z" class="cls-3" transform="translate(-406.462 -304.04)"/>
                <path id="패스_581" d="M442.244 304.086h1.834v.412h-1.371v.986h1.325v.414h-1.325v1.002h1.415v.412h-1.878z" class="cls-3" transform="translate(-417.591 -304.04)"/>
            </g>
        </g>
    </g>
</svg>
