<svg xmlns="http://www.w3.org/2000/svg" width="60" height="37" viewBox="0 0 60 37">
    <defs>
        <style>
            .cls-2{fill:#0079c7}.cls-3{fill:#e71618}
        </style>
    </defs>
    <g id="logo_dn" transform="translate(-150 -218)">
        <path id="사각형_383" fill="none" d="M0 0H60V37H0z" transform="translate(150 218)"/>
        <g id="그룹_610" transform="translate(160.208 224.462)">
            <g id="그룹_609">
                <g id="그룹_607" transform="translate(0 9.305)">
                    <g id="그룹_604" transform="translate(32.856)">
                        <g id="그룹_603">
                            <path id="패스_560" d="M310.255 244.117a1.007 1.007 0 0 0-1.017.714l-1.984 8.273h1.768c.412-.006.594-.123.678-.493l2.036-8.493z" class="cls-2" transform="translate(-307.254 -244.117)"/>
                        </g>
                    </g>
                    <path id="패스_561" d="M211.6 262.294l-1.009 4.261h1.1a1.353 1.353 0 0 0 1.357-.878s.355-1.452.766-3.119-.636-2.521-2.49-2.521H206.7c-.207 0-.253.236-.045.329.515.229.606.475.5.9l-1.263 5.319h1.1a1.353 1.353 0 0 0 1.357-.878l1.017-4.139c.065-.232.148-.283.374-.283h1.1a.75.75 0 0 1 .76 1.009z" class="cls-2" transform="translate(-188.624 -257.588)"/>
                    <g id="그룹_606" transform="translate(0 .902)">
                        <g id="그룹_605">
                            <path id="패스_562" d="M99.1 249.983h-4.752c-.256 0-.311.292-.053.406.639.283.753.587.629 1.106l-1.37 5.723c-.052.4.091.848.949.848h-.006 2.9c3.132 0 5.351-1.662 5.882-3.843.492-2.005-.602-4.24-4.179-4.24zm1.549 4.328c-.545 2.323-2.782 2.661-4.115 2.661h-.214l1.364-5.721h.741c2.164 0 2.575 1.583 2.223 3.06z" class="cls-3" transform="translate(-93.544 -249.983)"/>
                        </g>
                        <path id="패스_563" d="M161.414 259.4c-2.51 0-3.493.986-3.73 2.052h1.72a.311.311 0 0 0 .314-.125 1.928 1.928 0 0 1 1.648-.876c.545 0 .755.295.667.662-.109.456-.438.677-1.365.915-1.83.462-3.567.975-3.876 2.265-.227.949.252 1.856 2.159 1.856a3.434 3.434 0 0 0 2.163-.823h.035s.063.643 1.1.711h.8l1.08-4.51c.225-.834.343-2.127-2.715-2.127zm-1.507 5.621c-1.044.189-1.331-.983-.042-1.536a17.9 17.9 0 0 1 1.848-.677c-.106.419-.387 1.955-1.806 2.212z" class="cls-3" transform="translate(-147.024 -257.951)"/>
                    </g>
                    <path id="패스_564" d="M263.552 259.4c-2.51 0-3.493.986-3.73 2.052h1.719a.312.312 0 0 0 .314-.125 1.928 1.928 0 0 1 1.648-.876c.544 0 .755.295.667.662-.109.456-.438.677-1.364.915-1.831.462-3.567.975-3.876 2.265-.227.949.252 1.856 2.159 1.856a3.435 3.435 0 0 0 2.163-.823h.035s.062.643 1.1.711h.8l1.08-4.51c.225-.834.343-2.127-2.715-2.127zm-1.507 5.621c-1.044.189-1.331-.983-.042-1.536a17.91 17.91 0 0 1 1.848-.677c-.105.419-.386 1.955-1.806 2.212z" class="cls-2" transform="translate(-233.459 -257.049)"/>
                </g>
                <g id="그룹_608" transform="translate(33.38)">
                    <path id="패스_565" d="M311.394 198.764a5.312 5.312 0 0 0-.713.018c-.153.023.627 1.487 1.857 1.949a4.237 4.237 0 0 0-.566.181 1.893 1.893 0 0 0 1.878 1.187 3.384 3.384 0 0 0-.461.233 2.19 2.19 0 0 0 2.219.654 11.308 11.308 0 0 1 1.349 7.394c7.671-3.33 4.285-11.68-5.563-11.616z" class="cls-3" transform="translate(-310.662 -196.428)"/>
                    <path id="패스_566" d="M354.064 183.611c-.218.02.188 1.281 1.395 2.1v.009c-.312-.078-.647-.145-1.008-.2-.211-.021-.049 1.335 1.193 2.181a4.844 4.844 0 0 0-1.09-.11c-.1 0 .054.842.875 1.648a27.673 27.673 0 0 1-3.815 8.309c8.722-3.614 12.496-14.403 2.45-13.937z" class="cls-2" transform="translate(-345.319 -183.596)"/>
                    <path id="패스_567" fill="#192481" d="M355.217 225.873a29.7 29.7 0 0 1-3.6 7.451c4.025-1.748 5.003-4.879 3.6-7.451z" transform="translate(-345.319 -219.373)"/>
                </g>
            </g>
        </g>
    </g>
</svg>
