<svg xmlns="http://www.w3.org/2000/svg" width="66.762" height="20.825" viewBox="0 0 66.762 20.825">
    <defs>
        <style>
            .prefix__cls-1{fill:#f2c276}.prefix__cls-5{fill:#479fd8}
        </style>
    </defs>
    <g id="prefix__logo_dd" transform="translate(-148.738 -54)">
        <g id="prefix__그룹_571" data-name="그룹 571" transform="translate(-366.458 -235.978)">
            <g id="prefix__그룹_570" data-name="그룹 570" transform="translate(515.196 301.644)">
                <rect id="prefix__사각형_376" width="7.828" height="1.889" class="prefix__cls-1" data-name="사각형 376" rx=".944"/>
                <rect id="prefix__사각형_377" width="7.828" height="1.889" class="prefix__cls-1" data-name="사각형 377" rx=".944" transform="translate(0 2.997)"/>
                <rect id="prefix__사각형_378" width="7.828" height="1.889" class="prefix__cls-1" data-name="사각형 378" rx=".944" transform="translate(0 5.994)"/>
            </g>
            <path id="prefix__패스_535" fill="#80b7dd" d="M519.83 290.682h-2.937a.948.948 0 0 0-.948.948v6.849a.948.948 0 0 0 .948.948h2.937a4.193 4.193 0 0 0 4.193-4.194v-.357a4.193 4.193 0 0 0-4.193-4.194zm1.118 5.009l-.738.739a.406.406 0 0 1-.574 0l-1.3-1.3a.406.406 0 0 1 0-.574l.738-.739a.406.406 0 0 1 .574 0l1.3 1.3a.406.406 0 0 1 0 .574z" data-name="패스 535" transform="translate(-.459 -.008)"/>
            <path id="prefix__패스_536" fill="#e59ea5" d="M550.334 297.513l-3.6-6.247a1.191 1.191 0 0 0-2.064 0l-3.6 6.247a1.191 1.191 0 0 0 1.032 1.785h7.198a1.191 1.191 0 0 0 1.032-1.785zm-3.772-.814a.447.447 0 0 1-.448.447h-.814a.447.447 0 0 1-.447-.447v-1.551a.447.447 0 0 1 .447-.447h.817a.447.447 0 0 1 .448.447z" data-name="패스 536" transform="translate(-15.774)"/>
            <path id="prefix__패스_537" fill="#97c394" d="M549.407 318.056a1.469 1.469 0 0 0-1.058.438l-1.77 1.645a.626.626 0 0 1-.938.022c-.5-.478-1.845-1.667-1.845-1.667a1.647 1.647 0 0 0-1.058-.438 1.04 1.04 0 0 0-1.079 1.026v6.544a1.054 1.054 0 0 0 1.079 1.026h2.384c.272 0 .454-.763 1-.763s.727.763 1.041.763h2.245a1.054 1.054 0 0 0 1.079-1.026v-6.544a1.027 1.027 0 0 0-1.08-1.026zm-2.372 5.352h-.435v.441a.441.441 0 0 1-.881 0v-.441h-.441a.441.441 0 0 1 0-.881h.441v-.441a.441.441 0 1 1 .881 0v.441h.441a.441.441 0 1 1 0 .881z" data-name="패스 537" transform="translate(-16.229 -16.795)"/>
        </g>
        <g id="prefix__그룹_582" data-name="그룹 582" transform="translate(-258.684 -65.131)">
            <g id="prefix__그룹_572" data-name="그룹 572" transform="translate(445.609 119.131)">
                <path id="prefix__패스_538" d="M470.128 130.43a1.114 1.114 0 0 1-1.114-1.114v-9.072a1.114 1.114 0 1 1 2.228 0v9.072a1.114 1.114 0 0 1-1.114 1.114z" class="prefix__cls-5" data-name="패스 538" transform="translate(-469.014 -119.131)"/>
            </g>
            <g id="prefix__그룹_573" data-name="그룹 573" transform="translate(450.262 119.131)">
                <path id="prefix__패스_539" d="M484.748 130.43a1.114 1.114 0 0 1-1.114-1.114v-9.072a1.114 1.114 0 0 1 2.228 0v9.072a1.114 1.114 0 0 1-1.114 1.114z" class="prefix__cls-5" data-name="패스 539" transform="translate(-483.634 -119.131)"/>
            </g>
            <g id="prefix__그룹_574" data-name="그룹 574" transform="translate(445.609 123.667)">
                <path id="prefix__패스_540" d="M474.31 135.612h-4.182a1.114 1.114 0 1 1 0-2.228h4.182a1.114 1.114 0 1 1 0 2.228z" class="prefix__cls-5" data-name="패스 540" transform="translate(-469.014 -133.384)"/>
            </g>
            <g id="prefix__그룹_575" data-name="그룹 575" transform="translate(434.684 119.169)">
                <path id="prefix__패스_541" d="M442.753 130.145h-2.622a5.447 5.447 0 0 1 0-10.894h2.622a1.114 1.114 0 1 1 0 2.228h-2.622a3.22 3.22 0 0 0 0 6.439h2.622a1.114 1.114 0 1 1 0 2.228z" class="prefix__cls-5" data-name="패스 541" transform="translate(-434.684 -119.251)"/>
            </g>
            <g id="prefix__그룹_576" data-name="그룹 576" transform="translate(440.945 131.447)">
                <path id="prefix__패스_542" d="M460.085 166.341a5.734 5.734 0 0 1-5.727-5.727v-1.669a1.114 1.114 0 0 1 1.114-1.114h9.228a1.114 1.114 0 0 1 1.114 1.114v1.669a5.734 5.734 0 0 1-5.729 5.727zm-3.5-6.282v.555a3.5 3.5 0 0 0 7 0v-.555z" class="prefix__cls-5" data-name="패스 542" transform="translate(-454.358 -157.831)"/>
            </g>
            <g id="prefix__그룹_577" data-name="그룹 577" transform="translate(467.304 119.131)">
                <path id="prefix__패스_543" d="M538.3 130.43a1.114 1.114 0 0 1-1.114-1.114v-9.072a1.114 1.114 0 0 1 2.228 0v9.072a1.114 1.114 0 0 1-1.114 1.114z" class="prefix__cls-5" data-name="패스 543" transform="translate(-537.186 -119.131)"/>
            </g>
            <g id="prefix__그룹_578" data-name="그룹 578" transform="translate(471.956 119.131)">
                <path id="prefix__패스_544" d="M552.92 130.43a1.114 1.114 0 0 1-1.114-1.114v-9.072a1.114 1.114 0 0 1 2.228 0v9.072a1.114 1.114 0 0 1-1.114 1.114z" class="prefix__cls-5" data-name="패스 544" transform="translate(-551.806 -119.131)"/>
            </g>
            <g id="prefix__그룹_579" data-name="그룹 579" transform="translate(467.304 123.667)">
                <path id="prefix__패스_545" d="M542.482 135.612H538.3a1.114 1.114 0 1 1 0-2.228h4.182a1.114 1.114 0 1 1 0 2.228z" class="prefix__cls-5" data-name="패스 545" transform="translate(-537.186 -133.384)"/>
            </g>
            <g id="prefix__그룹_580" data-name="그룹 580" transform="translate(456.378 119.169)">
                <path id="prefix__패스_546" d="M510.924 130.145H508.3a5.447 5.447 0 0 1 0-10.894h2.622a1.114 1.114 0 1 1 0 2.228H508.3a3.22 3.22 0 0 0 0 6.439h2.622a1.114 1.114 0 1 1 0 2.228z" class="prefix__cls-5" data-name="패스 546" transform="translate(-502.855 -119.251)"/>
            </g>
            <g id="prefix__그룹_581" data-name="그룹 581" transform="translate(462.64 131.447)">
                <path id="prefix__패스_547" d="M528.257 166.341a5.734 5.734 0 0 1-5.727-5.727v-1.669a1.114 1.114 0 0 1 1.114-1.114h9.226a1.113 1.113 0 0 1 1.114 1.114v1.669a5.733 5.733 0 0 1-5.727 5.727zm-3.5-6.282v.555a3.5 3.5 0 1 0 7 0v-.555z" class="prefix__cls-5" data-name="패스 547" transform="translate(-522.53 -157.831)"/>
            </g>
        </g>
    </g>
</svg>
