<svg xmlns="http://www.w3.org/2000/svg" width="54.74" height="14.035" viewBox="0 0 54.74 14.035">
    <path data-name="패스 514" d="M289.47 66.01h1.767v-2.061l2.4-1.416v3.477h2.51v2.16h-2.51v3.93c0 1.01.421 1.36 1.038 1.36a1.287 1.287 0 0 0 .883-.35l1.108 1.907a3.77 3.77 0 0 1-2.285.729c-1.991 0-3.169-.953-3.169-3.547v-4.01h-1.767V66.01z" transform="translate(-270.583 -62.533)" style="fill:#0050ff"/>
    <path data-name="패스 515" d="M373.407 103.793a5.048 5.048 0 1 1 5.034 4.964 4.936 4.936 0 0 1-5.034-4.964zm7.67-.014a2.622 2.622 0 1 0-2.622 2.664 2.627 2.627 0 0 0 2.622-2.664z" transform="translate(-346.991 -95.562)" style="fill:#0050ff"/>
    <path data-name="패스 516" d="m491.176 106.117 2.356-.925a2.269 2.269 0 0 0 2.187 1.29c1 0 1.514-.477 1.514-1.038 0-.687-1.024-.855-2.243-1.094-1.612-.337-3.393-.827-3.393-2.846 0-1.613 1.556-3 3.912-2.987a4.516 4.516 0 0 1 4.094 2.033l-2.229.9a2.068 2.068 0 0 0-1.879-1.01c-.953 0-1.416.393-1.416.925 0 .6.771.757 2.173 1.066 1.584.323 3.463.869 3.463 2.916 0 1.486-1.332 3.169-4.094 3.141-2.258-.002-3.688-.857-4.445-2.371z" transform="translate(-454.159 -95.278)" style="fill:#0050ff"/>
    <path data-name="패스 517" d="m593.211 106.117 2.356-.925a2.269 2.269 0 0 0 2.187 1.29c1 0 1.514-.477 1.514-1.038 0-.687-1.024-.855-2.244-1.094-1.612-.337-3.393-.827-3.393-2.846 0-1.613 1.556-3 3.912-2.987a4.516 4.516 0 0 1 4.094 2.033l-2.229.9a2.069 2.069 0 0 0-1.879-1.01c-.953 0-1.416.393-1.416.925 0 .6.771.757 2.173 1.066 1.584.323 3.463.869 3.463 2.916 0 1.486-1.332 3.169-4.094 3.141-2.255-.002-3.687-.857-4.444-2.371z" transform="translate(-547.01 -95.278)" style="fill:#0050ff"/>
    <path data-name="패스 518" d="M95.666 78.207a6.588 6.588 0 0 0-5.9-6.562 5.434 5.434 0 0 0-1.164-.014c-3.127.21-5.188 2.328-6.562 4.809a19.819 19.819 0 0 0-2.12 6.03 10.625 10.625 0 0 1 3.127-1.458 6.622 6.622 0 0 0 12.619-2.8z" transform="translate(-79.92 -70.79)" style="fill:#0050ff"/>
</svg>
