<svg xmlns="http://www.w3.org/2000/svg" width="77.5" height="19.061" viewBox="0 0 77.5 19.061">
    <defs>
        <style>
            .prefix__cls-1{fill:#479fd8}
        </style>
    </defs>
    <g id="prefix__logo_tp" transform="translate(-816.326 -161.156)">
        <g id="prefix__그룹_386" data-name="그룹 386" transform="translate(839.356 163.756)">
            <path id="prefix__패스_352" d="M906.508 179.411h1.208q.2 0 .2.218v4.048h1.63v-4.048q0-.218.2-.218h1.208q.2 0 .2.218v4.048h4.557a.235.235 0 0 1 .153.073.2.2 0 0 1 .08.146v.961a.2.2 0 0 1-.08.146.235.235 0 0 1-.153.073h-12.493a.194.194 0 0 1-.16-.073.234.234 0 0 1-.058-.146v-.957a.223.223 0 0 1 .058-.153.2.2 0 0 1 .16-.066h3.082v-4.048q0-.222.208-.222zm7.819-3.655q0 1.965-.117 3.581a24.253 24.253 0 0 1-.32 2.693.65.65 0 0 1-.094.211.179.179 0 0 1-.182.08l-1.194-.087c-.078-.01-.124-.039-.138-.088a.362.362 0 0 1 .007-.189q.1-.538.175-1.252t.117-1.463q.043-.75.058-1.485t.014-1.332q0-.2-.095-.255a.661.661 0 0 0-.3-.051h-7.352a.251.251 0 0 1-.146-.051.148.148 0 0 1-.073-.124V174.9a.143.143 0 0 1 .073-.131.278.278 0 0 1 .146-.044h8.444a.992.992 0 0 1 .721.247 1.057 1.057 0 0 1 .256.785z" class="prefix__cls-1" data-name="패스 352" transform="translate(-903 -173.718)"/>
            <path id="prefix__패스_353" d="M958.168 176.957a1.028 1.028 0 0 1-.226-.757v-3.625a.99.99 0 0 1 .24-.757 1.166 1.166 0 0 1 .793-.218h7.687q.2 0 .2.189v.888a.207.207 0 0 1-.058.138.188.188 0 0 1-.146.065H959.8a.342.342 0 0 0-.16.022c-.02.015-.029.066-.029.153v.714h6.828a.234.234 0 0 1 .146.058.167.167 0 0 1 .073.131v.859a.16.16 0 0 1-.073.138.252.252 0 0 1-.146.051h-6.828v.684a.452.452 0 0 0 .021.189c.015.02.075.029.182.029h6.9c.165 0 .248.064.248.189v.844c0 .155-.083.233-.248.233h-3.465v1.267h5.5a.22.22 0 0 1 .146.066.189.189 0 0 1 .073.138v.873a.224.224 0 0 1-.073.16.209.209 0 0 1-.146.073h-12.67q-.2 0-.2-.233v-.873a.18.18 0 0 1 .2-.2h5.5v-1.267h-2.606a1.158 1.158 0 0 1-.805-.221zm8.859 5.955a1.922 1.922 0 0 1-1.194 1.747 9.6 9.6 0 0 1-6.821 0 1.861 1.861 0 0 1 0-3.48 9.6 9.6 0 0 1 6.821 0 1.913 1.913 0 0 1 1.194 1.732zm-4.6-1.092a5.527 5.527 0 0 0-2.206.342q-.75.342-.749.764t.757.772a7.068 7.068 0 0 0 4.389 0q.749-.349.75-.772t-.743-.764a5.468 5.468 0 0 0-2.198-.342z" class="prefix__cls-1" data-name="패스 353" transform="translate(-941.826 -171.424)"/>
            <path id="prefix__패스_354" d="M1011.163 179.43h1.019v-5.882h-.9a.232.232 0 0 1-.153-.073.214.214 0 0 1-.08-.16v-.9a.29.29 0 0 1 .233-.233h6.26a.21.21 0 0 1 .153.066.226.226 0 0 1 .065.167v.917a.694.694 0 0 1-.073.116c-.049.068-.1.1-.146.1h-.932v5.736q.335-.029.633-.073t.575-.087a.25.25 0 0 1 .153.022.152.152 0 0 1 .095.109l.131.9a.18.18 0 0 1-.036.182.274.274 0 0 1-.138.08 14.928 14.928 0 0 1-1.478.211q-.823.08-1.725.124t-1.834.051q-.932.008-1.82-.022a.186.186 0 0 1-.146-.066.222.222 0 0 1-.058-.153v-.932a.18.18 0 0 1 .202-.2zm3.247-.029q.334 0 .669-.029v-5.824h-1.368v5.867q.364-.015.699-.015zm4.819-8.211h1.179q.2 0 .2.189v12.71a.18.18 0 0 1-.2.2h-1.179a.18.18 0 0 1-.2-.2V177h-1.441a.223.223 0 0 1-.153-.058.171.171 0 0 1-.066-.131v-1a.152.152 0 0 1 .066-.124.243.243 0 0 1 .153-.051h1.441v-4.251c-.004-.132.064-.196.2-.196zm3.829 13.6h-1.267a.167.167 0 0 1-.189-.189v-13.47q0-.189.2-.189h1.252a.167.167 0 0 1 .189.189V184.6a.167.167 0 0 1-.185.188z" class="prefix__cls-1" data-name="패스 354" transform="translate(-982.273 -170.942)"/>
            <path id="prefix__패스_355" d="M1071.034 181.41a3.145 3.145 0 0 1-2.628-1.332 4.733 4.733 0 0 1-.706-1.521 7.259 7.259 0 0 1-.247-1.951 7.378 7.378 0 0 1 .247-1.98 4.558 4.558 0 0 1 .706-1.507 3.2 3.2 0 0 1 1.128-.961 3.256 3.256 0 0 1 4.128.961 4.565 4.565 0 0 1 .706 1.507 8.042 8.042 0 0 1 0 3.96 4.649 4.649 0 0 1-.706 1.514 3.191 3.191 0 0 1-1.121.968 3.235 3.235 0 0 1-1.507.342zm1.936-4.8a5.983 5.983 0 0 0-.131-1.274 3.916 3.916 0 0 0-.378-1.055 2.156 2.156 0 0 0-.6-.713 1.421 1.421 0 0 0-1.645 0 2.148 2.148 0 0 0-.6.713 3.912 3.912 0 0 0-.378 1.055 6 6 0 0 0-.131 1.274 5.926 5.926 0 0 0 .131 1.259 4.027 4.027 0 0 0 .378 1.063 2.209 2.209 0 0 0 .6.728 1.391 1.391 0 0 0 1.645 0 2.217 2.217 0 0 0 .6-.728 4.032 4.032 0 0 0 .378-1.063 5.911 5.911 0 0 0 .131-1.263zm5.256 7.964a.167.167 0 0 1-.189.189h-1.3a.167.167 0 0 1-.189-.189v-13.443a.167.167 0 0 1 .189-.189h1.3a.167.167 0 0 1 .189.189z" class="prefix__cls-1" data-name="패스 355" transform="translate(-1023.756 -170.942)"/>
        </g>
        <g id="prefix__그룹_389" data-name="그룹 389" transform="translate(816.326 161.156)">
            <g id="prefix__그룹_387" data-name="그룹 387">
                <path id="prefix__패스_356" d="M825.856 180.217a9.53 9.53 0 1 1 9.53-9.531 9.541 9.541 0 0 1-9.53 9.531zm0-17.434a7.9 7.9 0 1 0 7.9 7.9 7.912 7.912 0 0 0-7.9-7.9z" class="prefix__cls-1" data-name="패스 356" transform="translate(-816.326 -161.156)"/>
            </g>
            <g id="prefix__그룹_388" data-name="그룹 388" transform="translate(6.54 4.977)">
                <path id="prefix__패스_357" d="M843.838 188.994h-1.267a1.635 1.635 0 0 1-1.633-1.633v-5.841a1.635 1.635 0 0 1 1.633-1.633h1.267a4.414 4.414 0 0 1 4.409 4.409v.288a4.414 4.414 0 0 1-4.409 4.41zm-1.267-7.48l-.006 5.847 1.273.006a2.786 2.786 0 0 0 2.782-2.783v-.284a2.786 2.786 0 0 0-2.782-2.783z" class="prefix__cls-1" data-name="패스 357" transform="translate(-840.938 -179.887)"/>
            </g>
        </g>
    </g>
</svg>
