<svg xmlns="http://www.w3.org/2000/svg" width="30" height="30" viewBox="0 0 30 30">
  <g id="그룹_718" data-name="그룹 718" transform="translate(-13 -539)">
    <rect id="사각형_329" data-name="사각형 329" width="30" height="30" transform="translate(13 539)" fill="none"/>
    <g id="그룹_717" data-name="그룹 717" transform="translate(-659.094 408.618)">
      <g id="그룹_705" data-name="그룹 705" transform="translate(675.986 133.382)">
        <path id="패스_699" data-name="패스 699" d="M688.166,158.917a9.062,9.062,0,0,1-3.789-.82c-.274-.118-5.14-2.293-5.14-2.293a2.93,2.93,0,0,1-1.663-2.566V140.81a2.148,2.148,0,0,1,1.274-2.025c.042-.021,6.379-3.065,6.842-3.293a5.746,5.746,0,0,1,4.951,0c.47.231,6.805,3.274,6.842,3.292a2.148,2.148,0,0,1,1.276,2.025v12.427a2.927,2.927,0,0,1-1.664,2.566s-4.841,2.164-5.141,2.293a9.049,9.049,0,0,1-3.788.82" transform="translate(-677.089 -134.46)" fill="#fff"/>
        <path id="패스_700" data-name="패스 700" d="M687.063,158.323a9.52,9.52,0,0,1-3.982-.86c-.272-.118-4.946-2.207-5.145-2.3a3.435,3.435,0,0,1-1.95-3.008V139.732a2.642,2.642,0,0,1,1.549-2.461l.733-.352c1.688-.812,5.738-2.759,6.1-2.939a6.338,6.338,0,0,1,5.378,0c.338.166,3.741,1.8,5.614,2.7l1.23.591a2.64,2.64,0,0,1,1.543,2.458v12.427a3.432,3.432,0,0,1-1.95,3.008c-.2.088-4.847,2.167-5.146,2.3A9.487,9.487,0,0,1,687.063,158.323Zm-.017-23.985a5.085,5.085,0,0,0-2.245.51c-.368.181-4.422,2.13-6.113,2.943l-.731.352a1.666,1.666,0,0,0-1,1.59v12.427a2.461,2.461,0,0,0,1.377,2.124c.049.022,4.867,2.176,5.134,2.291a8.676,8.676,0,0,0,7.193,0c.295-.127,5.087-2.27,5.135-2.291a2.458,2.458,0,0,0,1.378-2.124V139.732a1.665,1.665,0,0,0-1-1.589l-1.223-.588c-1.876-.9-5.283-2.539-5.622-2.706A5.163,5.163,0,0,0,687.046,134.338Z" transform="translate(-675.986 -133.382)" fill="#009bfa"/>
      </g>
      <g id="그룹_706" data-name="그룹 706" transform="translate(682.939 138.112)">
        <path id="패스_701" data-name="패스 701" d="M707.922,161.332a.452.452,0,0,1-.243.376c-.018.009-1.852.829-1.994.89a2.885,2.885,0,0,1-2.408,0c-.142-.061-1.975-.881-1.993-.89a.453.453,0,0,1-.244-.376v-4.6c0-.093.046-.151.121-.151a.2.2,0,0,1,.082.02l2.426,1.083a1.875,1.875,0,0,0,1.624,0l2.425-1.083a.208.208,0,0,1,.083-.02c.074,0,.12.058.12.151Z" transform="translate(-700.358 -154.239)" fill="#fff"/>
        <path id="패스_702" data-name="패스 702" d="M708.486,169.242a2.623,2.623,0,0,1-3.668,0,.367.367,0,1,0-.515.523,3.358,3.358,0,0,0,4.7,0,.367.367,0,0,0-.516-.523Z" transform="translate(-702.551 -162.97)" fill="#009bfa"/>
        <path id="패스_703" data-name="패스 703" d="M706.551,150.4c-.014-.007-2.48-1.192-2.663-1.282a2.237,2.237,0,0,0-1.927,0c-.18.089-2.647,1.274-2.663,1.282a.836.836,0,0,0-.5.788v4.838a1.141,1.141,0,0,0,.647,1s1.895.847,2,.893a3.565,3.565,0,0,0,2.95,0c.117-.05,2-.893,2-.893a1.14,1.14,0,0,0,.648-1v-4.838A.836.836,0,0,0,706.551,150.4ZM706.365,156a.452.452,0,0,1-.244.376c-.018.009-1.852.829-1.994.89a2.885,2.885,0,0,1-2.408,0c-.142-.061-1.975-.881-1.993-.89a.453.453,0,0,1-.244-.376v-4.6c0-.093.046-.151.121-.151a.2.2,0,0,1,.082.02l2.426,1.083a1.876,1.876,0,0,0,1.624,0l2.425-1.083a.208.208,0,0,1,.083-.02c.074,0,.12.058.12.151Z" transform="translate(-698.801 -148.904)" fill="#009bfa"/>
      </g>
      <g id="그룹_716" data-name="그룹 716" transform="translate(678.059 149.15)">
        <g id="그룹_715" data-name="그룹 715" transform="translate(0 0)">
          <g id="그룹_712" data-name="그룹 712" transform="translate(3.958)">
            <g id="그룹_707" data-name="그룹 707" transform="translate(2.751)">
              <path id="패스_704" data-name="패스 704" d="M706.5,188.439a1.658,1.658,0,1,1,1.693-1.66A1.607,1.607,0,0,1,706.5,188.439Zm0-2.62a.968.968,0,1,0,.91.96A.894.894,0,0,0,706.5,185.819Z" transform="translate(-704.803 -185.124)" fill="#009bfa"/>
            </g>
            <g id="그룹_708" data-name="그룹 708" transform="translate(0 0.033)">
              <path id="패스_705" data-name="패스 705" d="M697.044,185.231h-1.115a.155.155,0,0,0-.154.154v2.466a.428.428,0,0,0,.109.263l.238.239a.428.428,0,0,0,.263.109h.02a.155.155,0,0,0,.154-.154v-.9a.154.154,0,0,1,.154-.154h.383a1.1,1.1,0,0,0,1.153-1.06C698.249,185.651,697.85,185.231,697.044,185.231Zm-.106,1.405h-.225a.154.154,0,0,1-.154-.154v-.51a.154.154,0,0,1,.154-.154h.221c.392,0,.53.16.53.378C697.464,186.463,697.329,186.636,696.938,186.636Z" transform="translate(-695.775 -185.231)" fill="#009bfa"/>
            </g>
            <g id="그룹_709" data-name="그룹 709" transform="translate(6.636 0.03)">
              <path id="패스_706" data-name="패스 706" d="M717.706,185.221a.154.154,0,0,0-.154.154v2.468a.43.43,0,0,0,.109.263l.235.235a.428.428,0,0,0,.263.109h.024a.155.155,0,0,0,.154-.154v-2.921a.155.155,0,0,0-.154-.154Z" transform="translate(-717.552 -185.221)" fill="#009bfa"/>
            </g>
            <g id="그룹_710" data-name="그룹 710" transform="translate(8.17 0.013)">
              <path id="패스_707" data-name="패스 707" d="M724.843,185.187a.155.155,0,0,0-.154.154v1.413c0,.085-.053.109-.117.054L722.7,185.2c-.064-.055-.117-.031-.117.054v2.556a.428.428,0,0,0,.109.263l.238.239a.429.429,0,0,0,.263.109h.025a.155.155,0,0,0,.154-.154v-1.423c0-.085.051-.109.116-.053l1.867,1.607c.063.055.116.032.116-.053v-3a.154.154,0,0,0-.154-.154Z" transform="translate(-722.585 -185.167)" fill="#009bfa"/>
            </g>
            <g id="그룹_711" data-name="그룹 711" transform="translate(11.443 0.033)">
              <path id="패스_708" data-name="패스 708" d="M733.478,185.231a.155.155,0,0,0-.154.154v.279a.155.155,0,0,0,.154.154h.609a.154.154,0,0,1,.154.154v1.878a.429.429,0,0,0,.109.263l.238.239a.428.428,0,0,0,.263.109h.021a.155.155,0,0,0,.154-.154v-2.334a.154.154,0,0,1,.154-.154h.609a.155.155,0,0,0,.154-.154v-.279a.155.155,0,0,0-.154-.154Z" transform="translate(-733.324 -185.231)" fill="#009bfa"/>
            </g>
          </g>
          <g id="그룹_714" data-name="그룹 714" transform="translate(0 0.033)">
            <g id="그룹_713" data-name="그룹 713">
              <path id="패스_709" data-name="패스 709" d="M683.725,187.812a.154.154,0,0,1-.154-.154v-2.273a.154.154,0,0,0-.154-.154h-.476a.155.155,0,0,0-.154.154v2.466a.428.428,0,0,0,.109.263l.238.239a.429.429,0,0,0,.263.109h1.645a.155.155,0,0,0,.154-.154v-.341a.155.155,0,0,0-.154-.154Z" transform="translate(-682.787 -185.231)" fill="#009bfa"/>
            </g>
          </g>
          <path id="패스_710" data-name="패스 710" d="M692.395,194.221a.294.294,0,0,1-.125-.027l-.14-.062-.03-.013a.1.1,0,0,1-.055-.085v-.41a.072.072,0,0,1,.042-.067l.226-.109a.185.185,0,0,1,.081-.018.189.189,0,0,1,.083.018l.226.109a.071.071,0,0,1,.042.067v.41a.1.1,0,0,1-.055.085l-.019.009-.151.067A.3.3,0,0,1,692.395,194.221Z" transform="translate(-689.224 -190.899)" fill="#009bfa"/>
        </g>
      </g>
    </g>
  </g>
</svg>
