<svg xmlns="http://www.w3.org/2000/svg" width="60" height="37" viewBox="0 0 60 37">
    <defs>
        <style>
            .cls-6{fill:#291968}
        </style>
    </defs>
    <g id="logo_kgm" transform="translate(-40 -273)">
        <g id="그룹_616">
            <path id="사각형_387" fill="none" d="M0 0H60V37H0z" transform="translate(40 273)"/>
            <g id="그룹_615" transform="translate(-127.103 -49.385)">
                <path id="패스_582" fill="#e1006e" d="M208.5 351.669h-7.47a.331.331 0 0 1-.332-.331.684.684 0 0 0 .332.522l7.47 4.315c.183.105.331.042.331-.141v-4.392a.45.45 0 0 0-.035-.162.327.327 0 0 1-.3.189" transform="translate(-21.936 -17.458)"/>
                <path id="패스_583" fill="#6a1b7f" d="M208.5 346.99l-3.424-1.979-4.046 2.336c-.184.105-.332.042-.332-.14a.331.331 0 0 0 .332.331h7.47a.327.327 0 0 0 .3-.189.722.722 0 0 0-.3-.359" transform="translate(-21.936 -13.326)"/>
                <path id="패스_584" fill="#ffa81d" d="M208.831 324.794c0-.184-.149-.247-.33-.14l-7.471 4.311a.687.687 0 0 0-.332.524.331.331 0 0 1 .332-.331h7.47a.326.326 0 0 1 .3.189.444.444 0 0 0 .035-.162z" transform="translate(-21.935)"/>
                <path id="패스_585" fill="#f46e0f" d="M208.5 337.729h-7.47a.331.331 0 0 0-.332.331c0-.183.147-.246.332-.14l4.046 2.336 3.425-1.979a.723.723 0 0 0 .3-.36.328.328 0 0 0-.3-.188" transform="translate(-21.936 -8.571)"/>
                <path id="패스_586" d="M201.029 342.855l4.046-2.336-4.046-2.336c-.184-.105-.332-.043-.332.14v4.392c0 .182.148.245.332.14" class="cls-6" transform="translate(-21.935 -8.834)"/>
                <path id="패스_587" d="M167.1 365.511h1.936v3.774l3.413-3.774h2.535l-3.909 4.218 4.245 4.872h-2.708l-3.576-4.317v4.316H167.1z" class="cls-6" transform="translate(0 -26.712)"/>
                <path id="패스_588" d="M197.929 373.519a7.643 7.643 0 0 1-3.686.872 4.775 4.775 0 0 1 0-9.551 4.891 4.891 0 0 1 3.5 1.166l-1.364 1.542a2.669 2.669 0 0 0-2.135-.858 2.932 2.932 0 0 0 0 5.852 3.711 3.711 0 0 0 1.822-.447v-1.478h-1.577v-1.845h3.44z" class="cls-6" transform="translate(-14.623 -26.274)"/>
                <path id="패스_589" d="M224.45 375.2v-.867h3.318v-1.913h-2.048v-4.11h5.088v4.11h-2.048v1.913h3.328v.867zm5.38-6.035h-3.124v2.4h3.124z" class="cls-6" transform="translate(-37.445 -28.542)"/>
                <path id="패스_590" d="M232.031 375.14h-7.768v-1h3.32v-1.776h-2.048v-4.25h5.216v4.25H228.7v1.776h3.329zm-7.641-.13h7.51v-.738h-3.329v-2.043h2.044v-3.975h-4.956v3.975h2.047v2.043h-3.316zm5.384-3.5h-3.256v-2.532h3.256zm-3.128-.134h3v-2.265h-3z" class="cls-6" transform="translate(-37.322 -28.411)"/>
                <path id="패스_591" d="M249.4 370.965v-3.942h.982v1.2h1.993v-1.2h.969v3.942zm2.975-1.873h-1.992v1.018h1.992zm-1.474 6.306v-2.234h3.973v-.557H250.9v-.837h4.962v2.2h-3.976v.583h4.179v.845zm3.973-8.736h.979v4.712h-.979z" class="cls-6" transform="translate(-53.739 -27.463)"/>
                <path id="패스_592" d="M256 375.346h-5.282v-2.37h3.972v-.42h-3.981v-.973h5.091v2.332h-3.98v.454H256zm-5.154-.132h5.027v-.714h-4.181v-.714h3.98v-2.069h-4.833v.7h3.981v.69h-3.974zm4.955-3.893h-1.111v-4.842h1.11zm-.981-.133h.852v-4.575h-.852zm-1.527-.281h-4.08v-4.074h1.116v1.206h1.859v-1.206h1.1zm-3.95-.13h3.819v-3.809h-.846v1.2H250.2v-1.2h-.855zm2.972-.724H250.2V368.9h2.118zm-1.985-.135h1.859v-.88h-1.859z" class="cls-6" transform="translate(-53.613 -27.344)"/>
                <path id="패스_593" d="M278.312 373.6h-4.74v-3.227h2.843v-1.448h-2.843v-.865h3.77v3.177h-2.788v1.486h3.758z" class="cls-6" transform="translate(-69.519 -28.373)"/>
                <path id="패스_594" d="M278.26 373.537H273.395v-3.358h2.842v-1.315H273.4v-1h3.9v3.312h-2.8v1.352h3.758zm-4.738-.134h4.61v-.743h-3.758v-1.617h2.788v-3.048h-3.64v.733h2.841v1.579h-2.841z" class="cls-6" transform="translate(-69.404 -28.245)"/>
                <path id="패스_595" d="M300.8 366.987h.985v6.113h-.985v-3.286h-1.381a1.9 1.9 0 0 1-.211.689 2.441 2.441 0 0 1-.4.559 2.164 2.164 0 0 1-1.532.617 2.185 2.185 0 0 1-.855-.163 2.211 2.211 0 0 1-.681-.454 2.168 2.168 0 0 1-.46-.7 2.4 2.4 0 0 1 0-1.756 2.154 2.154 0 0 1 .46-.684 2.108 2.108 0 0 1 1.536-.63 2.171 2.171 0 0 1 .843.167 2.138 2.138 0 0 1 .689.463 2.106 2.106 0 0 1 .57 1.027h1.422zm-4.693 2.5a1.365 1.365 0 0 0 .092.517 1.384 1.384 0 0 0 .247.409 1.065 1.065 0 0 0 .376.268 1.089 1.089 0 0 0 .457.1 1.113 1.113 0 0 0 .828-.356 1.316 1.316 0 0 0 .345-.933 1.265 1.265 0 0 0-.345-.921 1.093 1.093 0 0 0-.828-.367 1.123 1.123 0 0 0-.833.362 1.378 1.378 0 0 0-.338.926m5.856 5.927h-5.044v-2.888h1v2.033h4.047z" class="cls-6" transform="translate(-83.585 -27.675)"/>
                <path id="패스_596" d="M301.9 375.36h-5.177v-3.015h1.128v2.028h4.049zm-5.049-.132h4.922v-.722h-4.05v-2.033h-.872zm4.866-2.178h-1.108v-3.283h-1.264a2.11 2.11 0 0 1-.209.653 2.552 2.552 0 0 1-.41.567 2.155 2.155 0 0 1-.711.469 2.3 2.3 0 0 1-1.744 0 2.092 2.092 0 0 1-.7-.469 2.171 2.171 0 0 1-.472-.711 2.33 2.33 0 0 1-.176-.907 2.252 2.252 0 0 1 .176-.9 2.139 2.139 0 0 1 .472-.707 2.218 2.218 0 0 1 .7-.475 2.3 2.3 0 0 1 1.744 0 2.237 2.237 0 0 1 .708.475 2.186 2.186 0 0 1 .577 1.006h1.309V366.8h1.108zm-.984-.136h.853v-5.978h-.853v1.964H299.2l-.01-.052a2.1 2.1 0 0 0-.557-.994 2.12 2.12 0 0 0-.665-.446 2.173 2.173 0 0 0-1.648 0 2.077 2.077 0 0 0-.66.446 2.147 2.147 0 0 0-.45.665 2.191 2.191 0 0 0-.159.848 2.225 2.225 0 0 0 .159.853 2.1 2.1 0 0 0 .45.67 2 2 0 0 0 .66.443 2.19 2.19 0 0 0 1.648 0 2.042 2.042 0 0 0 .665-.443 2.445 2.445 0 0 0 .389-.538 1.959 1.959 0 0 0 .2-.663v-.058h1.5zm-3.584-2.19a1.191 1.191 0 0 1-.483-.1 1.173 1.173 0 0 1-.4-.285 1.349 1.349 0 0 1-.263-.43 1.478 1.478 0 0 1-.094-.543 1.514 1.514 0 0 1 .094-.544 1.412 1.412 0 0 1 .263-.429 1.17 1.17 0 0 1 .4-.282 1.193 1.193 0 0 1 .483-.1 1.169 1.169 0 0 1 .875.385 1.348 1.348 0 0 1 .362.968 1.42 1.42 0 0 1-.362.98 1.188 1.188 0 0 1-.875.373m0-2.573a.993.993 0 0 0-.435.089.937.937 0 0 0-.347.249 1.224 1.224 0 0 0-.239.389 1.36 1.36 0 0 0-.086.492 1.382 1.382 0 0 0 .086.5 1.153 1.153 0 0 0 .239.385.964.964 0 0 0 .347.254 1.126 1.126 0 0 0 .435.087 1.045 1.045 0 0 0 .782-.338 1.248 1.248 0 0 0 .329-.884 1.213 1.213 0 0 0-.329-.877 1.039 1.039 0 0 0-.782-.343" class="cls-6" transform="translate(-83.459 -27.556)"/>
                <path id="패스_597" d="M317.782 373.784h7.642v.846h-7.642zm3.86-3.581a4.157 4.157 0 0 1-1.111 1.269 6.965 6.965 0 0 1-1.6.919l-.566-.761a5.154 5.154 0 0 0 .944-.461 4.72 4.72 0 0 0 .9-.687 3.913 3.913 0 0 0 .651-.821 1.845 1.845 0 0 0 .258-.926v-.975h1.053v.975a1.9 1.9 0 0 0 .247.926 3.158 3.158 0 0 0 .656.821 4.937 4.937 0 0 0 .892.688 5.178 5.178 0 0 0 .955.461l-.564.761a7.1 7.1 0 0 1-1.6-.921 4.048 4.048 0 0 1-1.11-1.267" class="cls-6" transform="translate(-98.386 -28.18)"/>
                <path id="패스_598" d="M325.374 374.557h-7.768v-.976h7.768zm-7.641-.13h7.511v-.714h-7.511zm6.526-2.091l-.046-.016a7.59 7.59 0 0 1-1.619-.938 4.174 4.174 0 0 1-1.067-1.186 4.257 4.257 0 0 1-1.073 1.19 7.029 7.029 0 0 1-1.613.933l-.047.016-.65-.877.086-.028a5.36 5.36 0 0 0 .937-.456 4.955 4.955 0 0 0 .875-.678 3.6 3.6 0 0 0 .644-.807 1.769 1.769 0 0 0 .248-.894v-1.047h1.183v1.052a1.808 1.808 0 0 0 .238.894 3.18 3.18 0 0 0 .639.807 5.023 5.023 0 0 0 .885.678 5.174 5.174 0 0 0 .944.456l.085.028zm-5.9-.811l.483.651a7.132 7.132 0 0 0 1.538-.9 4.02 4.02 0 0 0 1.093-1.25l.059-.1.054.1a3.917 3.917 0 0 0 1.093 1.243 7.2 7.2 0 0 0 1.54.9l.48-.648a5.436 5.436 0 0 1-.88-.437 5.183 5.183 0 0 1-.907-.693 3.373 3.373 0 0 1-.666-.839 2.037 2.037 0 0 1-.252-.962v-.913h-.929v.913a1.911 1.911 0 0 1-.267.965 3.889 3.889 0 0 1-.66.836 5.19 5.19 0 0 1-.9.693 5.76 5.76 0 0 1-.875.435" class="cls-6" transform="translate(-98.271 -28.042)"/>
                <path id="사각형_388" d="M0 0H1.032V8.644H0z" class="cls-6" transform="translate(209.298 339.202)"/>
                <path id="패스_599" d="M289.666 375.265h-1.16v-8.772h1.16zm-1.028-.133h.9v-8.5h-.9z" class="cls-6" transform="translate(-79.27 -27.353)"/>
            </g>
        </g>
    </g>
</svg>
