<svg xmlns="http://www.w3.org/2000/svg" width="85.451" height="14.44" viewBox="0 0 85.451 14.44">
  <g id="그룹_706" data-name="그룹 706" transform="translate(-60.216 -158.168)">
    <g id="그룹_603" data-name="그룹 603" transform="translate(60.216 158.168)">
      <path id="패스_550" data-name="패스 550" d="M72.2,160.487c-.022-.011-3.837-1.843-4.119-1.982a3.463,3.463,0,0,0-2.981,0c-.277.138-4.093,1.97-4.12,1.982a1.294,1.294,0,0,0-.766,1.22v7.482a1.761,1.761,0,0,0,1,1.543s2.93,1.31,3.094,1.382a5.52,5.52,0,0,0,4.563,0c.18-.078,3.094-1.382,3.094-1.382a1.761,1.761,0,0,0,1-1.543v-7.482A1.294,1.294,0,0,0,72.2,160.487Zm-.288,8.7a.7.7,0,0,1-.377.58c-.027.013-2.864,1.281-3.083,1.375a4.45,4.45,0,0,1-3.724,0c-.219-.095-3.055-1.362-3.082-1.375a.7.7,0,0,1-.377-.58v-7.12c0-.144.071-.235.186-.235a.3.3,0,0,1,.126.031l3.752,1.674a2.9,2.9,0,0,0,2.513,0l3.751-1.674a.312.312,0,0,1,.128-.031c.116,0,.187.091.187.235Z" transform="translate(-60.216 -158.168)" fill="#009bfa"/>
      <path id="패스_551" data-name="패스 551" d="M73.408,167.67a.312.312,0,0,0-.128.031l-3.751,1.674a2.9,2.9,0,0,1-2.513,0L63.264,167.7a.3.3,0,0,0-.126-.031c-.115,0-.186.091-.186.235v7.12a.7.7,0,0,0,.377.58c.027.013,2.863,1.281,3.082,1.375a4.45,4.45,0,0,0,3.724,0c.219-.095,3.055-1.362,3.083-1.375a.7.7,0,0,0,.377-.58V167.9C73.595,167.761,73.524,167.67,73.408,167.67Z" transform="translate(-61.896 -164.003)" fill="#fff"/>
      <g id="그룹_602" data-name="그룹 602" transform="translate(2.542 9.586)">
        <path id="패스_552" data-name="패스 552" d="M70.605,185.467a5.155,5.155,0,0,1-3.634-1.484.568.568,0,0,1,.8-.81,4.056,4.056,0,0,0,5.673,0,.568.568,0,0,1,.8.81A5.152,5.152,0,0,1,70.605,185.467Z" transform="translate(-66.803 -183.01)" fill="#009bfa"/>
      </g>
    </g>
    <g id="그룹_612" data-name="그룹 612" transform="translate(81.181 159.423)">
      <g id="그룹_609" data-name="그룹 609" transform="translate(14.164 0)">
        <g id="그룹_604" data-name="그룹 604" transform="translate(9.847)">
          <path id="패스_553" data-name="패스 553" d="M182.844,173.286a5.934,5.934,0,1,1,6.058-5.94A5.751,5.751,0,0,1,182.844,173.286Zm0-9.375a3.465,3.465,0,1,0,3.258,3.436A3.2,3.2,0,0,0,182.844,163.911Z" transform="translate(-176.772 -161.421)" fill="#009bfa"/>
        </g>
        <g id="그룹_605" data-name="그룹 605" transform="translate(0 0.117)">
          <path id="패스_554" data-name="패스 554" d="M155.8,161.724h-3.993a.553.553,0,0,0-.552.551V171.1a1.535,1.535,0,0,0,.39.942l.853.854a1.531,1.531,0,0,0,.94.389h.074a.552.552,0,0,0,.552-.551V169.51a.552.552,0,0,1,.551-.551h1.369a3.93,3.93,0,0,0,4.126-3.793C160.108,163.226,158.68,161.724,155.8,161.724Zm-.38,5.03h-.805a.553.553,0,0,1-.551-.551v-1.825a.552.552,0,0,1,.551-.551h.79c1.4,0,1.9.575,1.9,1.353C157.3,166.135,156.817,166.754,155.418,166.754Z" transform="translate(-151.254 -161.724)" fill="#009bfa"/>
        </g>
        <g id="그룹_606" data-name="그룹 606" transform="translate(23.751 0.106)">
          <path id="패스_555" data-name="패스 555" d="M213.355,161.7a.552.552,0,0,0-.55.551v8.833a1.534,1.534,0,0,0,.389.942l.84.84a1.533,1.533,0,0,0,.941.39h.087a.553.553,0,0,0,.551-.551V162.248a.552.552,0,0,0-.551-.551Z" transform="translate(-212.805 -161.697)" fill="#009bfa"/>
        </g>
        <g id="그룹_607" data-name="그룹 607" transform="translate(29.239 0.048)">
          <path id="패스_556" data-name="패스 556" d="M235.11,161.614a.554.554,0,0,0-.552.551v5.059c0,.3-.189.39-.416.191,0,0-6.466-5.565-6.7-5.763s-.418-.112-.418.192v9.145a1.534,1.534,0,0,0,.389.942l.853.854a1.533,1.533,0,0,0,.942.389h.089a.552.552,0,0,0,.551-.551v-5.094c0-.3.182-.391.416-.189s6.453,5.552,6.681,5.751.416.113.416-.189V162.165a.553.553,0,0,0-.55-.551Z" transform="translate(-227.029 -161.545)" fill="#009bfa"/>
        </g>
        <g id="그룹_608" data-name="그룹 608" transform="translate(40.951 0.117)">
          <path id="패스_557" data-name="패스 557" d="M257.933,161.724a.553.553,0,0,0-.551.551v1a.553.553,0,0,0,.551.551h2.178a.552.552,0,0,1,.551.551v6.72a1.531,1.531,0,0,0,.391.942l.853.854a1.53,1.53,0,0,0,.94.389h.074a.553.553,0,0,0,.551-.551v-8.354a.552.552,0,0,1,.549-.551H266.2a.553.553,0,0,0,.551-.551v-1a.553.553,0,0,0-.551-.551Z" transform="translate(-257.382 -161.724)" fill="#009bfa"/>
        </g>
      </g>
      <g id="그룹_611" data-name="그룹 611" transform="translate(0 0.117)">
        <g id="그룹_610" data-name="그룹 610">
          <path id="패스_558" data-name="패스 558" d="M117.905,170.959a.553.553,0,0,1-.551-.551v-8.133a.552.552,0,0,0-.55-.551h-1.7a.554.554,0,0,0-.551.551V171.1a1.535,1.535,0,0,0,.39.942l.853.854a1.531,1.531,0,0,0,.941.389h5.888a.553.553,0,0,0,.552-.551v-1.221a.553.553,0,0,0-.552-.552Z" transform="translate(-114.548 -161.724)" fill="#009bfa"/>
        </g>
      </g>
      <path id="패스_559" data-name="패스 559" d="M141.965,187.729a1.056,1.056,0,0,1-.446-.1l-.5-.223-.107-.048a.346.346,0,0,1-.2-.3v-1.467a.254.254,0,0,1,.15-.239c.006,0,.753-.362.808-.389a.654.654,0,0,1,.289-.066.672.672,0,0,1,.3.066c.055.028.8.387.809.389a.253.253,0,0,1,.15.239v1.467a.346.346,0,0,1-.2.3l-.067.03c-.151.068-.5.226-.54.241A1.067,1.067,0,0,1,141.965,187.729Z" transform="translate(-130.617 -175.838)" fill="#009bfa"/>
    </g>
  </g>
</svg>
