<svg xmlns="http://www.w3.org/2000/svg" id="logo_tmoney" width="82" height="20" viewBox="0 0 82 20">
    <defs>
        <style>
            .cls-1{fill:#fff}.cls-2{fill:#767676}.cls-3{fill:#780072}.cls-4{fill:#ed6b00}
        </style>
    </defs>
    <path id="패스_382" d="M191.214 83.9a2.881 2.881 0 0 1-2.878-2.877v-13.9a2.88 2.88 0 0 1 2.878-2.876h13.9a2.88 2.88 0 0 1 2.878 2.876v13.9a2.881 2.881 0 0 1-2.878 2.877z" class="cls-1" data-name="패스 382" transform="translate(-188.238 -64.153)"/>
    <path id="패스_383" d="M204.789 63.83h-13.9a2.978 2.978 0 0 0-2.978 2.978V80.7a2.978 2.978 0 0 0 2.978 2.978h13.9a2.978 2.978 0 0 0 2.978-2.978V66.8a2.978 2.978 0 0 0-2.978-2.978m0 .2a2.783 2.783 0 0 1 2.779 2.779V80.7a2.783 2.783 0 0 1-2.779 2.779h-13.9a2.782 2.782 0 0 1-2.779-2.779V66.8a2.782 2.782 0 0 1 2.779-2.779z" class="cls-2" data-name="패스 383" transform="translate(-187.915 -63.83)"/>
    <path id="패스_384" d="M207.237 82.488v8.167a1.522 1.522 0 1 0 3.043 0V82.42c0-2.705-1.433-4.135-4.145-4.135h-2.455a1.525 1.525 0 0 0 0 3.05h2.381a1.126 1.126 0 0 1 1.176 1.153" class="cls-3" data-name="패스 384" transform="translate(-198.835 -74.911)"/>
    <path id="패스_385" d="M237.229 78.285h-2.446a5.232 5.232 0 0 0-2.1.386 4.122 4.122 0 0 1 1.482 2.868 1.241 1.241 0 0 1 .688-.2h2.379a1.525 1.525 0 1 0 0-3.05" class="cls-4" data-name="패스 385" transform="translate(-222.23 -74.911)"/>
    <path id="패스_386" d="M343.415 101.873a1.1 1.1 0 0 0 1.186 1.218 1.116 1.116 0 0 0 1.2-1.218v-4.168A2.482 2.482 0 0 0 343.094 95a2.864 2.864 0 0 0-2.677 1.411A1.938 1.938 0 0 0 338.462 95a2.2 2.2 0 0 0-2.148 1.234 1.166 1.166 0 0 0-1.171-1.106 1.1 1.1 0 0 0-1.186 1.234v5.514a1.116 1.116 0 0 0 1.2 1.218 1.1 1.1 0 0 0 1.186-1.218v-3.482a1.2 1.2 0 0 1 1.186-1.362 1.166 1.166 0 0 1 1.186 1.234v3.607a1.092 1.092 0 0 0 1.17 1.218 1.081 1.081 0 0 0 1.154-1.218v-3.479a1.2 1.2 0 0 1 1.186-1.362 1.166 1.166 0 0 1 1.186 1.234z" class="cls-2" data-name="패스 386" transform="translate(-299.866 -87.721)"/>
    <path id="패스_387" d="M389.885 99.117A4.088 4.088 0 1 0 393.973 95a3.854 3.854 0 0 0-4.088 4.12m2.388 0c0-1.138.609-2.132 1.7-2.132 1.074 0 1.7.994 1.7 2.132s-.625 2.132-1.7 2.132c-1.09 0-1.7-.994-1.7-2.132" class="cls-2" data-name="패스 387" transform="translate(-342.737 -87.721)"/>
    <path id="패스_388" d="M430.09 101.873a1.128 1.128 0 0 0 1.218 1.218 1.116 1.116 0 0 0 1.2-1.218V98.33a1.331 1.331 0 0 1 2.661.016v3.526a1.116 1.116 0 0 0 1.2 1.218 1.128 1.128 0 0 0 1.219-1.218v-3.814A2.82 2.82 0 0 0 434.626 95a2.352 2.352 0 0 0-2.18 1.219 1.181 1.181 0 0 0-2.356.144z" class="cls-2" data-name="패스 388" transform="translate(-373.557 -87.721)"/>
    <path id="패스_389" d="M474.623 102.258c.481-.449.7-1.074.3-1.522a1.031 1.031 0 0 0-1.491-.064 2.705 2.705 0 0 1-1.859.7 1.789 1.789 0 0 1-1.908-1.651h4.344c.881 0 1.186-.4 1.186-1.283A3.54 3.54 0 0 0 471.353 95a3.812 3.812 0 0 0-3.943 4.071 3.864 3.864 0 0 0 4.168 4.168 4.381 4.381 0 0 0 3.045-.978m-4.953-4.119a1.73 1.73 0 0 1 3.366 0z" class="cls-2" data-name="패스 389" transform="translate(-402.165 -87.721)"/>
    <path id="패스_390" d="M505.894 96.267a1.158 1.158 0 0 0-1.6-.689 1.106 1.106 0 0 0-.593 1.6l2.741 5.995-.24.593c-.224.577-.5 1.17-1.074 1.17a3.5 3.5 0 0 1-.593-.08.94.94 0 0 0-1.122.69 1.029 1.029 0 0 0 .625 1.218 2.982 2.982 0 0 0 1.219.192c1.635 0 2.276-1.2 3.03-2.837l3.174-6.941a1.106 1.106 0 0 0-.593-1.6 1.158 1.158 0 0 0-1.6.689l-1.683 3.991z" class="cls-2" data-name="패스 390" transform="translate(-429.733 -88.078)"/>
    <path id="패스_391" d="M298.22 89.006a1.323 1.323 0 1 0 2.645 0v-8.239h2.6c.769 0 1.378-.4 1.378-1.2 0-.785-.609-1.186-1.378-1.186h-7.823c-.785 0-1.378.4-1.378 1.186 0 .8.593 1.2 1.378 1.2h2.581z" class="cls-2" data-name="패스 391" transform="translate(-269.436 -74.982)"/>
</svg>
