<svg xmlns="http://www.w3.org/2000/svg" width="83.199" height="20" viewBox="0 0 83.199 20">
    <defs>
        <style>
            .cls-1{fill:#1d1d1b}.cls-3{fill:#fff}
        </style>
    </defs>
    <g id="그룹_601" transform="translate(-70.004 -366.253)">
        <g id="그룹_598" transform="translate(95.764 368.39)">
            <path id="패스_542" d="M214.935 388.808h1.285q.216 0 .217.232v4.3h1.734v-4.3q0-.232.217-.232h1.285q.216 0 .217.232v4.3h4.846a.25.25 0 0 1 .163.077.217.217 0 0 1 .085.155v1.028a.216.216 0 0 1-.085.155.248.248 0 0 1-.163.078h-13.3a.2.2 0 0 1-.17-.078.247.247 0 0 1-.062-.155v-1.022a.237.237 0 0 1 .062-.163.215.215 0 0 1 .17-.07h3.282v-4.3c.001-.159.072-.237.217-.237zm8.314-3.886q0 2.09-.124 3.809a25.815 25.815 0 0 1-.341 2.865.679.679 0 0 1-.1.224.19.19 0 0 1-.194.085l-1.27-.093q-.124-.015-.147-.093a.386.386 0 0 1 .008-.2q.108-.573.186-1.331t.124-1.556q.047-.8.062-1.579t.016-1.417c0-.144-.034-.235-.1-.271a.706.706 0 0 0-.318-.054h-7.819a.268.268 0 0 1-.155-.054.156.156 0 0 1-.077-.132v-1.115a.151.151 0 0 1 .077-.139.3.3 0 0 1 .155-.047h8.98a1.055 1.055 0 0 1 .766.263 1.124 1.124 0 0 1 .272.835z" class="cls-1" transform="translate(-211.204 -382.755)"/>
            <path id="패스_543" d="M295.538 384.683a1.1 1.1 0 0 1-.24-.805v-3.855a1.054 1.054 0 0 1 .256-.805 1.24 1.24 0 0 1 .844-.232h8.175c.144 0 .217.067.217.2v.944a.219.219 0 0 1-.062.147.2.2 0 0 1-.155.07h-7.292a.361.361 0 0 0-.17.023c-.021.016-.031.07-.031.163v.759h7.262a.25.25 0 0 1 .155.062.178.178 0 0 1 .077.139v.914a.171.171 0 0 1-.077.147.27.27 0 0 1-.155.054h-7.262v.728a.472.472 0 0 0 .023.2c.016.021.08.031.194.031h7.339c.175 0 .263.067.263.2v.9c0 .165-.088.248-.263.248h-3.685v1.347h5.849a.234.234 0 0 1 .155.07.2.2 0 0 1 .078.147v.929a.236.236 0 0 1-.078.17.223.223 0 0 1-.155.078h-13.484q-.217 0-.217-.248v-.929a.192.192 0 0 1 .217-.217h5.852v-1.347H296.4a1.233 1.233 0 0 1-.862-.232zm9.421 6.332a2.045 2.045 0 0 1-1.269 1.858 10.213 10.213 0 0 1-7.254 0 1.979 1.979 0 0 1 0-3.7 10.21 10.21 0 0 1 7.254 0 2.035 2.035 0 0 1 1.269 1.842zm-4.892-1.161a5.878 5.878 0 0 0-2.346.364q-.8.364-.8.813t.805.821a5.767 5.767 0 0 0 2.338.372 5.709 5.709 0 0 0 2.33-.372q.8-.372.8-.821t-.79-.813a5.82 5.82 0 0 0-2.338-.364z" class="cls-1" transform="translate(-278.159 -378.799)"/>
            <path id="패스_544" d="M375.977 386.993h1.084v-6.255h-.96a.248.248 0 0 1-.162-.077.227.227 0 0 1-.085-.17v-.96a.309.309 0 0 1 .248-.248h6.658a.222.222 0 0 1 .163.07.241.241 0 0 1 .07.178v.975a.814.814 0 0 1-.078.124c-.052.072-.1.108-.155.108h-.991v6.1q.356-.031.674-.077t.612-.093a.267.267 0 0 1 .163.023.161.161 0 0 1 .1.116l.139.96a.192.192 0 0 1-.038.193.29.29 0 0 1-.147.085 15.842 15.842 0 0 1-1.571.224q-.875.085-1.835.132t-1.951.054q-.991.008-1.935-.023a.2.2 0 0 1-.155-.07.237.237 0 0 1-.062-.163v-.991a.191.191 0 0 1 .214-.215zm3.453-.031q.356 0 .713-.031v-6.193h-1.456v6.24q.387-.015.743-.016zm5.125-8.732h1.254q.217 0 .217.2v13.516a.192.192 0 0 1-.217.217h-1.254a.192.192 0 0 1-.217-.217v-7.54h-1.533a.236.236 0 0 1-.163-.062.183.183 0 0 1-.07-.139v-1.068a.163.163 0 0 1 .07-.132.257.257 0 0 1 .163-.054h1.533v-4.521c0-.13.072-.2.217-.2zm4.072 14.461h-1.347a.178.178 0 0 1-.2-.2v-14.323c0-.134.072-.2.217-.2h1.332a.178.178 0 0 1 .2.2v14.322a.178.178 0 0 1-.202.201z" class="cls-1" transform="translate(-345.74 -377.967)"/>
            <path id="패스_545" d="M467.066 389.1a3.344 3.344 0 0 1-2.795-1.417 5.031 5.031 0 0 1-.751-1.618 7.7 7.7 0 0 1-.263-2.075 7.829 7.829 0 0 1 .263-2.106 4.851 4.851 0 0 1 .751-1.6 3.408 3.408 0 0 1 1.2-1.022 3.463 3.463 0 0 1 4.389 1.022 4.861 4.861 0 0 1 .751 1.6 8.558 8.558 0 0 1 0 4.211 4.948 4.948 0 0 1-.751 1.61 3.4 3.4 0 0 1-1.192 1.03 3.443 3.443 0 0 1-1.602.365zm2.059-5.109a6.387 6.387 0 0 0-.139-1.355 4.166 4.166 0 0 0-.4-1.122 2.289 2.289 0 0 0-.643-.759 1.512 1.512 0 0 0-1.749 0 2.283 2.283 0 0 0-.643.759 4.16 4.16 0 0 0-.4 1.122 6.372 6.372 0 0 0-.14 1.355 6.289 6.289 0 0 0 .14 1.339 4.273 4.273 0 0 0 .4 1.13 2.342 2.342 0 0 0 .643.774 1.479 1.479 0 0 0 1.749 0 2.348 2.348 0 0 0 .643-.774 4.279 4.279 0 0 0 .4-1.13 6.3 6.3 0 0 0 .139-1.34zm5.589 8.469a.178.178 0 0 1-.2.2h-1.378a.178.178 0 0 1-.2-.2v-14.292a.178.178 0 0 1 .2-.2h1.378a.178.178 0 0 1 .2.2z" class="cls-1" transform="translate(-417.274 -377.967)"/>
        </g>
        <g id="그룹_600" transform="translate(70.004 366.253)">
            <rect id="사각형_381" width="20" height="20" fill="#224cc4" rx="4"/>
            <g id="그룹_599" transform="translate(2.106 4.931)">
                <path id="패스_546" d="M103.676 433.15a.715.715 0 1 0 .716.715.716.716 0 0 0-.716-.715z" class="cls-3" transform="translate(-99.054 -425.876)"/>
                <circle id="타원_70" cx=".716" cy=".716" r=".716" class="cls-3" transform="translate(10.45 7.274)"/>
                <path id="패스_547" d="M82.1 409.112a.553.553 0 0 0-.553.554v1.426a.554.554 0 0 0 1.107 0v-1.426a.554.554 0 0 0-.554-.554z" class="cls-3" transform="translate(-81.551 -406.224)"/>
                <path id="패스_548" d="M162.572 409.112a.553.553 0 0 0-.553.554v1.426a.554.554 0 0 0 1.107 0v-1.426a.554.554 0 0 0-.554-.554z" class="cls-3" transform="translate(-147.338 -406.224)"/>
                <path id="패스_549" d="M102.376 394.173a2.81 2.81 0 0 0-2.026-.893h-6.976a2.754 2.754 0 0 0-2.75 2.75v6.687a.482.482 0 1 0 .964 0v-3.271h10.549v3.271a.482.482 0 1 0 .963 0v-6.687a2.73 2.73 0 0 0-.219-1.071 2.759 2.759 0 0 0-.505-.786zm-10.789 4.41v-2.553a1.789 1.789 0 0 1 1.787-1.787h6.976a1.779 1.779 0 0 1 1.187.455 1.8 1.8 0 0 1 .452.633 1.761 1.761 0 0 1 .148.7v2.552z" class="cls-3" transform="translate(-88.969 -393.28)"/>
            </g>
        </g>
    </g>
</svg>
