<svg xmlns="http://www.w3.org/2000/svg" id="logo_cashbee" width="68.516" height="23.795" viewBox="0 0 68.516 23.795">
    <defs>
        <style>
            .cls-1{fill:#ff9d1f}
        </style>
    </defs>
    <g id="그룹_461" data-name="그룹 461" transform="translate(0 11.199)">
        <g id="그룹_458" data-name="그룹 458" transform="translate(0 .022)">
            <g id="그룹_457" data-name="그룹 457">
                <g id="그룹_456" data-name="그룹 456">
                    <path id="패스_424" d="M375.721 83.218a2.631 2.631 0 0 1-1.024-1.005 2.73 2.73 0 0 1-.372-1.382 2.581 2.581 0 0 1 .811-1.915 2.812 2.812 0 0 1 2.034-.787 2.866 2.866 0 0 1 2.38 1.14l.585-.363a2.782 2.782 0 0 0-.674-.756 3.474 3.474 0 0 0-1.015-.514 4.026 4.026 0 0 0-1.243-.195 3.833 3.833 0 0 0-1.855.451 3.394 3.394 0 0 0-1.3 1.258 3.443 3.443 0 0 0-.471 1.749 3.188 3.188 0 0 0 1.012 2.371 3.529 3.529 0 0 0 2.548.975 3.986 3.986 0 0 0 1.787-.386 3.1 3.1 0 0 0 1.21-1.038c-.077-.055-.522-.343-.583-.385a2.947 2.947 0 0 1-2.374 1.138 2.993 2.993 0 0 1-1.456-.356z" data-name="패스 424" transform="translate(-373.576 -75.069)"/>
                    <path id="패스_425" d="M495.287 78.762c.057-.06.4-.418.467-.485a2.608 2.608 0 0 0-1.748-.837 1.732 1.732 0 0 0-1.254.48 1.616 1.616 0 0 0-.5 1.206 1.656 1.656 0 0 0 .313.99 3.291 3.291 0 0 0 1.195.884 3.823 3.823 0 0 1 1.082.718 1.042 1.042 0 0 1 .248.681 1.057 1.057 0 0 1-.374.805 1.291 1.291 0 0 1-.9.343 1.875 1.875 0 0 1-1.371-.708c-.062.068-.407.462-.462.523a2.347 2.347 0 0 0 .805.638 2.457 2.457 0 0 0 1.065.241 1.9 1.9 0 0 0 1.384-.546 1.811 1.811 0 0 0 .553-1.333 1.643 1.643 0 0 0-.324-1 3.745 3.745 0 0 0-1.265-.929 3.484 3.484 0 0 1-1.034-.708 1 1 0 0 1-.255-.644.892.892 0 0 1 .311-.674 1.064 1.064 0 0 1 .744-.288 1.993 1.993 0 0 1 1.32.643z" data-name="패스 425" transform="translate(-478.092 -75.069)"/>
                    <path id="패스_426" d="M534.187 59.962a2.275 2.275 0 0 0-1.279-.365 2.7 2.7 0 0 0-1.308.329 3.556 3.556 0 0 0-1.114 1l-.1.132v-3.832h-.738v9.006h.738v-2.356a8.648 8.648 0 0 1 .123-1.8 2.429 2.429 0 0 1 .818-1.284 2.137 2.137 0 0 1 1.408-.52 1.763 1.763 0 0 1 1.122.341 1.79 1.79 0 0 1 .59 1.012 7.955 7.955 0 0 1 .091 1.529v3.081h.737V62.9a5.364 5.364 0 0 0-.267-1.96 2.189 2.189 0 0 0-.821-.978z" data-name="패스 426" transform="translate(-511.346 -57.226)"/>
                    <g id="그룹_455" data-name="그룹 455" transform="translate(6.712 2.378)">
                        <path id="패스_427" d="M430.807 80.906a3.409 3.409 0 1 0 3.41-3.408 3.409 3.409 0 0 0-3.41 3.408zm.71 0a2.7 2.7 0 1 1 2.7 2.7 2.7 2.7 0 0 1-2.7-2.698z" data-name="패스 427" transform="translate(-430.807 -77.498)"/>
                        <path id="패스_428" d="M482.9 85.251h.724V78.8h-.724z" data-name="패스 428" transform="translate(-476.788 -78.647)"/>
                    </g>
                </g>
            </g>
        </g>
        <g id="그룹_460" data-name="그룹 460" transform="translate(25.947)">
            <g id="그룹_459" data-name="그룹 459">
                <path id="패스_429" d="M598.42 76.773a3.442 3.442 0 1 0 3.44 3.441 3.442 3.442 0 0 0-3.44-3.441zm0 6.169a2.726 2.726 0 1 1 2.725-2.725 2.726 2.726 0 0 1-2.725 2.725z" data-name="패스 429" transform="translate(-594.959 -74.459)"/>
                <path id="패스_430" d="M595.539 62.888h-.73V57.04h.732z" data-name="패스 430" transform="translate(-594.806 -57.04)"/>
            </g>
            <path id="패스_431" d="M660.88 76.382a3.149 3.149 0 0 0-2.6 1.236 3.6 3.6 0 0 0 .139 4.608 3.151 3.151 0 0 0 2.508 1.047 3.657 3.657 0 0 0 1.3-.218 3.244 3.244 0 0 0 1.03-.642 3.839 3.839 0 0 0 .78-1.063c-.083-.045-.547-.288-.622-.329a3.934 3.934 0 0 1-.712.915 2.649 2.649 0 0 1-.837.482 2.99 2.99 0 0 1-1.009.179 2.429 2.429 0 0 1-1.814-.761 2.768 2.768 0 0 1-.759-1.94v-.061h5.994a3.542 3.542 0 0 0-.72-2.186 3.242 3.242 0 0 0-2.678-1.267zm-2.454 2.771a2.85 2.85 0 0 1 .778-1.377 2.434 2.434 0 0 1 1.688-.633 2.683 2.683 0 0 1 1.134.251 2.4 2.4 0 0 1 .869.661 2.863 2.863 0 0 1 .5 1.1z" data-name="패스 431" transform="translate(-650.159 -74.114)"/>
            <path id="패스_432" d="M722.835 82.419a3.007 3.007 0 0 1-1.011.179 2.432 2.432 0 0 1-1.814-.761 2.774 2.774 0 0 1-.758-1.94v-.061h5.993a3.548 3.548 0 0 0-.717-2.186 3.247 3.247 0 0 0-2.678-1.269 3.142 3.142 0 0 0-2.6 1.236 3.521 3.521 0 0 0-.767 2.228 3.574 3.574 0 0 0 .907 2.381 3.145 3.145 0 0 0 2.508 1.047 3.637 3.637 0 0 0 1.3-.218 3.231 3.231 0 0 0 1.032-.642 3.9 3.9 0 0 0 .782-1.063 64.902 64.902 0 0 1-.622-.329 3.991 3.991 0 0 1-.714.915 2.667 2.667 0 0 1-.841.483zm-2.661-4.643a2.429 2.429 0 0 1 1.687-.633 2.687 2.687 0 0 1 1.134.251 2.385 2.385 0 0 1 .869.661 2.9 2.9 0 0 1 .5 1.1h-4.969a2.839 2.839 0 0 1 .779-1.379z" data-name="패스 432" transform="translate(-703.978 -74.114)"/>
        </g>
    </g>
    <g id="그룹_462" data-name="그룹 462" transform="translate(50.594)">
        <path id="패스_433" d="M809.492 46.651V46.51a4.44 4.44 0 0 1 8.878.141c0 .146-.009.289-.022.431a27.8 27.8 0 0 1 4.4 1.119 8.937 8.937 0 0 0-1.142-6.16 32.563 32.563 0 0 0-7.7-.883 32.939 32.939 0 0 0-8.922 1.175v3.777c-.01.179-.018.362-.018.544a9.062 9.062 0 0 0 .114 1.424 27.932 27.932 0 0 1 4.436-1.059 2.786 2.786 0 0 1-.024-.368z" data-name="패스 433" transform="translate(-804.96 -31.82)"/>
        <path id="패스_434" d="M809.63-38.445h-4.517v5.328a38.811 38.811 0 0 1 4.517-.79z" data-name="패스 434" transform="translate(-805.095 38.445)"/>
        <path id="패스_435" d="M824.6 132.651a8.957 8.957 0 0 0 13.2.123 23.93 23.93 0 0 0-13.2-.123z" data-name="패스 435" transform="translate(-822.299 -111.819)"/>
        <path id="패스_436" d="M821.738 5.933a8.964 8.964 0 0 0-12.108-3.178V.251a38.811 38.811 0 0 0-4.517.79v5.183a32.938 32.938 0 0 1 8.922-1.175 32.562 32.562 0 0 1 7.703.884z" class="cls-1" data-name="패스 436" transform="translate(-805.095 4.287)"/>
        <path id="패스_437" d="M821.323 96.9a8.926 8.926 0 0 0 2.283-4.575 27.8 27.8 0 0 0-4.4-1.119 4.438 4.438 0 0 1-8.839-.063 27.933 27.933 0 0 0-4.436 1.059 8.944 8.944 0 0 0 2.19 4.575 23.931 23.931 0 0 1 13.202.123z" class="cls-1" data-name="패스 437" transform="translate(-805.82 -75.947)"/>
    </g>
    <g id="그룹_465" data-name="그룹 465" transform="translate(.025 2.272)">
        <g id="그룹_463" data-name="그룹 463" transform="translate(.109)">
            <path id="패스_438" d="M376.564-18.588a2.219 2.219 0 0 1 .55-.113.189.189 0 0 0 .129-.066.194.194 0 0 0 .042-.134.186.186 0 0 0-.2-.175 2.724 2.724 0 0 0-.641.133 2.546 2.546 0 0 0-1.114.766 2.545 2.545 0 0 0-.6 1.869.189.189 0 0 0 .2.174.187.187 0 0 0 .172-.2 2.2 2.2 0 0 1 .513-1.6 2.2 2.2 0 0 1 .949-.654z" class="cls-1" data-name="패스 438" transform="translate(-374.719 19.076)"/>
            <path id="패스_439" d="M383-11.67a1.347 1.347 0 0 1 .349-.071.166.166 0 0 0 .127-.068.179.179 0 0 0 .044-.134.187.187 0 0 0-.2-.175 1.66 1.66 0 0 0-.44.095 1.706 1.706 0 0 0-.761.521 1.73 1.73 0 0 0-.408 1.27.187.187 0 0 0 .2.175.188.188 0 0 0 .17-.2 1.374 1.374 0 0 1 .323-1 1.353 1.353 0 0 1 .596-.413z" class="cls-1" data-name="패스 439" transform="translate(-380.884 12.935)"/>
            <path id="패스_440" d="M389.014-5.773a.9.9 0 0 0-.272.064.985.985 0 0 0-.409.286 1 1 0 0 0-.232.728.188.188 0 0 0 .2.17.187.187 0 0 0 .17-.2.62.62 0 0 1 .143-.455.593.593 0 0 1 .255-.18.52.52 0 0 1 .174-.041.185.185 0 0 0 .125-.064.177.177 0 0 0 .042-.137.186.186 0 0 0-.196-.171z" class="cls-1" data-name="패스 440" transform="translate(-386.529 7.333)"/>
        </g>
        <g id="그룹_464" data-name="그룹 464" transform="translate(0 5.155)">
            <path id="패스_441" d="M377.131 34.429a.9.9 0 0 0-.841.487.568.568 0 0 0-.273-.364.916.916 0 0 0-.476-.123.864.864 0 0 0-.819.468h-.011a.615.615 0 0 0-.129-.352.4.4 0 0 0-.317-.116.421.421 0 0 0-.479.472v1.686a.479.479 0 0 0 .136.367.589.589 0 0 0 .725 0 .479.479 0 0 0 .136-.367v-.922a.506.506 0 0 1 .1-.329.3.3 0 0 1 .231-.126.3.3 0 0 1 .249.1.524.524 0 0 1 .08.329v.952a.473.473 0 0 0 .136.367.505.505 0 0 0 .361.125.511.511 0 0 0 .363-.125.481.481 0 0 0 .134-.367v-.922a.507.507 0 0 1 .1-.329.3.3 0 0 1 .232-.126.307.307 0 0 1 .248.1.524.524 0 0 1 .08.329v.952a.48.48 0 0 0 .135.367.591.591 0 0 0 .726 0 .481.481 0 0 0 .135-.367V35.4a1.028 1.028 0 0 0-.24-.707.924.924 0 0 0-.722-.264z" class="cls-1" data-name="패스 441" transform="translate(-373.787 -33.309)"/>
            <path id="패스_442" d="M416.833 34.753a1.248 1.248 0 0 0-.449-.245 2.027 2.027 0 0 0-1.12 0 1.255 1.255 0 0 0-.449.245 1.077 1.077 0 0 0-.3.414 1.5 1.5 0 0 0-.106.584 1.519 1.519 0 0 0 .106.59 1.092 1.092 0 0 0 .3.415 1.261 1.261 0 0 0 .449.243 2.01 2.01 0 0 0 1.12 0 1.254 1.254 0 0 0 .449-.243 1.1 1.1 0 0 0 .3-.415 1.47 1.47 0 0 0 .107-.59 1.45 1.45 0 0 0-.107-.584 1.081 1.081 0 0 0-.3-.414zm-1.011 1.66c-.278 0-.419-.21-.419-.632a.969.969 0 0 1 .109-.517.372.372 0 0 1 .623 0 .978.978 0 0 1 .11.517c0 .419-.145.632-.423.632z" class="cls-1" data-name="패스 442" transform="translate(-409.645 -33.309)"/>
            <path id="패스_443" d="M444.813 27.73a1 1 0 0 0-.344-.333.975.975 0 0 0-.51-.128.807.807 0 0 0-.41.1.845.845 0 0 0-.289.285h-.01v-.839a.507.507 0 0 0-.123-.375.59.59 0 0 0-.72 0 .51.51 0 0 0-.122.375v2.623q0 .482.444.481a.4.4 0 0 0 .32-.127.473.473 0 0 0 .114-.326h.009a.527.527 0 0 0 .285.339 1.036 1.036 0 0 0 .474.114 1.022 1.022 0 0 0 .825-.359 1.452 1.452 0 0 0 .3-.973 1.685 1.685 0 0 0-.059-.428 1.459 1.459 0 0 0-.184-.429zm-.768 1.1a.6.6 0 0 1-.071.184.364.364 0 0 1-.132.131.426.426 0 0 1-.207.048.331.331 0 0 1-.3-.16.861.861 0 0 1-.1-.439.667.667 0 0 1 .105-.4.327.327 0 0 1 .276-.147.376.376 0 0 1 .342.163.717.717 0 0 1 .107.407 1.113 1.113 0 0 1-.02.216z" class="cls-1" data-name="패스 443" transform="translate(-434.25 -26.149)"/>
            <path id="패스_444" d="M470.323 34.429a.519.519 0 0 0-.365.125.478.478 0 0 0-.135.367v1.667a.48.48 0 0 0 .135.367.591.591 0 0 0 .726 0 .482.482 0 0 0 .135-.367v-1.667a.479.479 0 0 0-.135-.367.517.517 0 0 0-.361-.125z" class="cls-1" data-name="패스 444" transform="translate(-458.56 -33.309)"/>
            <path id="패스_445" d="M470.545 25.813a.471.471 0 0 0 .332-.8.478.478 0 0 0-.667 0 .469.469 0 0 0 .335.8z" class="cls-1" data-name="패스 445" transform="translate(-458.782 -24.876)"/>
            <path id="패스_446" d="M483.26 26.318a.5.5 0 0 0-.362.126.47.47 0 0 0-.136.366v2.618a.476.476 0 0 0 .136.367.587.587 0 0 0 .723 0 .478.478 0 0 0 .136-.367V26.81a.473.473 0 0 0-.136-.366.506.506 0 0 0-.361-.126z" class="cls-1" data-name="패스 446" transform="translate(-469.981 -26.149)"/>
            <path id="패스_447" d="M497.876 35.883a.389.389 0 0 0 .109-.314.942.942 0 0 0-.078-.353 1.216 1.216 0 0 0-.246-.375 1.272 1.272 0 0 0-.452-.3 1.774 1.774 0 0 0-.674-.116 1.868 1.868 0 0 0-.561.079 1.251 1.251 0 0 0-.448.245 1.074 1.074 0 0 0-.3.414 1.469 1.469 0 0 0-.107.584 1.489 1.489 0 0 0 .107.59 1.088 1.088 0 0 0 .3.415 1.257 1.257 0 0 0 .448.243 1.849 1.849 0 0 0 .561.08 3.443 3.443 0 0 0 .6-.044 1.539 1.539 0 0 0 .406-.126.618.618 0 0 0 .224-.18.346.346 0 0 0 .07-.208.33.33 0 0 0-.092-.228.286.286 0 0 0-.217-.1.5.5 0 0 0-.187.035 2.156 2.156 0 0 0-.215.109 2.03 2.03 0 0 1-.249.123.626.626 0 0 1-.229.041.493.493 0 0 1-.374-.143.6.6 0 0 1-.159-.384h1.412a.541.541 0 0 0 .351-.087zm-1.761-.4a.474.474 0 0 1 .145-.359.53.53 0 0 1 .657 0 .452.452 0 0 1 .13.359z" class="cls-1" data-name="패스 447" transform="translate(-480.891 -33.309)"/>
        </g>
        <path id="패스_448" d="M395-2.289l-.633-2.557a.249.249 0 0 1 .181-.3l2.89-.716a.251.251 0 0 1 .3.181l.887 3.581a1.7 1.7 0 0 1 .362.227 1.389 1.389 0 0 1 .132.143v-.011l-1.084-4.381a.745.745 0 0 0-.9-.544L394.439-6a.745.745 0 0 0-.544.9l.7 2.822a1.617 1.617 0 0 1 .267-.025c.047.003.089.01.138.014z" class="cls-1" data-name="패스 448" transform="translate(-391.517 8.141)"/>
    </g>
</svg>
