<svg xmlns="http://www.w3.org/2000/svg" width="30" height="30" viewBox="0 0 30 30">
    <defs>
        <style>
            .cls-1{fill:#313b48}.cls-2{fill:none}
        </style>
    </defs>
    <g id="main_menu_02_s" transform="translate(-94 -576)">
        <g id="그룹_519" data-name="그룹 519" transform="translate(-6355.841 2233.749)">
            <path id="패스_503" d="M6557.649-1546.168a.562.562 0 0 1-.059.025l-.671 1.743 1.516 3.816 2.3-.974-1.407-3.659z" class="cls-1" data-name="패스 503" transform="translate(-91.12 -99.763)"/>
            <path id="패스_504" d="M6472.779-1635.325l-.5-11.777a2.345 2.345 0 0 0-2.342-2.33h-.608v-1.794a4.519 4.519 0 0 0-4.514-4.514 4.519 4.519 0 0 0-4.514 4.514v1.794h-.607a2.347 2.347 0 0 0-2.344 2.33l-.506 11.777v.025a2.346 2.346 0 0 0 2.343 2.344h11.253a2.346 2.346 0 0 0 2.343-2.344.077.077 0 0 1-.004-.025zm-11.322-15.9a3.357 3.357 0 0 1 3.354-3.353 3.358 3.358 0 0 1 3.354 3.353v1.794h-6.708zm9.136 10.767l-3.384 1.432a.582.582 0 0 1-.226.046.584.584 0 0 1-.224-.045.578.578 0 0 1-.315-.321l-1.832-4.612a.574.574 0 0 1 0-.423l.948-2.464-.41-1.591a.58.58 0 0 1 .417-.707.58.58 0 0 1 .707.417l.393 1.522 2.293 1.3a.587.587 0 0 1 .256.3l1.695 4.408a.58.58 0 0 1-.319.737z" class="cls-1" data-name="패스 504" transform="translate(.001)"/>
        </g>
        <path id="사각형_299" d="M0 0h30v30H0z" class="cls-2" data-name="사각형 299" transform="translate(94 576)"/>
    </g>
</svg>
