<svg xmlns="http://www.w3.org/2000/svg" width="30" height="30" viewBox="0 0 30 30">
    <defs>
        <style>
            .cls-1{fill:#313b48}.cls-2{fill:none}
        </style>
    </defs>
    <g id="main_menu_01_s" transform="translate(-22 -576)">
        <g id="그룹_520" data-name="그룹 520" transform="translate(-6979.802 1718.95)">
            <path id="패스_505" d="M7028.171-1128.6l-10.871-10.191a.588.588 0 0 0-.8 0l-10.884 10.191a.587.587 0 0 0-.027.831.587.587 0 0 0 .43.186.586.586 0 0 0 .4-.158l2.064-1.933v9.592a2.929 2.929 0 0 0 2.925 2.925h2.232v-9.165a.587.587 0 0 1 .587-.588h5.333a.587.587 0 0 1 .588.588v9.165h2.232a2.928 2.928 0 0 0 2.925-2.925v-9.594l2.064 1.935a.588.588 0 0 0 .831-.027.588.588 0 0 0-.029-.832z" class="cls-1" data-name="패스 505"/>
        </g>
        <path id="사각형_298" d="M0 0h30v30H0z" class="cls-2" data-name="사각형 298" transform="translate(22 576)"/>
    </g>
</svg>
