<svg xmlns="http://www.w3.org/2000/svg" width="30" height="30" viewBox="0 0 30 30">
    <defs>
        <style>
            .cls-1{fill:none}.cls-2{fill:#313b48}
        </style>
    </defs>
    <g id="main_menu_04_n" transform="translate(-237 -576)">
        <path id="사각형_301" d="M0 0h30v30H0z" class="cls-1" data-name="사각형 301" transform="translate(237 576)"/>
        <g id="그룹_407" data-name="그룹 407" transform="translate(-5248.486 1612.511)">
            <g id="그룹_331" data-name="그룹 331" transform="translate(5492.047 -1032.511)">
                <path id="패스_346" d="M5505.641-1012.384h-11.187a2.409 2.409 0 0 1-2.406-2.407v-15.309a2.409 2.409 0 0 1 2.406-2.407h11.188a2.409 2.409 0 0 1 2.406 2.407v15.314a2.409 2.409 0 0 1-2.407 2.402zm-11.187-19.008a1.289 1.289 0 0 0-1.287 1.287v15.314a1.289 1.289 0 0 0 1.287 1.287h11.188a1.288 1.288 0 0 0 1.287-1.287v-15.309a1.288 1.288 0 0 0-1.287-1.287z" class="cls-2" data-name="패스 346" transform="translate(-5492.047 1032.511)"/>
            </g>
            <g id="그룹_332" data-name="그룹 332" transform="translate(5494.981 -1028.471)">
                <path id="패스_347" d="M5534.539-987.982h-8.98a.576.576 0 0 1-.576-.576.576.576 0 0 1 .576-.576h8.98a.576.576 0 0 1 .575.576.576.576 0 0 1-.575.576z" class="cls-2" data-name="패스 347" transform="translate(-5524.982 989.133)"/>
            </g>
            <g id="그룹_333" data-name="그룹 333" transform="translate(5494.981 -1024.918)">
                <path id="패스_348" d="M5534.539-949.838h-8.98a.576.576 0 0 1-.576-.575.576.576 0 0 1 .576-.575h8.98a.575.575 0 0 1 .575.575.575.575 0 0 1-.575.575z" class="cls-2" data-name="패스 348" transform="translate(-5524.982 950.989)"/>
            </g>
            <g id="그룹_334" data-name="그룹 334" transform="translate(5494.981 -1021.366)">
                <path id="패스_349" d="M5534.539-911.7h-8.98a.576.576 0 0 1-.576-.576.576.576 0 0 1 .576-.576h8.98a.576.576 0 0 1 .575.576.575.575 0 0 1-.575.576z" class="cls-2" data-name="패스 349" transform="translate(-5524.982 912.846)"/>
            </g>
            <g id="그룹_335" data-name="그룹 335" transform="translate(5494.981 -1017.813)">
                <path id="패스_350" d="M5534.539-873.551h-8.98a.576.576 0 0 1-.576-.576.576.576 0 0 1 .576-.576h8.98a.576.576 0 0 1 .575.576.576.576 0 0 1-.575.576z" class="cls-2" data-name="패스 350" transform="translate(-5524.982 874.702)"/>
            </g>
        </g>
    </g>
</svg>
