<svg xmlns="http://www.w3.org/2000/svg" width="30" height="30" viewBox="0 0 30 30">
    <defs>
        <style>
            .cls-1{fill:#313b48}.cls-2{fill:none}
        </style>
    </defs>
    <g id="main_menu_04_s" transform="translate(-237 -576)">
        <path id="패스_495" d="M5652.448-1570.723h-11.187a2.409 2.409 0 0 0-2.406 2.406V-1553a2.409 2.409 0 0 0 2.406 2.406h11.187a2.409 2.409 0 0 0 2.407-2.406v-15.314a2.409 2.409 0 0 0-2.407-2.409zm-1.226 15.842h-8.735a.56.56 0 0 1-.56-.56.56.56 0 0 1 .56-.56h8.735a.56.56 0 0 1 .56.56.56.56 0 0 1-.559.56zm0-3.558h-8.735a.56.56 0 0 1-.56-.56.56.56 0 0 1 .56-.56h8.735a.56.56 0 0 1 .56.56.56.56 0 0 1-.559.559zm0-3.558h-8.735a.56.56 0 0 1-.56-.56.56.56 0 0 1 .56-.56h8.735a.56.56 0 0 1 .56.56.56.56 0 0 1-.559.557zm0-3.558h-8.735a.56.56 0 0 1-.56-.56.56.56 0 0 1 .56-.56h8.735a.56.56 0 0 1 .56.56.56.56 0 0 1-.559.558z" class="cls-1" data-name="패스 495" transform="translate(-5394.855 2150.723)"/>
        <path id="사각형_301" d="M0 0h30v30H0z" class="cls-2" data-name="사각형 301" transform="translate(237 576)"/>
    </g>
</svg>
