<svg xmlns="http://www.w3.org/2000/svg" width="21" height="29" viewBox="0 0 21 29">
    <g id="btn_right" transform="translate(-202 -426)">
        <path id="사각형_244" fill="#fff" d="M0 0H21V29H0z" data-name="사각형 244" transform="translate(202 426)"/>
        <g id="icon_arrow" transform="translate(-6501.952 -4655.151)">
            <path id="패스_346" fill="#bbb" d="M6712.216 5101.277a.606.606 0 0 1-.454-.213.8.8 0 0 1 0-1.029l4.263-4.835-4.263-4.835a.8.8 0 0 1 0-1.029.589.589 0 0 1 .908 0l4.717 5.35a.8.8 0 0 1 0 1.029l-4.717 5.35a.6.6 0 0 1-.454.212z" data-name="패스 346"/>
        </g>
    </g>
</svg>
