<svg xmlns="http://www.w3.org/2000/svg" width="30" height="30" viewBox="0 0 30 30">
    <defs>
        <style>
            .cls-1{fill:none}.cls-2{fill:#313b48}
        </style>
    </defs>
    <g id="main_menu_03_n" transform="translate(-165 -576)">
        <path id="사각형_300" d="M0 0h30v30H0z" class="cls-1" data-name="사각형 300" transform="translate(165 576)"/>
        <g id="그룹_412" data-name="그룹 412" transform="translate(-5699.637 1404.442)">
            <path id="패스_362" d="M5924.131-633.294h-2.524a.554.554 0 0 0-.554.553.554.554 0 0 0 .554.553h2.524a.554.554 0 0 0 .554-.553.554.554 0 0 0-.554-.553z" class="cls-2" data-name="패스 362" transform="translate(-46.595 -172.821)"/>
            <path id="패스_363" d="M5889.42-819.894h-6.092v-3.1a2.45 2.45 0 0 0-2.446-2.447h-9.188a2.45 2.45 0 0 0-2.448 2.447v17.385a2.45 2.45 0 0 0 2.448 2.447h9.188a2.45 2.45 0 0 0 2.446-2.447v-3.562h6.092a1.964 1.964 0 0 0 1.962-1.961v-6.8a1.964 1.964 0 0 0-1.962-1.962zm-17.726-4.442h9.188a1.342 1.342 0 0 1 1.34 1.341v.488h-11.869v-.488a1.342 1.342 0 0 1 1.342-1.341zm9.188 20.066h-9.188a1.342 1.342 0 0 1-1.341-1.341v-1.049h11.869v1.049a1.342 1.342 0 0 1-1.339 1.341zm1.34-3.5h-11.869v-13.63h11.869v1.507h-4.554a1.964 1.964 0 0 0-1.961 1.962v6.8a1.964 1.964 0 0 0 1.961 1.961h4.554zm8.053-3.368a.857.857 0 0 1-.855.855h-11.751a.856.856 0 0 1-.855-.855v-6.8a.856.856 0 0 1 .855-.855h11.751a.857.857 0 0 1 .855.855z" class="cls-2" data-name="패스 363"/>
            <path id="패스_364" d="M5963-696.238h-1.5a.5.5 0 0 0-.5.5.5.5 0 0 0 .5.5h1.5a.5.5 0 0 0 .5-.5.5.5 0 0 0-.5-.5z" class="cls-2" data-name="패스 364" transform="translate(-82.522 -116.208)"/>
            <path id="패스_365" d="M5991.12-696.238h-1.5a.5.5 0 0 0-.5.5.5.5 0 0 0 .5.5h1.5a.5.5 0 0 0 .5-.5.5.5 0 0 0-.5-.5z" class="cls-2" data-name="패스 365" transform="translate(-107.813 -116.208)"/>
            <path id="패스_366" d="M6019.238-696.238h-1.5a.5.5 0 0 0-.5.5.5.5 0 0 0 .5.5h1.5a.5.5 0 0 0 .5-.5.5.5 0 0 0-.5-.5z" class="cls-2" data-name="패스 366" transform="translate(-133.102 -116.208)"/>
            <path id="패스_367" d="M6047.357-696.238h-1.5a.5.5 0 0 0-.5.5.5.5 0 0 0 .5.5h1.5a.5.5 0 0 0 .5-.5.5.5 0 0 0-.5-.5z" class="cls-2" data-name="패스 367" transform="translate(-158.394 -116.208)"/>
        </g>
    </g>
</svg>
