<svg xmlns="http://www.w3.org/2000/svg" width="30" height="30" viewBox="0 0 30 30">
    <defs>
        <style>
            .cls-1{fill:#313b48}.cls-2{fill:none}
        </style>
    </defs>
    <g id="main_menu_03_s" transform="translate(-165 -576)">
        <g id="그룹_518" data-name="그룹 518" transform="translate(-5896.975 2218.358)">
            <path id="패스_499" d="M6080.916-1636.912a2.49 2.49 0 0 0-2.488-2.488h-8.964a2.491 2.491 0 0 0-2.488 2.488v.457h13.94z" class="cls-1" data-name="패스 499"/>
            <path id="패스_500" d="M6066.975-1450.75a2.491 2.491 0 0 0 2.488 2.488h8.964a2.49 2.49 0 0 0 2.488-2.488v-.97h-13.94zm5.686 0h2.568a.562.562 0 0 1 .563.563.562.562 0 0 1-.562.563h-2.568a.563.563 0 0 1-.562-.563.563.563 0 0 1 .561-.567z" class="cls-1" data-name="패스 500" transform="translate(0 -168.486)"/>
            <path id="패스_501" d="M6072.548-1591.186v-7.564a2.3 2.3 0 0 1 2.3-2.3h6.065v-1.181h-13.94v14.48h13.94v-1.132h-6.065a2.3 2.3 0 0 1-2.3-2.303z" class="cls-1" data-name="패스 501" transform="translate(0 -33.366)"/>
            <path id="패스_502" d="M6141.743-1584.238h-11.949a2 2 0 0 0-1.995 1.994v6.913a2 2 0 0 0 1.995 1.994h11.949a2 2 0 0 0 1.994-1.994v-6.913a2 2 0 0 0-1.994-1.994zm-9.091 8.6h-1.526a.511.511 0 0 1-.511-.511.511.511 0 0 1 .511-.511h1.526a.511.511 0 0 1 .511.511.511.511 0 0 1-.512.506zm2.876 0H6134a.511.511 0 0 1-.511-.511.511.511 0 0 1 .511-.511h1.526a.511.511 0 0 1 .511.511.511.511 0 0 1-.51.506zm2.875 0h-1.526a.511.511 0 0 1-.511-.511.511.511 0 0 1 .511-.511h1.526a.511.511 0 0 1 .511.511.511.511 0 0 1-.514.506zm2.875 0h-1.526a.512.512 0 0 1-.511-.511.512.512 0 0 1 .511-.511h1.526a.511.511 0 0 1 .512.511.512.512 0 0 1-.512.506z" class="cls-1" data-name="패스 502" transform="translate(-54.603 -49.521)"/>
        </g>
        <path id="사각형_300" d="M0 0h30v30H0z" class="cls-2" data-name="사각형 300" transform="translate(165 576)"/>
    </g>
</svg>
