<svg xmlns="http://www.w3.org/2000/svg" width="30" height="30" viewBox="0 0 30 30">
    <path data-name="사각형 517" style="fill:none" d="M0 0h30v30H0z"/>
    <g data-name="그룹 802">
        <path data-name="패스 1888" d="M-2.808 0H-1.6v-3.783h1.574c2.08 0 3.51-.936 3.51-2.951 0-2.08-1.43-2.8-3.575-2.8h-2.717zM-1.6-4.758v-3.8h1.366c1.677 0 2.522.442 2.522 1.82s-.793 1.98-2.47 1.98z" transform="translate(15 19)" style="fill:#313b48"/>
        <path data-name="패스 1882" d="M10.661 1.06a9.767 9.767 0 0 1 6.239 2.3 9.426 9.426 0 0 1 3.363 7.3 9.6 9.6 0 1 1-9.6-9.6m0-1.06a10.661 10.661 0 1 0 10.66 10.661A10.674 10.674 0 0 0 10.661 0" transform="translate(4.339 3.339)" style="fill:#313b48"/>
        <g data-name="타원 109" transform="translate(20 15)" style="stroke:#313b48;fill:#fff">
            <circle cx="5" cy="5" r="5" style="stroke:none"/>
            <circle cx="5" cy="5" r="4.5" style="fill:none"/>
        </g>
        <g data-name="그룹 801">
            <path data-name="패스 1889" d="M10711.962-4011h5" transform="translate(-10689.339 4031)" style="stroke-linecap:round;stroke:#313b48;fill:none"/>
            <path data-name="패스 1890" d="M10711.962-4011h5" transform="rotate(90 3354.292 -7340.169)" style="stroke-linecap:round;stroke:#313b48;fill:none"/>
        </g>
    </g>
</svg>
