<svg xmlns="http://www.w3.org/2000/svg" width="30" height="30" viewBox="0 0 30 30">
    <defs>
        <style>
            .cls-1{fill:#313b48}.cls-2{fill:none}
        </style>
    </defs>
    <g id="main_menu_05_s" transform="translate(-308 -576)">
        <path id="패스_496" d="M5309.51-1502.518a8.81 8.81 0 0 0 1.66-5.143c0-5.138-4.486-9.319-10-9.319s-10 4.18-10 9.319 4.486 9.318 10 9.318a10.478 10.478 0 0 0 5.445-1.5l3.3.807a.546.546 0 0 0 .539-.169.546.546 0 0 0 .1-.555zm-12.712-4a1.047 1.047 0 0 1-1.047-1.048 1.047 1.047 0 0 1 1.047-1.048 1.048 1.048 0 0 1 1.048 1.048 1.048 1.048 0 0 1-1.046 1.044zm4.25 0a1.048 1.048 0 0 1-1.048-1.048 1.048 1.048 0 0 1 1.048-1.048 1.047 1.047 0 0 1 1.047 1.048 1.047 1.047 0 0 1-1.048 1.044zm4.249 0a1.048 1.048 0 0 1-1.048-1.048 1.048 1.048 0 0 1 1.048-1.048 1.047 1.047 0 0 1 1.047 1.048 1.047 1.047 0 0 1-1.044 1.044z" class="cls-1" data-name="패스 496" transform="translate(-4978.17 2097.979)"/>
        <path id="사각형_302" d="M0 0h30v30H0z" class="cls-2" data-name="사각형 302" transform="translate(308 576)"/>
    </g>
</svg>
