<svg xmlns="http://www.w3.org/2000/svg" width="30" height="30" viewBox="0 0 30 30">
    <defs>
        <style>
            .cls-1{fill:none}.cls-2{fill:#313b48}
        </style>
    </defs>
    <g id="main_menu_01_n" transform="translate(-22 -576)">
        <path id="사각형_298" d="M0 0h30v30H0z" class="cls-1" data-name="사각형 298" transform="translate(22 576)"/>
        <path id="패스_378" d="M7112.814-1419.663l-10.873-10.192a.587.587 0 0 0-.8 0l-10.885 10.192a.588.588 0 0 0-.028.831.587.587 0 0 0 .429.186.586.586 0 0 0 .4-.159l2.065-1.934v9.593a2.929 2.929 0 0 0 2.925 2.925h10.973a2.929 2.929 0 0 0 2.926-2.925v-9.595l2.065 1.935a.587.587 0 0 0 .831-.027.588.588 0 0 0-.028-.83zm-9.2 10.267h-4.158v-7.4h4.158zm5.157-1.75a1.752 1.752 0 0 1-1.75 1.75h-2.231v-7.99a.588.588 0 0 0-.588-.588h-5.334a.588.588 0 0 0-.588.588v7.99h-2.232a1.751 1.751 0 0 1-1.75-1.75v-10.694l7.242-6.781 7.23 6.778z" class="cls-2" data-name="패스 378" transform="translate(-7064.412 2010.014)"/>
    </g>
</svg>
