<svg xmlns="http://www.w3.org/2000/svg" width="30" height="30" viewBox="0 0 30 30">
    <defs>
        <style>
            .cls-1{fill:none}.cls-2{fill:#313b48}
        </style>
    </defs>
    <g id="main_menu_02_n" transform="translate(-94 -576)">
        <path id="사각형_299" d="M0 0h30v30H0z" class="cls-1" data-name="사각형 299" transform="translate(94 576)"/>
        <path id="패스_377" d="M6545.457-1307.507l-.505-11.771a2.345 2.345 0 0 0-2.342-2.329h-.61v-1.792a4.517 4.517 0 0 0-4.512-4.511 4.517 4.517 0 0 0-4.511 4.511v1.792h-.606a2.347 2.347 0 0 0-2.343 2.329l-.5 11.771v.025a2.345 2.345 0 0 0 2.342 2.342h11.247a2.345 2.345 0 0 0 2.342-2.342c-.002-.008-.002-.018-.002-.025zm-11.317-15.893a3.355 3.355 0 0 1 3.351-3.352 3.355 3.355 0 0 1 3.352 3.352v1.792h-6.7zm4.99 5.29a.56.56 0 0 0 .059-.025l1.695.959 1.418 3.688-2.319.982-1.528-3.847zm3.985 11.81h-11.247a1.184 1.184 0 0 1-1.183-1.171l.505-11.769v-.025a1.184 1.184 0 0 1 1.183-1.182h5.5l.368 1.426-.947 2.463a.581.581 0 0 0 0 .422l1.83 4.609a.584.584 0 0 0 .315.321.582.582 0 0 0 .224.045.576.576 0 0 0 .226-.046l3.382-1.432a.58.58 0 0 0 .316-.742l-1.695-4.406a.58.58 0 0 0-.256-.3l-2.292-1.3-.275-1.067h3.541a1.184 1.184 0 0 1 1.183 1.182v.025l.5 11.769a1.183 1.183 0 0 1-1.178 1.178z" class="cls-2" data-name="패스 377" transform="translate(-6428.667 1905.911)"/>
    </g>
</svg>
