<svg xmlns="http://www.w3.org/2000/svg" width="44" height="44" viewBox="0 0 44 44">
    <defs>
        <style>
            .cls-2{fill:#fff}
        </style>
    </defs>
    <g id="main_event_icon" transform="translate(-298 -137)">
        <path id="합치기_5" fill="#e44949" d="M9.843 40.339c-.421.224-3.062 1.626-4 2.059A1.1 1.1 0 0 1 4.4 40.817c.49-.875 1.392-2.9 1.7-3.61a21.967 21.967 0 1 1 3.741 3.131z" transform="translate(298 137)"/>
        <path id="패스_1851" d="M6494.52 7162.961h-3.053a1.305 1.305 0 0 0 .4-.43 1.18 1.18 0 0 0-.141-1.274 1.27 1.27 0 0 0-1.118-.653c-.837.018-1.667.907-2.194 1.609-.522-.706-1.337-1.589-2.167-1.615a1.274 1.274 0 0 0-1.125.641 1.183 1.183 0 0 0-.153 1.272 1.314 1.314 0 0 0 .418.449h-3.16a.822.822 0 0 0-.822.822v2.343a.822.822 0 0 0 .487.75v6.38a1.526 1.526 0 0 0 1.575 1.576h9.811a1.526 1.526 0 0 0 1.577-1.576v-6.38a.824.824 0 0 0 .487-.75v-2.343a.823.823 0 0 0-.822-.821zm-.033 3.126a.316.316 0 0 0-.058-.006h-5.629v-2.219l1.771 1.714a.427.427 0 1 0 .594-.613l-1.181-1.146h4.5zm-3.858-4.628h.014c.064 0 .205.016.371.269.116.175.15.309.1.4-.179.331-1.125.542-2.027.623.494-.658 1.113-1.282 1.542-1.292zm-4.793.258c.164-.246.3-.264.369-.264h.017c.424.014 1.042.644 1.527 1.3-.9-.089-1.845-.31-2.02-.642-.047-.086-.012-.219.106-.394zm.859 2.1l-1.288 1.073a.428.428 0 0 0 .548.658l1.992-1.66v2.193h-5.625a.342.342 0 0 0-.059.006v-2.271zm-3.946 9.439v-6.32h5.2v7.04h-4.478a.669.669 0 0 1-.722-.72zm10.531.72h-4.48v-7.04h5.2v6.32a.669.669 0 0 1-.72.72z" class="cls-2" transform="translate(-6168.383 -7015.555)"/>
        <g id="그룹_741" transform="translate(-5945.485 -6912.584)">
            <path id="패스_1852" d="M6253.1 7076.407h3.666v.817h-2.688v1.728h2.275v.827h-2.275v2.005h2.781v.826h-3.759z" class="cls-2"/>
            <path id="패스_1853" d="M6259.112 7076.407h1.038l.919 3.211c.21.708.345 1.315.564 2.03h.042c.211-.715.362-1.322.565-2.03l.918-3.211h.994l-1.938 6.2h-1.154z" class="cls-2" transform="translate(-1.788)"/>
            <path id="패스_1854" d="M6267.428 7076.407h3.666v.817h-2.689v1.728h2.276v.827h-2.276v2.005h2.781v.826h-3.758z" class="cls-2" transform="translate(-4.261)"/>
            <path id="패스_1855" d="M6274.627 7076.407h1l2.055 3.641.649 1.315h.042c-.05-.641-.126-1.391-.126-2.064v-2.891h.928v6.2h-1l-2.056-3.658-.649-1.3h-.042c.051.64.126 1.356.126 2.03v2.924h-.927z" class="cls-2" transform="translate(-6.401)"/>
            <path id="패스_1856" d="M6284.464 7077.224h-1.819v-.817h4.626v.817h-1.83v5.385h-.978z" class="cls-2" transform="translate(-8.786)"/>
        </g>
    </g>
</svg>
