<svg xmlns="http://www.w3.org/2000/svg" width="36" height="36" viewBox="0 0 36 36">
    <defs>
        <style>
            .cls-1{fill:none}.cls-2{fill:#fff}.cls-3{fill:#3e434b}.cls-4{fill:#11b7eb}
        </style>
    </defs>
    <g id="icon_giftbox" transform="translate(-295 -228)">
        <path id="사각형_220" d="M0 0h36v36H0z" class="cls-1" data-name="사각형 220" transform="translate(295 228)"/>
        <g id="그룹_361" data-name="그룹 361" transform="translate(300.103 231.577)">
            <rect id="사각형_226" width="24" height="22" class="cls-2" data-name="사각형 226" rx="2" transform="translate(.897 5.423)"/>
            <g id="사각형_43_1_" transform="translate(.017 4.485)">
                <g id="그룹_351" data-name="그룹 351">
                    <g id="그룹_350" data-name="그룹 350">
                        <path id="패스_336" d="M-260.775-440.516h-21.1a2.112 2.112 0 0 1-2.109-2.109v-19.057a2.112 2.112 0 0 1 2.109-2.109h21.1a2.112 2.112 0 0 1 2.109 2.109v19.057a2.1 2.1 0 0 1-2.109 2.109zm-21.1-22.224a1.058 1.058 0 0 0-1.059 1.059v19.057a1.058 1.058 0 0 0 1.059 1.059h21.1a1.058 1.058 0 0 0 1.059-1.059v-19.057a1.058 1.058 0 0 0-1.059-1.059h-21.1z" class="cls-3" data-name="패스 336" transform="translate(283.98 463.79)"/>
                    </g>
                </g>
            </g>
            <g id="그룹_352" data-name="그룹 352" transform="translate(12.033 5.062)">
                <path id="사각형_219" d="M0 0h1.2v22.121H0z" class="cls-3" data-name="사각형 219"/>
            </g>
            <g id="그룹_353" data-name="그룹 353" transform="translate(0 15.477)">
                <path id="패스_337" d="M24.712 19.18H.646a.6.6 0 1 1 0-1.2h24.066a.6.6 0 1 1 0 1.2z" class="cls-3" data-name="패스 337" transform="translate(0 -17.98)"/>
            </g>
            <g id="그룹_360" data-name="그룹 360" transform="translate(5.475 .005)">
                <g id="그룹_356" data-name="그룹 356">
                    <g id="그룹_354" data-name="그룹 354">
                        <path id="패스_338" d="M13.4 5.286c-1.007 0-6.731-.129-7.032-3.142a1.969 1.969 0 0 1 1-1.851A2.781 2.781 0 0 1 10.5.75a16.211 16.211 0 0 1 3.469 3.632.588.588 0 0 1 .031.594.568.568 0 0 1-.508.31.347.347 0 0 0-.092 0zM8.486 1.163a1.007 1.007 0 0 0-.534.138.8.8 0 0 0-.43.723c.138 1.394 2.892 1.9 4.751 2.049a13.925 13.925 0 0 0-2.461-2.385 2.332 2.332 0 0 0-1.326-.525z" class="cls-4" data-name="패스 338" transform="translate(-6.361 -.005)"/>
                    </g>
                    <g id="그룹_355" data-name="그룹 355" transform="translate(6.697)">
                        <path id="패스_339" d="M14.8 5.286h-.086a.578.578 0 0 1-.508-.31.569.569 0 0 1 .034-.594A16.211 16.211 0 0 1 17.712.75a2.782 2.782 0 0 1 3.133-.457 1.962 1.962 0 0 1 1 1.851c-.311 3.004-6.035 3.142-7.045 3.142zm4.923-4.123a2.377 2.377 0 0 0-1.334.525 13.925 13.925 0 0 0-2.459 2.384c1.868-.146 4.614-.654 4.751-2.049a.811.811 0 0 0-.422-.732 1.088 1.088 0 0 0-.533-.128z" class="cls-4" data-name="패스 339" transform="translate(-14.141 -.005)"/>
                    </g>
                </g>
                <g id="그룹_359" data-name="그룹 359" transform="translate(.586 4.106)">
                    <g id="그룹_357" data-name="그룹 357" transform="translate(0 .006)">
                        <path id="패스_340" d="M7.626 10.177a.581.581 0 0 1-.336-1.059l6.137-4.235a.581.581 0 0 1 .663.955l-6.137 4.236a.587.587 0 0 1-.327.103z" class="cls-4" data-name="패스 340" transform="translate(-7.042 -4.782)"/>
                    </g>
                    <g id="그룹_358" data-name="그룹 358" transform="translate(5.937)">
                        <path id="패스_341" d="M20.654 10.176a.567.567 0 0 1-.327-.1L14.19 5.838a.58.58 0 0 1-.146-.809.572.572 0 0 1 .809-.146l6.137 4.235a.581.581 0 0 1-.336 1.059z" class="cls-4" data-name="패스 341" transform="translate(-13.94 -4.775)"/>
                    </g>
                </g>
            </g>
        </g>
    </g>
</svg>
