<svg xmlns="http://www.w3.org/2000/svg" width="36" height="36" viewBox="0 0 36 36">
    <defs>
        <style>
            .cls-1{fill:none}.cls-2{fill:#fff}.cls-3{fill:#3e434b}.cls-4{fill:#11b7eb}
        </style>
    </defs>
    <g id="main_icon_06" transform="translate(-126 -384)">
        <path id="사각형_191" d="M0 0h36v36H0z" class="cls-1" data-name="사각형 191" transform="translate(126 384)"/>
        <g id="그룹_335" data-name="그룹 335" transform="translate(128.878 387.838)">
            <g id="그룹_330" data-name="그룹 330">
                <g id="그룹_313" data-name="그룹 313">
                    <g id="그룹_167" data-name="그룹 167">
                        <g id="사각형_43" data-name="사각형 43" transform="translate(2.249)">
                            <g id="그룹_236" data-name="그룹 236">
                                <rect id="사각형_170" width="25.447" height="27.567" class="cls-2" data-name="사각형 170" rx="2.451"/>
                            </g>
                            <g id="그룹_237" data-name="그룹 237">
                                <path id="패스_238" d="M795.509 494.309H774.3a2.122 2.122 0 0 1-2.12-2.121v-23.325a2.122 2.122 0 0 1 2.12-2.121h21.205a2.122 2.122 0 0 1 2.121 2.121v23.326a2.122 2.122 0 0 1-2.117 2.12zM774.3 467.8a1.062 1.062 0 0 0-1.061 1.061v23.326a1.062 1.062 0 0 0 1.061 1.061h21.205a1.062 1.062 0 0 0 1.061-1.061v-23.324a1.062 1.062 0 0 0-1.061-1.061z" class="cls-3" data-name="패스 238" transform="translate(-772.183 -466.742)"/>
                            </g>
                        </g>
                        <g id="그룹_31" data-name="그룹 31" transform="translate(0 4.551)">
                            <g id="패스_32" data-name="패스 32">
                                <path id="패스_239" d="M772.754 472.615h24.21l2.961 4.9s.08 2.262 0 2.563a2.4 2.4 0 0 1-2.165 1.148 3.561 3.561 0 0 1-2.253-.972 2.819 2.819 0 0 1-2.253.972 2.58 2.58 0 0 1-2.209-1.148 2.289 2.289 0 0 1-2.032 1.148 2.49 2.49 0 0 0-4.2 0 2.535 2.535 0 0 1-1.988-1.148 2.844 2.844 0 0 1-2.164 1.148 2.35 2.35 0 0 1-1.988-1.148 2.463 2.463 0 0 1-2.164 1.148 2.138 2.138 0 0 1-2.032-1.148 2.333 2.333 0 0 1-2.3 1.148 1.78 1.78 0 0 1-1.987-1.414V477.3z" class="cls-2" data-name="패스 239" transform="translate(-769.666 -472.085)"/>
                                <path id="패스_240" d="M776.255 481.682a2.631 2.631 0 0 1-1.871-.806 3.2 3.2 0 0 1-2.284.8 2.313 2.313 0 0 1-2.513-1.88v-2.717l2.771-5.079h24.823l3.186 5.278.005.137a18.74 18.74 0 0 1-.017 2.718l-.06.139a2.935 2.935 0 0 1-2.641 1.4 4.1 4.1 0 0 1-2.2-.786 3.324 3.324 0 0 1-2.306.786 3.018 3.018 0 0 1-2.166-.838 2.846 2.846 0 0 1-2.063.838 2.922 2.922 0 0 0-4.154 0 3.134 3.134 0 0 1-2.038-.871 3.354 3.354 0 0 1-2.123.871 2.928 2.928 0 0 1-2.018-.836 3.024 3.024 0 0 1-2.174.837 1.026 1.026 0 0 1-.157.009zm-1.889-2.876l.5.947a1.617 1.617 0 0 0 1.529.864 2.041 2.041 0 0 0 1.749-.9l.462-.732.442.745a1.827 1.827 0 0 0 1.538.889 2.291 2.291 0 0 0 1.732-.934l.455-.613.415.639a2.008 2.008 0 0 0 1.571.908 2.105 2.105 0 0 0 1.568-.919l.437-.638.437.638a2.111 2.111 0 0 0 1.73.918 1.783 1.783 0 0 0 1.569-.883l.427-.741.474.712a2.023 2.023 0 0 0 1.755.912 2.283 2.283 0 0 0 1.865-.789l.363-.419.4.382a3.036 3.036 0 0 0 1.919.827 1.894 1.894 0 0 0 1.629-.813c.023-.293.01-1.313-.021-2.212l-2.734-4.529h-23.6l-2.344 4.289v2.339c.04.208.265.927 1.457.927 1.41 0 1.8-.8 1.813-.831z" class="cls-3" data-name="패스 240" transform="translate(-769.583 -472.002)"/>
                            </g>
                            <g id="패스_33" data-name="패스 33" transform="translate(4.326 .385)">
                                <path id="패스_241" d="M775.644 480.059h-1.06v-2.729l2.4-4.882.951.467-2.286 4.661z" class="cls-3" data-name="패스 241" transform="translate(-774.584 -472.447)"/>
                            </g>
                            <g id="패스_34" data-name="패스 34" transform="translate(8.391 .666)">
                                <path id="패스_242" d="M780.342 480.057h-1.06l.029-2.665 1.59-4.621 1 .345-1.561 4.537z" class="cls-3" data-name="패스 242" transform="translate(-779.281 -472.772)"/>
                            </g>
                            <g id="패스_35" data-name="패스 35" transform="translate(12.72 .783)">
                                <path id="패스_243" d="M785.346 480.076h-1.06v-2.562l.488-4.607 1.055.112-.485 4.551z" class="cls-3" data-name="패스 243" transform="translate(-784.286 -472.907)"/>
                            </g>
                            <g id="패스_36" data-name="패스 36" transform="translate(16.126 .686)">
                                <path id="패스_244" d="M789.852 480.326h-1.06v-2.784l-.571-4.618 1.052-.13.575 4.683z" class="cls-3" data-name="패스 244" transform="translate(-788.221 -472.794)"/>
                            </g>
                            <g id="패스_37" data-name="패스 37" transform="translate(19.498 .697)">
                                <path id="패스_245" d="M794.443 480.283h-1.06v-2.667l-1.263-4.525 1.022-.284 1.3 4.737z" class="cls-3" data-name="패스 245" transform="translate(-792.12 -472.807)"/>
                            </g>
                            <g id="패스_38" data-name="패스 38" transform="translate(23.14 .639)">
                                <path id="패스_246" d="M799.251 480.5h-1.06v-2.769l-1.862-4.587.983-.4 1.939 4.779z" class="cls-3" data-name="패스 246" transform="translate(-796.329 -472.741)"/>
                            </g>
                            <g id="패스_39" data-name="패스 39" transform="translate(.527 4.815)">
                                <path id="사각형_171" d="M0 0h29.732v1.06H0z" class="cls-3" data-name="사각형 171"/>
                            </g>
                        </g>
                        <g id="타원_7" data-name="타원 7" transform="translate(5.077 2.121)">
                            <g id="그룹_238" data-name="그룹 238">
                                <circle id="타원_50" cx=".707" cy=".707" r=".707" class="cls-2" data-name="타원 50"/>
                            </g>
                            <g id="그룹_239" data-name="그룹 239">
                                <path id="패스_247" d="M776.158 470.607a.707.707 0 1 1 .707-.707.707.707 0 0 1-.707.707zm0-1.061v.354z" class="cls-3" data-name="패스 247" transform="translate(-775.451 -469.193)"/>
                            </g>
                        </g>
                        <g id="타원_8" data-name="타원 8" transform="translate(7.904 2.121)">
                            <g id="그룹_240" data-name="그룹 240">
                                <circle id="타원_51" cx=".707" cy=".707" r=".707" class="cls-2" data-name="타원 51"/>
                            </g>
                            <g id="그룹_241" data-name="그룹 241">
                                <path id="패스_248" d="M779.426 470.607a.707.707 0 1 1 .707-.707.707.707 0 0 1-.707.707zm0-1.061v.354z" class="cls-3" data-name="패스 248" transform="translate(-778.719 -469.193)"/>
                            </g>
                        </g>
                        <g id="타원_9" data-name="타원 9" transform="translate(10.732 2.121)">
                            <g id="그룹_242" data-name="그룹 242">
                                <circle id="타원_52" cx=".707" cy=".707" r=".707" class="cls-2" data-name="타원 52"/>
                            </g>
                            <g id="그룹_243" data-name="그룹 243">
                                <path id="패스_249" d="M782.694 470.607a.707.707 0 1 1 .707-.707.707.707 0 0 1-.707.707zm0-1.061v.354z" class="cls-3" data-name="패스 249" transform="translate(-781.987 -469.193)"/>
                            </g>
                        </g>
                        <g id="사각형_44" data-name="사각형 44" transform="translate(6.49 16.964)">
                            <g id="그룹_244" data-name="그룹 244">
                                <rect id="사각형_172" width="5.655" height="5.655" class="cls-2" data-name="사각형 172" rx=".817"/>
                            </g>
                            <g id="그룹_245" data-name="그룹 245">
                                <path id="패스_250" d="M782.033 492h-4.241a.707.707 0 0 1-.707-.707v-4.241a.707.707 0 0 1 .707-.707h4.241a.707.707 0 0 1 .707.707v4.248a.707.707 0 0 1-.707.7zm-3.888-1.06h3.534v-3.534h-3.534z" class="cls-4" data-name="패스 250" transform="translate(-777.085 -486.35)"/>
                            </g>
                        </g>
                        <g id="사각형_45" data-name="사각형 45" transform="translate(14.266 16.964)">
                            <path id="패스_251" d="M786.6 486.35h8.835a.53.53 0 0 1 .531.53.53.53 0 0 1-.531.53H786.6a.53.53 0 0 1-.53-.53.53.53 0 0 1 .53-.53z" class="cls-3" data-name="패스 251" transform="translate(-786.072 -486.35)"/>
                        </g>
                        <g id="사각형_46" data-name="사각형 46" transform="translate(14.266 19.085)">
                            <path id="패스_252" d="M786.6 488.8h3.887a.53.53 0 0 1 .53.53.53.53 0 0 1-.53.53H786.6a.53.53 0 0 1-.53-.53.53.53 0 0 1 .53-.53z" class="cls-3" data-name="패스 252" transform="translate(-786.072 -488.801)"/>
                        </g>
                        <g id="사각형_47" data-name="사각형 47" transform="translate(14.266 21.205)">
                            <path id="패스_253" d="M786.6 491.252h3.887a.53.53 0 0 1 .53.53.53.53 0 0 1-.53.53H786.6a.53.53 0 0 1-.53-.53.53.53 0 0 1 .53-.53z" class="cls-3" data-name="패스 253" transform="translate(-786.072 -491.252)"/>
                        </g>
                    </g>
                </g>
            </g>
        </g>
    </g>
</svg>
