<svg xmlns="http://www.w3.org/2000/svg" width="57" height="23" viewBox="0 0 57 23">
    <defs>
        <style>
            .cls-1{fill:#315288}.cls-2{fill:#fff}
        </style>
    </defs>
    <g id="nfc_on" transform="translate(-18 -23)">
        <rect id="사각형_233" width="57" height="23" class="cls-1" data-name="사각형 233" rx="11.5" transform="translate(18 23)"/>
        <rect id="사각형_234" width="25" height="17" class="cls-2" data-name="사각형 234" rx="8.5" transform="translate(47 26)"/>
        <path id="패스_510" d="M-9.355 0h.968v-4.235c0-.847-.077-1.7-.121-2.519h.044l.864 1.661L-4.658 0h1.045v-8.063h-.968v4.191c0 .836.077 1.738.132 2.552H-4.5l-.858-1.661L-8.3-8.063h-1.055zm7.942 0H-.39v-3.619h3.08v-.858H-.39v-2.728h3.63v-.858h-4.653zm9 .143a3.117 3.117 0 0 0 2.473-1.155L9.5-1.65a2.451 2.451 0 0 1-1.87.9c-1.54 0-2.508-1.276-2.508-3.311 0-2.013 1.012-3.267 2.541-3.267a2.2 2.2 0 0 1 1.65.77l.55-.66a2.981 2.981 0 0 0-2.211-1c-2.046 0-3.575 1.584-3.575 4.191S5.582.143 7.584.143z" class="cls-2" data-name="패스 510" transform="translate(34 39.143)"/>
        <path id="패스_511" d="M-3.37.126C-1.606.126-.391-1.2-.391-3.357S-1.606-6.786-3.37-6.786s-2.979 1.26-2.979 3.429S-5.134.126-3.37.126zm0-1.152c-.99 0-1.62-.909-1.62-2.331s.63-2.286 1.62-2.286 1.62.855 1.62 2.286-.63 2.331-1.62 2.331zM.914 0h1.26v-2.673c0-.765-.1-1.6-.162-2.322h.045l.675 1.431L4.658 0h1.35v-6.66h-1.26v2.655c0 .756.1 1.638.171 2.331h-.045l-.666-1.44L2.273-6.66H.914z" class="cls-1" data-name="패스 511" transform="translate(60 37.5)"/>
    </g>
</svg>
