<svg xmlns="http://www.w3.org/2000/svg" width="21" height="21" viewBox="0 0 21 21">
    <g id="prefix__point_refresh" transform="translate(-272 -114)">
        <g id="prefix__타원_69" fill="none" stroke="#6f6f6f" stroke-width="0.5px" data-name="타원 69" transform="translate(272 114)">
            <circle cx="10.5" cy="10.5" r="10.5" stroke="none"/>
            <circle cx="10.5" cy="10.5" r="10.25"/>
        </g>
        <path id="prefix__패스_530" fill="#6f6f6f" d="M6711.472 5915.931a5.4 5.4 0 0 0-5.351 4.733l-.72-1.514a.247.247 0 0 0-.447.212l1.1 2.32a.244.244 0 0 0 .181.138.2.2 0 0 0 .042 0 .248.248 0 0 0 .176-.072l1.791-1.792a.247.247 0 0 0-.35-.35l-1.3 1.306a4.9 4.9 0 1 1 2.064 4.417.248.248 0 1 0-.286.4 5.393 5.393 0 1 0 3.1-9.805z" data-name="패스 530" transform="translate(-6428.844 -5797.031)"/>
    </g>
</svg>
