<svg xmlns="http://www.w3.org/2000/svg" width="19" height="19" viewBox="0 0 19 19">
    <g>
        <path fill="#fff" d="M0 0H19V19H0z" transform="translate(-253 -211) translate(253 211)"/>
        <path fill="#3c4e6b" d="M3352.833 6362.256v-1.533a3.048 3.048 0 0 0-6.1 0v1.533a4.46 4.46 0 1 0 6.1 0zm-4.8-1.473a1.748 1.748 0 1 1 3.5 0v.625a4.477 4.477 0 0 0-3.5 0zm2.215 5.136v1.125a.466.466 0 1 1-.933 0v-1.125a1.143 1.143 0 1 1 .933 0z" transform="translate(-253 -211) translate(-3086.981 -6143.661)"/>
    </g>
</svg>
